<svg width="120" height="119" viewBox="0 0 120 119" fill="none" xmlns="http://www.w3.org/2000/svg">
<g clip-path="url(#clip0_164_960)">
<rect y="-1" width="120" height="120" rx="30" fill="#FF8D4D"/>
<g clip-path="url(#clip1_164_960)">
<path d="M77.8053 96.2926C77.8053 96.2926 102.075 73.5744 107.742 60.6599C112.18 50.2906 120.49 56.6065 122.474 58.209C124.457 59.8115 130.784 67.1643 121.435 78.1935C112.086 89.2226 96.6925 105.908 80.5439 108.076C64.3953 110.244 77.8053 96.2926 77.8053 96.2926Z" fill="#F0D246" stroke="#524740" stroke-width="1.41833" stroke-linecap="round" stroke-linejoin="round"/>
<path d="M116.146 55.4751C116.819 53.6343 117.139 51.6837 117.091 49.7249C117.091 46.237 116.335 39.9212 119.263 40.1097C122.19 40.2982 121.813 44.446 121.813 44.446C121.813 44.446 126.534 35.0193 132.106 37.5645C137.678 40.1097 141.739 49.1593 134.845 55.0038C127.951 60.8483 124.835 63.8648 121.813 61.8852C118.791 59.9056 115.391 57.1719 116.146 55.4751Z" fill="white" stroke="#524740" stroke-width="1.41833" stroke-linecap="round" stroke-linejoin="round"/>
<path d="M33.5147 95.8212C33.5147 95.8212 24.3543 104.777 18.3104 122.122C12.2665 139.467 14.0608 143.709 19.1603 145.405C24.2599 147.102 30.3983 148.799 30.5871 143.049C30.776 137.298 32.948 119.199 36.2533 111.658C40.7863 101.76 41.9195 97.0467 38.5198 94.7843C36.7255 93.5588 34.8368 94.5958 33.5147 95.8212Z" fill="#F0D246" stroke="#524740" stroke-width="1.41833" stroke-linecap="round" stroke-linejoin="round"/>
<path d="M90.082 134.942C89.9876 151.061 75.9165 151.061 58.918 150.779C41.9195 150.496 28.5095 151.533 28.5095 133.999C28.5095 114.015 43.0527 85.5463 60.0513 85.7348C77.0498 85.9234 90.082 114.957 90.082 134.942Z" fill="white" stroke="#524740" stroke-width="1.35414" stroke-miterlimit="10"/>
<path d="M52.4019 112.412L52.3075 120.519L58.5403 123.441L64.8675 120.708L64.962 112.601L58.7292 109.678L52.4019 112.412Z" fill="#2F322E"/>
<path d="M58.6348 115.146L63.9232 112.789L58.7292 110.338L53.4408 112.695L58.6348 115.146Z" fill="#E9AA30"/>
<path d="M59.0125 115.617L58.8236 122.593L64.2065 120.33L64.3009 113.355L59.0125 115.617Z" fill="white"/>
<path d="M58.3514 115.617L53.0629 113.166L52.9685 120.142L58.2569 122.593L58.3514 115.617Z" fill="white"/>
<path d="M105.569 33.7939H13.1163V99.2148H105.569V33.7939Z" fill="white" stroke="#524740" stroke-width="1.41833" stroke-linecap="round" stroke-linejoin="round"/>
<path d="M93.4816 17.4858H25.0153L13.1163 33.7939H105.475L93.4816 17.4858Z" fill="#F0D246" stroke="#524740" stroke-width="1.41833" stroke-linecap="round" stroke-linejoin="round"/>
<path d="M66.1896 68.2012C65.345 69.2481 64.2608 70.0772 63.0282 70.6186C61.7956 71.1599 60.4507 71.3977 59.1068 71.312C57.8517 71.3464 56.6037 71.1118 55.447 70.624C54.2904 70.1361 53.252 69.4064 52.4019 68.484" stroke="#524740" stroke-width="1.41833" stroke-linecap="round" stroke-linejoin="round"/>
<path d="M79.505 67.7299C82.6344 67.7299 85.1712 65.1977 85.1712 62.074C85.1712 58.9502 82.6344 56.418 79.505 56.418C76.3757 56.418 73.8389 58.9502 73.8389 62.074C73.8389 65.1977 76.3757 67.7299 79.505 67.7299Z" fill="#524740"/>
<path d="M38.9919 67.7299C42.1212 67.7299 44.658 65.1977 44.658 62.074C44.658 58.9502 42.1212 56.418 38.9919 56.418C35.8625 56.418 33.3257 58.9502 33.3257 62.074C33.3257 65.1977 35.8625 67.7299 38.9919 67.7299Z" fill="#524740"/>
</g>
</g>
<defs>
<clipPath id="clip0_164_960">
<rect width="120" height="119" rx="30" fill="white"/>
</clipPath>
<clipPath id="clip1_164_960">
<rect width="129" height="183" fill="white" transform="translate(10 17)"/>
</clipPath>
</defs>
</svg>
