<svg width="120" height="119" viewBox="0 0 120 119" fill="none" xmlns="http://www.w3.org/2000/svg">
<g clip-path="url(#clip0_164_961)">
<rect y="-1" width="120" height="120" rx="30" fill="#FF9D9D"/>
<g clip-path="url(#clip1_164_961)">
<path d="M77.6408 96.2906C77.6408 96.2906 102.062 73.5688 107.646 60.6523C112.19 50.2814 120.519 56.5982 122.507 58.201C124.495 59.8038 130.837 67.1577 121.371 78.1886C111.906 89.2195 96.6665 105.907 80.4805 108.076C64.2945 110.244 77.6408 96.2906 77.6408 96.2906Z" fill="#F0D246" stroke="#524740" stroke-width="1.41855" stroke-linecap="round" stroke-linejoin="round"/>
<path d="M116.165 55.4668C116.84 53.6257 117.161 51.6748 117.112 49.7156C117.112 46.2272 116.355 39.9104 119.289 40.0989C122.223 40.2875 121.845 44.4359 121.845 44.4359C121.845 44.4359 126.577 35.0078 132.162 37.5534C137.747 40.0989 141.817 49.15 134.907 54.9954C127.997 60.8408 124.874 63.8578 121.845 61.8779C118.816 59.898 115.408 57.1639 116.165 55.4668Z" fill="white" stroke="#524740" stroke-width="1.41855" stroke-linecap="round" stroke-linejoin="round"/>
<path d="M38.3591 96.2906C38.3591 96.2906 13.9381 73.5688 8.35349 60.6523C3.81006 50.2814 -4.42492 56.5982 -6.41267 58.201C-8.40042 59.8038 -14.837 67.1577 -5.37147 78.1886C4.09402 89.2195 19.4281 105.907 35.5194 108.076C51.6108 110.244 38.3591 96.2906 38.3591 96.2906Z" fill="#F0D246" stroke="#524740" stroke-width="1.41855" stroke-linecap="round" stroke-linejoin="round"/>
<path d="M-0.0708065 55.4668C-0.808182 53.6406 -1.16252 51.6834 -1.11201 49.7156C-1.11201 46.2272 -0.354773 39.9104 -3.28907 40.0989C-6.22338 40.2875 -5.84476 44.4359 -5.84476 44.4359C-5.84476 44.4359 -10.5775 35.0078 -16.0675 37.5534C-21.5575 40.0989 -25.7223 49.15 -18.8125 54.9954C-11.9027 60.8408 -8.77906 63.8578 -5.84476 61.8779C-2.91045 59.898 0.686434 57.1639 -0.0708065 55.4668Z" fill="white" stroke="#524740" stroke-width="1.41855" stroke-linecap="round" stroke-linejoin="round"/>
<path d="M89.946 134.946C89.946 151.068 75.8424 151.068 58.8046 150.785C41.7667 150.502 28.3257 151.539 28.3257 134.003C28.3257 114.016 42.9025 85.5426 59.9404 85.7312C76.9783 85.9197 90.0407 114.958 89.946 134.946Z" fill="white" stroke="#524740" stroke-width="1.35435" stroke-miterlimit="10"/>
<path d="M52.2734 112.413L52.1787 120.521L58.4259 123.444L64.7678 120.709L64.8625 112.601L58.6152 109.678L52.2734 112.413Z" fill="#2F322E"/>
<path d="M58.5206 115.147L63.8213 112.79L58.6152 110.338L53.3146 112.695L58.5206 115.147Z" fill="#E9AA30"/>
<path d="M58.8046 115.618L58.71 122.595L64.1053 120.332L64.1999 113.355L58.8046 115.618Z" fill="white"/>
<path d="M58.2366 115.618L52.936 113.167L52.8413 120.144L58.142 122.595L58.2366 115.618Z" fill="white"/>
<path d="M105.469 33.782H12.8022V99.2132H105.469V33.782Z" fill="white" stroke="#524740" stroke-width="1.41855" stroke-linecap="round" stroke-linejoin="round"/>
<path d="M93.4482 17.4714H24.8234L12.8022 33.7821H105.469L93.4482 17.4714Z" fill="#F0D246" stroke="#524740" stroke-width="1.41855" stroke-linecap="round" stroke-linejoin="round"/>
<path d="M65.9983 68.1948C65.1773 69.2467 64.1087 70.0809 62.887 70.6236C61.6653 71.1663 60.3281 71.4007 58.9938 71.3061C57.7357 71.3406 56.4848 71.1059 55.3255 70.618C54.1662 70.1301 53.1254 69.4002 52.2733 68.4777" stroke="#524740" stroke-width="1.41855" stroke-linecap="round" stroke-linejoin="round"/>
<path d="M79.4393 67.7234C82.5759 67.7234 85.1186 65.1908 85.1186 62.0665C85.1186 58.9423 82.5759 56.4097 79.4393 56.4097C76.3027 56.4097 73.76 58.9423 73.76 62.0665C73.76 65.1908 76.3027 67.7234 79.4393 67.7234Z" fill="#524740"/>
<path d="M38.8324 67.7234C41.969 67.7234 44.5117 65.1908 44.5117 62.0665C44.5117 58.9423 41.969 56.4097 38.8324 56.4097C35.6958 56.4097 33.1531 58.9423 33.1531 62.0665C33.1531 65.1908 35.6958 67.7234 38.8324 67.7234Z" fill="#524740"/>
<path d="M68.554 67.5348C68.3842 69.8188 67.3332 71.9485 65.6216 73.4777C63.9099 75.0068 61.6704 75.8166 59.3725 75.7373C51.5161 75.8316 49.907 69.4204 49.907 67.7234C49.907 66.0263 54.0718 65.8377 59.1832 65.7435C64.2945 65.6492 68.554 65.932 68.554 67.5348Z" fill="#FF9898" stroke="#524740" stroke-width="1.40222" stroke-linecap="round" stroke-linejoin="round"/>
</g>
</g>
<defs>
<clipPath id="clip0_164_961">
<rect width="120" height="119" rx="30" fill="white"/>
</clipPath>
<clipPath id="clip1_164_961">
<rect width="162" height="183" fill="white" transform="translate(-23 17)"/>
</clipPath>
</defs>
</svg>
