<svg width="188" height="234" viewBox="0 0 188 234" fill="none" xmlns="http://www.w3.org/2000/svg">
<path d="M80.5823 211.28V229.76H83.2223V211.28H80.5823ZM73.3223 212.58C70.5423 212.58 68.4823 215.1 68.4823 219.14C68.4823 223.2 70.5423 225.74 73.3223 225.74C76.1023 225.74 78.1623 223.2 78.1623 219.14C78.1623 215.1 76.1023 212.58 73.3223 212.58ZM73.3223 214.96C74.6823 214.96 75.6223 216.42 75.6223 219.14C75.6223 221.88 74.6823 223.34 73.3223 223.34C71.9623 223.34 71.0223 221.88 71.0223 219.14C71.0223 216.42 71.9623 214.96 73.3223 214.96ZM101.981 216.72C97.8608 216.2 95.8408 214.08 95.8408 212.16V211.62H93.1208V212.16C93.1208 214.1 91.1008 216.2 86.9808 216.72L87.9408 218.78C91.0608 218.34 93.3208 217 94.4808 215.22C95.6608 217 97.9008 218.34 101.041 218.78L101.981 216.72ZM94.4408 227.76C91.9808 227.76 90.7208 227.34 90.7208 226.4C90.7208 225.46 91.9808 225.04 94.4408 225.04C96.9008 225.04 98.1608 225.46 98.1608 226.4C98.1608 227.34 96.9008 227.76 94.4408 227.76ZM94.4408 223.06C90.4608 223.06 88.0608 224.26 88.0608 226.4C88.0608 228.54 90.4608 229.76 94.4408 229.76C98.4208 229.76 100.841 228.54 100.841 226.4C100.841 224.26 98.4208 223.06 94.4408 223.06ZM86.1608 219.76V221.84H102.801V219.76H86.1608ZM120.419 217.84C116.239 217.26 114.119 214.86 114.119 212.72V211.84H111.299V212.72C111.299 214.88 109.199 217.26 104.999 217.84L105.999 219.96C109.219 219.48 111.539 217.98 112.719 216C113.899 217.98 116.199 219.48 119.419 219.96L120.419 217.84ZM121.019 221.32H104.379V223.46H111.319V229.74H113.959V223.46H121.019V221.32Z" fill="#111111"/>
<path d="M0 104C0 52.0852 42.0852 10 94 10C145.915 10 188 52.0852 188 104V178C188 189.046 179.046 198 168 198H20C8.9543 198 0 189.046 0 178V104Z" fill="#EBB23D"/>
<mask id="mask0_322_1735" style="mask-type:alpha" maskUnits="userSpaceOnUse" x="0" y="10" width="188" height="188">
<path d="M0 10H188V178C188 189.046 179.046 198 168 198H20C8.9543 198 0 189.046 0 178V10Z" fill="#D9D9D9"/>
</mask>
<g mask="url(#mask0_322_1735)">
<path d="M145.055 181.043C144.625 181.35 144.133 181.657 143.703 181.965C143.212 182.272 142.782 182.579 142.29 182.825C141.86 183.071 141.491 183.316 141.061 183.562C141 183.623 140.938 183.623 140.877 183.685C139.464 184.545 137.989 185.344 136.515 186.081C136.085 186.327 135.593 186.572 135.163 186.757C135.163 186.757 135.102 186.818 135.04 186.818C134.549 187.064 134.057 187.31 133.566 187.555C132.583 188.047 131.538 188.477 130.555 188.907C130.064 189.153 129.511 189.337 129.02 189.522C128.528 189.706 127.975 189.952 127.484 190.136C126.992 190.32 126.439 190.566 125.948 190.75C125.948 190.75 125.948 190.75 125.886 190.75C125.395 190.935 124.842 191.119 124.35 191.303C123.244 191.672 122.077 192.04 120.971 192.409C120.603 192.532 120.172 192.655 119.804 192.778C118.637 193.146 117.469 193.454 116.302 193.699C115.872 193.822 115.442 193.884 114.95 194.006C113.844 194.252 112.677 194.498 111.571 194.744C111.325 194.805 111.141 194.805 110.895 194.867C110.527 194.928 110.097 194.989 109.728 195.051C109.175 195.112 108.684 195.235 108.131 195.297C107.885 195.358 107.639 195.358 107.393 195.42C107.086 195.481 106.718 195.542 106.349 195.542C105.366 195.665 104.322 195.788 103.338 195.911C103.031 195.972 102.663 195.972 102.355 196.034H102.294C101.864 196.095 101.434 196.095 101.004 196.157C100.574 196.218 100.144 196.218 99.7137 196.218C99.4679 196.218 99.1607 196.28 98.915 196.28C98.4235 196.28 97.9934 196.341 97.5633 196.341C96.949 196.341 96.396 196.403 95.7816 196.403C95.1673 196.403 94.6143 196.403 93.9999 196.403C93.5699 196.403 93.1398 196.403 92.7097 196.403C66.7829 196.034 43.498 185.037 26.8483 167.588C26.8483 167.588 26.8483 167.527 26.7869 167.527C24.9437 165.868 26.5411 157.021 33.9751 151.43C43.3137 144.365 65.6771 139.941 65.6771 139.941C65.6771 139.941 74.3398 138.528 106.472 145.225C125.272 149.157 139.587 154.871 147.574 170.353C149.233 173.548 150.891 178.463 145.055 181.043Z" fill="white"/>
<path d="M106.656 144.549C118.452 146.945 131.047 149.525 140.754 157.328C144.011 159.97 146.161 163.84 147.943 167.588C148.803 169.431 149.663 171.336 150.339 173.363C150.707 174.715 151.26 176.251 150.953 177.848C150.892 178.278 150.523 178.831 150.216 179.139C148.803 180.552 147.267 181.412 145.731 182.518C136.699 188.784 126.316 193.208 115.565 195.542C91.6041 200.765 65.6773 196.71 44.6041 184.115C37.6001 179.876 31.1492 174.715 25.6198 168.633C25.0054 167.895 25.0054 166.667 25.0054 165.868C25.0668 164.025 25.5583 162.243 26.1727 160.584C27.6472 156.775 29.5518 152.966 32.808 150.324C35.1426 148.727 37.6616 147.375 40.242 146.269C48.3518 142.829 56.8916 140.433 65.6773 139.45C66.4145 139.388 66.5374 140.433 65.8001 140.556C57.3831 142.276 49.0276 144.856 41.225 148.358C38.3988 149.771 35.3884 151 33.1152 153.212C30.9648 155.546 29.4289 158.434 28.2001 161.383C27.4015 163.165 26.8485 165.991 27.0943 167.404C30.9648 172.012 35.5113 176.067 40.4263 179.569C67.3361 198.369 108.192 199.597 136.822 183.931C139.403 182.518 141.922 180.92 144.318 179.261C145.485 178.463 146.714 177.787 147.635 176.865C147.697 176.804 147.635 176.865 147.635 176.927C147.635 176.988 147.574 177.05 147.574 177.05C147.635 176.312 147.39 175.329 147.082 174.346C145.977 170.783 144.195 167.035 142.29 163.779C139.28 158.925 134.181 155.854 129.02 153.396C125.456 151.737 121.709 150.447 117.899 149.218C114.09 147.99 110.22 146.945 106.349 146.023C105.366 145.778 105.673 144.365 106.656 144.549Z" fill="black"/>
<path d="M166.497 219.38L10.875 215.94C20.4593 183.931 25.8044 155.731 32.9926 151.43C46.6319 143.259 58.9195 141.969 66.2306 141.293C68.0737 145.839 75.0776 160.769 89.6384 166.667C103.708 172.38 112.063 168.571 113.353 162.243C114.152 158.188 111.633 151.553 110.343 149.403C109.606 148.788 109.114 147.867 108.868 146.945L108.377 144.918C109.421 144.672 110.466 144.426 111.51 144.057C122.692 146.023 139.649 155.239 143.274 160.4C147.636 166.605 153.657 182.149 153.411 190.689C153.042 204.574 166.497 219.38 166.497 219.38Z" fill="white"/>
<path d="M167.972 220.056C121.647 219.38 56.5232 218.705 10.8748 217.537C10.0147 217.537 9.33887 216.8 9.33887 215.94C14.3153 199.167 18.3088 182.272 23.6539 165.561C24.3297 163.472 25.067 161.444 25.9271 159.356C27.4016 156.099 28.8761 152.474 31.948 150.263C33.7297 149.218 35.6343 148.174 37.4774 147.252C46.3859 142.829 56.2774 140.556 66.1075 139.757C66.8447 139.695 67.4591 140.125 67.7049 140.74C72.3742 151.922 80.8526 162.305 92.7101 166.175C98.5467 168.203 108.93 169.923 111.694 162.673C112.616 159.171 111.264 155.485 110.036 152.167C109.728 151.491 109.421 150.816 109.114 150.263L109.421 150.631C108.254 149.648 107.517 147.989 107.271 146.515L106.964 145.286C106.779 144.426 107.332 143.566 108.192 143.382C109.237 143.136 110.22 142.89 111.203 142.583C119.804 143.197 137.437 151.922 143.519 158.065C147.083 162.182 149.11 167.527 151.138 172.503C152.612 176.497 153.902 180.613 154.64 184.852C154.947 186.45 155.131 188.108 155.131 189.767C155.07 192.225 155.254 194.744 155.93 197.201C157.957 204.881 162.442 211.946 167.541 218.029L167.664 218.152L167.726 218.213C167.726 218.213 167.664 218.152 167.91 218.397C168.094 218.889 168.156 219.626 167.972 220.056ZM165.084 218.766C165.023 218.95 164.9 219.196 164.961 219.503C164.961 219.81 165.084 220.056 165.207 220.24C165.391 220.486 165.33 220.363 165.33 220.425L165.268 220.363C164.838 219.749 163.978 218.52 163.548 217.844C158.51 209.919 153.534 201.133 153.349 191.488C153.472 185.159 151.506 179.077 149.417 173.24C147.943 169.308 146.223 165.499 144.011 161.936C143.458 161.076 142.905 160.216 142.168 159.478C139.956 157.328 137.253 155.608 134.549 154.072C127.361 150.078 119.558 146.761 111.387 145.716L112.124 145.655C111.019 146.023 109.913 146.269 108.807 146.515L110.036 144.61C110.404 145.901 110.466 147.437 111.51 148.297C112.186 149.095 112.555 150.14 112.985 151C113.968 153.335 114.643 155.731 115.074 158.25C116.179 164.271 112.616 169.247 106.718 170.599C101.741 171.766 96.5193 170.722 91.7885 169.186C79.0709 165.131 69.8552 154.01 64.8787 141.969L66.4761 142.952C56.7689 142.829 47.1232 144.733 38.3376 148.911C36.433 149.833 34.467 150.877 32.6853 151.983C30.1663 154.01 28.9376 157.205 27.6474 160.093C23.6539 170.169 21.3193 180.736 18.6774 191.18C16.8343 198.553 14.3768 208.997 12.5336 216.431L11.0591 214.404C55.5402 215.325 119.866 217.291 165.084 218.766Z" fill="black"/>
<path d="M38.153 219.135C38.153 219.135 37.3544 199.229 36.5557 195.542" stroke="black" stroke-width="5.1512" stroke-miterlimit="10" stroke-linecap="round" stroke-linejoin="round"/>
<path d="M147.021 219.135C147.021 219.135 145.178 206.786 145.178 204.635C145.178 202.546 146.775 195.665 147.021 189.645" stroke="black" stroke-width="5.1512" stroke-miterlimit="10" stroke-linecap="round" stroke-linejoin="round"/>
<path d="M56.2778 203.652V196.341L73.9105 203.53C73.8491 203.53 59.6569 203.898 56.2778 203.652Z" fill="white"/>
<path d="M98.3011 179.876L96.0894 225.709C96.0894 225.709 115.565 238.979 115.565 238.61C115.565 238.242 124.781 222.145 124.781 222.145L110.404 178.033C110.404 178.033 108.561 179.937 98.3011 179.876Z" fill="black"/>
<path d="M102.725 165.131C102.725 165.131 94.3078 173.056 93.2019 175.145C92.096 177.234 97.9326 180.552 97.9326 180.552C97.9326 180.552 107.333 182.518 111.572 178.709C111.572 178.709 113.968 176.067 113.476 173.548C113.046 171.09 102.725 165.131 102.725 165.131Z" fill="black"/>
<path d="M63.7111 135.395C63.7726 135.333 63.834 135.272 63.8954 135.211C64.5713 134.412 65.5543 133.92 66.6601 133.797C71.8209 133.183 72.3739 133.736 73.4798 135.456C78.8249 143.812 85.7673 159.786 102.786 165.192L86.3817 181.903C85.5216 183.009 83.9856 183.194 82.8798 182.395C77.5961 178.463 67.0288 166.421 61.1922 151.737C59.9634 148.665 59.7177 145.286 60.332 142.092C60.2092 141.969 62.6667 136.869 63.7111 135.395Z" fill="white"/>
<path d="M63.2809 135.088C64.2025 134.227 65.247 133.49 66.5372 133.306C68.2574 133.122 70.0391 132.753 71.8208 133.122C73.664 133.675 74.3398 135.702 75.3842 137.115C79.9921 144.672 84.7842 152.352 91.8496 157.697C94.3685 159.724 97.2561 161.26 100.205 162.489C101.311 162.919 102.478 163.288 103.584 163.779C104.506 164.209 104.69 165.561 103.891 166.175C99.345 169.861 95.0443 173.855 90.8051 177.971C89.8221 178.954 87.5489 181.227 86.6888 182.088C85.7058 183.378 83.7398 183.562 82.511 182.579L81.8966 182.088C79.8077 180.367 77.9032 178.401 76.06 176.435C69.4862 169.186 63.9568 160.953 60.2705 151.86C58.9803 148.604 58.6731 144.918 59.4718 141.539C60.3934 139.265 61.6221 136.992 63.2809 135.088ZM64.5097 135.948C63.1581 137.852 61.9908 140.187 61.0077 142.337L61.0692 142.153C60.7006 144.18 60.7006 146.269 61.1306 148.235C61.4992 150.324 62.4208 152.167 63.2195 154.072C64.8783 158.004 66.9672 161.752 69.179 165.376C71.3907 169.001 73.9097 172.503 76.7358 175.759C78.6404 177.971 80.6679 180.122 83.0025 181.903C83.1868 182.088 83.3711 182.149 83.6169 182.272C84.477 182.641 85.5215 182.333 86.0744 181.596L88.1019 179.507L90.1293 177.357C94.1842 173.118 98.0548 168.694 101.68 164.086L102.294 166.605C97.8705 165.254 93.6927 162.858 90.0679 159.847C82.8796 154.01 78.2104 145.901 73.7868 138.037C73.2339 137.176 72.6809 136.071 72.128 135.272C71.8823 134.903 71.6979 134.78 71.3293 134.658C69.9162 134.289 68.2574 134.535 66.7829 134.719C65.7999 134.842 65.0012 135.272 64.5097 135.948Z" fill="black"/>
<path d="M119.927 175.821C119.559 177.849 118.084 179.753 115.626 177.234L102.663 165.131C102.663 165.131 110.22 157.943 108.377 144.918C110.896 144.365 113.292 143.566 115.504 142.522C115.565 142.645 116.425 144.303 117.408 147.068C119.497 152.782 122.139 163.288 119.927 175.821Z" fill="white"/>
<path d="M120.296 175.882C119.927 178.831 117.715 180.06 115.442 177.787L111.08 173.732L106.718 169.677L102.356 165.622C102.11 165.377 102.11 165.008 102.294 164.762C105.674 160.83 107.394 155.485 107.394 150.324C107.394 148.481 107.148 146.699 106.841 144.856C106.718 144.119 107.332 143.443 108.131 143.382C110.589 143.32 113.046 143.013 115.504 142.399C115.565 142.337 115.688 142.399 115.688 142.46C120.603 152.782 122.139 164.639 120.296 175.882ZM119.62 175.76C121.094 164.824 119.497 153.458 114.398 143.689L114.275 143.505C114.213 143.443 114.152 143.32 114.152 143.32L116.241 143.935C113.845 145.102 111.326 145.901 108.745 146.454L109.974 144.672C110.343 148.481 110.036 152.352 108.93 155.977C107.762 159.601 105.919 162.919 103.155 165.622V164.701C105.366 166.728 109.728 170.844 111.879 172.872L116.179 176.988C117.715 178.586 119.19 177.971 119.62 175.76Z" fill="black"/>
<path d="M112.431 160.892C111.141 167.22 102.785 171.029 88.7162 165.315C74.0939 159.417 67.7658 145.348 66.1685 141.17C74.8312 124.95 68.8103 113.707 68.8103 113.707C88.7776 111.987 106.226 135.333 106.226 135.333L108.929 146.884C109.175 147.867 109.666 148.727 110.404 149.341C111.694 151.614 113.23 156.837 112.431 160.892Z" fill="white"/>
<path d="M65.8617 141.354C67.029 139.573 67.7663 137.484 68.2578 135.456C69.1793 131.217 69.4865 126.916 69.548 122.616V121.018C69.3637 119.421 68.8107 117.762 68.1963 116.288C67.3976 114.322 70.2852 113.093 71.2068 115.059C71.3297 115.305 71.3297 115.735 71.3297 115.98C71.514 124.336 71.8826 135.088 66.599 142.03C66.2303 142.399 65.4931 141.846 65.8617 141.354Z" fill="black"/>
<path d="M106.902 135.211C107.823 135.764 108.131 136.501 108.254 137.238C108.622 138.713 108.499 140.31 108.868 141.846C109.175 143.32 110.097 144.733 110.342 146.269C110.65 147.867 111.571 151.246 111.94 152.905C112.063 153.273 111.817 153.703 111.387 153.765C111.141 153.826 110.957 153.765 110.773 153.642C109.974 152.966 109.605 152.29 109.114 151.43C108.315 149.956 107.762 148.604 107.271 146.945C106.84 145.471 107.025 143.873 106.656 142.337C106.349 140.863 105.489 139.45 105.182 137.914C104.997 137.177 104.936 136.378 105.489 135.456C105.857 135.088 106.472 134.965 106.902 135.211Z" fill="black"/>
<path d="M111.326 151.43C99.5913 150.816 90.007 147.129 80.6685 130.48C88.5325 137.422 97.8096 140.064 107.578 141.293L108.868 146.945C109.114 147.928 110.589 150.816 111.326 151.43Z" fill="black"/>
<path d="M110.835 149.157C112.923 153.089 114.152 158.004 112.862 162.366C111.879 165.438 109.053 167.711 105.981 168.571C98.8541 170.476 90.6215 167.465 84.2934 164.086C76.4907 159.724 70.7156 152.413 67.0293 144.426C66.7836 143.812 67.6437 143.32 68.0123 143.935C69.3025 146.515 70.777 149.034 72.4358 151.307C74.0947 153.642 75.9992 155.792 78.1496 157.697C84.4162 163.349 92.8947 166.851 101.373 166.851C110.097 166.605 113.415 161.997 111.387 153.519C111.08 152.167 110.589 150.754 109.913 149.587C109.544 149.095 110.466 148.543 110.835 149.157Z" fill="black"/>
<path d="M134.611 75.37C135.716 80.5308 136.269 84.7086 133.259 98.4707C130.31 112.171 137.498 114.997 120.48 136.931C113.537 145.901 96.7034 143.382 83.0641 134.105C78.4563 130.971 76.4903 122.923 73.0498 117.209C70.3465 112.724 69.1177 117.394 65.5543 113.523C60.7007 108.239 54.8641 97.6105 57.7517 78.8105C62.421 48.3373 86.5661 44.7739 104.445 48.153C122.446 51.5935 131.662 61.7922 134.611 75.37Z" fill="white"/>
<path d="M68.6262 118.991C67.2131 116.595 65.37 114.506 63.6497 112.294C61.9909 110.021 60.6392 107.502 59.5334 104.922C52.2222 86.9818 55.0484 61.7308 72.9883 51.1635C80.4222 46.8628 89.3922 45.8184 97.7477 46.4942C115.626 47.7844 132.03 56.0171 135.901 74.94C137.99 83.2955 135.163 91.8968 133.566 100.068C132.829 104.123 133.443 108.301 133.382 112.479C133.32 116.718 132.153 120.957 130.556 124.889C129.573 127.592 127.852 129.988 126.071 132.2C123.122 135.763 120.173 139.388 116.425 142.153C115.565 142.767 114.029 143.075 112.984 143.197C110.097 143.628 107.271 143.75 104.383 143.566C93.0785 143.075 80.9752 137.607 76.4288 126.671C76.2445 126.241 76.8588 125.933 77.1046 126.302C83.0026 135.641 93.8157 140.248 104.567 140.863C107.885 141.047 111.264 140.986 114.52 140.31C116.118 139.511 117.531 138.098 118.882 136.808C122.2 133.49 125.579 129.927 127.975 125.872C130.863 120.404 132.46 114.445 131.969 108.239C131.846 105.475 131.784 102.587 132.337 99.8223C132.829 97.0576 133.443 94.4158 133.812 91.5896C134.18 88.8864 134.365 86.1217 134.365 83.4184C134.058 75.4929 131.477 67.3217 126.439 61.1779C115.319 47.3543 89.0236 43.7295 74.217 53.1909C64.8785 58.9661 60.5164 69.7792 59.1033 80.2851C56.953 92.8798 57.5673 105.29 67.5817 114.445L70.5307 117.516C71.6981 118.868 69.6092 120.465 68.6262 118.991Z" fill="black"/>
<path d="M75.8756 99.4536C75.8756 99.4536 73.971 90.238 65.0011 91.3438C57.2599 92.3268 54.5566 110.881 72.1279 116.042" fill="white"/>
<path d="M71.3293 107.994C69.9162 107.195 68.9332 105.843 68.8718 104.184C68.9332 102.956 69.1176 101.543 68.8104 100.314C68.6261 99.1466 67.3973 98.8394 66.4757 98.9008C65.4927 99.0851 64.8783 100.314 64.694 101.297C64.694 101.358 64.6326 101.543 64.6326 101.604C64.5711 101.911 64.0796 101.911 63.9568 101.604C63.1581 99.208 64.9398 96.5662 67.5202 96.8733C71.145 97.1191 71.6365 100.928 70.9607 103.816C70.5921 105.045 71.0836 106.15 71.7594 107.195L71.8823 107.379C72.1894 107.748 71.6979 108.239 71.3293 107.994Z" fill="black"/>
<path d="M120.48 92.9413C121.401 97.3034 123.121 101.358 125.272 105.167C127.176 109.837 122.261 114.26 117.899 114.076C117.408 114.076 117.346 113.4 117.776 113.277C120.541 112.417 123.06 110.574 123.49 107.748C123.674 106.888 123.429 106.15 122.999 105.413C120.971 101.604 119.742 97.242 120.05 92.9413C120.05 92.6341 120.48 92.6341 120.48 92.9413Z" fill="black"/>
<path d="M75.5686 99.5151C74.1555 95.8902 71.0836 92.4497 66.9673 92.5112C66.5987 92.4497 65.9843 92.5726 65.6157 92.5726C64.5712 92.634 63.7111 93.0027 62.9124 93.7399C58.9804 97.6719 59.6562 104.614 62.8509 108.977C63.9568 110.512 65.3699 111.864 66.9673 112.97C68.5647 114.076 70.3464 114.936 72.2509 115.673C72.681 115.796 72.4967 116.472 72.0666 116.41C67.9503 115.55 64.0183 113.523 61.315 110.144C57.1372 105.106 56.2771 96.6889 61.2536 91.7739C62.3594 90.7909 63.8954 90.0536 65.4313 90.0536C65.9228 90.0536 66.6601 89.9308 67.1516 90.0536C69.732 90.1765 72.1895 91.4667 73.7869 93.4942C75.2 95.2144 75.9987 97.3033 76.2444 99.3922C76.2444 99.7608 75.6915 99.8837 75.5686 99.5151Z" fill="black"/>
<path d="M115.81 120.22C111.878 123.967 104.444 120.957 102.478 116.411C102.233 115.858 102.847 115.366 103.338 115.612C104.383 116.165 105.304 116.718 106.287 117.148C109.114 118.438 112.063 119.482 115.196 119.175C115.81 119.052 116.24 119.79 115.81 120.22Z" fill="black"/>
<path d="M107.025 84.9542C108.376 84.8313 109.052 83.2339 108.315 82.0052C107.885 81.3908 107.332 80.8379 106.533 80.5307C104.199 79.7934 96.5804 81.4522 93.2627 85.2614C90.3137 88.7633 100.881 85.5071 107.025 84.9542Z" fill="black"/>
<path d="M123.245 85.9372C122.2 85.63 121.893 84.0941 122.753 83.1111C123.183 82.6196 123.798 82.1895 124.474 82.0666C126.562 81.698 131.355 83.6026 132.706 87.2274C133.935 90.3607 128.221 87.166 123.245 85.9372Z" fill="black"/>
<path d="M97.5635 99.2079C96.089 99.1465 94.9831 97.9177 95.106 96.4432L95.1674 94.7229C95.2289 93.2484 96.4576 92.1426 97.9321 92.2654C99.4067 92.3269 100.513 93.5556 100.39 95.0301L100.328 96.7504C100.267 98.1635 99.038 99.2694 97.5635 99.2079Z" fill="black"/>
<path d="M123.429 100.129C122.077 100.068 121.032 98.9005 121.094 97.5489L121.155 95.9515C121.217 94.5998 122.384 93.5554 123.736 93.6168C125.087 93.6783 126.132 94.8456 126.07 96.1972L126.009 97.7946C125.947 99.1462 124.78 100.191 123.429 100.129Z" fill="black"/>
<path d="M103.093 95.8901C101.065 94.5384 98.8537 93.6169 96.3961 94.1084C95.5974 94.2313 94.7988 94.477 94.3073 95.0299C94.1229 95.2757 93.6929 95.2143 93.6929 94.8456C93.7543 93.6169 94.7987 92.8182 95.7818 92.3267C97.6863 91.3437 100.328 91.528 102.048 92.8182C102.663 93.1868 104.752 95.46 103.646 95.9515C103.4 96.0744 103.277 96.013 103.093 95.8901Z" fill="black"/>
<path d="M120.664 96.1975C120.664 93.6171 123.858 92.6955 125.824 93.6171C126.93 94.1086 127.729 95.0916 128.036 96.2589C128.159 96.6275 127.606 96.9347 127.36 96.6275C126.316 95.3988 124.534 94.7844 123.121 95.5216C122.691 95.7674 122.63 95.9517 122.507 96.1975C122.507 97.4262 120.725 97.3648 120.664 96.1975Z" fill="black"/>
<path d="M136.515 47.1701C121.77 42.9923 120.172 50.6106 105.427 42.5008C90.6823 34.3295 63.9568 39.7975 58.9803 58.7818C58.9803 58.7818 50.7477 63.8197 50.1947 81.2067C49.8261 92.8799 55.9084 103.57 59.9019 109.284C62.6052 113.707 65.4313 116.964 67.0901 119.913C69.732 124.643 71.0222 129.804 71.0222 129.804C71.6365 123.906 73.0496 118.499 72.1895 116.103L70.162 115.428C54.8026 109.53 57.5673 92.3884 65.0627 91.4054C72.9267 90.4223 75.3843 97.4263 75.8143 99.1465C76.8588 97.8563 76.4901 93.9857 76.2444 89.3779C88.532 95.4603 100.82 81.6367 104.936 70.9465C110.035 57.7374 121.278 68.0589 121.278 68.0589C121.278 68.0589 132.399 88.8864 144.195 79.6093C154.639 71.2537 152.55 51.655 136.515 47.1701Z" fill="black"/>
</g>
<path d="M0.704 21H8.08V19.736H4.832C4.24 19.736 3.52 19.8 2.912 19.848C5.664 17.24 7.504 14.856 7.504 12.52C7.504 10.424 6.192 9.048 4.096 9.048C2.608 9.048 1.6 9.736 0.64 10.776L1.488 11.608C2.128 10.84 2.96 10.248 3.92 10.248C5.376 10.248 6.08 11.224 6.08 12.568C6.08 14.584 4.384 16.92 0.704 20.136V21ZM12.891 15.464C11.499 15.464 10.795 14.44 10.795 12.856C10.795 11.256 11.659 10.2 12.779 10.2C14.283 10.2 15.179 11.48 15.339 13.896C14.555 15.016 13.675 15.464 12.891 15.464ZM9.643 20.008C10.299 20.696 11.195 21.208 12.459 21.208C14.667 21.208 16.715 19.384 16.715 14.632C16.715 10.904 15.035 9.048 12.779 9.048C10.955 9.048 9.419 10.584 9.419 12.856C9.419 15.288 10.699 16.552 12.651 16.552C13.643 16.552 14.651 15.976 15.355 15.096C15.243 18.744 13.931 19.992 12.411 19.992C11.659 19.992 10.939 19.656 10.443 19.096L9.643 20.008ZM19.126 9.384V10.44H24.518C24.246 13.848 22.326 16.6 18.47 18.44L19.174 19.512C23.942 17.176 25.846 13.528 25.846 9.384H19.126ZM28.742 7.832V22.184H30.054V7.832H28.742Z" fill="#8B6517"/>
</svg>
