<svg width="188" height="234" viewBox="0 0 188 234" fill="none" xmlns="http://www.w3.org/2000/svg">
<path d="M76.2423 227.74C73.7823 227.74 72.5223 227.32 72.5223 226.36C72.5223 225.4 73.7823 224.96 76.2423 224.96C78.7023 224.96 79.9623 225.4 79.9623 226.36C79.9623 227.32 78.7023 227.74 76.2423 227.74ZM76.2423 222.96C72.2623 222.96 69.8623 224.18 69.8623 226.36C69.8623 228.52 72.2623 229.74 76.2423 229.74C80.2223 229.74 82.6423 228.52 82.6423 226.36C82.6423 224.18 80.2223 222.96 76.2423 222.96ZM77.6223 219.96V218.44H82.7423V216.34H72.6223V214.18H82.6423V212.08H70.0023V218.44H74.9823V219.96H67.9823V222.06H84.6423V219.96H77.6223ZM87.9208 220.42C91.1408 219.98 93.4008 218.6 94.5008 216.72C95.6008 218.6 97.8608 219.98 101.081 220.42L102.021 218.36C98.2808 217.9 96.3408 216.1 96.0808 214.34H101.301V212.24H87.6408V214.34H92.9408C92.6808 216.1 90.7208 217.9 86.9608 218.36L87.9208 220.42ZM102.821 221.48H86.1808V223.58H93.1208V229.76H95.7608V223.58H102.821V221.48ZM112.639 227.74C110.179 227.74 108.919 227.32 108.919 226.38C108.919 225.44 110.179 225.04 112.639 225.04C115.099 225.04 116.359 225.44 116.359 226.38C116.359 227.32 115.099 227.74 112.639 227.74ZM112.639 223.04C108.659 223.04 106.259 224.24 106.259 226.38C106.259 228.52 108.659 229.74 112.639 229.74C116.619 229.74 119.039 228.52 119.039 226.38C119.039 224.24 116.619 223.04 112.639 223.04ZM110.739 218.5C111.339 218.58 111.979 218.62 112.679 218.62C113.359 218.62 113.999 218.58 114.579 218.52V220.04H110.739V218.5ZM112.679 213.58C115.199 213.58 116.639 214.08 116.639 215.12C116.639 216.12 115.199 216.64 112.679 216.64C110.179 216.64 108.739 216.12 108.739 215.12C108.739 214.08 110.179 213.58 112.679 213.58ZM117.219 220.04V217.84C118.579 217.24 119.359 216.32 119.359 215.12C119.359 212.92 116.759 211.58 112.679 211.58C108.619 211.58 106.019 212.92 106.019 215.12C106.019 216.3 106.779 217.22 108.099 217.82V220.04H104.359V222.12H120.999V220.04H117.219Z" fill="#111111"/>
<path d="M0 104C0 52.0852 42.0852 10 94 10C145.915 10 188 52.0852 188 104V178C188 189.046 179.046 198 168 198H20C8.9543 198 0 189.046 0 178V104Z" fill="#EBB23D"/>
<mask id="mask0_322_1709" style="mask-type:alpha" maskUnits="userSpaceOnUse" x="0" y="10" width="188" height="188">
<path d="M0 10H188V178C188 189.046 179.046 198 168 198H20C8.9543 198 0 189.046 0 178V10Z" fill="#D9D9D9"/>
</mask>
<g mask="url(#mask0_322_1709)">
<path d="M145.055 181.043C144.625 181.35 144.133 181.657 143.703 181.965C143.212 182.272 142.782 182.579 142.29 182.825C141.86 183.071 141.491 183.316 141.061 183.562C141 183.623 140.938 183.623 140.877 183.685C139.464 184.545 137.989 185.344 136.515 186.081C136.085 186.327 135.593 186.572 135.163 186.757C135.163 186.757 135.102 186.818 135.04 186.818C134.549 187.064 134.057 187.31 133.566 187.555C132.583 188.047 131.538 188.477 130.555 188.907C130.064 189.153 129.511 189.337 129.02 189.522C128.528 189.706 127.975 189.952 127.484 190.136C126.992 190.32 126.439 190.566 125.948 190.75C125.948 190.75 125.948 190.75 125.886 190.75C125.395 190.935 124.842 191.119 124.35 191.303C123.244 191.672 122.077 192.04 120.971 192.409C120.603 192.532 120.172 192.655 119.804 192.778C118.637 193.146 117.469 193.454 116.302 193.699C115.872 193.822 115.442 193.884 114.95 194.006C113.844 194.252 112.677 194.498 111.571 194.744C111.325 194.805 111.141 194.805 110.895 194.867C110.527 194.928 110.097 194.989 109.728 195.051C109.175 195.112 108.684 195.235 108.131 195.297C107.885 195.358 107.639 195.358 107.393 195.42C107.086 195.481 106.718 195.542 106.349 195.542C105.366 195.665 104.322 195.788 103.338 195.911C103.031 195.972 102.663 195.972 102.355 196.034H102.294C101.864 196.095 101.434 196.095 101.004 196.157C100.574 196.218 100.144 196.218 99.7137 196.218C99.4679 196.218 99.1607 196.28 98.915 196.28C98.4235 196.28 97.9934 196.341 97.5633 196.341C96.949 196.341 96.396 196.403 95.7816 196.403C95.1673 196.403 94.6143 196.403 93.9999 196.403C93.5699 196.403 93.1398 196.403 92.7097 196.403C66.7829 196.034 43.498 185.037 26.8483 167.588C26.8483 167.588 26.8483 167.527 26.7869 167.527C24.9437 165.868 26.5411 157.021 33.9751 151.43C43.3137 144.365 65.6771 139.941 65.6771 139.941C65.6771 139.941 74.3398 138.528 106.472 145.225C125.272 149.157 139.587 154.871 147.574 170.353C149.233 173.548 150.891 178.463 145.055 181.043Z" fill="white"/>
<path d="M106.656 144.549C118.452 146.945 131.047 149.525 140.754 157.328C144.011 159.97 146.161 163.84 147.943 167.588C148.803 169.431 149.663 171.336 150.339 173.363C150.707 174.715 151.26 176.251 150.953 177.848C150.892 178.278 150.523 178.831 150.216 179.139C148.803 180.552 147.267 181.412 145.731 182.518C136.699 188.784 126.316 193.208 115.565 195.542C91.6041 200.765 65.6773 196.71 44.6041 184.115C37.6001 179.876 31.1492 174.715 25.6198 168.633C25.0054 167.895 25.0054 166.667 25.0054 165.868C25.0668 164.025 25.5583 162.243 26.1727 160.584C27.6472 156.775 29.5518 152.966 32.808 150.324C35.1426 148.727 37.6616 147.375 40.242 146.269C48.3518 142.829 56.8916 140.433 65.6773 139.45C66.4145 139.388 66.5374 140.433 65.8001 140.556C57.3831 142.276 49.0276 144.856 41.225 148.358C38.3988 149.771 35.3884 151 33.1152 153.212C30.9648 155.546 29.4289 158.434 28.2001 161.383C27.4015 163.165 26.8485 165.991 27.0943 167.404C30.9648 172.012 35.5113 176.067 40.4263 179.569C67.3361 198.369 108.192 199.597 136.822 183.931C139.403 182.518 141.922 180.92 144.318 179.261C145.485 178.463 146.714 177.787 147.635 176.865C147.697 176.804 147.635 176.865 147.635 176.927C147.635 176.988 147.574 177.05 147.574 177.05C147.635 176.312 147.39 175.329 147.082 174.346C145.977 170.783 144.195 167.035 142.29 163.779C139.28 158.925 134.181 155.854 129.02 153.396C125.456 151.737 121.709 150.447 117.899 149.218C114.09 147.99 110.22 146.945 106.349 146.023C105.366 145.778 105.673 144.365 106.656 144.549Z" fill="black"/>
<path d="M165.453 219.135H10.0762C10.0762 219.135 19.2304 199.843 23.2853 177.848C26.1115 162.612 28.2004 153.703 36.1258 148.788C41.7167 145.348 53.6971 141.784 58.8579 139.941C62.3598 138.712 63.0971 139.757 65.616 139.081C65.616 139.388 65.6775 139.634 65.6775 139.941C65.6775 139.941 72.3128 159.663 89.5768 166.667C103.646 172.38 112.002 168.571 113.292 162.243C114.091 158.188 111.572 151.553 110.281 149.403C109.544 148.788 109.053 147.867 108.807 146.945L108.315 144.918C109.483 144.672 110.589 144.365 111.694 143.996C112.063 143.873 112.37 143.75 112.739 143.627C119.804 145.471 134.918 151.43 141.615 157.574C144.257 160.031 150.523 172.319 154.578 190.136C159.247 210.349 165.453 219.135 165.453 219.135Z" fill="black"/>
<path d="M166.865 219.872C120.603 220.179 55.6628 220.916 10.1373 220.732C9.03145 220.732 8.23276 219.503 8.72426 218.52C14.1922 206.478 18.4929 193.638 21.2576 180.674C21.5648 179.016 22.2406 175.759 22.5478 174.101C23.9609 167.342 25.0667 160.646 28.6916 154.44C29.9203 152.413 31.5177 150.508 33.4223 148.972C35.2654 147.498 37.4158 146.392 39.5661 145.409C46.4471 142.46 53.3896 140.125 60.455 137.975C62.1138 137.606 63.7726 138.037 65.37 137.668C66.2916 137.422 67.2746 138.098 67.336 139.081L67.3975 139.941L65.7386 138.405C66.4145 138.405 67.0288 138.835 67.2132 139.45C67.7047 140.863 68.3805 142.337 69.0563 143.75C71.1452 147.989 73.7256 151.983 76.8589 155.485C80.9752 160.154 86.136 163.84 92.0341 165.929C97.9936 168.141 108.622 170.046 111.571 162.919C112.063 161.629 112.001 160.277 111.817 158.864C111.387 155.976 110.404 152.904 108.991 150.324L109.298 150.693C108.315 149.403 107.946 147.867 108.069 146.392V145.102V144.918C108.069 144.795 108.192 144.672 108.315 144.672C109.052 144.426 109.728 144.119 110.465 143.873C111.141 143.566 111.817 143.259 112.493 142.89C112.677 142.767 112.862 142.829 113.046 142.89C117.101 143.935 120.971 145.348 124.842 146.945C130.617 149.341 136.331 152.044 141.307 155.915C143.089 157.205 144.379 159.11 145.424 161.014C147.513 164.701 149.171 168.51 150.646 172.38C153.226 179.138 155.131 186.142 156.79 193.208C158.879 201.01 161.397 208.752 165.268 215.878C165.698 216.616 166.128 217.353 166.558 218.09L166.681 218.213V218.274C167.05 218.582 167.111 219.442 166.865 219.872ZM164.039 218.397C163.732 218.705 163.794 219.565 164.039 219.872V219.81L163.916 219.626C159.616 212.561 156.913 204.635 154.701 196.71C153.595 192.839 152.796 188.661 151.69 184.729C149.54 176.988 146.898 169.186 143.028 162.12C142.352 160.953 141.614 159.663 140.693 158.741C138.911 157.082 136.822 155.731 134.733 154.44C131.293 152.413 127.607 150.631 123.859 149.095C120.111 147.559 116.302 146.146 112.431 145.102L113.353 145.04C111.694 145.163 110.097 145.225 108.499 145.163L108.745 144.795C109.114 145.409 109.544 146.454 109.913 147.006C110.343 147.559 110.834 147.989 111.387 148.235C111.51 148.358 111.633 148.481 111.694 148.604C113.906 152.843 116.118 159.171 114.52 163.902C110.834 173.179 98.4851 171.705 90.9282 168.817C84.6001 166.667 78.8864 162.55 74.4628 157.512C70.0393 152.474 66.5373 146.699 64.2027 140.433L65.6772 141.477C64.8171 141.477 64.1413 140.863 64.0798 140.003L64.0184 139.204L65.9844 140.617C65.37 140.801 64.6328 140.863 63.9569 140.924C62.2367 140.863 61.0694 140.801 59.472 141.416C57.3831 142.153 55.2328 142.89 53.0824 143.566C48.8432 144.979 44.6654 146.454 40.672 148.235C31.5792 151.86 28.9373 159.11 26.8484 168.141C25.8654 172.319 25.0667 177.05 24.2066 181.289C21.3805 194.559 17.0798 207.4 11.489 219.81L10.0759 217.537C54.6184 217.537 118.882 217.967 164.039 218.397Z" fill="black"/>
<path d="M84.2925 173.118C63.0964 163.595 54.8637 146.576 56.4611 141.969C56.4611 141.969 56.4611 141.907 56.5225 141.846C57.6284 139.573 59.4101 137.729 61.6219 136.439C62.8506 135.702 64.2023 135.026 65.3082 134.657C82.0807 130.48 104.321 137.545 111.817 143.996C114.52 147.252 117.285 150.508 118.329 159.11C119.804 171.52 106.226 183.009 84.2925 173.118Z" fill="white"/>
<path d="M83.9855 173.793C73.3568 169.001 63.4038 161.506 57.7515 151.123C56.6457 148.973 55.6626 146.761 55.3555 144.242C55.294 143.382 55.2326 142.337 55.6626 141.477C56.9528 138.897 59.2875 136.869 61.8679 135.64C63.8339 134.596 65.9842 133.859 68.1345 133.183C71.2064 132.63 74.2783 132.446 77.4117 132.507C87.6718 132.814 97.8705 135.518 106.963 140.248C107.639 140.617 108.315 140.986 108.991 141.416C109.236 141.539 109.421 141.723 109.728 141.661C110.035 141.6 110.281 141.723 110.527 141.846C111.264 142.276 111.878 142.829 112.554 143.443C114.213 145.471 115.872 147.621 116.978 150.078C118.084 152.536 118.698 155.178 119.067 157.758C120.05 163.042 118.268 168.94 114.152 172.565C105.796 180.06 93.2626 178.033 83.9855 173.793ZM84.5385 172.503C91.4195 175.514 99.2836 177.418 106.595 175.084C112.493 173.302 117.346 167.957 117.531 161.69C117.592 158.004 116.732 154.133 115.257 150.754C114.459 148.665 112.247 146.023 111.141 144.672C110.465 144.119 109.728 143.689 109.114 143.136C109.052 143.013 108.991 142.89 108.929 142.767C108.806 142.46 108.561 142.399 108.376 142.214C107.762 141.846 107.086 141.477 106.41 141.108C101.065 138.344 95.1672 136.746 89.2692 135.579C82.3881 134.289 75.3228 133.92 68.3803 134.903C67.3973 135.026 66.3528 134.903 65.3698 135.149C64.6326 135.456 63.2809 136.071 62.4208 136.685C60.209 137.975 58.5502 139.88 57.3829 142.153L57.3215 142.214C57.3215 142.276 57.26 142.399 57.26 142.46C56.9528 145.04 58.1816 147.682 59.3489 150.078C60.3934 152.044 61.6221 153.949 63.0352 155.792C68.6875 163.103 76.2443 168.756 84.5385 172.503Z" fill="black"/>
<path d="M112.431 160.892C111.141 167.22 102.785 171.029 88.7162 165.315C74.0939 159.417 67.7658 145.348 66.1685 141.17C74.8312 124.95 68.8103 113.707 68.8103 113.707C88.7776 111.987 106.226 135.333 106.226 135.333L108.929 146.884C109.175 147.867 109.666 148.727 110.404 149.341C111.694 151.614 113.23 156.837 112.431 160.892Z" fill="white"/>
<path d="M65.8617 141.354C67.029 139.573 67.7663 137.484 68.2578 135.456C69.1793 131.217 69.4865 126.916 69.548 122.616V121.018C69.3637 119.421 68.8107 117.762 68.1963 116.288C67.3976 114.322 70.2852 113.093 71.2068 115.059C71.3297 115.305 71.3297 115.735 71.3297 115.98C71.514 124.336 71.8826 135.088 66.599 142.03C66.2303 142.399 65.4931 141.846 65.8617 141.354Z" fill="black"/>
<path d="M106.902 135.211C107.823 135.764 108.131 136.501 108.254 137.238C108.622 138.713 108.499 140.31 108.868 141.846C109.175 143.32 110.097 144.733 110.342 146.269C110.65 147.867 111.571 151.246 111.94 152.905C112.063 153.273 111.817 153.703 111.387 153.765C111.141 153.826 110.957 153.765 110.773 153.642C109.974 152.966 109.605 152.29 109.114 151.43C108.315 149.956 107.762 148.604 107.271 146.945C106.84 145.471 107.025 143.873 106.656 142.337C106.349 140.863 105.489 139.45 105.182 137.914C104.997 137.177 104.936 136.378 105.489 135.456C105.857 135.088 106.472 134.965 106.902 135.211Z" fill="black"/>
<path d="M111.326 151.43C99.5913 150.816 90.007 147.13 80.6685 130.48C88.5325 137.422 97.8096 140.064 107.578 141.293L108.868 146.945C109.114 147.928 110.589 150.816 111.326 151.43Z" fill="black"/>
<path d="M110.835 149.157C112.923 153.089 114.152 158.004 112.862 162.366C111.879 165.438 109.053 167.711 105.981 168.571C98.8541 170.476 90.6215 167.465 84.2934 164.086C76.4907 159.724 70.7156 152.413 67.0293 144.426C66.7836 143.812 67.6437 143.32 68.0123 143.935C69.3025 146.515 70.777 149.034 72.4358 151.307C74.0947 153.642 75.9992 155.792 78.1496 157.697C84.4162 163.349 92.8947 166.851 101.373 166.851C110.097 166.605 113.415 161.997 111.387 153.519C111.08 152.167 110.589 150.754 109.913 149.587C109.544 149.095 110.466 148.543 110.835 149.157Z" fill="black"/>
<path d="M134.61 75.3702C135.716 80.531 133.566 82.8656 133.566 96.6891C133.566 103.632 132.89 111.557 131.538 119.175C130.125 127.039 126.193 134.473 119.619 140.003C109.666 148.297 99.222 148.666 86.873 139.02C85.1527 137.668 79.1318 133.122 77.5958 131.586C74.1553 128.207 73.8481 119.483 71.6364 116.103C70.1004 113.769 69.1789 117.517 65.6769 113.646C60.8233 108.362 54.9867 97.7336 57.8743 78.9336C62.5436 48.4604 86.6887 44.897 104.567 48.276C122.446 51.5937 131.661 61.7924 134.61 75.3702Z" fill="white"/>
<path d="M68.6261 118.991C66.4758 115.489 63.4653 112.54 61.4993 108.915C55.5398 97.9178 54.3111 84.5243 57.5059 72.4825C64.3255 46.6786 89.3921 42.2551 112.124 49.259C124.412 53.0681 133.443 62.3453 135.962 75.1243C136.884 79.7322 134.918 84.1557 134.61 88.6407C134.303 91.3439 134.18 94.0472 134.242 96.7505C134.549 104.983 134.303 113.339 131.846 121.264C129.327 129.19 125.21 137.054 118.391 142.153C105.55 151.737 90.3751 144.733 80.4222 134.596C80.115 134.289 80.5451 133.798 80.9137 134.043C87.4261 138.713 94.3686 143.136 102.356 143.996C116.302 145.594 126.009 132.569 130.125 120.773C131.907 115.673 132.829 110.328 133.013 104.983C133.197 99.5152 132.767 94.0472 132.952 88.5792C133.013 87.2276 133.074 85.8145 133.197 84.4629C133.382 82.3126 133.935 78.7492 133.505 76.6603C132.214 70.2707 129.388 64.127 124.842 59.3962C114.213 48.3988 94.1843 45.2655 80.0536 50.3649C63.4653 56.4472 59.1032 73.0969 58.1817 89.0707C57.5673 98.6551 60.3934 107.994 67.6431 114.567L70.5307 117.578C71.698 118.807 69.6091 120.466 68.6261 118.991Z" fill="black"/>
<path d="M75.8756 99.4536C75.8756 99.4536 73.971 90.238 65.0011 91.3438C57.2599 92.3268 54.5566 110.881 72.1279 116.042" fill="white"/>
<path d="M71.3298 107.994C69.9167 107.195 68.9337 105.843 68.8723 104.184C68.9337 102.956 69.118 101.543 68.8109 100.314C68.6265 99.1466 67.3978 98.8394 66.4762 98.9008C65.4932 99.0851 64.8788 100.314 64.6945 101.297C64.6945 101.358 64.6331 101.543 64.6331 101.604C64.5716 101.911 64.0801 101.911 63.9573 101.604C63.1586 99.208 64.9403 96.5662 67.5207 96.8733C71.1455 97.1191 71.637 100.928 70.9612 103.816C70.5926 105.045 71.0841 106.15 71.7599 107.195L71.8827 107.379C72.1899 107.748 71.6984 108.239 71.3298 107.994Z" fill="black"/>
<path d="M120.48 92.9413C121.402 97.3034 123.122 101.358 125.272 105.167C127.177 109.837 122.262 114.26 117.9 114.076C117.408 114.076 117.347 113.4 117.777 113.277C120.542 112.417 123.061 110.574 123.491 107.748C123.675 106.888 123.429 106.15 122.999 105.413C120.972 101.604 119.743 97.242 120.05 92.9413C120.05 92.6341 120.48 92.6341 120.48 92.9413Z" fill="black"/>
<path d="M75.5686 99.5151C74.1555 95.8902 71.0836 92.4497 66.9673 92.5112C66.5987 92.4497 65.9843 92.5726 65.6157 92.5726C64.5712 92.634 63.7111 93.0027 62.9124 93.7399C58.9804 97.6719 59.6562 104.614 62.8509 108.977C63.9568 110.512 65.3699 111.864 66.9673 112.97C68.5647 114.076 70.3464 114.936 72.2509 115.673C72.681 115.796 72.4967 116.472 72.0666 116.41C67.9503 115.55 64.0183 113.523 61.315 110.144C57.1372 105.106 56.2771 96.6889 61.2536 91.7739C62.3594 90.7909 63.8954 90.0536 65.4313 90.0536C65.9228 90.0536 66.6601 89.9308 67.1516 90.0536C69.732 90.1765 72.1895 91.4667 73.7869 93.4942C75.2 95.2144 75.9987 97.3033 76.2444 99.3922C76.2444 99.7608 75.6915 99.8837 75.5686 99.5151Z" fill="black"/>
<path d="M115.81 120.22C111.878 123.967 104.444 120.957 102.478 116.411C102.233 115.858 102.847 115.366 103.338 115.612C104.383 116.165 105.304 116.718 106.287 117.148C109.114 118.438 112.063 119.482 115.196 119.175C115.81 119.052 116.24 119.79 115.81 120.22Z" fill="black"/>
<path d="M97.5635 99.2079C96.089 99.1465 94.9831 97.9177 95.106 96.4432L95.1674 94.7229C95.2289 93.2484 96.4576 92.1426 97.9321 92.2654C99.4067 92.3269 100.513 93.5556 100.39 95.0301L100.328 96.7504C100.267 98.1635 99.038 99.2694 97.5635 99.2079Z" fill="black"/>
<path d="M123.429 100.129C122.077 100.068 121.032 98.9007 121.094 97.5491L121.155 95.9517C121.217 94.6001 122.384 93.5556 123.736 93.6171C125.087 93.6785 126.132 94.8458 126.07 96.1975L126.009 97.7949C125.947 99.1465 124.78 100.191 123.429 100.129Z" fill="black"/>
<path d="M103.093 95.8901C101.065 94.5384 98.8537 93.6169 96.3961 94.1084C95.5974 94.2313 94.7988 94.477 94.3073 95.0299C94.1229 95.2757 93.6929 95.2143 93.6929 94.8456C93.7543 93.6169 94.7987 92.8182 95.7818 92.3267C97.6863 91.3437 100.328 91.528 102.048 92.8182C102.663 93.1868 104.752 95.46 103.646 95.9515C103.4 96.0744 103.277 96.013 103.093 95.8901Z" fill="black"/>
<path d="M120.664 96.1975C120.664 93.6171 123.859 92.6955 125.825 93.6171C126.931 94.1086 127.729 95.0916 128.037 96.2589C128.159 96.6275 127.607 96.9347 127.361 96.6275C126.316 95.3988 124.535 94.7844 123.122 95.5216C122.692 95.7674 122.63 95.9517 122.507 96.1975C122.507 97.4262 120.726 97.3648 120.664 96.1975Z" fill="black"/>
<path d="M106.042 85.7529C107.332 86.183 108.622 85.0157 108.376 83.6026C108.254 82.8654 107.946 82.1281 107.332 81.5752C105.489 79.9163 97.8706 78.4418 93.2627 80.5922C89.2078 82.5582 100.144 83.7869 106.042 85.7529Z" fill="black"/>
<path d="M124.412 86.736C123.368 87.1047 122.262 85.9988 122.446 84.7086C122.507 84.0328 122.753 83.357 123.245 82.8654C124.719 81.3909 129.757 80.2236 132.952 82.4968C135.717 84.4014 129.204 84.9543 124.412 86.736Z" fill="black"/>
<path d="M137.391 55.3368C138.497 52.7564 138.497 49.9303 136.654 47.4728C131.309 40.4074 114.782 45.7525 105.567 42.8035C91.743 38.3185 74.6018 37.7656 64.526 54.3538C62.007 58.5316 60.7783 59.6989 57.2149 63.0166C53.5286 66.4571 50.641 72.7852 50.3953 81.4479C49.8423 98.8349 63.4815 113.949 63.4815 113.949C64.1574 114.87 64.7717 115.669 65.3247 116.345C70.2397 122.243 71.7757 133.609 70.3012 115.669C55.0031 109.771 57.7678 92.6296 65.2018 91.7081C73.0659 90.7251 75.5234 97.729 75.9534 99.4492C81.2371 96.0702 79.3325 88.8819 78.7181 82.1852C82.8345 80.342 86.3364 75.9185 88.1796 71.9251C90.207 74.7512 92.6646 76.963 95.6136 77.2087C98.7469 77.5159 100.59 74.8741 101.204 71.1264C105.259 76.4715 112.448 83.1068 123.752 84.397C129.159 85.0113 133.644 82.7381 136.654 78.9904C137.453 79.1133 138.19 79.1747 138.927 79.1133C146.853 78.3146 155.7 62.2793 137.391 55.3368Z" fill="black"/>
<path d="M124.043 107.133C124.043 107.133 124.781 111.311 129.634 113.4C130.863 113.891 132.153 113.093 132.153 111.741C132.092 111.741 124.351 107.625 124.043 107.133Z" fill="black"/>
<path d="M86.0747 107.134C86.0747 107.134 88.3479 112.294 95.1675 113.523C101.987 114.813 108.192 109.898 111.08 101.666C111.08 101.666 108.745 109.284 99.4067 110.697C90.191 112.233 86.0747 107.134 86.0747 107.134Z" fill="black"/>
<path d="M112.432 95.6446C112.247 104.43 105.182 111.496 96.6422 111.496C88.1023 111.496 81.2827 104.43 81.2827 95.6446C81.3442 86.7975 88.4095 79.5479 97.0723 79.5479C105.735 79.5479 112.677 86.7975 112.432 95.6446Z" stroke="black" stroke-width="3" stroke-miterlimit="10" stroke-linecap="round" stroke-linejoin="round"/>
<path d="M120.849 93.6171C121.832 85.6916 126.992 79.4863 133.075 79.4863C139.649 79.4863 144.687 86.736 144.318 95.5831C143.949 104.369 138.42 111.434 131.969 111.434C129.573 111.434 127.422 110.512 125.641 108.854" stroke="black" stroke-width="3" stroke-miterlimit="10" stroke-linecap="round" stroke-linejoin="round"/>
<path d="M81.4669 93.9243H72.7427" stroke="black" stroke-width="3" stroke-miterlimit="10" stroke-linecap="round" stroke-linejoin="round"/>
<path d="M112.493 93.9243C112.493 93.9243 119.804 91.0981 120.726 93.9243" stroke="black" stroke-width="3" stroke-miterlimit="10" stroke-linecap="round" stroke-linejoin="round"/>
</g>
<path d="M0.704 21H8.08V19.736H4.832C4.24 19.736 3.52 19.8 2.912 19.848C5.664 17.24 7.504 14.856 7.504 12.52C7.504 10.424 6.192 9.048 4.096 9.048C2.608 9.048 1.6 9.736 0.64 10.776L1.488 11.608C2.128 10.84 2.96 10.248 3.92 10.248C5.376 10.248 6.08 11.224 6.08 12.568C6.08 14.584 4.384 16.92 0.704 20.136V21ZM12.891 15.464C11.499 15.464 10.795 14.44 10.795 12.856C10.795 11.256 11.659 10.2 12.779 10.2C14.283 10.2 15.179 11.48 15.339 13.896C14.555 15.016 13.675 15.464 12.891 15.464ZM9.643 20.008C10.299 20.696 11.195 21.208 12.459 21.208C14.667 21.208 16.715 19.384 16.715 14.632C16.715 10.904 15.035 9.048 12.779 9.048C10.955 9.048 9.419 10.584 9.419 12.856C9.419 15.288 10.699 16.552 12.651 16.552C13.643 16.552 14.651 15.976 15.355 15.096C15.243 18.744 13.931 19.992 12.411 19.992C11.659 19.992 10.939 19.656 10.443 19.096L9.643 20.008ZM19.126 9.384V10.44H24.518C24.246 13.848 22.326 16.6 18.47 18.44L19.174 19.512C23.942 17.176 25.846 13.528 25.846 9.384H19.126ZM28.742 7.832V22.184H30.054V7.832H28.742Z" fill="#8B6517"/>
</svg>
