<svg width="188" height="234" viewBox="0 0 188 234" fill="none" xmlns="http://www.w3.org/2000/svg">
<path d="M80.5823 211.28V229.76H83.2223V211.28H80.5823ZM73.3223 212.58C70.5423 212.58 68.4823 215.1 68.4823 219.14C68.4823 223.2 70.5423 225.74 73.3223 225.74C76.1023 225.74 78.1623 223.2 78.1623 219.14C78.1623 215.1 76.1023 212.58 73.3223 212.58ZM73.3223 214.96C74.6823 214.96 75.6223 216.42 75.6223 219.14C75.6223 221.88 74.6823 223.34 73.3223 223.34C71.9623 223.34 71.0223 221.88 71.0223 219.14C71.0223 216.42 71.9623 214.96 73.3223 214.96ZM93.2808 215.24H97.0808V213.06H86.7608V215.24H90.6008V216.26C90.6008 219.4 89.1008 222.78 86.0208 224.16L87.5208 226.26C89.6808 225.28 91.1608 223.26 91.9808 220.86C92.8008 223.08 94.2608 224.88 96.4008 225.8L97.8408 223.72C94.7608 222.44 93.2808 219.26 93.2808 216.26V215.24ZM98.7808 211.3V229.72H101.421V211.3H98.7808ZM112.399 221.04C112.459 220.5 112.499 219.9 112.499 219.28C112.499 218.64 112.459 218.04 112.379 217.48H113.999V221.04H112.399ZM108.519 223.5C107.479 223.5 106.879 222.1 106.879 219.28C106.879 216.46 107.479 215.08 108.519 215.08C109.539 215.08 110.139 216.46 110.139 219.28C110.139 222.1 109.539 223.5 108.519 223.5ZM113.999 215.36H111.879C111.199 213.58 110.019 212.6 108.519 212.6C106.059 212.6 104.519 215.12 104.519 219.28C104.519 223.46 106.059 225.98 108.519 225.98C110.039 225.98 111.219 224.96 111.899 223.18H113.999V228.88H116.459V211.6H113.999V215.36ZM117.659 211.28V229.7H120.159V211.28H117.659Z" fill="#111111"/>
<path d="M0 104C0 52.0852 42.0852 10 94 10C145.915 10 188 52.0852 188 104V178C188 189.046 179.046 198 168 198H20C8.9543 198 0 189.046 0 178V104Z" fill="#EBB23D"/>
<mask id="mask0_322_1630" style="mask-type:alpha" maskUnits="userSpaceOnUse" x="0" y="10" width="188" height="188">
<path d="M0 10H188V178C188 189.046 179.046 198 168 198H20C8.9543 198 0 189.046 0 178V10Z" fill="#D9D9D9"/>
</mask>
<g mask="url(#mask0_322_1630)">
<path d="M145.055 181.043C144.625 181.35 144.133 181.657 143.703 181.965C143.212 182.272 142.782 182.579 142.29 182.825C141.86 183.071 141.491 183.316 141.061 183.562C141 183.623 140.938 183.623 140.877 183.685C139.464 184.545 137.989 185.344 136.515 186.081C136.085 186.327 135.593 186.572 135.163 186.757C135.163 186.757 135.102 186.818 135.04 186.818C134.549 187.064 134.057 187.31 133.566 187.555C132.583 188.047 131.538 188.477 130.555 188.907C130.064 189.153 129.511 189.337 129.02 189.522C128.528 189.706 127.975 189.952 127.484 190.136C126.992 190.32 126.439 190.566 125.948 190.75C125.948 190.75 125.948 190.75 125.886 190.75C125.395 190.935 124.842 191.119 124.35 191.303C123.244 191.672 122.077 192.04 120.971 192.409C120.603 192.532 120.172 192.655 119.804 192.778C118.637 193.146 117.469 193.454 116.302 193.699C115.872 193.822 115.442 193.884 114.95 194.006C113.844 194.252 112.677 194.498 111.571 194.744C111.325 194.805 111.141 194.805 110.895 194.867C110.527 194.928 110.097 194.989 109.728 195.051C109.175 195.112 108.684 195.235 108.131 195.297C107.885 195.358 107.639 195.358 107.393 195.42C107.086 195.481 106.718 195.542 106.349 195.542C105.366 195.665 104.322 195.788 103.338 195.911C103.031 195.972 102.663 195.972 102.355 196.034H102.294C101.864 196.095 101.434 196.095 101.004 196.157C100.574 196.218 100.144 196.218 99.7137 196.218C99.4679 196.218 99.1607 196.28 98.915 196.28C98.4235 196.28 97.9934 196.341 97.5633 196.341C96.949 196.341 96.396 196.403 95.7816 196.403C95.1673 196.403 94.6143 196.403 93.9999 196.403C93.5699 196.403 93.1398 196.403 92.7097 196.403C66.7829 196.034 43.498 185.037 26.8483 167.588C26.8483 167.588 26.8483 167.527 26.7869 167.527C24.9437 165.868 26.5411 157.021 33.9751 151.43C43.3137 144.365 65.6771 139.941 65.6771 139.941C65.6771 139.941 74.3398 138.528 106.472 145.225C125.272 149.157 139.587 154.871 147.574 170.353C149.233 173.548 150.891 178.463 145.055 181.043Z" fill="white"/>
<path d="M106.656 144.549C118.452 146.945 131.047 149.525 140.754 157.328C144.011 159.97 146.161 163.84 147.943 167.588C148.803 169.431 149.663 171.336 150.339 173.363C150.707 174.715 151.26 176.251 150.953 177.848C150.892 178.278 150.523 178.831 150.216 179.139C148.803 180.552 147.267 181.412 145.731 182.518C136.699 188.784 126.316 193.208 115.565 195.542C91.6041 200.765 65.6773 196.71 44.6041 184.115C37.6001 179.876 31.1492 174.715 25.6198 168.633C25.0054 167.895 25.0054 166.667 25.0054 165.868C25.0668 164.025 25.5583 162.243 26.1727 160.584C27.6472 156.775 29.5518 152.966 32.808 150.324C35.1426 148.727 37.6616 147.375 40.242 146.269C48.3518 142.829 56.8916 140.433 65.6773 139.45C66.4145 139.388 66.5374 140.433 65.8001 140.556C57.3831 142.276 49.0276 144.856 41.225 148.358C38.3988 149.771 35.3884 151 33.1152 153.212C30.9648 155.546 29.4289 158.434 28.2001 161.383C27.4015 163.165 26.8485 165.991 27.0943 167.404C30.9648 172.012 35.5113 176.067 40.4263 179.569C67.3361 198.369 108.192 199.597 136.822 183.931C139.403 182.518 141.922 180.92 144.318 179.261C145.485 178.463 146.714 177.787 147.635 176.865C147.697 176.804 147.635 176.865 147.635 176.927C147.635 176.988 147.574 177.05 147.574 177.05C147.635 176.312 147.39 175.329 147.082 174.346C145.977 170.783 144.195 167.035 142.29 163.779C139.28 158.925 134.181 155.854 129.02 153.396C125.456 151.737 121.709 150.447 117.899 149.218C114.09 147.99 110.22 146.945 106.349 146.023C105.366 145.778 105.673 144.365 106.656 144.549Z" fill="black"/>
<path d="M55.8474 141.846C57.9977 145.655 66.169 160.953 67.4592 174.469L75.0775 177.049C75.0775 177.049 69.3023 151.491 58.9807 139.634C58.9807 139.634 57.752 139.081 56.216 140.125C55.7245 140.555 55.4788 141.231 55.8474 141.846Z" fill="black"/>
<path d="M121.217 174.653C121.217 174.653 121.586 157.635 114.213 146.453C114.029 146.146 114.275 145.716 114.643 145.778C115.135 145.901 115.872 146.085 117.039 146.638C119.005 147.559 125.395 157.328 125.948 173.363C125.948 173.302 121.831 174.653 121.217 174.653Z" fill="black"/>
<path d="M142.229 158.68C139.034 155.301 129.388 150.263 127.729 150.386C127.791 150.508 127.791 150.693 127.852 150.877C130.433 160.154 128.344 172.749 118.944 174.838C109.175 176.988 101.004 177.295 81.4051 175.329C67.0287 173.916 53.5123 161.014 46.6313 148.235C45.9555 146.945 45.1568 145.655 44.2966 144.487C43.8051 144.119 42.8836 144.18 42.2078 144.733C40.4875 146.146 38.2143 146.023 38.2143 147.375C38.2143 147.375 25.1895 151.43 20.643 179.999C18.0627 196.157 14.4378 217.107 14.3149 224.234H154.209C153.226 214.65 154.209 171.95 142.229 158.68Z" fill="black"/>
<path d="M141.062 159.786C139.218 157.942 136.822 156.529 134.549 155.178C132.46 153.949 129.88 152.597 127.73 151.983L129.143 150.017L129.204 150.386C130.924 157.574 130.556 166.114 125.579 172.012C123.859 173.978 121.34 175.391 118.76 175.821C113.967 176.804 108.991 177.357 104.076 177.357C95.4746 177.295 86.9962 176.62 78.5178 175.452C72.4969 174.162 66.906 171.152 62.0524 167.404C55.2328 162.12 50.0106 155.178 45.157 148.112C44.4812 147.129 43.6825 146.208 42.8223 145.409L43.1295 145.778C43.2524 145.901 43.3139 145.839 43.2524 145.839C43.2524 145.839 43.1295 145.839 43.0681 145.901C43.0067 145.901 43.0067 145.901 42.9452 146.023C41.9622 146.884 40.3648 147.314 39.3818 147.867C39.4433 147.867 39.5661 147.498 39.5661 147.437L38.4603 148.911L38.2759 148.972L38.0302 149.095C29.6132 153.642 25.5583 164.455 23.3465 173.302C21.1962 183.378 19.906 193.761 18.1857 203.898C17.2027 210.656 15.974 217.599 15.6668 224.295L14.0694 222.698H154.209L152.673 224.418C151.383 207.4 152.059 172.872 141.062 159.786ZM143.396 157.635C155.254 171.459 154.516 206.171 155.807 224.111C155.868 224.971 155.254 225.77 154.394 225.831C154.332 225.954 14.3766 225.77 14.3152 225.831C13.455 225.831 12.7178 225.155 12.7178 224.295C12.8406 220.671 13.3322 217.169 13.7622 213.728C15.1753 203.406 16.8956 193.146 18.5544 182.886C19.5988 176.005 21.0119 168.94 23.7766 162.427C26.5413 155.976 30.6576 149.218 37.2929 146.085C37.4158 146.023 37.5387 145.962 37.723 145.901L36.6171 147.375C36.5557 145.225 38.8903 144.672 40.3648 144.057C41.3478 143.505 42.1465 142.706 43.3753 142.706C43.9897 142.644 45.0955 142.89 45.5871 143.627C46.4472 145.348 47.1844 147.068 47.9217 148.788C49.1505 151.553 50.7478 154.133 52.591 156.529C59.2263 164.946 68.1962 172.319 78.8864 174.469C82.4498 175.084 86.1361 175.206 89.6995 175.514C99.3452 176.189 109.052 176.312 118.452 173.978C120.664 173.486 122.569 172.319 123.982 170.599C128.16 165.315 128.16 157.574 126.316 151.307L126.194 150.816C125.886 149.894 126.624 148.85 127.607 148.85C129.388 148.911 130.74 149.771 132.337 150.447C136.269 152.413 140.14 154.502 143.396 157.635Z" fill="black"/>
<path d="M122.692 181.473C112.616 185.774 79.501 186.757 62.667 177.664C52.0383 171.95 45.1572 159.355 41.8396 154.502C39.3821 150.816 38.1533 147.375 38.1533 147.375C38.1533 146.023 40.488 146.146 42.1468 144.733C42.8226 144.18 43.7442 144.119 44.2357 144.487C45.0958 145.716 45.8945 146.945 46.5703 148.235C53.4514 160.953 64.3259 173.732 81.3442 175.329C100.943 177.172 109.114 176.988 118.883 174.838C128.283 172.749 130.372 160.154 127.791 150.877C127.73 150.754 127.73 150.57 127.668 150.386C129.327 150.263 132.522 150.57 133.689 153.519C133.751 153.519 138.481 174.776 122.692 181.473Z" fill="white"/>
<path d="M123.06 182.333C119.005 183.992 114.766 184.606 110.527 185.098C106.288 185.589 102.049 185.774 97.8094 185.774C87.1806 185.651 76.3676 184.668 66.3532 180.859C54.9257 176.742 47.5532 166.359 41.4094 156.529C39.5663 153.826 37.846 151.061 36.8016 147.928C36.4944 147.129 36.9859 146.023 37.6617 145.532C38.5833 144.795 39.6277 144.795 40.5493 144.426C41.1637 144.242 41.5323 143.873 42.0852 143.566C43.0682 143.136 44.1741 142.767 45.4029 143.32C52.4682 158.741 64.08 173.486 82.2656 174.776C94.3074 175.882 106.595 177.111 118.514 174.346C123.306 173.547 126.439 169.247 127.545 164.7C128.774 160.093 128.405 155.116 127.115 150.57C126.992 150.14 127.3 149.71 127.73 149.71C130.371 149.464 133.628 150.631 134.549 153.396C135.594 158.925 135.594 164.578 133.996 169.923C132.399 175.391 128.344 180.183 123.06 182.333ZM122.323 180.613C127.238 178.647 130.863 174.469 132.522 169.493C134.181 164.455 134.365 158.864 133.321 153.642C132.583 151.614 130.003 150.754 127.791 151.061L128.405 150.201C130.494 158.065 130.064 169.37 122.262 174.1C121.156 174.715 119.927 175.145 118.698 175.391C116.302 175.882 113.845 176.312 111.449 176.619C101.68 177.664 91.8499 176.865 82.1427 176.066C65.4931 175.206 52.6525 162.12 45.5257 147.989C45.0342 146.883 44.4813 145.839 43.9284 144.733L44.0512 144.856C43.1297 144.303 42.1467 145.593 41.2865 145.9C40.4878 146.33 39.6277 146.515 38.9519 146.945C38.829 147.068 38.7676 147.191 38.7676 147.375V147.191C40.1806 151.061 42.761 154.563 44.9728 158.004C50.5637 166.605 57.3218 175.268 67.2748 178.831C81.1597 184.361 108.07 185.712 122.323 180.613Z" fill="black"/>
<path d="M112.431 160.891C111.141 167.219 102.785 171.029 88.7157 165.315C74.0935 159.417 67.7654 145.348 66.168 141.17C74.8307 124.95 68.8098 113.707 68.8098 113.707C88.7771 111.987 106.225 135.333 106.225 135.333L108.929 146.884C109.175 147.867 109.666 148.727 110.403 149.341C111.693 151.614 113.229 156.836 112.431 160.891Z" fill="white"/>
<path d="M65.8612 141.354C67.0285 139.572 67.7658 137.483 68.2573 135.456C69.1789 131.217 69.486 126.916 69.5475 122.616V121.018C69.3632 119.421 68.8102 117.762 68.1959 116.287C67.3972 114.321 70.2847 113.093 71.2063 115.059C71.3292 115.304 71.3292 115.734 71.3292 115.98C71.5135 124.336 71.8821 135.087 66.5985 142.03C66.2298 142.399 65.4926 141.846 65.8612 141.354Z" fill="black"/>
<path d="M106.901 135.21C107.823 135.763 108.13 136.501 108.253 137.238C108.622 138.712 108.499 140.31 108.867 141.846C109.175 143.32 110.096 144.733 110.342 146.269C110.649 147.867 111.571 151.246 111.939 152.904C112.062 153.273 111.816 153.703 111.386 153.765C111.141 153.826 110.956 153.765 110.772 153.642C109.973 152.966 109.605 152.29 109.113 151.43C108.314 149.955 107.762 148.604 107.27 146.945C106.84 145.471 107.024 143.873 106.656 142.337C106.348 140.863 105.488 139.45 105.181 137.914C104.997 137.176 104.935 136.378 105.488 135.456C105.857 135.087 106.471 134.965 106.901 135.21Z" fill="black"/>
<path d="M111.325 151.43C99.5908 150.815 90.0065 147.129 80.668 130.479C88.532 137.422 97.8091 140.064 107.578 141.293L108.868 146.945C109.114 147.928 110.588 150.815 111.325 151.43Z" fill="black"/>
<path d="M110.834 149.157C112.923 153.089 114.152 158.004 112.862 162.366C111.878 165.438 109.052 167.711 105.98 168.571C98.8537 170.476 90.621 167.465 84.2929 164.086C76.4903 159.724 70.7151 152.413 67.0288 144.426C66.7831 143.812 67.6432 143.32 68.0118 143.934C69.302 146.515 70.7765 149.034 72.4354 151.307C74.0942 153.642 75.9988 155.792 78.1491 157.697C84.4157 163.349 92.8942 166.851 101.373 166.851C110.097 166.605 113.414 161.997 111.387 153.519C111.08 152.167 110.588 150.754 109.912 149.587C109.544 149.095 110.465 148.542 110.834 149.157Z" fill="black"/>
<path d="M134.61 75.3697C135.716 80.5305 132.03 86.0599 132.03 99.822C132.03 113.891 129.449 129.189 118.821 139.818C109.666 148.972 99.1604 148.604 86.8114 138.958C85.0911 137.606 79.0702 133.06 77.5342 131.524C75.7525 129.742 74.7695 128.452 73.9094 127.1C73.1721 125.872 73.3565 118.745 72.312 117.086C69.6087 112.601 69.0558 117.455 65.5538 113.523C60.7002 108.239 54.8637 97.6103 57.7512 78.8103C62.4205 48.3371 86.5656 44.7737 104.444 48.1528C122.445 51.5933 131.661 61.792 134.61 75.3697Z" fill="white"/>
<path d="M68.6258 118.991C67.2128 116.656 65.4311 114.567 63.7722 112.417C62.1134 110.144 60.7618 107.748 59.6559 105.167C53.3892 89.992 54.3108 70.1475 65.4311 57.3685C73.0494 48.6443 85.0912 45.7567 96.15 46.3711C107.209 47.0469 118.698 49.873 126.869 57.86C131.6 62.4678 134.61 68.6116 135.962 75.0011C136.392 77.0286 136.085 79.2404 135.593 81.1449C134.18 86.49 132.828 91.5894 132.706 97.1188C132.767 105.351 132.521 113.768 130.125 121.694C128.405 126.978 126.377 132.261 123.183 136.869C119.865 141.538 114.889 145.286 109.175 146.392C97.686 148.727 86.9343 141.477 79.316 133.613C79.0088 133.244 79.4389 132.814 79.8075 133.06C84.1696 136.378 88.6546 139.45 93.5082 141.538C107.516 147.989 119.128 142.03 125.272 128.514C130.432 118.683 131.907 108.055 131.477 97.0574C131.477 94.2926 131.6 91.5279 131.968 88.7632C132.337 84.7698 133.689 80.7763 133.627 76.8443C132.583 70.4547 129.634 64.3109 125.21 59.5802C114.704 48.46 94.5526 45.2038 80.4219 50.2417C63.7722 56.1397 59.2873 72.9123 58.3657 88.9476C57.7513 98.5319 60.5775 107.932 67.8271 114.506L70.7147 117.516C71.6977 118.868 69.6088 120.465 68.6258 118.991Z" fill="black"/>
<path d="M75.8756 99.4534C75.8756 99.4534 73.971 90.2377 65.0011 91.3436C57.2599 92.3266 54.5566 110.881 72.1279 116.042" fill="white"/>
<path d="M71.3293 107.993C69.9162 107.195 68.9332 105.843 68.8718 104.184C68.9332 102.955 69.1176 101.542 68.8104 100.314C68.626 99.1463 67.3973 98.8391 66.4757 98.9006C65.4927 99.0849 64.8783 100.314 64.694 101.297C64.694 101.358 64.6326 101.542 64.6326 101.604C64.5711 101.911 64.0796 101.911 63.9568 101.604C63.1581 99.2078 64.9398 96.5659 67.5202 96.8731C71.145 97.1189 71.6365 100.928 70.9607 103.816C70.5921 105.044 71.0836 106.15 71.7594 107.195L71.8823 107.379C72.1894 107.748 71.6979 108.239 71.3293 107.993Z" fill="black"/>
<path d="M120.48 92.9411C121.401 97.3032 123.121 101.358 125.272 105.167C127.176 109.837 122.261 114.26 117.899 114.076C117.408 114.076 117.346 113.4 117.776 113.277C120.541 112.417 123.06 110.574 123.49 107.748C123.674 106.887 123.429 106.15 122.999 105.413C120.971 101.604 119.742 97.2417 120.05 92.9411C120.05 92.6339 120.48 92.6339 120.48 92.9411Z" fill="black"/>
<path d="M75.5686 99.5148C74.1555 95.89 71.0836 92.4495 66.9673 92.5109C66.5987 92.4495 65.9843 92.5723 65.6156 92.5723C64.5712 92.6338 63.7111 93.0024 62.9124 93.7397C58.9804 97.6717 59.6562 104.614 62.8509 108.976C63.9568 110.512 65.3699 111.864 66.9673 112.97C68.5647 114.076 70.3464 114.936 72.2509 115.673C72.681 115.796 72.4967 116.472 72.0666 116.41C67.9503 115.55 64.0183 113.523 61.315 110.144C57.1372 105.106 56.2771 96.6887 61.2536 91.7737C62.3594 90.7906 63.8954 90.0534 65.4313 90.0534C65.9228 90.0534 66.6601 89.9305 67.1516 90.0534C69.732 90.1763 72.1895 91.4665 73.7869 93.4939C75.2 95.2142 75.9987 97.3031 76.2444 99.3919C76.2444 99.7606 75.6915 99.8835 75.5686 99.5148Z" fill="black"/>
<path d="M114.397 119.974C114.459 120.957 113.721 122.677 112.37 123.906C105.427 119.667 102.294 121.878 102.294 121.878C99.8363 118.131 100.389 113.031 106.349 116.902C110.465 119.605 113.045 120.035 114.397 119.974Z" fill="black"/>
<path d="M112.308 123.967C110.834 125.258 108.622 126.056 105.612 124.828C104.198 124.275 103.093 123.169 102.232 121.94C102.294 121.94 105.366 119.728 112.308 123.967Z" fill="white"/>
<path d="M115.564 119.79C115.564 119.79 112.984 121.203 106.349 116.964C98.4231 111.864 100.021 122.554 105.611 124.828C111.448 127.224 114.458 122.001 114.397 120.035" stroke="black" stroke-width="3" stroke-miterlimit="10" stroke-linecap="round" stroke-linejoin="round"/>
<path d="M102.294 121.94C102.294 121.94 105.427 119.728 112.37 123.967" stroke="black" stroke-width="3" stroke-miterlimit="10" stroke-linecap="round" stroke-linejoin="round"/>
<path d="M107.025 84.9542C108.376 84.8313 109.052 83.2339 108.315 82.0052C107.885 81.3908 107.332 80.8379 106.533 80.5307C104.199 79.7934 96.5804 81.4522 93.2627 85.2614C90.3137 88.7633 100.881 85.5071 107.025 84.9542Z" fill="black"/>
<path d="M123.245 85.9372C122.2 85.63 121.893 84.0941 122.753 83.1111C123.183 82.6196 123.798 82.1895 124.474 82.0666C126.562 81.698 131.355 83.6026 132.706 87.2274C133.935 90.3607 128.221 87.166 123.245 85.9372Z" fill="black"/>
<path d="M97.5635 99.2079C96.089 99.1465 94.9831 97.9177 95.106 96.4432L95.1674 94.7229C95.2289 93.2484 96.4576 92.1426 97.9321 92.2654C99.4067 92.3269 100.513 93.5556 100.39 95.0301L100.328 96.7504C100.267 98.1635 99.038 99.2694 97.5635 99.2079Z" fill="black"/>
<path d="M123.429 100.129C122.077 100.068 121.032 98.9005 121.094 97.5489L121.155 95.9515C121.217 94.5998 122.384 93.5554 123.736 93.6168C125.087 93.6783 126.132 94.8456 126.07 96.1972L126.009 97.7946C125.947 99.1462 124.78 100.191 123.429 100.129Z" fill="black"/>
<path d="M103.093 95.8901C101.065 94.5384 98.8537 93.6169 96.3961 94.1084C95.5974 94.2313 94.7988 94.477 94.3073 95.0299C94.1229 95.2757 93.6929 95.2143 93.6929 94.8456C93.7543 93.6169 94.7987 92.8182 95.7818 92.3267C97.6863 91.3437 100.328 91.528 102.048 92.8182C102.663 93.1868 104.752 95.46 103.646 95.9515C103.4 96.0744 103.277 96.013 103.093 95.8901Z" fill="black"/>
<path d="M120.664 96.1975C120.664 93.6171 123.858 92.6955 125.824 93.6171C126.93 94.1086 127.729 95.0916 128.036 96.2589C128.159 96.6275 127.606 96.9347 127.36 96.6275C126.316 95.3988 124.534 94.7844 123.121 95.5216C122.691 95.7674 122.63 95.9517 122.507 96.1975C122.507 97.4262 120.725 97.3648 120.664 96.1975Z" fill="black"/>
<path d="M134.782 93.0024C134.843 92.6952 134.905 92.388 134.905 92.0808C135.519 88.2102 135.949 84.6468 136.195 81.2677C136.686 74.3867 135.396 61.9762 125.505 54.5422C124.644 53.8664 123.723 53.252 122.678 52.6991C121.818 52.2076 120.897 51.7775 119.975 51.3475C111.927 47.9069 98.9633 43.7906 86.1228 46.0024C81.2078 46.8011 76.2927 48.5828 71.6849 51.5932C71.6235 51.5932 71.6235 51.6547 71.6235 51.6547C60.4418 59.0272 56.5097 70.7004 54.4209 81.6978C53.745 85.1998 53.2535 88.7017 52.8235 91.8965C52.5777 93.5553 52.332 95.1527 52.0862 96.6272C51.1646 102.218 48.0927 107.195 44.8365 111.127C44.6522 111.311 44.4679 111.557 44.2836 111.741C41.6418 114.751 38.9999 117.147 37.1568 118.561C37.0339 118.622 36.911 118.745 36.8496 118.806C40.9045 131.585 56.3869 141.17 70.7019 144.057C72.7908 134.903 74.2039 125.626 72.4222 116.103C71.9307 115.919 71.6849 115.734 71.6849 115.612C54.728 110.266 57.4313 92.0808 65.111 91.0978C67.8758 90.7292 69.9032 91.405 71.5006 92.388C73.6509 93.9854 75.9856 97.9788 75.9856 99.1462C76.1084 96.4429 77.2757 92.6952 78.6888 92.5723C80.1633 92.4494 81.6378 92.1422 83.0509 91.5893C90.1163 89.1318 96.5673 82.4965 102.281 76.5984C110.145 68.4886 116.535 61.6076 121.081 68.4272C121.327 68.7958 121.572 69.1645 121.757 69.5331C127.163 69.4102 129.682 72.5435 130.972 75.7998C130.972 75.7998 130.972 75.7998 130.972 75.8612C132.017 78.6259 132.14 81.452 132.263 82.1893C132.263 82.3122 132.263 82.3736 132.324 82.3736C132.201 84.8311 131.894 89.0089 131.833 94.4154C131.833 96.873 132.078 101.788 131.894 104.614C131.833 105.474 131.771 106.334 131.71 107.133C131.648 107.563 131.648 107.993 131.587 108.362C131.525 108.73 131.525 109.161 131.464 109.591C131.403 110.205 131.341 110.819 131.28 111.495C131.218 112.048 131.157 112.601 131.095 113.154V113.215C131.034 113.646 130.972 114.014 130.911 114.383C129.989 119.298 128.576 124.52 126.549 127.653C122.494 133.981 119.299 139.327 113.463 142.03C107.688 144.672 101.114 145.225 101.114 145.225C101.114 145.225 102.957 146.392 107.319 146.638C111.62 146.883 114.814 145.593 118.009 146.146C124.829 147.313 136.809 147.313 136.809 147.313C145.779 123.721 130.604 122.615 134.782 93.0024Z" fill="black"/>
<path d="M86.9344 111.372C88.6547 110.451 90.3135 109.468 92.2181 108.976C92.4024 108.976 92.5253 108.915 92.8939 109.038C94.1841 110.021 90.4364 112.478 89.7606 113.093C89.9449 112.847 89.8834 112.417 89.5763 112.294C89.5148 112.294 89.5148 112.233 89.4534 112.233C89.3305 112.233 89.3305 112.233 89.3305 112.233C90.8664 111.68 92.4024 111.065 93.8769 110.328C94.737 109.959 95.9044 109.161 96.8259 109.099C97.1946 109.099 97.6246 109.468 97.5632 109.836C97.5017 110.328 97.3789 110.512 97.256 110.819C97.1331 111.065 96.8874 111.434 96.8259 111.68C96.8259 111.741 96.7645 111.618 96.7645 111.618C96.7645 111.68 97.1331 111.68 97.1945 111.618C98.1776 111.495 99.222 111.127 100.205 110.758C100.389 110.697 100.512 110.942 100.328 111.065C99.2834 111.741 98.1776 112.478 96.8259 112.601C95.9658 112.663 95.5357 111.864 95.8429 111.127C95.9658 110.697 96.273 110.205 96.3959 109.836C96.3959 109.959 96.5187 110.144 96.6416 110.205C96.7645 110.266 96.8259 110.205 96.7645 110.266C96.1501 110.451 94.9214 111.127 94.3684 111.372C92.771 112.11 91.2351 112.785 89.5148 113.277C89.3919 113.277 89.3919 113.338 89.2076 113.277C88.7161 113.216 88.5932 112.601 88.9619 112.294C89.6991 111.68 90.5593 111.188 91.2351 110.574C91.6037 110.266 92.0338 109.836 92.2795 109.468C92.2795 109.529 92.341 109.652 92.4024 109.714C91.8494 109.775 90.7436 110.082 90.0678 110.389C89.0848 110.758 88.0403 111.188 87.0573 111.618C86.9344 111.741 86.7501 111.434 86.9344 111.372Z" fill="black"/>
<path d="M126.746 111.372C127.299 110.758 129.634 107.809 130.248 109.345C130.248 109.468 130.248 109.591 130.248 109.652C130.002 110.881 129.204 111.925 128.589 112.97C128.712 112.663 128.466 112.233 128.159 112.171C128.036 112.171 127.975 112.171 127.913 112.171C127.852 112.171 127.913 112.171 127.975 112.11C129.204 111.311 130.125 110.328 131.354 109.468C131.6 109.345 131.907 109.161 132.214 109.345C132.521 109.591 132.46 109.959 132.337 110.205C132.214 110.512 132.091 110.758 131.968 111.065C131.907 111.127 131.845 111.188 131.723 111.127C131.661 111.127 131.661 111.065 131.661 111.004C131.661 110.881 131.661 110.082 131.661 109.959C131.661 109.898 131.6 109.836 131.661 109.959C131.661 110.021 131.784 110.144 131.907 110.144C131.968 110.144 132.091 110.144 132.091 110.144C131.047 111.372 129.818 112.54 128.405 113.338C127.975 113.523 127.483 113.154 127.545 112.663C127.545 112.601 127.606 112.478 127.668 112.417C128.098 111.802 128.589 111.188 128.958 110.574C129.142 110.267 129.388 109.836 129.449 109.529C129.449 109.652 129.695 109.836 129.757 109.775C128.774 110.144 127.913 110.942 127.053 111.557C126.808 111.741 126.623 111.495 126.746 111.372Z" fill="black"/>
</g>
<path d="M0.704 21H8.08V19.736H4.832C4.24 19.736 3.52 19.8 2.912 19.848C5.664 17.24 7.504 14.856 7.504 12.52C7.504 10.424 6.192 9.048 4.096 9.048C2.608 9.048 1.6 9.736 0.64 10.776L1.488 11.608C2.128 10.84 2.96 10.248 3.92 10.248C5.376 10.248 6.08 11.224 6.08 12.568C6.08 14.584 4.384 16.92 0.704 20.136V21ZM13.179 21.208C15.387 21.208 16.859 19.88 16.859 18.168C16.859 16.568 15.899 15.688 14.875 15.096V15.016C15.579 14.472 16.443 13.416 16.443 12.184C16.443 10.376 15.227 9.096 13.227 9.096C11.387 9.096 10.011 10.28 10.011 12.072C10.011 13.304 10.731 14.184 11.595 14.776V14.856C10.523 15.432 9.435 16.52 9.435 18.088C9.435 19.896 11.019 21.208 13.179 21.208ZM13.979 14.632C12.603 14.088 11.339 13.48 11.339 12.072C11.339 10.936 12.123 10.168 13.195 10.168C14.459 10.168 15.195 11.112 15.195 12.264C15.195 13.128 14.779 13.928 13.979 14.632ZM13.211 20.12C11.803 20.12 10.763 19.208 10.763 17.96C10.763 16.84 11.419 15.912 12.363 15.304C14.027 15.976 15.467 16.568 15.467 18.136C15.467 19.304 14.555 20.12 13.211 20.12ZM19.126 9.384V10.44H24.518C24.246 13.848 22.326 16.6 18.47 18.44L19.174 19.512C23.942 17.176 25.846 13.528 25.846 9.384H19.126ZM28.742 7.832V22.184H30.054V7.832H28.742Z" fill="#8B6517"/>
</svg>
