<svg width="188" height="234" viewBox="0 0 188 234" fill="none" xmlns="http://www.w3.org/2000/svg">
<path d="M69.1223 212.36V214.44H74.8223C74.4423 216.88 72.1423 218.9 68.0623 219.92L69.0623 221.98C74.5423 220.58 77.6423 217.26 77.6423 212.36H69.1223ZM73.6823 224.42H80.6623V227.44H73.6823V224.42ZM71.0823 229.5H83.2623V222.34H71.0823V229.5ZM80.6023 211.32V221.56H83.2623V211.32H80.6023ZM87.8408 219.6C91.2808 219.22 93.5408 217.8 94.4808 215.92C95.4608 217.8 97.7008 219.22 101.121 219.6L102.081 217.54C98.4808 217.14 96.6608 215.66 96.3608 214.18H101.321V212.08H87.6808V214.18H92.6208C92.3008 215.64 90.4608 217.14 86.9008 217.54L87.8408 219.6ZM90.7208 224.1H88.0808V229.4H100.981V227.3H90.7208V224.1ZM86.1408 220.48V222.56H93.4008V225.68H96.0408V222.56H102.841V220.48H86.1408ZM112.639 227.74C110.179 227.74 108.919 227.32 108.919 226.38C108.919 225.44 110.179 225.04 112.639 225.04C115.099 225.04 116.359 225.44 116.359 226.38C116.359 227.32 115.099 227.74 112.639 227.74ZM112.639 223.04C108.659 223.04 106.259 224.24 106.259 226.38C106.259 228.52 108.659 229.74 112.639 229.74C116.619 229.74 119.039 228.52 119.039 226.38C119.039 224.24 116.619 223.04 112.639 223.04ZM110.739 218.5C111.339 218.58 111.979 218.62 112.679 218.62C113.359 218.62 113.999 218.58 114.579 218.52V220.04H110.739V218.5ZM112.679 213.58C115.199 213.58 116.639 214.08 116.639 215.12C116.639 216.12 115.199 216.64 112.679 216.64C110.179 216.64 108.739 216.12 108.739 215.12C108.739 214.08 110.179 213.58 112.679 213.58ZM117.219 220.04V217.84C118.579 217.24 119.359 216.32 119.359 215.12C119.359 212.92 116.759 211.58 112.679 211.58C108.619 211.58 106.019 212.92 106.019 215.12C106.019 216.3 106.779 217.22 108.099 217.82V220.04H104.359V222.12H120.999V220.04H117.219Z" fill="#111111"/>
<path d="M0 104C0 52.0852 42.0852 10 94 10C145.915 10 188 52.0852 188 104V178C188 189.046 179.046 198 168 198H20C8.9543 198 0 189.046 0 178V104Z" fill="#EBB23D"/>
<mask id="mask0_322_1590" style="mask-type:alpha" maskUnits="userSpaceOnUse" x="0" y="10" width="188" height="188">
<path d="M0 10H188V178C188 189.046 179.046 198 168 198H20C8.9543 198 0 189.046 0 178V10Z" fill="#D9D9D9"/>
</mask>
<g mask="url(#mask0_322_1590)">
<path d="M145.055 181.043C144.625 181.35 144.133 181.657 143.703 181.965C143.212 182.272 142.782 182.579 142.29 182.825C141.86 183.071 141.491 183.316 141.061 183.562C141 183.623 140.938 183.623 140.877 183.685C139.464 184.545 137.989 185.344 136.515 186.081C136.085 186.327 135.593 186.572 135.163 186.757C135.163 186.757 135.102 186.818 135.04 186.818C134.549 187.064 134.057 187.31 133.566 187.555C132.583 188.047 131.538 188.477 130.555 188.907C130.064 189.153 129.511 189.337 129.02 189.522C128.528 189.706 127.975 189.952 127.484 190.136C126.992 190.32 126.439 190.566 125.948 190.75C125.948 190.75 125.948 190.75 125.886 190.75C125.395 190.935 124.842 191.119 124.35 191.303C123.244 191.672 122.077 192.04 120.971 192.409C120.603 192.532 120.172 192.655 119.804 192.778C118.637 193.146 117.469 193.454 116.302 193.699C115.872 193.822 115.442 193.884 114.95 194.006C113.844 194.252 112.677 194.498 111.571 194.744C111.325 194.805 111.141 194.805 110.895 194.867C110.527 194.928 110.097 194.989 109.728 195.051C109.175 195.112 108.684 195.235 108.131 195.297C107.885 195.358 107.639 195.358 107.393 195.42C107.086 195.481 106.718 195.542 106.349 195.542C105.366 195.665 104.322 195.788 103.338 195.911C103.031 195.972 102.663 195.972 102.355 196.034H102.294C101.864 196.095 101.434 196.095 101.004 196.157C100.574 196.218 100.144 196.218 99.7137 196.218C99.4679 196.218 99.1607 196.28 98.915 196.28C98.4235 196.28 97.9934 196.341 97.5633 196.341C96.949 196.341 96.396 196.403 95.7816 196.403C95.1673 196.403 94.6143 196.403 93.9999 196.403C93.5699 196.403 93.1398 196.403 92.7097 196.403C66.7829 196.034 43.498 185.037 26.8483 167.588C26.8483 167.588 26.8483 167.527 26.7869 167.527C24.9437 165.868 26.5411 157.021 33.9751 151.43C43.3137 144.365 65.6771 139.941 65.6771 139.941C65.6771 139.941 74.3398 138.528 106.472 145.225C125.272 149.157 139.587 154.871 147.574 170.353C149.233 173.548 150.891 178.463 145.055 181.043Z" fill="white"/>
<path d="M106.656 144.549C118.452 146.945 131.047 149.525 140.754 157.328C144.011 159.97 146.161 163.84 147.943 167.588C148.803 169.431 149.663 171.336 150.339 173.363C150.707 174.715 151.26 176.251 150.953 177.848C150.892 178.278 150.523 178.831 150.216 179.139C148.803 180.552 147.267 181.412 145.731 182.518C136.699 188.784 126.316 193.208 115.565 195.542C91.6041 200.765 65.6773 196.71 44.6041 184.115C37.6001 179.876 31.1492 174.715 25.6198 168.633C25.0054 167.895 25.0054 166.667 25.0054 165.868C25.0668 164.025 25.5583 162.243 26.1727 160.584C27.6472 156.775 29.5518 152.966 32.808 150.324C35.1426 148.727 37.6616 147.375 40.242 146.269C48.3518 142.829 56.8916 140.433 65.6773 139.45C66.4145 139.388 66.5374 140.433 65.8001 140.556C57.3831 142.276 49.0276 144.856 41.225 148.358C38.3988 149.771 35.3884 151 33.1152 153.212C30.9648 155.546 29.4289 158.434 28.2001 161.383C27.4015 163.165 26.8485 165.991 27.0943 167.404C30.9648 172.012 35.5113 176.067 40.4263 179.569C67.3361 198.369 108.192 199.597 136.822 183.931C139.403 182.518 141.922 180.92 144.318 179.261C145.485 178.463 146.714 177.787 147.635 176.865C147.697 176.804 147.635 176.865 147.635 176.927C147.635 176.988 147.574 177.05 147.574 177.05C147.635 176.312 147.39 175.329 147.082 174.346C145.977 170.783 144.195 167.035 142.29 163.779C139.28 158.925 134.181 155.854 129.02 153.396C125.456 151.737 121.709 150.447 117.899 149.218C114.09 147.99 110.22 146.945 106.349 146.023C105.366 145.778 105.673 144.365 106.656 144.549Z" fill="black"/>
<path d="M165.453 219.134H10.0762C10.0762 219.134 12.5951 193.822 22.1794 173.609C25.6814 166.236 26.8487 155.423 33.7912 150.693C40.918 145.839 56.0932 141.968 61.3768 141.354C64.3258 140.985 63.65 140.74 65.7389 140.187C66.4147 142.03 73.2343 160.093 89.5768 166.728C103.646 172.442 112.002 168.633 113.292 162.304C114.091 158.25 111.572 151.614 110.281 149.464C109.544 148.85 109.053 147.928 108.807 147.006L108.315 144.979C109.421 144.733 110.466 144.426 111.572 144.119C112.125 144.242 112.739 144.18 113.23 144.487C118.391 147.314 133.935 151.307 142.045 159.847C145.24 163.165 150.216 174.961 151.015 182.64C153.288 203.714 165.453 219.134 165.453 219.134Z" fill="white"/>
<path d="M166.313 219.503C120.235 219.626 55.5405 220.179 10.1379 219.995C9.58493 219.995 9.15486 219.503 9.2163 218.95C9.76924 214.588 10.5065 210.349 11.3666 206.048C13.6398 194.314 17.0804 182.763 22.2411 172.012C24.33 166.974 25.3745 161.69 27.8934 156.775C29.3679 153.826 31.5797 151 34.5287 149.341C39.2594 146.515 44.4817 144.733 49.7039 143.136C52.8372 142.214 56.032 141.354 59.2268 140.74C60.8241 140.371 62.4215 140.433 63.896 139.818C64.6947 139.511 66.2307 138.59 66.7222 139.757C71.2072 151.369 79.8699 162.366 91.9732 166.482C98.2398 168.756 109.114 170.66 112.309 162.98C113.292 160.093 112.371 156.96 111.51 154.072C111.019 152.597 110.405 151.062 109.667 149.833L109.852 150.017C108.746 149.095 108.131 147.621 107.947 146.269L107.64 145.041C107.517 144.549 107.824 144.058 108.316 143.935C109.422 143.75 110.527 143.382 111.633 143.075C112.248 143.075 113.231 143.197 114.029 143.628C120.788 146.761 128.467 149.034 134.918 152.966C138.543 155.116 142.229 157.635 144.564 161.26C148.865 168.448 151.629 176.62 152.428 184.914C154.148 196.771 158.94 208.137 165.822 217.906L166.067 218.213L166.19 218.336L166.252 218.397C166.252 218.397 166.252 218.336 166.313 218.52C166.374 218.889 166.374 219.319 166.313 219.503ZM164.654 218.705C164.531 218.889 164.531 219.319 164.654 219.503C164.777 219.626 164.716 219.565 164.716 219.565L164.654 219.503L164.531 219.319L164.286 219.012C160.415 213.114 157.22 206.786 154.886 200.212C153.042 195.358 151.691 190.32 150.954 185.16C150.708 183.316 150.401 180.859 149.971 179.077C148.557 173.179 146.284 167.281 143.028 162.182C141.984 160.523 140.448 159.233 138.912 158.004C134.058 154.318 128.344 152.045 122.692 149.833L116.917 147.682C115.012 146.945 112.739 146.146 111.572 144.979H112.063C110.957 145.348 109.852 145.655 108.746 145.901L109.422 144.795L109.729 146.024C109.974 147.129 110.22 148.112 111.08 148.85C111.142 148.911 111.203 148.973 111.265 149.034C112.923 152.045 113.906 155.178 114.398 158.557C115.442 164.394 111.756 169.001 106.104 170.107C98.3013 171.643 88.9627 168.264 82.5117 163.902C74.4019 158.188 68.5653 149.71 65.0019 140.556L66.1078 141.109C65.5549 141.293 65.1862 141.477 64.6333 141.723C64.0804 142.03 63.4045 142.214 62.7902 142.337C62.8516 142.706 62.6673 141.6 62.913 143.075C61.7457 143.197 60.8241 143.259 59.7183 143.505C56.5849 143.996 53.4516 144.733 50.3797 145.594C46.2634 146.699 42.2085 148.051 38.3993 149.833C36.4947 150.754 34.6516 151.737 33.2385 153.028C31.764 154.318 30.5967 156.038 29.6137 157.881C26.7261 163.472 25.313 170.169 22.364 175.821C16.2202 189.522 12.7797 204.451 11.1209 219.38L10.1993 218.397C54.8032 218.213 119.313 218.459 164.654 218.705Z" fill="black"/>
<path d="M115.566 178.954C113.415 179.569 105.92 171.766 104.384 170.414C102.971 172.012 93.0178 183.255 88.1028 182.518C82.6962 181.719 68.8727 172.442 61.8688 157.881C57.9982 149.894 57.8753 145.041 58.3054 142.399C58.4897 141.17 58.8583 140.371 59.0427 139.941C59.657 138.528 64.0806 133.06 65.1864 133.122V133.183C65.7394 139.081 67.644 144.795 70.8387 149.771C74.7708 155.854 80.976 163.165 89.6387 166.667C103.708 172.38 111.019 166.728 112.248 160.4C113.047 156.345 111.634 151.553 110.343 149.403C109.606 148.788 109.115 147.867 108.869 146.945L108.377 144.918C109.483 144.672 110.528 144.365 111.634 144.058C111.941 143.935 112.309 143.873 112.617 143.75C112.801 143.996 113.047 144.242 113.231 144.488C115.811 147.437 118.515 151.492 119.989 158.373C122.447 169.37 117.962 178.217 115.566 178.954Z" fill="black"/>
<path d="M104.199 170.046C104.199 170.046 108.684 172.626 108.561 174.777C108.438 176.927 109.729 183.747 109.729 183.747" stroke="black" stroke-width="3" stroke-miterlimit="10" stroke-linecap="round" stroke-linejoin="round"/>
<path d="M104.138 178.217C104.952 178.217 105.613 177.557 105.613 176.743C105.613 175.928 104.952 175.268 104.138 175.268C103.324 175.268 102.664 175.928 102.664 176.743C102.664 177.557 103.324 178.217 104.138 178.217Z" fill="black"/>
<path d="M104.629 183.992C105.444 183.992 106.104 183.332 106.104 182.518C106.104 181.703 105.444 181.043 104.629 181.043C103.815 181.043 103.155 181.703 103.155 182.518C103.155 183.332 103.815 183.992 104.629 183.992Z" fill="black"/>
<path d="M40.4879 219.135L37.7231 196.341" stroke="#544D4D" stroke-width="3" stroke-miterlimit="10" stroke-linecap="round" stroke-linejoin="round"/>
<path d="M147.82 188.6C147.82 188.6 145.977 193.085 146.53 197.57C147.083 202.055 148.68 208.629 146.407 219.135" stroke="#544D4D" stroke-width="3" stroke-miterlimit="10" stroke-linecap="round" stroke-linejoin="round"/>
<path d="M65.1859 133.122C65.1859 133.122 85.0304 126.978 112.677 143.689C112.677 143.689 120.296 164.209 115.565 167.343C110.834 170.476 95.9663 170.783 85.5833 167.343C75.1389 163.963 61.7454 147.068 65.1859 133.122Z" fill="black"/>
<path d="M112.431 160.892C111.141 167.22 102.785 171.029 88.7162 165.315C74.0939 159.417 67.7658 145.348 66.1685 141.17C74.8312 124.95 68.8103 113.707 68.8103 113.707C88.7776 111.987 106.226 135.333 106.226 135.333L108.929 146.884C109.175 147.867 109.666 148.727 110.404 149.341C111.694 151.614 113.23 156.837 112.431 160.892Z" fill="white"/>
<path d="M65.8617 141.354C67.029 139.573 67.7663 137.484 68.2578 135.456C69.1793 131.217 69.4865 126.916 69.548 122.616V121.018C69.3637 119.421 68.8107 117.762 68.1963 116.288C67.3976 114.322 70.2852 113.093 71.2068 115.059C71.3297 115.305 71.3297 115.735 71.3297 115.98C71.514 124.336 71.8826 135.088 66.599 142.03C66.2303 142.399 65.4931 141.846 65.8617 141.354Z" fill="black"/>
<path d="M106.902 135.211C107.823 135.764 108.131 136.501 108.254 137.238C108.622 138.713 108.499 140.31 108.868 141.846C109.175 143.32 110.097 144.733 110.342 146.269C110.65 147.867 111.571 151.246 111.94 152.905C112.063 153.273 111.817 153.703 111.387 153.765C111.141 153.826 110.957 153.765 110.773 153.642C109.974 152.966 109.605 152.29 109.114 151.43C108.315 149.956 107.762 148.604 107.271 146.945C106.84 145.471 107.025 143.873 106.656 142.337C106.349 140.863 105.489 139.45 105.182 137.914C104.997 137.177 104.936 136.378 105.489 135.456C105.857 135.088 106.472 134.965 106.902 135.211Z" fill="black"/>
<path d="M111.326 151.43C99.5913 150.816 90.007 147.129 80.6685 130.48C88.5325 137.422 97.8096 140.064 107.578 141.293L108.868 146.945C109.114 147.928 110.589 150.816 111.326 151.43Z" fill="black"/>
<path d="M110.835 149.157C112.923 153.089 114.152 158.004 112.862 162.366C111.879 165.438 109.053 167.711 105.981 168.571C98.8541 170.476 90.6215 167.465 84.2934 164.086C76.4907 159.724 70.7156 152.413 67.0293 144.426C66.7836 143.812 67.6437 143.32 68.0123 143.935C69.3025 146.515 70.777 149.034 72.4358 151.307C74.0947 153.642 75.9992 155.792 78.1496 157.697C84.4162 163.349 92.8947 166.851 101.373 166.851C110.097 166.605 113.415 161.997 111.387 153.519C111.08 152.167 110.589 150.754 109.913 149.587C109.544 149.095 110.466 148.543 110.835 149.157Z" fill="black"/>
<path d="M134.611 75.37C135.716 80.5308 136.269 84.7086 133.259 98.4707C130.31 112.171 137.498 114.997 120.48 136.931C113.537 145.901 96.7034 143.382 83.0641 134.105C78.4563 130.971 76.4903 122.923 73.0498 117.209C70.3465 112.724 69.1177 117.394 65.5543 113.523C60.7007 108.239 54.8641 97.6105 57.7517 78.8105C62.421 48.3373 86.5661 44.7739 104.445 48.153C122.446 51.5935 131.662 61.7922 134.611 75.37Z" fill="white"/>
<path d="M68.6262 118.991C67.2131 116.595 65.37 114.506 63.6497 112.294C61.9909 110.021 60.6392 107.502 59.5334 104.922C52.2222 86.9818 55.0484 61.7308 72.9883 51.1635C80.4222 46.8628 89.3922 45.8184 97.7477 46.4942C115.626 47.7844 132.03 56.0171 135.901 74.94C137.99 83.2955 135.163 91.8968 133.566 100.068C132.829 104.123 133.443 108.301 133.382 112.479C133.32 116.718 132.153 120.957 130.556 124.889C129.573 127.592 127.852 129.988 126.071 132.2C123.122 135.763 120.173 139.388 116.425 142.153C115.565 142.767 114.029 143.075 112.984 143.197C110.097 143.628 107.271 143.75 104.383 143.566C93.0785 143.075 80.9752 137.607 76.4288 126.671C76.2445 126.241 76.8588 125.933 77.1046 126.302C83.0026 135.641 93.8157 140.248 104.567 140.863C107.885 141.047 111.264 140.986 114.52 140.31C116.118 139.511 117.531 138.098 118.882 136.808C122.2 133.49 125.579 129.927 127.975 125.872C130.863 120.404 132.46 114.445 131.969 108.239C131.846 105.475 131.784 102.587 132.337 99.8223C132.829 97.0576 133.443 94.4158 133.812 91.5896C134.18 88.8864 134.365 86.1217 134.365 83.4184C134.058 75.4929 131.477 67.3217 126.439 61.1779C115.319 47.3543 89.0236 43.7295 74.217 53.1909C64.8785 58.9661 60.5164 69.7792 59.1033 80.2851C56.953 92.8798 57.5673 105.29 67.5817 114.445L70.5307 117.516C71.6981 118.868 69.6092 120.465 68.6262 118.991Z" fill="black"/>
<path d="M75.8756 99.4536C75.8756 99.4536 73.971 90.238 65.0011 91.3438C57.2599 92.3268 54.5566 110.881 72.1279 116.042" fill="white"/>
<path d="M71.3293 107.994C69.9162 107.195 68.9332 105.843 68.8718 104.184C68.9332 102.956 69.1176 101.543 68.8104 100.314C68.6261 99.1466 67.3973 98.8394 66.4757 98.9008C65.4927 99.0851 64.8783 100.314 64.694 101.297C64.694 101.358 64.6326 101.543 64.6326 101.604C64.5711 101.911 64.0796 101.911 63.9568 101.604C63.1581 99.208 64.9398 96.5662 67.5202 96.8733C71.145 97.1191 71.6365 100.928 70.9607 103.816C70.5921 105.045 71.0836 106.15 71.7594 107.195L71.8823 107.379C72.1894 107.748 71.6979 108.239 71.3293 107.994Z" fill="black"/>
<path d="M120.48 92.9413C121.401 97.3034 123.121 101.358 125.272 105.167C127.176 109.837 122.261 114.26 117.899 114.076C117.408 114.076 117.346 113.4 117.776 113.277C120.541 112.417 123.06 110.574 123.49 107.748C123.674 106.888 123.429 106.15 122.999 105.413C120.971 101.604 119.742 97.242 120.05 92.9413C120.05 92.6341 120.48 92.6341 120.48 92.9413Z" fill="black"/>
<path d="M75.5686 99.5151C74.1555 95.8902 71.0836 92.4497 66.9673 92.5112C66.5987 92.4497 65.9843 92.5726 65.6157 92.5726C64.5712 92.634 63.7111 93.0027 62.9124 93.7399C58.9804 97.6719 59.6562 104.614 62.8509 108.977C63.9568 110.512 65.3699 111.864 66.9673 112.97C68.5647 114.076 70.3464 114.936 72.2509 115.673C72.681 115.796 72.4967 116.472 72.0666 116.41C67.9503 115.55 64.0183 113.523 61.315 110.144C57.1372 105.106 56.2771 96.6889 61.2536 91.7739C62.3594 90.7909 63.8954 90.0536 65.4313 90.0536C65.9228 90.0536 66.6601 89.9308 67.1516 90.0536C69.732 90.1765 72.1895 91.4667 73.7869 93.4942C75.2 95.2144 75.9987 97.3033 76.2444 99.3922C76.2444 99.7608 75.6915 99.8837 75.5686 99.5151Z" fill="black"/>
<path d="M115.81 120.22C111.878 123.967 104.444 120.957 102.478 116.411C102.233 115.858 102.847 115.366 103.338 115.612C104.383 116.165 105.304 116.718 106.287 117.148C109.114 118.438 112.063 119.482 115.196 119.175C115.81 119.052 116.24 119.79 115.81 120.22Z" fill="black"/>
<path d="M106.594 86.4288C107.946 86.6131 108.99 85.2 108.499 83.8484C108.253 83.1111 107.823 82.4353 107.147 82.0052C105.058 80.715 97.2558 80.5922 93.1394 83.5412C89.4532 86.2445 100.451 85.5686 106.594 86.4288Z" fill="black"/>
<path d="M123.613 87.1047C122.507 87.1047 121.831 85.6916 122.384 84.5243C122.691 83.9099 123.121 83.357 123.736 83.0498C125.64 82.1282 130.739 82.6812 133.013 85.8145C135.04 88.5792 128.712 87.0433 123.613 87.1047Z" fill="black"/>
<path d="M104.321 94.3543C101.188 93.0026 97.6244 93.3713 94.3682 94.1085C93.9996 94.2314 93.7538 93.7399 94.061 93.4941C96.8872 91.1595 102.232 90.8523 104.505 94.0471C104.69 94.1699 104.567 94.4157 104.321 94.3543Z" fill="black"/>
<path d="M128.466 95.6444C126.992 94.6 124.842 94.7843 123.121 94.9686C122.507 95.0301 121.893 95.1529 121.217 95.3372C121.032 95.3987 120.848 95.0915 120.971 94.9686L121.094 94.8458C122.63 93.2484 125.026 92.8797 127.115 93.6784C127.852 93.9856 128.589 94.4157 128.958 95.2758C129.142 95.583 128.712 95.8902 128.466 95.6444Z" fill="black"/>
<path d="M136.515 47.1701C121.77 42.9923 120.172 50.6106 105.427 42.5008C90.6823 34.3295 63.9568 39.7975 58.9803 58.7818C58.9803 58.7818 50.7477 63.8197 50.1947 81.2067C49.8261 92.8799 55.9084 103.57 59.9019 109.284C62.6052 113.707 65.4313 116.964 67.0901 119.913C69.732 124.643 71.0222 129.804 71.0222 129.804C71.6365 123.906 73.0496 118.499 72.1895 116.103L70.162 115.428C54.8026 109.53 57.5673 92.3884 65.0627 91.4054C72.9267 90.4223 75.3843 97.4263 75.8143 99.1465C76.8588 97.8563 76.4901 93.9857 76.2444 89.3779C88.532 95.4603 100.82 81.6367 104.936 70.9465C110.035 57.7374 121.278 68.0589 121.278 68.0589C121.278 68.0589 132.399 88.8864 144.195 79.6093C154.639 71.2537 152.55 51.655 136.515 47.1701Z" fill="black"/>
</g>
<path d="M0.704 21H8.08V19.736H4.832C4.24 19.736 3.52 19.8 2.912 19.848C5.664 17.24 7.504 14.856 7.504 12.52C7.504 10.424 6.192 9.048 4.096 9.048C2.608 9.048 1.6 9.736 0.64 10.776L1.488 11.608C2.128 10.84 2.96 10.248 3.92 10.248C5.376 10.248 6.08 11.224 6.08 12.568C6.08 14.584 4.384 16.92 0.704 20.136V21ZM11.883 21H13.403C13.579 16.408 14.091 13.688 16.843 10.152V9.272H9.499V10.52H15.179C12.891 13.72 12.075 16.552 11.883 21ZM19.126 9.384V10.44H24.518C24.246 13.848 22.326 16.6 18.47 18.44L19.174 19.512C23.942 17.176 25.846 13.528 25.846 9.384H19.126ZM28.742 7.832V22.184H30.054V7.832H28.742Z" fill="#8B6517"/>
</svg>
