<svg width="188" height="234" viewBox="0 0 188 234" fill="none" xmlns="http://www.w3.org/2000/svg">
<path d="M79.9023 216.86H72.6023V214.14H79.9023V216.86ZM82.5023 212.08H70.0023V218.94H82.5023V212.08ZM72.5223 224.06H69.8823V229.4H82.7823V227.3H72.5223V224.06ZM67.9423 220.4V222.48H75.2023V225.62H77.8423V222.48H84.6223V220.4H67.9423ZM89.5008 215.14H95.4608V213H86.8608V225.34H88.4408C91.6408 225.34 94.1608 225.24 96.9408 224.74L96.6808 222.56C94.3008 222.96 92.1208 223.1 89.5008 223.14V215.14ZM103.261 218.1H100.581V211.3H97.9408V229.76H100.581V220.28H103.261V218.1ZM120.099 216.76C115.939 216.26 113.999 214.22 113.999 212.08V211.54H111.299V212.08C111.299 214.16 109.319 216.26 105.199 216.76L106.159 218.82C109.239 218.36 111.479 217.06 112.639 215.26C113.799 217.08 116.039 218.36 119.139 218.82L120.099 216.76ZM108.879 225.38H116.419V227.44H108.879V225.38ZM106.299 229.5H119.019V223.32H106.299V229.5ZM113.979 219.92V217.68H111.339V219.92H104.359V222H120.999V219.92H113.979Z" fill="#111111"/>
<path d="M0 104C0 52.0852 42.0852 10 94 10C145.915 10 188 52.0852 188 104V178C188 189.046 179.046 198 168 198H20C8.9543 198 0 189.046 0 178V104Z" fill="#EBB23D"/>
<mask id="mask0_322_1656" style="mask-type:alpha" maskUnits="userSpaceOnUse" x="0" y="10" width="188" height="188">
<path d="M0 10H188V178C188 189.046 179.046 198 168 198H20C8.9543 198 0 189.046 0 178V10Z" fill="#D9D9D9"/>
</mask>
<g mask="url(#mask0_322_1656)">
<path d="M145.055 181.043C144.625 181.35 144.133 181.657 143.703 181.965C143.212 182.272 142.782 182.579 142.29 182.825C141.86 183.071 141.491 183.316 141.061 183.562C141 183.623 140.938 183.623 140.877 183.685C139.464 184.545 137.989 185.344 136.515 186.081C136.085 186.327 135.593 186.572 135.163 186.757C135.163 186.757 135.102 186.818 135.04 186.818C134.549 187.064 134.057 187.31 133.566 187.555C132.583 188.047 131.538 188.477 130.555 188.907C130.064 189.153 129.511 189.337 129.02 189.522C128.528 189.706 127.975 189.952 127.484 190.136C126.992 190.32 126.439 190.566 125.948 190.75C125.948 190.75 125.948 190.75 125.886 190.75C125.395 190.935 124.842 191.119 124.35 191.303C123.244 191.672 122.077 192.04 120.971 192.409C120.603 192.532 120.172 192.655 119.804 192.778C118.637 193.146 117.469 193.454 116.302 193.699C115.872 193.822 115.442 193.884 114.95 194.006C113.844 194.252 112.677 194.498 111.571 194.744C111.325 194.805 111.141 194.805 110.895 194.867C110.527 194.928 110.097 194.989 109.728 195.051C109.175 195.112 108.684 195.235 108.131 195.297C107.885 195.358 107.639 195.358 107.393 195.42C107.086 195.481 106.718 195.542 106.349 195.542C105.366 195.665 104.322 195.788 103.338 195.911C103.031 195.972 102.663 195.972 102.355 196.034H102.294C101.864 196.095 101.434 196.095 101.004 196.157C100.574 196.218 100.144 196.218 99.7137 196.218C99.4679 196.218 99.1607 196.28 98.915 196.28C98.4235 196.28 97.9934 196.341 97.5633 196.341C96.949 196.341 96.396 196.403 95.7816 196.403C95.1673 196.403 94.6143 196.403 93.9999 196.403C93.5699 196.403 93.1398 196.403 92.7097 196.403C66.7829 196.034 43.498 185.037 26.8483 167.588C26.8483 167.588 26.8483 167.527 26.7869 167.527C24.9437 165.868 26.5411 157.021 33.9751 151.43C43.3137 144.365 65.6771 139.941 65.6771 139.941C65.6771 139.941 74.3398 138.528 106.472 145.225C125.272 149.157 139.587 154.871 147.574 170.353C149.233 173.548 150.891 178.463 145.055 181.043Z" fill="white"/>
<path d="M106.656 144.549C118.452 146.945 131.047 149.525 140.754 157.328C144.011 159.97 146.161 163.84 147.943 167.588C148.803 169.431 149.663 171.336 150.339 173.363C150.707 174.715 151.26 176.251 150.953 177.848C150.892 178.278 150.523 178.831 150.216 179.139C148.803 180.552 147.267 181.412 145.731 182.518C136.699 188.784 126.316 193.208 115.565 195.542C91.6041 200.765 65.6773 196.71 44.6041 184.115C37.6001 179.876 31.1492 174.715 25.6198 168.633C25.0054 167.895 25.0054 166.667 25.0054 165.868C25.0668 164.025 25.5583 162.243 26.1727 160.584C27.6472 156.775 29.5518 152.966 32.808 150.324C35.1426 148.727 37.6616 147.375 40.242 146.269C48.3518 142.829 56.8916 140.433 65.6773 139.45C66.4145 139.388 66.5374 140.433 65.8001 140.556C57.3831 142.276 49.0276 144.856 41.225 148.358C38.3988 149.771 35.3884 151 33.1152 153.212C30.9648 155.546 29.4289 158.434 28.2001 161.383C27.4015 163.165 26.8485 165.991 27.0943 167.404C30.9648 172.012 35.5113 176.067 40.4263 179.569C67.3361 198.369 108.192 199.597 136.822 183.931C139.403 182.518 141.922 180.92 144.318 179.261C145.485 178.463 146.714 177.787 147.635 176.865C147.697 176.804 147.635 176.865 147.635 176.927C147.635 176.988 147.574 177.05 147.574 177.05C147.635 176.312 147.39 175.329 147.082 174.346C145.977 170.783 144.195 167.035 142.29 163.779C139.28 158.925 134.181 155.854 129.02 153.396C125.456 151.737 121.709 150.447 117.899 149.218C114.09 147.99 110.22 146.945 106.349 146.023C105.366 145.778 105.673 144.365 106.656 144.549Z" fill="black"/>
<path d="M130.249 151.43C130.249 151.43 122.877 147.252 111.019 144.242C111.019 144.242 102.541 140.74 90.2531 139.02C74.1564 136.747 67.5211 138.282 67.5211 138.282C67.5211 138.282 53.329 139.88 42.7002 145.594C42.7002 145.594 45.5263 169.431 67.1525 178.77C88.7172 188.109 118.76 183.501 125.887 177.48C132.952 171.459 131.969 153.458 130.249 151.43Z" fill="black" stroke="black" stroke-width="5.1257" stroke-miterlimit="10" stroke-linecap="round" stroke-linejoin="round"/>
<path d="M37.7231 148.727C37.7231 148.727 33.6068 150.386 29.0604 155.055C23.961 160.277 19.8447 173.548 16.4042 183.501C9.89174 202.239 14.2538 226.692 14.2538 226.692H158.019C158.019 226.692 159.309 195.542 151.199 176.681C150.155 174.285 148.434 168.203 146.345 164.824C142.966 159.294 139.157 156.038 136.147 154.625C136.147 154.625 137.498 179.139 110.343 180.49C83.1872 181.842 50.3793 173.241 49.5806 168.203C48.7819 163.042 37.7231 148.727 37.7231 148.727Z" fill="white"/>
<path d="M37.3547 150.201C37.6005 150.324 38.1534 150.263 38.3377 150.14H38.2763L38.1534 150.201C35.0201 151.307 32.1939 153.212 29.7364 155.485C27.2174 157.881 25.4972 161.076 24.0227 164.209C22.4867 167.404 21.258 170.783 20.0906 174.162C18.9233 177.541 17.756 180.92 16.6501 184.299C12.5338 197.877 13.0867 212.622 15.9129 226.384L14.3769 225.094H158.142L156.544 226.63C157.834 210.841 157.159 193.576 151.752 178.586C149.786 174.162 148.619 169.308 146.038 165.192C143.458 161.383 140.017 157.635 135.594 156.099L137.806 154.563C137.99 166.298 131.416 177.05 119.927 180.49C114.705 182.21 109.114 182.272 103.708 182.272C98.3625 182.272 93.0174 181.903 87.6723 181.289C80.7913 180.613 48.6593 175.759 47.9835 168.08C46.509 163.718 43.6828 159.908 41.1639 156.099C39.7508 154.072 38.2148 151.922 36.6789 149.956L36.6174 149.833L36.556 149.771C36.4946 149.71 36.6789 149.956 36.8018 150.017C36.9861 150.078 37.1704 150.201 37.3547 150.201ZM38.1534 147.191C38.7063 147.314 39.0135 147.805 39.3207 148.174C42.454 152.352 45.4645 156.529 48.1063 161.014C49.3351 163.165 50.6867 165.438 51.1782 167.895C56.5848 173.425 79.8083 177.234 88.041 178.094C93.2632 178.647 98.4854 179.016 103.708 179.016C108.868 179.016 114.091 178.954 118.944 177.418C129.082 174.408 134.734 165.008 134.611 154.686L135.102 153.642C135.41 153.027 136.208 152.782 136.823 153.15C139.956 155.116 142.168 157.635 144.195 160.339C146.161 163.042 147.759 165.991 148.865 169.124C149.97 172.196 150.892 175.329 152.182 178.34C153.349 181.412 154.271 184.545 155.008 187.74C156.544 194.129 157.466 200.58 158.203 207.093C158.879 213.605 159.309 220.118 159.555 226.753C159.555 227.613 158.817 228.289 158.019 228.289H14.254C13.4554 228.289 12.841 227.736 12.7181 226.999C11.4279 212.684 11.3665 197.939 15.8514 184.176C18.8619 175.759 21.4423 167.097 25.4972 159.11C27.9547 154.318 32.1939 150.386 36.8018 147.559L36.9861 147.437L37.0475 147.375C37.2933 147.129 37.8462 147.068 38.1534 147.191Z" fill="black"/>
<path d="M142.291 227.736C103.708 245.553 40.1807 229.457 40.1807 229.457C40.1807 229.457 38.8905 213.79 43.5598 185.59C43.7441 184.3 43.9284 183.01 44.0513 181.842C45.4029 169.063 40.7337 155.301 37.416 149.772C37.416 148.359 38.8905 147.376 40.5493 145.962C41.2252 145.41 42.1467 145.348 42.6382 145.717C43.4984 146.945 44.2971 148.174 44.9729 149.464C51.8539 162.182 66.9062 173.917 81.2827 175.33C100.881 177.296 109.053 176.989 118.821 174.838C128.221 172.749 132.891 161.199 130.249 151.983C130.187 151.861 130.187 151.676 130.126 151.492C131.785 151.369 135.655 154.564 136.945 159.295C138.297 165.131 138.911 177.726 139.71 184.3C142.413 205.803 142.291 227.736 142.291 227.736Z" fill="black" stroke="black" stroke-width="5.1257" stroke-miterlimit="10" stroke-linecap="round" stroke-linejoin="round"/>
<path d="M53.6355 144.795C60.3322 155.178 68.0119 164.885 77.2891 173.056C80.1152 175.575 83.1871 177.91 86.3204 179.937C86.9348 180.306 87.1191 180.552 87.6721 180.675C88.4708 180.859 89.3923 180.675 90.0681 180.06L91.6041 178.401C94.3074 175.575 97.1335 172.749 99.6525 169.8C100.697 168.633 101.68 167.404 102.11 165.807C102.356 165.377 102.909 165.315 103.339 165.561C106.595 168.448 109.974 171.213 113.292 174.039L115.749 176.128L116.978 177.173L117.101 177.296L117.162 177.357C117.777 177.91 118.883 177.787 119.374 177.111C119.743 176.558 119.927 175.268 120.111 174.531C121.647 166.175 120.603 157.513 118.33 149.403C118.268 149.28 118.391 149.157 118.452 149.157C118.575 149.157 118.698 149.157 118.698 149.28C120.296 153.273 121.524 157.513 122.2 161.813C122.876 166.114 122.937 170.537 122.323 174.961C122.077 176.251 122.139 177.296 121.34 178.524C120.418 179.814 118.76 180.49 117.285 180.122C116.056 179.937 115.012 178.77 114.152 177.971C110.22 174.347 106.288 170.599 102.356 166.974L103.707 166.851C100.943 168.633 99.7139 171.643 97.9322 174.224C96.3962 176.681 94.8603 179.323 93.3243 181.781C91.4812 184.975 86.9962 185.651 84.1701 183.378C81.8969 181.842 79.5008 180.122 77.4119 178.34C71.6982 173.425 66.5989 167.711 62.2982 161.567C58.6734 156.345 55.4786 150.939 53.0211 145.102C52.9596 144.918 53.0211 144.672 53.2054 144.611C53.3283 144.549 53.574 144.672 53.6355 144.795Z" fill="white"/>
<path d="M104.936 219.258C105.735 210.534 105.366 201.625 104.813 192.901C104.199 184.115 103.461 175.268 101.987 166.544C101.803 165.377 103.584 165.008 103.83 166.237C105.366 183.747 107.701 201.871 106.779 219.442C106.718 220.609 104.875 220.487 104.936 219.258Z" fill="white"/>
<path d="M112.555 186.573C113.776 186.573 114.766 185.582 114.766 184.361C114.766 183.139 113.776 182.149 112.555 182.149C111.333 182.149 110.343 183.139 110.343 184.361C110.343 185.582 111.333 186.573 112.555 186.573Z" fill="white"/>
<path d="M113.537 197.632C114.759 197.632 115.749 196.641 115.749 195.42C115.749 194.198 114.759 193.208 113.537 193.208C112.316 193.208 111.326 194.198 111.326 195.42C111.326 196.641 112.316 197.632 113.537 197.632Z" fill="white"/>
<path d="M112.431 160.891C111.141 167.219 102.785 171.029 88.7157 165.315C74.0935 159.417 67.7654 145.348 66.168 141.17C74.8307 124.95 68.8098 113.707 68.8098 113.707C88.7771 111.987 106.225 135.333 106.225 135.333L108.929 146.884C109.175 147.867 109.666 148.727 110.403 149.341C111.693 151.614 113.229 156.836 112.431 160.891Z" fill="white"/>
<path d="M65.8612 141.354C67.0285 139.572 67.7658 137.483 68.2573 135.456C69.1789 131.217 69.486 126.916 69.5475 122.616V121.018C69.3632 119.421 68.8102 117.762 68.1958 116.287C67.3972 114.321 70.2847 113.093 71.2063 115.059C71.3292 115.304 71.3292 115.734 71.3292 115.98C71.5135 124.336 71.8821 135.087 66.5985 142.03C66.2298 142.399 65.4926 141.846 65.8612 141.354Z" fill="black"/>
<path d="M106.901 135.21C107.823 135.763 108.13 136.501 108.253 137.238C108.622 138.712 108.499 140.31 108.867 141.846C109.175 143.32 110.096 144.733 110.342 146.269C110.649 147.867 111.571 151.246 111.939 152.904C112.062 153.273 111.816 153.703 111.386 153.765C111.141 153.826 110.956 153.765 110.772 153.642C109.973 152.966 109.605 152.29 109.113 151.43C108.314 149.955 107.762 148.604 107.27 146.945C106.84 145.47 107.024 143.873 106.656 142.337C106.348 140.863 105.488 139.45 105.181 137.914C104.997 137.176 104.935 136.378 105.488 135.456C105.857 135.087 106.471 134.965 106.901 135.21Z" fill="black"/>
<path d="M111.325 151.43C99.5908 150.816 90.0065 147.129 80.668 130.48C88.532 137.422 97.8091 140.064 107.578 141.293L108.868 146.945C109.114 147.928 110.588 150.816 111.325 151.43Z" fill="black"/>
<path d="M110.834 149.157C112.923 153.089 114.152 158.004 112.861 162.366C111.878 165.438 109.052 167.711 105.98 168.571C98.8537 170.476 90.621 167.465 84.2929 164.086C76.4903 159.724 70.7151 152.413 67.0288 144.426C66.7831 143.812 67.6432 143.32 68.0118 143.934C69.302 146.515 70.7765 149.034 72.4354 151.307C74.0942 153.642 75.9988 155.792 78.1491 157.697C84.4157 163.349 92.8942 166.851 101.373 166.851C110.097 166.605 113.414 161.997 111.387 153.519C111.08 152.167 110.588 150.754 109.912 149.587C109.544 149.095 110.465 148.542 110.834 149.157Z" fill="black"/>
<path d="M134.611 75.3698C135.716 80.5306 134.856 83.9711 134.365 98.2247C133.873 112.233 129.818 132.016 124.842 136.992C121.033 140.74 108.807 143.689 97.9321 140.924C92.4027 139.511 87.7334 136.316 83.9243 134.043C79.1321 131.155 74.9543 122.247 71.5138 116.533C68.8105 112.048 69.0563 117.455 65.5543 113.584C60.7007 108.301 54.8641 97.6718 57.7517 78.8718C62.421 48.3986 86.5661 44.8352 104.445 48.2143C122.446 51.5934 131.662 61.7921 134.611 75.3698Z" fill="white"/>
<path d="M68.6263 118.991C67.2133 116.656 65.3701 114.567 63.7113 112.356C61.2538 108.976 59.4106 105.106 58.1819 101.112C52.8368 84.0327 56.093 61.6692 72.2512 51.5934C86.9348 42.2549 115.442 45.634 127.361 58.413C131.846 63.0209 134.734 69.0418 135.962 75.3085C136.024 75.6771 136.208 76.3529 136.269 76.7215C136.331 77.0287 136.515 77.3974 136.454 77.766C136.331 79.1176 136.085 80.4693 135.962 81.8209C135.041 89.9921 135.286 98.3477 134.242 106.519C133.32 115.12 132.092 123.722 129.511 132.016C128.713 134.535 127.177 136.808 125.149 138.467C120.603 142.276 114.643 143.566 108.93 143.812C97.5021 144.365 85.8904 140.31 79.2551 130.664C79.0093 130.295 79.5008 129.865 79.808 130.234C85.3374 136.193 92.8329 140.003 100.82 140.863C109.667 141.907 122.999 141.108 126.869 131.647C131.354 118.254 133.689 104.061 133.935 89.9921C133.935 86.5516 133.751 83.1111 133.751 79.6091C133.751 79.1791 133.812 78.196 133.812 77.766C133.812 77.766 133.812 77.7045 133.812 77.766C133.812 77.8274 133.812 77.8274 133.812 77.766C133.32 76.5372 133.136 75.1856 132.768 73.9568C131.416 68.8575 128.958 64.0039 125.456 60.1333C113.845 47.1085 87.9793 43.8523 73.4799 53.6209C61.991 61.2392 58.9191 75.8614 58.1204 88.7634C57.4446 98.4091 60.2708 107.871 67.5819 114.506L70.4695 117.516C71.6982 118.868 69.6093 120.465 68.6263 118.991Z" fill="black"/>
<path d="M75.8761 99.4534C75.8761 99.4534 73.9715 90.2377 65.0016 91.3436C57.2604 92.3266 54.5571 110.881 72.1284 116.042" fill="white"/>
<path d="M71.3293 107.994C69.9162 107.195 68.9332 105.843 68.8718 104.184C68.9332 102.956 69.1176 101.543 68.8104 100.314C68.626 99.1466 67.3973 98.8394 66.4757 98.9008C65.4927 99.0851 64.8783 100.314 64.694 101.297C64.694 101.358 64.6326 101.543 64.6326 101.604C64.5711 101.911 64.0796 101.911 63.9568 101.604C63.1581 99.208 64.9398 96.5662 67.5202 96.8733C71.145 97.1191 71.6365 100.928 70.9607 103.816C70.5921 105.045 71.0836 106.15 71.7594 107.195L71.8823 107.379C72.1894 107.748 71.6979 108.239 71.3293 107.994Z" fill="black"/>
<path d="M120.48 92.9411C121.402 97.3032 123.122 101.358 125.272 105.167C127.177 109.837 122.262 114.26 117.9 114.076C117.408 114.076 117.347 113.4 117.777 113.277C120.542 112.417 123.061 110.574 123.491 107.748C123.675 106.887 123.429 106.15 122.999 105.413C120.972 101.604 119.743 97.2417 120.05 92.9411C120.05 92.6339 120.48 92.6339 120.48 92.9411Z" fill="black"/>
<path d="M75.5686 99.5151C74.1555 95.8902 71.0836 92.4497 66.9673 92.5112C66.5987 92.4497 65.9843 92.5726 65.6156 92.5726C64.5712 92.634 63.7111 93.0027 62.9124 93.7399C58.9804 97.6719 59.6562 104.614 62.8509 108.977C63.9568 110.512 65.3699 111.864 66.9673 112.97C68.5647 114.076 70.3464 114.936 72.2509 115.673C72.681 115.796 72.4967 116.472 72.0666 116.41C67.9503 115.55 64.0183 113.523 61.315 110.144C57.1372 105.106 56.2771 96.6889 61.2536 91.7739C62.3594 90.7909 63.8954 90.0536 65.4313 90.0536C65.9228 90.0536 66.6601 89.9308 67.1516 90.0536C69.732 90.1765 72.1895 91.4667 73.7869 93.4942C75.2 95.2144 75.9987 97.3033 76.2444 99.3922C76.2444 99.7608 75.6915 99.8837 75.5686 99.5151Z" fill="black"/>
<path d="M114.397 119.974C114.459 122.002 111.448 127.162 105.673 124.766C100.082 122.493 98.4235 111.803 106.41 116.902C110.465 119.606 113.046 120.036 114.397 119.974Z" fill="white"/>
<path d="M115.687 120.035C114.029 120.588 112.431 120.097 110.895 119.544C108.622 118.745 106.779 117.271 104.629 116.226C101.68 114.813 100.512 116.718 101.311 119.483C102.11 122.432 104.69 125.012 107.885 125.135C110.711 125.442 113.721 122.862 113.476 119.974C113.23 118.745 115.012 118.377 115.319 119.544C115.257 121.633 113.967 123.107 112.615 124.336C109.912 126.548 105.796 126.056 103.093 124.029C101.004 122.37 99.2835 119.728 99.6521 116.902C99.775 115.673 100.942 114.26 102.232 114.199C105.243 113.953 107.025 115.981 109.359 117.332C111.202 118.377 113.291 119.667 115.442 119.483C115.81 119.36 116.056 119.851 115.687 120.035Z" fill="black"/>
<path d="M101.434 117.762C102.417 119.175 103.952 119.913 105.55 120.281C105.918 120.404 106.226 120.404 106.533 120.404C107.086 120.404 107.639 120.834 107.946 121.141C109.42 122.309 111.448 122.493 113.291 122.554C113.721 122.554 113.721 123.292 113.291 123.23C111.325 123.107 109.236 122.923 107.393 122.001C107.024 121.879 106.84 121.756 106.533 121.756C105.366 121.879 104.444 121.141 103.584 120.65C102.601 120.097 101.618 119.544 100.45 119.298C99.8975 119.175 99.5904 118.684 99.6518 118.131C99.7747 117.271 101.003 117.025 101.434 117.762Z" fill="black"/>
<path d="M97.5635 99.2079C96.089 99.1465 94.9831 97.9177 95.106 96.4432L95.1674 94.7229C95.2289 93.2484 96.4576 92.1426 97.9321 92.2654C99.4067 92.3269 100.513 93.5556 100.39 95.0301L100.328 96.7504C100.267 98.1635 99.038 99.2694 97.5635 99.2079Z" fill="black"/>
<path d="M123.429 100.129C122.077 100.068 121.032 98.9007 121.094 97.5491L121.155 95.9517C121.217 94.6001 122.384 93.5556 123.736 93.6171C125.087 93.6785 126.132 94.8458 126.07 96.1975L126.009 97.7949C125.947 99.1465 124.78 100.191 123.429 100.129Z" fill="black"/>
<path d="M103.093 95.8901C101.065 94.5384 98.8537 93.6169 96.3961 94.1084C95.5974 94.2313 94.7988 94.477 94.3073 95.0299C94.1229 95.2757 93.6929 95.2143 93.6929 94.8456C93.7543 93.6169 94.7987 92.8182 95.7818 92.3267C97.6863 91.3437 100.328 91.528 102.048 92.8182C102.663 93.1868 104.752 95.46 103.646 95.9515C103.4 96.0744 103.277 96.013 103.093 95.8901Z" fill="black"/>
<path d="M120.664 96.1975C120.664 93.6171 123.859 92.6955 125.825 93.6171C126.931 94.1086 127.729 95.0916 128.037 96.2589C128.159 96.6275 127.607 96.9347 127.361 96.6275C126.316 95.3988 124.535 94.7844 123.122 95.5216C122.692 95.7674 122.63 95.9517 122.507 96.1975C122.507 97.4262 120.726 97.3648 120.664 96.1975Z" fill="black"/>
<path d="M106.042 85.7529C107.332 86.183 108.622 85.0157 108.376 83.6026C108.254 82.8654 107.946 82.1281 107.332 81.5752C105.489 79.9163 97.8706 78.4418 93.2627 80.5922C89.2078 82.5582 100.144 83.7869 106.042 85.7529Z" fill="black"/>
<path d="M124.412 86.736C123.368 87.1047 122.262 85.9988 122.446 84.7086C122.507 84.0328 122.753 83.357 123.245 82.8654C124.719 81.3909 129.757 80.2236 132.952 82.4968C135.717 84.4014 129.204 84.9543 124.412 86.736Z" fill="black"/>
<path d="M134.611 75.37C134.426 74.4484 134.181 73.4654 133.873 72.5439C133.566 71.6223 132.829 70.8236 131.846 70.6393C128.651 70.0864 125.579 71.6837 121.156 71.0694C107.087 69.1648 97.6865 63.2053 84.4774 68.3661C70.8381 73.6498 78.5793 95.6445 75.6917 99.0236C75.2002 97.3033 72.8042 90.2994 64.9401 91.2824C57.5061 92.204 54.68 109.407 70.0395 115.305C69.9166 118.684 63.8342 121.879 58.9192 115.98C54.0042 110.082 44.1741 94.7844 50.8094 72.421C57.4447 50.0576 87.4878 38.3844 115.442 49.7504C120.234 51.7164 123.306 55.9556 127.3 57.3687C135.532 60.3792 135.594 79.7321 134.611 75.37Z" fill="black"/>
<path d="M70.1625 115.366C70.1625 115.366 70.0397 120.404 64.8789 129.743C64.8789 129.743 63.6501 124.582 60.9469 119.851C58.305 115.12 53.0828 105.229 49.888 95.3374C46.6933 85.4459 52.5913 97.7335 55.6018 101.85C58.6122 105.966 60.5168 115.981 70.1625 115.366Z" fill="black"/>
<path d="M61.4996 110.39C61.4996 110.39 59.7794 121.879 70.7768 136.378C81.7741 150.877 82.3885 165.745 78.3336 181.473C78.3336 181.473 71.9441 176.743 52.5911 162.858C33.2382 148.973 28.5689 125.258 54.0042 102.894C54.0656 102.894 61.2539 104.246 61.4996 110.39Z" fill="black"/>
<path d="M105.551 60.8092C107.824 62.2223 110.281 63.1439 112.923 63.3282C116.179 63.5739 121.033 65.7857 128.16 72.2367C136.577 79.855 132.399 30.0288 79.9925 41.8249C62.0526 45.8184 49.2735 61.6694 47.0618 79.4249C46.9389 80.6537 46.816 81.8824 46.7546 83.1112C46.2631 99.4537 59.4722 113.707 59.4722 113.707C59.4722 113.707 54.0657 90.9752 66.4147 81.5752C77.5964 73.0354 85.399 63.021 95.1677 63.021C101.066 62.9596 104.199 60.0105 105.551 60.8092Z" fill="black"/>
<path d="M107.271 47.6C107.271 47.6 125.887 83.0497 135.102 82.7425C144.318 82.4353 153.902 53.5595 134.365 42.6236C120.726 34.9438 107.271 47.6 107.271 47.6Z" fill="black"/>
<path d="M115.565 57.6144C115.565 57.6144 130.802 73.8955 123.613 78.5648C119.497 81.2066 115.565 73.2197 115.565 73.2197C115.565 73.2197 110.711 81.1452 102.97 77.1517C95.229 73.2197 100.39 61.8537 100.39 61.8537C100.39 61.8537 110.896 51.2863 115.565 57.6144Z" fill="black"/>
<path d="M101.926 63.1437C101.926 63.1437 99.1608 79.9163 86.136 82.3738C73.1111 84.8313 71.5752 71.4378 71.5752 71.4378C71.5752 71.4378 90.8667 50.2418 101.926 63.1437Z" fill="black"/>
</g>
<path d="M0.704 21H8.08V19.736H4.832C4.24 19.736 3.52 19.8 2.912 19.848C5.664 17.24 7.504 14.856 7.504 12.52C7.504 10.424 6.192 9.048 4.096 9.048C2.608 9.048 1.6 9.736 0.64 10.776L1.488 11.608C2.128 10.84 2.96 10.248 3.92 10.248C5.376 10.248 6.08 11.224 6.08 12.568C6.08 14.584 4.384 16.92 0.704 20.136V21ZM9.419 21H16.795V19.736H13.547C12.955 19.736 12.235 19.8 11.627 19.848C14.379 17.24 16.219 14.856 16.219 12.52C16.219 10.424 14.907 9.048 12.811 9.048C11.323 9.048 10.315 9.736 9.355 10.776L10.203 11.608C10.843 10.84 11.675 10.248 12.635 10.248C14.091 10.248 14.795 11.224 14.795 12.568C14.795 14.584 13.099 16.92 9.419 20.136V21ZM19.126 9.384V10.44H24.518C24.246 13.848 22.326 16.6 18.47 18.44L19.174 19.512C23.942 17.176 25.846 13.528 25.846 9.384H19.126ZM28.742 7.832V22.184H30.054V7.832H28.742Z" fill="#8B6517"/>
</svg>
