<svg width="188" height="234" viewBox="0 0 188 234" fill="none" xmlns="http://www.w3.org/2000/svg">
<path d="M69.1223 212.36V214.44H74.8223C74.4423 216.88 72.1423 218.9 68.0623 219.92L69.0623 221.98C74.5423 220.58 77.6423 217.26 77.6423 212.36H69.1223ZM73.6823 224.42H80.6623V227.44H73.6823V224.42ZM71.0823 229.5H83.2623V222.34H71.0823V229.5ZM80.6023 211.32V221.56H83.2623V211.32H80.6023ZM101.461 211.3H98.8008V224.62H101.461V211.3ZM97.6408 220.32C94.6608 219.34 93.3208 217.08 93.3208 214.92V214.7H96.9608V212.62H86.9408V214.7H90.6408V214.92C90.6408 217.22 89.3008 219.64 86.2408 220.6L87.5808 222.66C89.7208 221.96 91.2008 220.54 92.0208 218.74C92.8608 220.38 94.2608 221.7 96.3008 222.34L97.6408 220.32ZM91.8408 227.3V223.42H89.2008V229.4H101.921V227.3H91.8408ZM112.659 214.02C115.059 214.02 116.599 214.74 116.599 216.06C116.599 217.4 115.059 218.12 112.659 218.12C110.239 218.12 108.699 217.4 108.699 216.06C108.699 214.74 110.239 214.02 112.659 214.02ZM112.659 220.22C116.579 220.22 119.319 218.6 119.319 216.06C119.319 213.56 116.579 211.92 112.659 211.92C108.719 211.92 105.999 213.56 105.999 216.06C105.999 218.6 108.719 220.22 112.659 220.22ZM121.039 221.6H104.359V223.72H111.319V229.74H113.959V223.72H121.039V221.6Z" fill="#111111"/>
<path d="M0 104C0 52.0852 42.0852 10 94 10C145.915 10 188 52.0852 188 104V178C188 189.046 179.046 198 168 198H20C8.9543 198 0 189.046 0 178V104Z" fill="#EBB23D"/>
<mask id="mask0_322_1696" style="mask-type:alpha" maskUnits="userSpaceOnUse" x="0" y="10" width="188" height="188">
<path d="M0 10H188V178C188 189.046 179.046 198 168 198H20C8.9543 198 0 189.046 0 178V10Z" fill="#D9D9D9"/>
</mask>
<g mask="url(#mask0_322_1696)">
<path d="M145.055 181.043C144.625 181.35 144.133 181.657 143.703 181.965C143.212 182.272 142.782 182.579 142.29 182.825C141.86 183.071 141.491 183.316 141.061 183.562C141 183.623 140.938 183.623 140.877 183.685C139.464 184.545 137.989 185.344 136.515 186.081C136.085 186.327 135.593 186.572 135.163 186.757C135.163 186.757 135.102 186.818 135.04 186.818C134.549 187.064 134.057 187.31 133.566 187.555C132.583 188.047 131.538 188.477 130.555 188.907C130.064 189.153 129.511 189.337 129.02 189.522C128.528 189.706 127.975 189.952 127.484 190.136C126.992 190.32 126.439 190.566 125.948 190.75C125.948 190.75 125.948 190.75 125.886 190.75C125.395 190.935 124.842 191.119 124.35 191.303C123.244 191.672 122.077 192.04 120.971 192.409C120.603 192.532 120.172 192.655 119.804 192.778C118.637 193.146 117.469 193.454 116.302 193.699C115.872 193.822 115.442 193.884 114.95 194.006C113.844 194.252 112.677 194.498 111.571 194.744C111.325 194.805 111.141 194.805 110.895 194.867C110.527 194.928 110.097 194.989 109.728 195.051C109.175 195.112 108.684 195.235 108.131 195.297C107.885 195.358 107.639 195.358 107.393 195.42C107.086 195.481 106.718 195.542 106.349 195.542C105.366 195.665 104.322 195.788 103.338 195.911C103.031 195.972 102.663 195.972 102.355 196.034H102.294C101.864 196.095 101.434 196.095 101.004 196.157C100.574 196.218 100.144 196.218 99.7137 196.218C99.4679 196.218 99.1607 196.28 98.915 196.28C98.4235 196.28 97.9934 196.341 97.5633 196.341C96.949 196.341 96.396 196.403 95.7816 196.403C95.1673 196.403 94.6143 196.403 93.9999 196.403C93.5699 196.403 93.1398 196.403 92.7097 196.403C66.7829 196.034 43.498 185.037 26.8483 167.588C26.8483 167.588 26.8483 167.527 26.7869 167.527C24.9437 165.868 26.5411 157.021 33.9751 151.43C43.3137 144.365 65.6771 139.941 65.6771 139.941C65.6771 139.941 74.3398 138.528 106.472 145.225C125.272 149.157 139.587 154.871 147.574 170.353C149.233 173.548 150.891 178.463 145.055 181.043Z" fill="white"/>
<path d="M106.656 144.549C118.452 146.945 131.047 149.525 140.754 157.328C144.011 159.97 146.161 163.84 147.943 167.588C148.803 169.431 149.663 171.336 150.339 173.363C150.707 174.715 151.26 176.251 150.953 177.848C150.892 178.278 150.523 178.831 150.216 179.139C148.803 180.552 147.267 181.412 145.731 182.518C136.699 188.784 126.316 193.208 115.565 195.542C91.6041 200.765 65.6773 196.71 44.6041 184.115C37.6001 179.876 31.1492 174.715 25.6198 168.633C25.0054 167.895 25.0054 166.667 25.0054 165.868C25.0668 164.025 25.5583 162.243 26.1727 160.584C27.6472 156.775 29.5518 152.966 32.808 150.324C35.1426 148.727 37.6616 147.375 40.242 146.269C48.3518 142.829 56.8916 140.433 65.6773 139.45C66.4145 139.388 66.5374 140.433 65.8001 140.556C57.3831 142.276 49.0276 144.856 41.225 148.358C38.3988 149.771 35.3884 151 33.1152 153.212C30.9648 155.546 29.4289 158.434 28.2001 161.383C27.4015 163.165 26.8485 165.991 27.0943 167.404C30.9648 172.012 35.5113 176.067 40.4263 179.569C67.3361 198.369 108.192 199.597 136.822 183.931C139.403 182.518 141.922 180.92 144.318 179.261C145.485 178.463 146.714 177.787 147.635 176.865C147.697 176.804 147.635 176.865 147.635 176.927C147.635 176.988 147.574 177.05 147.574 177.05C147.635 176.312 147.39 175.329 147.082 174.346C145.977 170.783 144.195 167.035 142.29 163.779C139.28 158.925 134.181 155.854 129.02 153.396C125.456 151.737 121.709 150.447 117.899 149.218C114.09 147.99 110.22 146.945 106.349 146.023C105.366 145.778 105.673 144.365 106.656 144.549Z" fill="black"/>
<path d="M54.7412 139.388C54.7412 139.388 63.7111 135.825 65.37 135.702L65.4928 137.115C65.4928 137.115 58.366 140.187 57.936 140.678C57.5674 141.108 54.7412 139.388 54.7412 139.388Z" fill="#7E5D6D"/>
<path d="M165.452 219.135H10.0757C10.0757 219.135 14.1306 190.32 23.5306 170.046C30.5959 154.686 44.358 144.856 56.7685 140.433C60.2705 139.204 62.9737 137.852 65.4927 137.176C65.4927 137.299 76.7972 135.333 85.9515 136.378C100.267 137.975 114.889 142.829 115.073 142.767C122.999 144.856 132.706 150.754 146.775 162.55C162.626 175.821 165.452 219.135 165.452 219.135Z" fill="white"/>
<mask id="mask1_322_1696" style="mask-type:alpha" maskUnits="userSpaceOnUse" x="10" y="136" width="156" height="84">
<path d="M165.452 219.135H10.0757C10.0757 219.135 14.1306 190.32 23.5306 170.046C30.5959 154.686 44.358 144.856 56.7685 140.433C60.2705 139.204 62.9737 137.852 65.4927 137.176C65.4927 137.299 76.7972 135.333 85.9515 136.378C100.267 137.975 114.889 142.829 115.073 142.767C122.999 144.856 132.706 150.754 146.775 162.55C162.626 175.821 165.452 219.135 165.452 219.135Z" fill="white"/>
</mask>
<g mask="url(#mask1_322_1696)">
<path d="M42.0234 135.763C45.4025 135.886 47.1228 135.948 50.5019 135.886C53.5123 137.668 54.9868 138.528 58.0587 140.187C61.1921 140.003 62.7895 139.88 65.9228 139.511C69.0561 140.986 70.5921 141.723 73.7254 143.136C76.9202 142.644 78.5175 142.337 81.6509 141.723C84.8457 142.952 86.5045 143.505 89.6993 144.549C92.894 143.75 94.4914 143.259 97.6862 142.337C101.004 143.197 102.663 143.627 105.98 144.365C109.175 143.197 110.772 142.644 113.967 141.354C117.346 141.907 119.067 142.153 122.446 142.583C125.579 141.109 127.176 140.371 130.31 138.774C133.75 138.958 135.47 139.02 138.911 139.081C141.983 137.238 143.519 136.316 146.591 134.412C150.461 134.105 152.366 133.92 156.236 133.49C155.929 134.965 155.806 135.702 155.561 137.177C152.366 137.545 150.707 137.729 147.512 137.975C144.379 139.941 142.843 140.924 139.648 142.767C136.146 142.767 134.426 142.706 130.924 142.522C127.729 144.119 126.132 144.918 122.937 146.392C119.497 145.962 117.776 145.716 114.336 145.225C111.141 146.515 109.482 147.129 106.287 148.235C102.908 147.498 101.25 147.068 97.9319 146.208C94.7372 147.129 93.0783 147.621 89.8836 148.42C86.6274 147.314 84.9685 146.761 81.7123 145.532C78.5176 146.146 76.9202 146.454 73.664 146.945C70.4692 145.532 68.9332 144.856 65.7385 143.32C62.5437 143.627 60.9463 143.75 57.813 143.935C54.7411 142.276 53.2051 141.416 50.1947 139.573C47.3685 139.573 45.9555 139.573 43.1293 139.45C42.6993 138.037 42.4535 137.299 42.0234 135.763Z" fill="black"/>
<path d="M41.1636 151.369C44.5427 151.43 46.2015 151.43 49.642 151.307C52.7139 153.028 54.2498 153.826 57.3217 155.424C60.4551 155.178 61.991 154.994 65.1244 154.564C68.2577 155.977 69.8551 156.652 73.0498 157.943C76.1832 157.39 77.7191 157.021 80.9139 156.345C84.1701 157.451 85.8289 158.004 89.0851 158.987C92.2185 158.066 93.8159 157.635 96.9492 156.591C100.267 157.39 101.987 157.758 105.305 158.434C108.438 157.205 109.974 156.591 113.107 155.239C116.548 155.731 118.207 155.915 121.647 156.222C124.719 154.686 126.255 153.888 129.327 152.229C132.767 152.352 134.549 152.352 137.99 152.29C141 150.447 142.475 149.464 145.485 147.498C149.356 147.13 151.322 146.945 155.192 146.392C154.947 147.867 154.885 148.604 154.639 150.017C151.383 150.447 149.786 150.632 146.591 150.939C143.519 152.966 142.045 153.949 138.973 155.854C135.471 155.915 133.689 155.915 130.187 155.792C127.054 157.451 125.518 158.25 122.384 159.847C118.944 159.54 117.162 159.356 113.722 158.864C110.588 160.216 108.991 160.83 105.796 162.059C102.417 161.383 100.697 161.015 97.3178 160.216C94.123 161.26 92.5871 161.69 89.3923 162.612C86.0747 161.629 84.4159 161.076 81.1597 159.97C77.9649 160.646 76.4289 161.015 73.2342 161.567C70.0394 160.277 68.3806 159.601 65.1858 158.127C62.0525 158.496 60.4551 158.68 57.3217 158.987C54.1884 157.39 52.6525 156.53 49.5806 154.809C46.7544 154.871 45.3414 154.932 42.5766 154.871C41.9623 153.519 41.7165 152.782 41.1636 151.369Z" fill="black"/>
<path d="M40.3032 166.728C43.6209 166.667 45.3411 166.605 48.7202 166.482C51.7921 168.141 53.3895 168.94 56.5228 170.414C59.5947 170.046 61.1307 169.861 64.2026 169.37C67.3973 170.721 68.9947 171.336 72.2509 172.565C75.3228 171.889 76.8588 171.582 79.9921 170.783C83.3098 171.827 84.9686 172.319 88.2862 173.24C91.3581 172.257 92.8941 171.766 95.966 170.721C99.3451 171.459 101.065 171.766 104.444 172.38C107.516 171.09 109.052 170.476 112.063 169.063C115.503 169.431 117.223 169.616 120.664 169.861C123.674 168.264 125.21 167.465 128.159 165.745C131.661 165.745 133.382 165.745 136.884 165.622C139.833 163.717 141.307 162.734 144.195 160.768C148.065 160.338 150.031 160.093 153.902 159.478C153.718 160.891 153.656 161.629 153.533 163.103C150.277 163.595 148.68 163.84 145.423 164.209C142.474 166.236 140.939 167.281 137.99 169.185C134.426 169.308 132.644 169.37 129.142 169.308C126.071 171.029 124.596 171.827 121.524 173.486C118.022 173.24 116.302 173.117 112.8 172.687C109.728 174.1 108.192 174.776 105.059 176.066C101.618 175.514 99.898 175.145 96.5189 174.408C93.3856 175.514 91.8496 176.005 88.7163 176.988C85.3372 176.066 83.6784 175.575 80.3607 174.531C77.2274 175.329 75.6915 175.698 72.5581 176.312C69.3019 175.084 67.6431 174.408 64.4483 173.056C61.315 173.548 59.779 173.732 56.6457 174.1C53.4509 172.565 51.915 171.766 48.7817 170.107C46.017 170.23 44.6039 170.291 41.8392 170.353C41.1634 168.94 40.9176 168.202 40.3032 166.728Z" fill="black"/>
<path d="M39.3818 182.026C42.6995 181.903 44.3583 181.78 47.676 181.535C50.8093 183.132 52.4067 183.869 55.6014 185.282C58.6119 184.852 60.1479 184.606 63.2197 184.053C66.476 185.344 68.1348 185.958 71.391 187.064C74.4014 186.327 75.9374 185.958 79.0093 185.098C82.3269 186.081 84.0472 186.511 87.3648 187.31C90.3753 186.265 91.9113 185.712 94.9217 184.606C98.3622 185.221 100.021 185.528 103.462 186.019C106.472 184.668 107.947 183.992 110.957 182.579C114.459 182.886 116.179 183.009 119.681 183.193C122.63 181.596 124.105 180.736 127.054 179.016C130.556 178.954 132.337 178.893 135.839 178.708C138.727 176.804 140.14 175.821 142.966 173.793C146.898 173.302 148.864 172.995 152.735 172.319C152.612 173.732 152.612 174.469 152.489 175.882C149.233 176.435 147.635 176.681 144.379 177.111C141.492 179.2 140.017 180.183 137.13 182.149C133.566 182.333 131.784 182.395 128.221 182.456C125.272 184.238 123.736 185.098 120.787 186.695C117.285 186.511 115.503 186.45 112.001 186.142C108.991 187.617 107.455 188.293 104.445 189.644C100.943 189.153 99.2224 188.846 95.7818 188.231C92.7099 189.399 91.174 189.952 88.1021 190.996C84.723 190.197 83.0028 189.706 79.6237 188.784C76.5518 189.644 75.0158 190.013 71.9439 190.75C68.6263 189.583 66.9675 189.03 63.6498 187.74C60.5779 188.293 59.042 188.538 55.9701 188.969C52.7139 187.494 51.1165 186.757 47.9831 185.159C45.2184 185.405 43.8668 185.467 41.1021 185.589C40.4263 184.176 40.0577 183.439 39.3818 182.026Z" fill="black"/>
<path d="M38.5215 197.14C41.7777 196.894 43.4365 196.771 46.7542 196.403C49.9489 197.877 51.5463 198.614 54.8025 199.966C57.813 199.474 59.2875 199.167 62.298 198.553C65.6156 199.72 67.2744 200.335 70.5921 201.379C73.6025 200.58 75.077 200.15 78.0261 199.229C81.4051 200.089 83.1254 200.519 86.5045 201.256C89.4535 200.15 90.928 199.597 93.9385 198.369C97.379 198.922 99.0993 199.167 102.601 199.597C105.55 198.184 106.963 197.508 109.912 196.034C113.414 196.28 115.196 196.341 118.698 196.464C121.586 194.805 122.999 193.945 125.886 192.163C129.45 192.04 131.17 191.979 134.733 191.733C137.498 189.767 138.911 188.784 141.676 186.757C145.608 186.204 147.574 185.897 151.506 185.159C151.444 186.572 151.444 187.248 151.383 188.661C148.127 189.276 146.529 189.522 143.273 190.013C140.447 192.102 139.034 193.146 136.208 195.112C132.644 195.42 130.801 195.481 127.238 195.604C124.35 197.386 122.876 198.307 119.988 199.966C116.425 199.905 114.643 199.843 111.08 199.597C108.131 201.133 106.656 201.809 103.707 203.222C100.205 202.792 98.4234 202.546 94.9215 201.993C91.911 203.222 90.4365 203.775 87.4261 204.881C83.9855 204.144 82.2653 203.714 78.8248 202.854C75.8143 203.775 74.2783 204.205 71.2679 205.004C67.8888 203.959 66.23 203.406 62.8509 202.178C59.8404 202.792 58.3045 203.099 55.294 203.591C52.0378 202.239 50.379 201.502 47.1228 200.027C44.4195 200.335 43.0679 200.457 40.3646 200.642C39.6274 199.29 39.2587 198.553 38.5215 197.14Z" fill="black"/>
</g>
<path d="M166.62 220.179C120.48 220.302 55.6014 220.793 10.1373 220.671C9.21576 220.671 8.41707 219.81 8.60138 218.889C10.8131 205.68 13.885 192.716 18.3086 180.06C22.9164 166.544 29.3674 156.099 41.2249 147.744C46.6929 143.812 52.8367 141.047 59.1033 138.835C61.1308 138.037 63.2197 137.176 65.4315 136.562L66.0458 136.992V136.931C66.0458 136.624 65.4315 136.439 65.6158 136.501V136.439C65.6772 136.316 65.8001 136.255 65.8615 136.132C66.5373 135.395 67.5203 135.149 68.5033 135.088C69.5478 134.965 70.5922 134.842 71.6981 134.719C75.9373 134.227 80.238 134.105 84.5386 134.535C88.8393 135.026 92.9556 135.825 97.1334 136.746C103.154 138.098 109.114 140.064 115.012 141.846L115.196 141.907H115.258C115.258 141.907 115.319 141.907 115.258 141.907C115.258 141.907 115.196 141.907 115.135 141.907C115.073 141.907 115.012 141.907 114.95 141.969H115.38C123.49 144.119 130.494 148.788 137.252 153.642C140.57 156.099 143.826 158.618 147.021 161.26C150.339 163.841 152.919 167.404 154.946 171.09C158.94 178.401 161.397 186.45 163.302 194.498C165.022 202.055 166.251 209.735 167.05 217.414L167.111 218.213L167.173 218.582V218.766C167.05 219.319 166.865 219.872 166.62 220.179ZM164.285 218.029C164.039 218.275 163.794 218.766 163.855 219.073V219.012V218.827V218.459C162.811 206.601 160.845 194.744 157.158 183.439C154.639 176.067 151.383 168.264 145.239 163.288C139.034 158.127 132.583 153.027 125.579 148.973C122.077 147.007 118.452 145.225 114.705 144.242L115.626 144.18C115.503 144.303 114.95 144.303 114.889 144.242C111.264 143.505 106.288 141.6 102.724 140.433C97.7478 138.774 92.587 137.914 87.3648 137.484C82.204 136.992 77.0432 137.422 71.9439 137.975C70.8994 138.098 69.855 138.159 68.872 138.282C67.7661 138.528 66.5988 138.467 65.6158 137.668C65.6158 137.668 65.6158 137.668 65.5543 137.668H65.4929C65.6158 137.729 65.0014 137.545 65.0628 137.238V137.176L65.6772 137.607C63.5883 138.159 61.6223 139.143 59.5334 139.941C57.506 140.801 55.4171 141.477 53.3896 142.399C45.4641 145.962 38.2145 151.246 32.5007 157.881C26.6641 164.455 23.2236 172.565 20.4589 180.859C16.3426 193.331 13.5164 206.356 11.6733 219.319L10.1373 217.537C54.6798 217.599 119.067 217.783 164.285 218.029Z" fill="black"/>
<path d="M40.4874 219.135L37.7227 196.341" stroke="#544D4D" stroke-width="3" stroke-miterlimit="10" stroke-linecap="round" stroke-linejoin="round"/>
<path d="M147.82 188.6C147.82 188.6 145.977 193.085 146.53 197.57C147.083 202.055 148.68 208.629 146.407 219.135" stroke="#544D4D" stroke-width="3" stroke-miterlimit="10" stroke-linecap="round" stroke-linejoin="round"/>
<path d="M54.7413 139.388C55.9086 139.02 57.936 139.388 58.5504 140.433C60.9465 144.365 66.7217 155.854 69.1177 178.647C71.0223 196.464 68.1347 228.535 68.1347 228.535L8.47852 225.709C8.47852 225.709 14.6837 203.591 19.906 183.316C22.7321 172.38 23.6537 156.591 31.4563 150.754C37.723 146.085 45.5256 142.583 54.7413 139.388Z" fill="black"/>
<path d="M116.548 143.136C116.548 143.136 135.532 178.831 130.003 226.507H170.982C170.982 226.507 169.507 221.285 164.347 199.352C159.8 180.183 155.192 163.718 150.4 159.233C137.867 147.437 120.111 141.6 120.111 141.6C120.111 141.6 118.084 142.583 116.548 143.136Z" fill="black"/>
<path d="M116.548 143.136L115.073 142.706C115.073 142.706 117.224 141.662 118.145 141.047L118.698 140.74C118.698 140.74 121.647 142.092 122.692 142.583C123.736 143.075 119.067 145.348 119.067 145.348C119.067 145.348 116.732 143.198 116.548 143.136Z" fill="#7E5D6D"/>
<path d="M68.4417 172.933C68.4417 172.933 66.3528 166.974 61.6221 161.69C57.26 156.775 49.2731 149.157 48.7201 147.437C48.3515 146.269 48.843 144.119 49.9489 141.6C52.2835 136.255 57.5058 129.251 64.3868 126.118C81.0979 120.22 83.6783 130.726 83.9241 134.043C83.9855 134.965 65.6156 138.958 65.677 139.88V139.941C65.677 139.941 62.8509 140.863 64.8783 154.932C65.3698 158.373 67.5201 164.394 68.4417 172.933Z" fill="white"/>
<path d="M68.6262 173.855C68.1962 173.916 67.6432 173.609 67.5204 173.179L67.4589 173.056L67.3975 172.872C66.1073 169.616 64.3256 166.544 62.1753 163.779C57.8132 158.373 52.4066 154.011 48.2289 148.42C48.106 148.235 47.9831 148.051 47.9217 147.805C47.3687 145.901 48.1674 143.873 48.7818 142.153C51.7923 135.026 57.0145 128.637 64.0798 125.319C65.8615 124.705 67.7661 124.152 69.6707 123.844C73.4798 123.169 77.9034 123.353 81.0367 125.995C83.4328 128.022 84.6615 130.971 84.9687 134.043C85.0302 134.658 84.4158 135.088 83.9857 135.333C78.5178 137.422 72.1282 138.405 66.6602 140.433C66.5988 140.494 66.4759 140.494 66.4759 140.556C66.4759 140.556 66.4759 140.556 66.5988 140.433C66.6602 140.31 66.7831 140.126 66.7831 139.941C66.7831 139.818 66.7831 140.003 66.7831 140.003L66.1687 140.863C66.2302 140.863 66.2916 140.801 66.2916 140.801C66.2916 140.801 66.2302 140.863 66.2302 140.924C65.6772 141.784 65.5544 142.89 65.4315 143.935C65.2472 145.962 65.3086 148.051 65.4929 150.078L65.6772 152.167C66.0459 156.407 67.3361 160.277 68.1962 164.455C68.6262 166.544 68.9949 168.633 69.3021 170.722C69.3635 171.152 69.4249 171.705 69.4249 172.196C69.1792 172.749 68.872 173.302 68.6262 173.855ZM68.2576 172.012C68.0733 171.766 67.7047 171.582 67.4589 171.582C67.3975 171.582 67.3361 171.52 67.3361 171.459L67.2746 170.967C66.5988 165.377 64.7557 160.093 63.8341 154.441C63.7112 153.396 63.4655 151.246 63.3426 150.201C63.1583 146.945 62.7896 143.443 64.1413 140.31C64.4485 139.757 64.6328 139.327 65.37 139.02L64.6942 139.941C64.6942 139.88 64.6942 139.818 64.6942 139.818C64.6942 139.45 65.0629 139.02 65.3086 138.835C66.9674 137.975 68.7491 137.607 70.5308 137.054C74.4629 135.886 79.5008 134.842 83.2485 133.367C83.2485 133.367 83.2485 133.367 83.1256 133.49L83.0642 133.552C83.0027 133.613 82.9413 133.736 82.9413 133.859C82.9413 133.92 82.9413 134.043 82.9413 134.043C82.757 131.524 81.6511 128.882 79.6851 127.285C76.9818 125.012 73.2341 124.95 69.855 125.503C68.1962 125.749 66.0459 126.425 64.6942 126.855C60.2707 128.821 56.523 132.2 53.574 136.071C51.4236 139.02 49.3962 142.337 48.9047 145.962C48.6589 147.252 49.5805 148.112 50.3177 149.034C53.1439 152.29 57.6903 156.714 60.7008 159.847C64.2027 163.41 67.1517 167.65 69.1178 172.196L69.1792 172.319C69.1792 172.135 68.6262 171.889 68.2576 172.012Z" fill="black"/>
<path d="M127.299 174.838C127.299 174.838 123.183 158.864 121.156 153.765C119.128 148.727 115.319 143.013 115.135 142.706C109.298 133.244 109.482 129.128 111.387 127.469C113.291 125.81 117.899 126.118 126.378 133.552C127.914 135.272 137.068 145.593 138.051 151.246C138.604 154.379 136.884 156.591 134.549 159.847C132.153 163.165 129.204 167.527 127.299 174.838Z" fill="white"/>
<path d="M127.299 174.838C125.21 168.08 123.306 161.137 120.787 154.502C119.19 150.631 116.916 147.007 114.582 143.505C112.308 139.757 109.912 135.886 109.298 131.463C108.745 127.285 111.756 124.889 115.749 125.933C120.111 127.101 123.613 130.05 126.931 132.876C129.634 135.886 132.214 138.958 134.549 142.337C137.375 146.699 141 151.799 137.498 156.837C135.901 159.356 133.873 161.629 132.276 164.148C130.125 167.465 128.467 171.029 127.299 174.838ZM127.299 173.916C127.176 173.609 126.992 173.548 126.869 173.363C127.054 172.811 127.238 172.258 127.422 171.766C135.163 151.86 147.205 157.574 125.641 134.228C122.937 131.954 119.128 128.821 115.319 127.838C112.554 127.162 110.834 128.391 111.203 131.278C112.308 138.282 117.531 143.75 120.48 150.017C123.122 155.178 124.412 160.83 126.009 166.36C126.378 167.711 127.361 171.275 127.668 172.565C127.791 172.995 128.037 173.916 128.159 174.408V174.469C128.037 174.101 127.545 173.855 127.299 173.916Z" fill="black"/>
<path d="M112.431 160.892C111.141 167.22 102.785 171.029 88.7162 165.315C74.0939 159.417 67.7658 145.348 66.1685 141.17C74.8312 124.95 68.8103 113.707 68.8103 113.707C88.7776 111.987 106.226 135.333 106.226 135.333L108.929 146.884C109.175 147.867 109.666 148.727 110.404 149.341C111.694 151.614 113.23 156.837 112.431 160.892Z" fill="white"/>
<path d="M65.8617 141.354C67.029 139.573 67.7663 137.484 68.2578 135.456C69.1793 131.217 69.4865 126.916 69.548 122.616V121.018C69.3637 119.421 68.8107 117.762 68.1963 116.288C67.3976 114.322 70.2852 113.093 71.2068 115.059C71.3297 115.305 71.3297 115.735 71.3297 115.98C71.514 124.336 71.8826 135.088 66.599 142.03C66.2303 142.399 65.4931 141.846 65.8617 141.354Z" fill="black"/>
<path d="M106.902 135.211C107.823 135.764 108.131 136.501 108.254 137.238C108.622 138.713 108.499 140.31 108.868 141.846C109.175 143.32 110.097 144.733 110.342 146.269C110.65 147.867 111.571 151.246 111.94 152.905C112.063 153.273 111.817 153.703 111.387 153.765C111.141 153.826 110.957 153.765 110.773 153.642C109.974 152.966 109.605 152.29 109.114 151.43C108.315 149.956 107.762 148.604 107.271 146.945C106.84 145.471 107.025 143.873 106.656 142.337C106.349 140.863 105.489 139.45 105.182 137.914C104.997 137.177 104.936 136.378 105.489 135.456C105.857 135.088 106.472 134.965 106.902 135.211Z" fill="black"/>
<path d="M111.326 151.43C99.5913 150.816 90.007 147.129 80.6685 130.48C88.5325 137.422 97.8096 140.064 107.578 141.293L108.868 146.945C109.114 147.928 110.589 150.816 111.326 151.43Z" fill="black"/>
<path d="M110.835 149.157C112.923 153.089 114.152 158.004 112.862 162.366C111.879 165.438 109.053 167.711 105.981 168.571C98.8541 170.476 90.6215 167.465 84.2934 164.086C76.4907 159.724 70.7156 152.413 67.0293 144.426C66.7836 143.812 67.6437 143.32 68.0123 143.935C69.3025 146.515 70.777 149.034 72.4358 151.307C74.0947 153.642 75.9992 155.792 78.1496 157.697C84.4162 163.349 92.8947 166.851 101.373 166.851C110.097 166.605 113.415 161.997 111.387 153.519C111.08 152.167 110.589 150.754 109.913 149.587C109.544 149.095 110.466 148.543 110.835 149.157Z" fill="black"/>
<path d="M134.611 75.37C135.716 80.5308 136.269 84.7086 133.259 98.4707C130.31 112.171 137.498 114.997 120.48 136.931C113.537 145.901 96.7034 143.382 83.0641 134.105C78.4563 130.971 76.4903 122.923 73.0498 117.209C70.3465 112.724 69.1177 117.394 65.5543 113.523C60.7007 108.239 54.8641 97.6105 57.7517 78.8105C62.421 48.3373 86.5661 44.7739 104.445 48.153C122.446 51.5935 131.662 61.7922 134.611 75.37Z" fill="white"/>
<path d="M68.6262 118.991C67.2131 116.595 65.37 114.506 63.6497 112.294C61.9909 110.021 60.6392 107.502 59.5334 104.922C52.2222 86.9818 55.0484 61.7308 72.9883 51.1635C80.4222 46.8628 89.3922 45.8184 97.7477 46.4942C115.626 47.7844 132.03 56.0171 135.901 74.94C137.99 83.2955 135.163 91.8968 133.566 100.068C132.829 104.123 133.443 108.301 133.382 112.479C133.32 116.718 132.153 120.957 130.556 124.889C129.573 127.592 127.852 129.988 126.071 132.2C123.122 135.763 120.173 139.388 116.425 142.153C115.565 142.767 114.029 143.075 112.984 143.197C110.097 143.628 107.271 143.75 104.383 143.566C93.0785 143.075 80.9752 137.607 76.4288 126.671C76.2445 126.241 76.8588 125.933 77.1046 126.302C83.0026 135.641 93.8157 140.248 104.567 140.863C107.885 141.047 111.264 140.986 114.52 140.31C116.118 139.511 117.531 138.098 118.882 136.808C122.2 133.49 125.579 129.927 127.975 125.872C130.863 120.404 132.46 114.445 131.969 108.239C131.846 105.475 131.784 102.587 132.337 99.8223C132.829 97.0576 133.443 94.4158 133.812 91.5896C134.18 88.8864 134.365 86.1217 134.365 83.4184C134.058 75.4929 131.477 67.3217 126.439 61.1779C115.319 47.3543 89.0236 43.7295 74.217 53.1909C64.8785 58.9661 60.5164 69.7792 59.1033 80.2851C56.953 92.8798 57.5673 105.29 67.5817 114.445L70.5307 117.516C71.6981 118.868 69.6092 120.465 68.6262 118.991Z" fill="black"/>
<path d="M75.8756 99.4536C75.8756 99.4536 73.971 90.238 65.0011 91.3438C57.2599 92.3268 54.5566 110.881 72.1279 116.042" fill="white"/>
<path d="M71.3293 107.994C69.9162 107.195 68.9332 105.843 68.8718 104.184C68.9332 102.956 69.1176 101.543 68.8104 100.314C68.6261 99.1466 67.3973 98.8394 66.4757 98.9008C65.4927 99.0851 64.8783 100.314 64.694 101.297C64.694 101.358 64.6326 101.543 64.6326 101.604C64.5711 101.911 64.0796 101.911 63.9568 101.604C63.1581 99.208 64.9398 96.5662 67.5202 96.8733C71.145 97.1191 71.6365 100.928 70.9607 103.816C70.5921 105.045 71.0836 106.15 71.7594 107.195L71.8823 107.379C72.1894 107.748 71.6979 108.239 71.3293 107.994Z" fill="black"/>
<path d="M120.48 92.9413C121.401 97.3034 123.121 101.358 125.272 105.167C127.176 109.837 122.261 114.26 117.899 114.076C117.408 114.076 117.346 113.4 117.776 113.277C120.541 112.417 123.06 110.574 123.49 107.748C123.674 106.888 123.429 106.15 122.999 105.413C120.971 101.604 119.742 97.242 120.05 92.9413C120.05 92.6341 120.48 92.6341 120.48 92.9413Z" fill="black"/>
<path d="M75.5686 99.5151C74.1555 95.8902 71.0836 92.4497 66.9673 92.5112C66.5987 92.4497 65.9843 92.5726 65.6157 92.5726C64.5712 92.634 63.7111 93.0027 62.9124 93.7399C58.9804 97.6719 59.6562 104.614 62.8509 108.977C63.9568 110.512 65.3699 111.864 66.9673 112.97C68.5647 114.076 70.3464 114.936 72.2509 115.673C72.681 115.796 72.4967 116.472 72.0666 116.41C67.9503 115.55 64.0183 113.523 61.315 110.144C57.1372 105.106 56.2771 96.6889 61.2536 91.7739C62.3594 90.7909 63.8954 90.0536 65.4313 90.0536C65.9228 90.0536 66.6601 89.9308 67.1516 90.0536C69.732 90.1765 72.1895 91.4667 73.7869 93.4942C75.2 95.2144 75.9987 97.3033 76.2444 99.3922C76.2444 99.7608 75.6915 99.8837 75.5686 99.5151Z" fill="black"/>
<path d="M115.81 120.22C111.878 123.967 104.444 120.957 102.478 116.411C102.233 115.858 102.847 115.366 103.338 115.612C104.383 116.165 105.304 116.718 106.287 117.148C109.114 118.438 112.063 119.482 115.196 119.175C115.81 119.052 116.24 119.79 115.81 120.22Z" fill="black"/>
<path d="M97.5635 99.2079C96.089 99.1465 94.9831 97.9177 95.106 96.4432L95.1674 94.7229C95.2289 93.2484 96.4576 92.1426 97.9321 92.2654C99.4067 92.3269 100.513 93.5556 100.39 95.0301L100.328 96.7504C100.267 98.1635 99.038 99.2694 97.5635 99.2079Z" fill="black"/>
<path d="M123.429 100.129C122.077 100.068 121.032 98.9007 121.094 97.5491L121.155 95.9517C121.217 94.6001 122.384 93.5556 123.736 93.6171C125.087 93.6785 126.132 94.8458 126.07 96.1975L126.009 97.7949C125.947 99.1465 124.78 100.191 123.429 100.129Z" fill="black"/>
<path d="M103.093 95.8901C101.065 94.5384 98.8537 93.6169 96.3961 94.1084C95.5974 94.2313 94.7988 94.477 94.3073 95.0299C94.1229 95.2757 93.6929 95.2143 93.6929 94.8456C93.7543 93.6169 94.7987 92.8182 95.7818 92.3267C97.6863 91.3437 100.328 91.528 102.048 92.8182C102.663 93.1868 104.752 95.46 103.646 95.9515C103.4 96.0744 103.277 96.013 103.093 95.8901Z" fill="black"/>
<path d="M120.664 96.1975C120.664 93.6171 123.859 92.6955 125.825 93.6171C126.931 94.1086 127.729 95.0916 128.037 96.2589C128.159 96.6275 127.607 96.9347 127.361 96.6275C126.316 95.3988 124.535 94.7844 123.122 95.5216C122.692 95.7674 122.63 95.9517 122.507 96.1975C122.507 97.4262 120.726 97.3648 120.664 96.1975Z" fill="black"/>
<path d="M106.042 85.7529C107.332 86.183 108.622 85.0157 108.376 83.6026C108.254 82.8654 107.946 82.1281 107.332 81.5752C105.489 79.9163 97.8706 78.4418 93.2627 80.5922C89.2078 82.5582 100.144 83.7869 106.042 85.7529Z" fill="black"/>
<path d="M124.412 86.736C123.368 87.1047 122.262 85.9988 122.446 84.7086C122.507 84.0328 122.753 83.357 123.245 82.8654C124.719 81.3909 129.757 80.2236 132.952 82.4968C135.717 84.4014 129.204 84.9543 124.412 86.736Z" fill="black"/>
<path d="M140.631 62.4679C137.437 35.1894 110.342 25.9738 115.565 44.1594C115.565 44.1594 108.438 32.7319 92.4026 32.1176C78.6405 31.6261 86.9961 41.3947 86.9961 41.3947C86.9961 41.3947 76.3059 35.2509 58.1817 44.4666C42.3921 52.5149 57.0144 59.5803 57.0144 59.5803C57.0144 59.5803 45.0954 65.9084 44.9111 79.5476C44.8497 83.111 47.7987 88.579 54.8026 86.7973C53.0209 100.375 61.315 111.495 65.1242 116.042C70.0392 121.94 70.4693 126.425 70.4693 126.425C72.9882 125.012 70.0392 118.684 70.1006 115.366C54.7412 109.468 57.5059 92.3267 65.0013 91.3437C72.8653 90.3607 75.3229 97.3646 75.7529 99.0849C77.0431 97.5489 77.4117 91.5895 78.149 85.2613C80.4222 84.5241 82.4497 83.7254 84.1085 82.681C90.6209 78.8104 93.6928 72.1136 100.328 68.1816C111.94 61.2391 114.95 76.9058 121.156 71.1306C128.344 64.4953 133.566 69.779 135.163 77.9502C135.778 80.8993 139.525 80.6535 140.078 77.7045C140.939 73.4038 141.307 68.243 140.631 62.4679Z" fill="black"/>
</g>
<path d="M0.704 21H8.08V19.736H4.832C4.24 19.736 3.52 19.8 2.912 19.848C5.664 17.24 7.504 14.856 7.504 12.52C7.504 10.424 6.192 9.048 4.096 9.048C2.608 9.048 1.6 9.736 0.64 10.776L1.488 11.608C2.128 10.84 2.96 10.248 3.92 10.248C5.376 10.248 6.08 11.224 6.08 12.568C6.08 14.584 4.384 16.92 0.704 20.136V21ZM10.555 16.6L13.227 12.6C13.563 12.024 13.883 11.448 14.171 10.872H14.235C14.203 11.48 14.139 12.424 14.139 13V16.6H10.555ZM17.083 16.6H15.531V9.272H13.915L9.035 16.808V17.768H14.139V21H15.531V17.768H17.083V16.6ZM19.126 9.384V10.44H24.518C24.246 13.848 22.326 16.6 18.47 18.44L19.174 19.512C23.942 17.176 25.846 13.528 25.846 9.384H19.126ZM28.742 7.832V22.184H30.054V7.832H28.742Z" fill="#8B6517"/>
</svg>
