<svg width="188" height="234" viewBox="0 0 188 234" fill="none" xmlns="http://www.w3.org/2000/svg">
<path d="M69.1223 212.36V214.44H74.8223C74.4423 216.88 72.1423 218.9 68.0623 219.92L69.0623 221.98C74.5423 220.58 77.6423 217.26 77.6423 212.36H69.1223ZM73.6823 224.42H80.6623V227.44H73.6823V224.42ZM71.0823 229.5H83.2623V222.34H71.0823V229.5ZM80.6023 211.32V221.56H83.2623V211.32H80.6023ZM101.461 211.3H98.8008V224.62H101.461V211.3ZM97.6408 220.32C94.6608 219.34 93.3208 217.08 93.3208 214.92V214.7H96.9608V212.62H86.9408V214.7H90.6408V214.92C90.6408 217.22 89.3008 219.64 86.2408 220.6L87.5808 222.66C89.7208 221.96 91.2008 220.54 92.0208 218.74C92.8608 220.38 94.2608 221.7 96.3008 222.34L97.6408 220.32ZM91.8408 227.3V223.42H89.2008V229.4H101.921V227.3H91.8408ZM111.219 219.02H107.719V214.72H111.219V219.02ZM117.119 216.06V217.64H113.799V216.06H117.119ZM113.799 219.74H117.119V222.1H119.759V211.3H117.119V213.96H113.799V212.62H105.119V221.1H113.799V219.74ZM113.519 227.7C111.119 227.7 109.859 227.2 109.859 226.14C109.859 225.08 111.119 224.58 113.519 224.58C115.939 224.58 117.199 225.08 117.199 226.14C117.199 227.2 115.939 227.7 113.519 227.7ZM113.519 222.56C109.619 222.56 107.219 223.88 107.219 226.14C107.219 228.4 109.619 229.72 113.519 229.72C117.439 229.72 119.839 228.4 119.839 226.14C119.839 223.88 117.439 222.56 113.519 222.56Z" fill="#111111"/>
<path d="M0 104C0 52.0852 42.0852 10 94 10C145.915 10 188 52.0852 188 104V178C188 189.046 179.046 198 168 198H20C8.9543 198 0 189.046 0 178V104Z" fill="#EBB23D"/>
<mask id="mask0_322_1550" style="mask-type:alpha" maskUnits="userSpaceOnUse" x="0" y="10" width="188" height="188">
<path d="M0 10H188V178C188 189.046 179.046 198 168 198H20C8.9543 198 0 189.046 0 178V10Z" fill="#D9D9D9"/>
</mask>
<g mask="url(#mask0_322_1550)">
<path d="M145.055 181.043C144.625 181.35 144.133 181.657 143.703 181.965C143.212 182.272 142.782 182.579 142.29 182.825C141.86 183.071 141.491 183.316 141.061 183.562C141 183.623 140.938 183.623 140.877 183.685C139.464 184.545 137.989 185.344 136.515 186.081C136.085 186.327 135.593 186.572 135.163 186.757C135.163 186.757 135.102 186.818 135.04 186.818C134.549 187.064 134.057 187.31 133.566 187.555C132.583 188.047 131.538 188.477 130.555 188.907C130.064 189.153 129.511 189.337 129.02 189.522C128.528 189.706 127.975 189.952 127.484 190.136C126.992 190.32 126.439 190.566 125.948 190.75C125.948 190.75 125.948 190.75 125.886 190.75C125.395 190.935 124.842 191.119 124.35 191.303C123.244 191.672 122.077 192.04 120.971 192.409C120.603 192.532 120.172 192.655 119.804 192.778C118.637 193.146 117.469 193.454 116.302 193.699C115.872 193.822 115.442 193.884 114.95 194.006C113.844 194.252 112.677 194.498 111.571 194.744C111.325 194.805 111.141 194.805 110.895 194.867C110.527 194.928 110.097 194.989 109.728 195.051C109.175 195.112 108.684 195.235 108.131 195.297C107.885 195.358 107.639 195.358 107.393 195.42C107.086 195.481 106.718 195.542 106.349 195.542C105.366 195.665 104.322 195.788 103.338 195.911C103.031 195.972 102.663 195.972 102.355 196.034H102.294C101.864 196.095 101.434 196.095 101.004 196.157C100.574 196.218 100.144 196.218 99.7137 196.218C99.4679 196.218 99.1607 196.28 98.915 196.28C98.4235 196.28 97.9934 196.341 97.5633 196.341C96.949 196.341 96.396 196.403 95.7816 196.403C95.1673 196.403 94.6143 196.403 93.9999 196.403C93.5699 196.403 93.1398 196.403 92.7097 196.403C66.7829 196.034 43.498 185.037 26.8483 167.588C26.8483 167.588 26.8483 167.527 26.7869 167.527C24.9437 165.868 26.5411 157.021 33.9751 151.43C43.3137 144.365 65.6771 139.941 65.6771 139.941C65.6771 139.941 74.3398 138.528 106.472 145.225C125.272 149.157 139.587 154.871 147.574 170.353C149.233 173.548 150.891 178.463 145.055 181.043Z" fill="white"/>
<path d="M106.656 144.549C118.452 146.945 131.047 149.525 140.754 157.328C144.011 159.97 146.161 163.84 147.943 167.588C148.803 169.431 149.663 171.336 150.339 173.363C150.707 174.715 151.26 176.251 150.953 177.848C150.892 178.278 150.523 178.831 150.216 179.139C148.803 180.552 147.267 181.412 145.731 182.518C136.699 188.784 126.316 193.208 115.565 195.542C91.6041 200.765 65.6773 196.71 44.6041 184.115C37.6001 179.876 31.1492 174.715 25.6198 168.633C25.0054 167.895 25.0054 166.667 25.0054 165.868C25.0668 164.025 25.5583 162.243 26.1727 160.584C27.6472 156.775 29.5518 152.966 32.808 150.324C35.1426 148.727 37.6616 147.375 40.242 146.269C48.3518 142.829 56.8916 140.433 65.6773 139.45C66.4145 139.388 66.5374 140.433 65.8001 140.556C57.3831 142.276 49.0276 144.856 41.225 148.358C38.3988 149.771 35.3884 151 33.1152 153.212C30.9648 155.546 29.4289 158.434 28.2001 161.383C27.4015 163.165 26.8485 165.991 27.0943 167.404C30.9648 172.012 35.5113 176.067 40.4263 179.569C67.3361 198.369 108.192 199.597 136.822 183.931C139.403 182.518 141.922 180.92 144.318 179.261C145.485 178.463 146.714 177.787 147.635 176.865C147.697 176.804 147.635 176.865 147.635 176.927C147.635 176.988 147.574 177.05 147.574 177.05C147.635 176.312 147.39 175.329 147.082 174.346C145.977 170.783 144.195 167.035 142.29 163.779C139.28 158.925 134.181 155.854 129.02 153.396C125.456 151.737 121.709 150.447 117.899 149.218C114.09 147.99 110.22 146.945 106.349 146.023C105.366 145.778 105.673 144.365 106.656 144.549Z" fill="black"/>
<path d="M165.453 219.135H10.0762C10.0762 219.135 19.2304 199.843 23.2853 177.848C26.1115 162.612 28.2004 153.703 36.1258 148.788C41.7167 145.348 53.6971 141.784 58.8579 139.941C62.3598 138.712 63.0971 139.757 65.616 139.081C65.616 139.388 65.6775 139.634 65.6775 139.941C65.6775 139.941 72.3128 159.663 89.5768 166.667C103.646 172.38 112.002 168.571 113.292 162.243C114.091 158.188 111.572 151.553 110.281 149.403C109.544 148.788 109.053 147.867 108.807 146.945L108.315 144.918C109.483 144.672 110.589 144.365 111.694 143.996C112.063 143.873 112.37 143.75 112.739 143.627C119.804 145.471 134.918 151.43 141.615 157.574C144.257 160.031 150.523 172.319 154.578 190.136C159.247 210.349 165.453 219.135 165.453 219.135Z" fill="black"/>
<path d="M166.865 219.872C120.603 220.179 55.6628 220.916 10.1373 220.732C9.03145 220.732 8.23276 219.503 8.72426 218.52C14.1922 206.478 18.4929 193.638 21.2576 180.674C21.5648 179.016 22.2406 175.759 22.5478 174.101C23.9609 167.342 25.0667 160.646 28.6916 154.44C29.9203 152.413 31.5177 150.508 33.4223 148.972C35.2654 147.498 37.4158 146.392 39.5661 145.409C46.4471 142.46 53.3896 140.125 60.455 137.975C62.1138 137.606 63.7726 138.037 65.37 137.668C66.2916 137.422 67.2746 138.098 67.336 139.081L67.3975 139.941L65.7386 138.405C66.4145 138.405 67.0288 138.835 67.2132 139.45C67.7047 140.863 68.3805 142.337 69.0563 143.75C71.1452 147.989 73.7256 151.983 76.8589 155.485C80.9752 160.154 86.136 163.84 92.0341 165.929C97.9936 168.141 108.622 170.046 111.571 162.919C112.063 161.629 112.001 160.277 111.817 158.864C111.387 155.976 110.404 152.904 108.991 150.324L109.298 150.693C108.315 149.403 107.946 147.867 108.069 146.392V145.102V144.918C108.069 144.795 108.192 144.672 108.315 144.672C109.052 144.426 109.728 144.119 110.465 143.873C111.141 143.566 111.817 143.259 112.493 142.89C112.677 142.767 112.862 142.829 113.046 142.89C117.101 143.935 120.971 145.348 124.842 146.945C130.617 149.341 136.331 152.044 141.307 155.915C143.089 157.205 144.379 159.11 145.424 161.014C147.513 164.701 149.171 168.51 150.646 172.38C153.226 179.138 155.131 186.142 156.79 193.208C158.879 201.01 161.397 208.752 165.268 215.878C165.698 216.616 166.128 217.353 166.558 218.09L166.681 218.213V218.274C167.05 218.582 167.111 219.442 166.865 219.872ZM164.039 218.397C163.732 218.705 163.794 219.565 164.039 219.872V219.81L163.916 219.626C159.616 212.561 156.913 204.635 154.701 196.71C153.595 192.839 152.796 188.661 151.69 184.729C149.54 176.988 146.898 169.186 143.028 162.12C142.352 160.953 141.614 159.663 140.693 158.741C138.911 157.082 136.822 155.731 134.733 154.44C131.293 152.413 127.607 150.631 123.859 149.095C120.111 147.559 116.302 146.146 112.431 145.102L113.353 145.04C111.694 145.163 110.097 145.225 108.499 145.163L108.745 144.795C109.114 145.409 109.544 146.454 109.913 147.006C110.343 147.559 110.834 147.989 111.387 148.235C111.51 148.358 111.633 148.481 111.694 148.604C113.906 152.843 116.118 159.171 114.52 163.902C110.834 173.179 98.4851 171.705 90.9282 168.817C84.6001 166.667 78.8864 162.55 74.4628 157.512C70.0393 152.474 66.5373 146.699 64.2027 140.433L65.6772 141.477C64.8171 141.477 64.1413 140.863 64.0798 140.003L64.0184 139.204L65.9844 140.617C65.37 140.801 64.6328 140.863 63.9569 140.924C62.2367 140.863 61.0694 140.801 59.472 141.416C57.3831 142.153 55.2328 142.89 53.0824 143.566C48.8432 144.979 44.6654 146.454 40.672 148.235C31.5792 151.86 28.9373 159.11 26.8484 168.141C25.8654 172.319 25.0667 177.05 24.2066 181.289C21.3805 194.559 17.0798 207.4 11.489 219.81L10.0759 217.537C54.6184 217.537 118.882 217.967 164.039 218.397Z" fill="black"/>
<path d="M84.2925 173.118C63.0964 163.595 54.8637 146.576 56.4611 141.969C56.4611 141.969 56.4611 141.907 56.5225 141.846C57.6284 139.573 59.4101 137.729 61.6219 136.439C62.8506 135.702 64.2023 135.026 65.3082 134.657C82.0807 130.48 104.321 137.545 111.817 143.996C114.52 147.252 117.285 150.508 118.329 159.11C119.804 171.52 106.226 183.009 84.2925 173.118Z" fill="white"/>
<path d="M83.9855 173.793C73.3568 169.001 63.4038 161.506 57.7515 151.123C56.6457 148.973 55.6626 146.761 55.3555 144.242C55.294 143.382 55.2326 142.337 55.6626 141.477C56.9528 138.897 59.2875 136.869 61.8679 135.64C63.8339 134.596 65.9842 133.859 68.1345 133.183C71.2064 132.63 74.2783 132.446 77.4117 132.507C87.6718 132.814 97.8705 135.518 106.963 140.248C107.639 140.617 108.315 140.986 108.991 141.416C109.236 141.539 109.421 141.723 109.728 141.661C110.035 141.6 110.281 141.723 110.527 141.846C111.264 142.276 111.878 142.829 112.554 143.443C114.213 145.471 115.872 147.621 116.978 150.078C118.084 152.536 118.698 155.178 119.067 157.758C120.05 163.042 118.268 168.94 114.152 172.565C105.796 180.06 93.2626 178.033 83.9855 173.793ZM84.5385 172.503C91.4195 175.514 99.2836 177.418 106.595 175.084C112.493 173.302 117.346 167.957 117.531 161.69C117.592 158.004 116.732 154.133 115.257 150.754C114.459 148.665 112.247 146.023 111.141 144.672C110.465 144.119 109.728 143.689 109.114 143.136C109.052 143.013 108.991 142.89 108.929 142.767C108.806 142.46 108.561 142.399 108.376 142.214C107.762 141.846 107.086 141.477 106.41 141.108C101.065 138.344 95.1672 136.746 89.2692 135.579C82.3881 134.289 75.3228 133.92 68.3803 134.903C67.3973 135.026 66.3528 134.903 65.3698 135.149C64.6326 135.456 63.2809 136.071 62.4208 136.685C60.209 137.975 58.5502 139.88 57.3829 142.153L57.3215 142.214C57.3215 142.276 57.26 142.399 57.26 142.46C56.9528 145.04 58.1816 147.682 59.3489 150.078C60.3934 152.044 61.6221 153.949 63.0352 155.792C68.6875 163.103 76.2443 168.756 84.5385 172.503Z" fill="black"/>
<path d="M112.431 160.891C111.141 167.219 102.785 171.029 88.7157 165.315C74.0935 159.417 67.7654 145.348 66.168 141.17C74.8307 124.95 68.8098 113.707 68.8098 113.707C88.7771 111.987 106.225 135.333 106.225 135.333L108.929 146.884C109.175 147.867 109.666 148.727 110.403 149.341C111.693 151.614 113.229 156.836 112.431 160.891Z" fill="white"/>
<path d="M65.8612 141.354C67.0285 139.572 67.7658 137.483 68.2573 135.456C69.1789 131.217 69.486 126.916 69.5475 122.616V121.018C69.3632 119.421 68.8102 117.762 68.1958 116.287C67.3972 114.321 70.2847 113.093 71.2063 115.059C71.3292 115.304 71.3292 115.734 71.3292 115.98C71.5135 124.336 71.8821 135.087 66.5985 142.03C66.2298 142.399 65.4926 141.846 65.8612 141.354Z" fill="black"/>
<path d="M106.901 135.21C107.823 135.763 108.13 136.501 108.253 137.238C108.622 138.712 108.499 140.31 108.867 141.846C109.175 143.32 110.096 144.733 110.342 146.269C110.649 147.867 111.571 151.246 111.939 152.904C112.062 153.273 111.816 153.703 111.386 153.765C111.141 153.826 110.956 153.765 110.772 153.642C109.973 152.966 109.605 152.29 109.113 151.43C108.314 149.955 107.762 148.604 107.27 146.945C106.84 145.47 107.024 143.873 106.656 142.337C106.348 140.863 105.488 139.45 105.181 137.914C104.997 137.176 104.935 136.378 105.488 135.456C105.857 135.087 106.471 134.965 106.901 135.21Z" fill="black"/>
<path d="M111.325 151.43C99.5908 150.816 90.0065 147.129 80.668 130.48C88.532 137.422 97.8091 140.064 107.578 141.293L108.868 146.945C109.114 147.928 110.588 150.816 111.325 151.43Z" fill="black"/>
<path d="M110.834 149.157C112.923 153.089 114.152 158.004 112.861 162.366C111.878 165.438 109.052 167.711 105.98 168.571C98.8537 170.476 90.621 167.465 84.2929 164.086C76.4903 159.724 70.7151 152.413 67.0288 144.426C66.7831 143.812 67.6432 143.32 68.0118 143.934C69.302 146.515 70.7765 149.034 72.4354 151.307C74.0942 153.642 75.9988 155.792 78.1491 157.697C84.4157 163.349 92.8942 166.851 101.373 166.851C110.097 166.605 113.414 161.997 111.387 153.519C111.08 152.167 110.588 150.754 109.912 149.587C109.544 149.095 110.465 148.542 110.834 149.157Z" fill="black"/>
<path d="M134.611 75.3698C135.716 80.5306 134.856 83.9711 134.365 98.2247C133.873 112.233 129.818 132.016 124.842 136.992C121.033 140.74 108.807 143.689 97.9321 140.924C92.4027 139.511 87.7334 136.316 83.9243 134.043C79.1321 131.155 74.9543 122.247 71.5138 116.533C68.8105 112.048 69.0563 117.455 65.5543 113.584C60.7007 108.301 54.8641 97.6718 57.7517 78.8718C62.421 48.3986 86.5661 44.8352 104.445 48.2143C122.446 51.5934 131.662 61.7921 134.611 75.3698Z" fill="white"/>
<path d="M68.6263 118.991C67.2133 116.656 65.3701 114.567 63.7113 112.356C61.2538 108.976 59.4106 105.106 58.1819 101.112C52.8368 84.0327 56.093 61.6692 72.2512 51.5934C86.9348 42.2549 115.442 45.634 127.361 58.413C131.846 63.0209 134.734 69.0418 135.962 75.3085C136.024 75.6771 136.208 76.3529 136.269 76.7215C136.331 77.0287 136.515 77.3974 136.454 77.766C136.331 79.1176 136.085 80.4693 135.962 81.8209C135.041 89.9921 135.286 98.3477 134.242 106.519C133.32 115.12 132.092 123.722 129.511 132.016C128.713 134.535 127.177 136.808 125.149 138.467C120.603 142.276 114.643 143.566 108.93 143.812C97.5021 144.365 85.8904 140.31 79.2551 130.664C79.0093 130.295 79.5008 129.865 79.808 130.234C85.3374 136.193 92.8329 140.003 100.82 140.863C109.667 141.907 122.999 141.108 126.869 131.647C131.354 118.254 133.689 104.061 133.935 89.9921C133.935 86.5516 133.751 83.1111 133.751 79.6091C133.751 79.1791 133.812 78.196 133.812 77.766C133.812 77.766 133.812 77.7045 133.812 77.766C133.812 77.8274 133.812 77.8274 133.812 77.766C133.32 76.5372 133.136 75.1856 132.768 73.9568C131.416 68.8575 128.958 64.0039 125.456 60.1333C113.845 47.1085 87.9793 43.8523 73.4799 53.6209C61.991 61.2392 58.9191 75.8614 58.1204 88.7634C57.4446 98.4091 60.2708 107.871 67.5819 114.506L70.4695 117.516C71.6982 118.868 69.6093 120.465 68.6263 118.991Z" fill="black"/>
<path d="M75.8761 99.4534C75.8761 99.4534 73.9715 90.2377 65.0016 91.3436C57.2604 92.3266 54.5571 110.881 72.1284 116.042" fill="white"/>
<path d="M71.3293 107.994C69.9162 107.195 68.9332 105.843 68.8718 104.184C68.9332 102.956 69.1176 101.543 68.8104 100.314C68.626 99.1466 67.3973 98.8394 66.4757 98.9008C65.4927 99.0851 64.8783 100.314 64.694 101.297C64.694 101.358 64.6326 101.543 64.6326 101.604C64.5711 101.911 64.0796 101.911 63.9568 101.604C63.1581 99.208 64.9398 96.5662 67.5202 96.8733C71.145 97.1191 71.6365 100.928 70.9607 103.816C70.5921 105.045 71.0836 106.15 71.7594 107.195L71.8823 107.379C72.1894 107.748 71.6979 108.239 71.3293 107.994Z" fill="black"/>
<path d="M120.48 92.9411C121.402 97.3032 123.122 101.358 125.272 105.167C127.177 109.837 122.262 114.26 117.9 114.076C117.408 114.076 117.347 113.4 117.777 113.277C120.542 112.417 123.061 110.574 123.491 107.748C123.675 106.887 123.429 106.15 122.999 105.413C120.972 101.604 119.743 97.2417 120.05 92.9411C120.05 92.6339 120.48 92.6339 120.48 92.9411Z" fill="black"/>
<path d="M75.5686 99.5151C74.1555 95.8902 71.0836 92.4497 66.9673 92.5112C66.5987 92.4497 65.9843 92.5726 65.6156 92.5726C64.5712 92.634 63.7111 93.0027 62.9124 93.7399C58.9804 97.6719 59.6562 104.614 62.8509 108.977C63.9568 110.512 65.3699 111.864 66.9673 112.97C68.5647 114.076 70.3464 114.936 72.2509 115.673C72.681 115.796 72.4967 116.472 72.0666 116.41C67.9503 115.55 64.0183 113.523 61.315 110.144C57.1372 105.106 56.2771 96.6889 61.2536 91.7739C62.3594 90.7909 63.8954 90.0536 65.4313 90.0536C65.9228 90.0536 66.6601 89.9308 67.1516 90.0536C69.732 90.1765 72.1895 91.4667 73.7869 93.4942C75.2 95.2144 75.9987 97.3033 76.2444 99.3922C76.2444 99.7608 75.6915 99.8837 75.5686 99.5151Z" fill="black"/>
<path d="M115.81 120.22C111.878 123.967 104.444 120.957 102.478 116.411C102.233 115.858 102.847 115.366 103.338 115.612C104.383 116.165 105.304 116.718 106.287 117.148C109.114 118.438 112.063 119.482 115.196 119.175C115.81 119.052 116.24 119.79 115.81 120.22Z" fill="black"/>
<path d="M97.5635 99.2079C96.089 99.1465 94.9831 97.9177 95.106 96.4432L95.1674 94.7229C95.2289 93.2484 96.4576 92.1426 97.9321 92.2654C99.4067 92.3269 100.513 93.5556 100.39 95.0301L100.328 96.7504C100.267 98.1635 99.038 99.2694 97.5635 99.2079Z" fill="black"/>
<path d="M123.429 100.129C122.077 100.068 121.032 98.9007 121.094 97.5491L121.155 95.9517C121.217 94.6001 122.384 93.5556 123.736 93.6171C125.087 93.6785 126.132 94.8458 126.07 96.1975L126.009 97.7949C125.947 99.1465 124.78 100.191 123.429 100.129Z" fill="black"/>
<path d="M103.093 95.8901C101.065 94.5384 98.8537 93.6169 96.3961 94.1084C95.5974 94.2313 94.7988 94.477 94.3073 95.0299C94.1229 95.2757 93.6929 95.2143 93.6929 94.8456C93.7543 93.6169 94.7987 92.8182 95.7818 92.3267C97.6863 91.3437 100.328 91.528 102.048 92.8182C102.663 93.1868 104.752 95.46 103.646 95.9515C103.4 96.0744 103.277 96.013 103.093 95.8901Z" fill="black"/>
<path d="M120.664 96.1975C120.664 93.6171 123.859 92.6955 125.825 93.6171C126.931 94.1086 127.729 95.0916 128.037 96.2589C128.159 96.6275 127.607 96.9347 127.361 96.6275C126.316 95.3988 124.535 94.7844 123.122 95.5216C122.692 95.7674 122.63 95.9517 122.507 96.1975C122.507 97.4262 120.726 97.3648 120.664 96.1975Z" fill="black"/>
<path d="M106.042 85.7529C107.332 86.183 108.622 85.0157 108.376 83.6026C108.254 82.8654 107.946 82.1281 107.332 81.5752C105.489 79.9163 97.8706 78.4418 93.2627 80.5922C89.2078 82.5582 100.144 83.7869 106.042 85.7529Z" fill="black"/>
<path d="M124.412 86.736C123.368 87.1047 122.262 85.9988 122.446 84.7086C122.507 84.0328 122.753 83.357 123.245 82.8654C124.719 81.3909 129.757 80.2236 132.952 82.4968C135.717 84.4014 129.204 84.9543 124.412 86.736Z" fill="black"/>
<path d="M133.016 109.959C133.139 113.584 133.323 115.919 133.323 115.919L140.266 114.014C140.266 114.014 138.177 101.972 139.221 91.5895C141.249 71.9293 139.221 66.3999 139.221 66.3999C138.177 61.3006 134.798 56.7542 127.302 55.4025C125.029 53.9895 122.51 52.8836 119.745 51.962C109.854 48.46 88.1048 41.1489 71.3937 52.1463C54.6826 63.1437 54.0682 83.6025 51.795 97.2417C49.5218 110.881 34.6538 120.834 34.6538 120.834L38.0943 125.749C39.9375 127.101 44.9139 121.018 45.7126 120.834C46.5113 120.65 41.2277 127.039 41.2277 127.039C42.5793 132.507 48.3545 135.702 48.3545 135.702C48.3545 135.702 57.3244 129.927 55.4813 132.569C53.6381 135.21 50.1976 137.299 50.1976 137.299C50.1976 137.299 59.1675 145.225 62.8538 144.549C66.5401 143.873 71.8237 135.456 71.3937 137.299C71.025 139.142 68.0146 145.901 68.0146 145.901L72.8682 148.665C88.1662 143.75 76.0015 124.459 84.7257 112.601C93.3884 100.744 82.3296 94.4156 89.2721 90.4836C91.0538 89.4391 92.7741 88.3332 94.31 87.1045L104.263 88.8247C104.263 88.8247 110.714 88.7019 108.871 75.7999C108.195 71.0692 109.792 66.0313 110.407 64.3725C110.468 64.3725 110.468 64.3725 110.53 64.3725C110.284 66.0313 109.854 70.9463 111.267 77.2744C113.233 86.1829 107.089 89.6234 107.089 89.6234L113.294 91.5895C119.622 88.4561 114.523 78.4417 113.294 70.4548C112.926 67.8744 113.417 66.277 114.277 65.3555C118.578 66.6457 121.343 68.1202 121.588 66.83C131.726 69.3489 131.849 82.681 132.156 83.0496C132.033 85.5071 131.726 89.6849 131.664 95.0914C131.664 97.6104 131.91 102.464 131.726 105.29C131.541 108.731 131.234 111.925 130.743 115.12C129.821 120.035 128.408 125.196 126.381 128.391C122.326 134.719 119.131 140.064 113.294 142.767C107.519 145.409 100.945 145.962 100.945 145.962C100.945 145.962 102.788 147.129 107.151 147.375C111.513 147.621 114.646 145.901 117.841 145.409C121.035 144.856 128.347 146.884 128.347 146.884C129.145 145.47 128.592 140.248 129.391 141.293C130.19 142.337 130.067 146.884 130.067 146.884L136.641 148.051C138.054 144.733 138.238 138.835 138.238 138.835C138.238 137.852 138.177 136.869 138.115 135.763C137.071 125.319 132.954 123.537 133.016 109.959Z" fill="black"/>
</g>
<path d="M0.704 21H8.08V19.736H4.832C4.24 19.736 3.52 19.8 2.912 19.848C5.664 17.24 7.504 14.856 7.504 12.52C7.504 10.424 6.192 9.048 4.096 9.048C2.608 9.048 1.6 9.736 0.64 10.776L1.488 11.608C2.128 10.84 2.96 10.248 3.92 10.248C5.376 10.248 6.08 11.224 6.08 12.568C6.08 14.584 4.384 16.92 0.704 20.136V21ZM11.883 21H13.403C13.579 16.408 14.091 13.688 16.843 10.152V9.272H9.499V10.52H15.179C12.891 13.72 12.075 16.552 11.883 21ZM19.126 9.384V10.44H24.518C24.246 13.848 22.326 16.6 18.47 18.44L19.174 19.512C23.942 17.176 25.846 13.528 25.846 9.384H19.126ZM28.742 7.832V22.184H30.054V7.832H28.742Z" fill="#8B6517"/>
</svg>
