<svg width="188" height="234" viewBox="0 0 188 234" fill="none" xmlns="http://www.w3.org/2000/svg">
<path d="M72.0223 217.32C72.0223 215.44 73.7623 214.34 76.2823 214.34C78.8223 214.34 80.5623 215.44 80.5623 217.32C80.5623 219.2 78.8223 220.3 76.2823 220.3C73.7623 220.3 72.0223 219.2 72.0223 217.32ZM77.6023 225.44V222.32C80.8623 221.94 83.1623 220.06 83.1623 217.32C83.1623 214.24 80.2223 212.24 76.2823 212.24C72.3623 212.24 69.4223 214.24 69.4223 217.32C69.4223 220.06 71.7223 221.92 74.9623 222.32V225.44H67.9623V227.58H84.6423V225.44H77.6023ZM93.3408 216.4H97.1008V214.3H93.3408V211.74H90.7008V214.3H86.8608V216.4H90.7008V217.04C90.7008 219.84 89.2608 222.96 86.2408 224.32L87.6608 226.34C89.7608 225.4 91.2408 223.52 92.0608 221.3C92.8808 223.4 94.3408 225.16 96.4208 226.02L97.8208 224C94.8008 222.7 93.3408 219.7 93.3408 217.04V216.4ZM98.8008 211.3V229.72H101.441V211.3H98.8008ZM117.119 223.02H119.759V211.3H117.119V215.34H114.759V217.44H117.119V219.02H114.719V221.12H117.119V223.02ZM114.519 212.96H110.919V211.16H108.279V212.96H104.419V215.04H114.519V212.96ZM107.739 219.12C107.739 218.16 108.479 217.64 109.599 217.64C110.699 217.64 111.459 218.16 111.459 219.12C111.459 220.08 110.699 220.6 109.599 220.6C108.479 220.6 107.739 220.08 107.739 219.12ZM113.899 219.12C113.899 217.08 112.119 215.68 109.599 215.68C107.059 215.68 105.279 217.08 105.279 219.12C105.279 221.16 107.059 222.56 109.599 222.56C112.119 222.56 113.899 221.16 113.899 219.12ZM113.539 227.72C111.259 227.72 110.019 227.34 110.019 226.5C110.019 225.64 111.259 225.28 113.539 225.28C115.799 225.28 117.059 225.64 117.059 226.5C117.059 227.34 115.799 227.72 113.539 227.72ZM113.539 223.26C109.659 223.26 107.219 224.46 107.219 226.5C107.219 228.52 109.659 229.72 113.539 229.72C117.419 229.72 119.839 228.52 119.839 226.5C119.839 224.46 117.419 223.26 113.539 223.26Z" fill="#111111"/>
<path d="M0 104C0 52.0852 42.0852 10 94 10C145.915 10 188 52.0852 188 104V178C188 189.046 179.046 198 168 198H20C8.9543 198 0 189.046 0 178V104Z" fill="#EBB23D"/>
<mask id="mask0_322_1682" style="mask-type:alpha" maskUnits="userSpaceOnUse" x="0" y="10" width="188" height="188">
<path d="M0 10H188V178C188 189.046 179.046 198 168 198H20C8.9543 198 0 189.046 0 178V10Z" fill="#D9D9D9"/>
</mask>
<g mask="url(#mask0_322_1682)">
<path d="M145.055 181.043C144.625 181.35 144.133 181.657 143.703 181.965C143.212 182.272 142.782 182.579 142.29 182.825C141.86 183.071 141.491 183.316 141.061 183.562C141 183.623 140.938 183.623 140.877 183.685C139.464 184.545 137.989 185.344 136.515 186.081C136.085 186.327 135.593 186.572 135.163 186.757C135.163 186.757 135.102 186.818 135.04 186.818C134.549 187.064 134.057 187.31 133.566 187.555C132.583 188.047 131.538 188.477 130.555 188.907C130.064 189.153 129.511 189.337 129.02 189.522C128.528 189.706 127.975 189.952 127.484 190.136C126.992 190.32 126.439 190.566 125.948 190.75C125.948 190.75 125.948 190.75 125.886 190.75C125.395 190.935 124.842 191.119 124.35 191.303C123.244 191.672 122.077 192.04 120.971 192.409C120.603 192.532 120.172 192.655 119.804 192.778C118.637 193.146 117.469 193.454 116.302 193.699C115.872 193.822 115.442 193.884 114.95 194.006C113.844 194.252 112.677 194.498 111.571 194.744C111.325 194.805 111.141 194.805 110.895 194.867C110.527 194.928 110.097 194.989 109.728 195.051C109.175 195.112 108.684 195.235 108.131 195.297C107.885 195.358 107.639 195.358 107.393 195.42C107.086 195.481 106.718 195.542 106.349 195.542C105.366 195.665 104.322 195.788 103.338 195.911C103.031 195.972 102.663 195.972 102.355 196.034H102.294C101.864 196.095 101.434 196.095 101.004 196.157C100.574 196.218 100.144 196.218 99.7137 196.218C99.4679 196.218 99.1607 196.28 98.915 196.28C98.4235 196.28 97.9934 196.341 97.5633 196.341C96.949 196.341 96.396 196.403 95.7816 196.403C95.1673 196.403 94.6143 196.403 93.9999 196.403C93.5699 196.403 93.1398 196.403 92.7097 196.403C66.7829 196.034 43.498 185.037 26.8483 167.588C26.8483 167.588 26.8483 167.527 26.7869 167.527C24.9437 165.868 26.5411 157.021 33.9751 151.43C43.3137 144.365 65.6771 139.941 65.6771 139.941C65.6771 139.941 74.3398 138.528 106.472 145.225C125.272 149.157 139.587 154.871 147.574 170.353C149.233 173.548 150.891 178.463 145.055 181.043Z" fill="white"/>
<path d="M106.656 144.549C118.452 146.945 131.047 149.525 140.754 157.328C144.011 159.97 146.161 163.84 147.943 167.588C148.803 169.431 149.663 171.336 150.339 173.363C150.707 174.715 151.26 176.251 150.953 177.848C150.892 178.278 150.523 178.831 150.216 179.139C148.803 180.552 147.267 181.412 145.731 182.518C136.699 188.784 126.316 193.208 115.565 195.542C91.6041 200.765 65.6773 196.71 44.6041 184.115C37.6001 179.876 31.1492 174.715 25.6198 168.633C25.0054 167.895 25.0054 166.667 25.0054 165.868C25.0668 164.025 25.5583 162.243 26.1727 160.584C27.6472 156.775 29.5518 152.966 32.808 150.324C35.1426 148.727 37.6616 147.375 40.242 146.269C48.3518 142.829 56.8916 140.433 65.6773 139.45C66.4145 139.388 66.5374 140.433 65.8001 140.556C57.3831 142.276 49.0276 144.856 41.225 148.358C38.3988 149.771 35.3884 151 33.1152 153.212C30.9648 155.546 29.4289 158.434 28.2001 161.383C27.4015 163.165 26.8485 165.991 27.0943 167.404C30.9648 172.012 35.5113 176.067 40.4263 179.569C67.3361 198.369 108.192 199.597 136.822 183.931C139.403 182.518 141.922 180.92 144.318 179.261C145.485 178.463 146.714 177.787 147.635 176.865C147.697 176.804 147.635 176.865 147.635 176.927C147.635 176.988 147.574 177.05 147.574 177.05C147.635 176.312 147.39 175.329 147.082 174.346C145.977 170.783 144.195 167.035 142.29 163.779C139.28 158.925 134.181 155.854 129.02 153.396C125.456 151.737 121.709 150.447 117.899 149.218C114.09 147.99 110.22 146.945 106.349 146.023C105.366 145.778 105.673 144.365 106.656 144.549Z" fill="black"/>
<path d="M112.677 134.351C112.677 134.351 106.841 132.876 94.0003 128.76C81.1597 124.643 64.5715 127.347 64.5715 127.347C64.5715 127.347 60.5166 127.408 58.9806 130.48C57.4447 133.552 57.5676 139.88 55.2329 141.6C54.68 141.969 53.1441 142.399 50.8708 143.013C47.1846 144.058 41.5937 145.409 36.0643 148.481C31.948 150.816 26.1114 157.943 25.1898 170.66C25.0055 173.179 25.0669 199.229 23.8996 201.748C14.1924 221.47 14.6225 212.622 14.6225 212.622H164.777C164.777 212.622 154.701 198 152.121 183.624C149.417 168.633 144.748 159.909 140.939 157.021C132.092 150.324 122.507 148.174 118.821 146.515L118.391 140.986C118.453 140.924 116.056 133.429 112.677 134.351Z" fill="black" stroke="black" stroke-width="3.5345" stroke-miterlimit="10" stroke-linecap="round" stroke-linejoin="round"/>
<path d="M118.944 144.365C120.173 150.755 121.525 157.451 119.681 163.841C117.347 173.118 109.667 179.446 99.9598 179.077C93.2631 178.955 86.935 176.374 81.1598 173.241C71.5755 167.896 63.65 159.479 59.4108 149.341C58.5507 147.253 57.8134 145.287 57.3834 143.075C57.3219 142.829 57.5062 142.522 57.8134 142.46C58.0592 142.399 58.3049 142.583 58.3664 142.829C58.9193 144.795 59.7794 146.884 60.701 148.727C65.3703 158.25 72.9886 166.237 82.2043 171.336C89.3925 175.207 97.9938 178.524 106.104 176.251C116.794 173.241 120.419 160.769 118.76 150.816C118.514 148.666 118.207 146.577 117.9 144.426C117.777 143.935 118.821 143.689 118.944 144.365Z" fill="white"/>
<path d="M102.97 178.033C102.97 178.033 104.26 189.338 103.523 196.219" stroke="white" stroke-width="3.46" stroke-miterlimit="10" stroke-linecap="round" stroke-linejoin="round"/>
<path d="M64.6943 159.049C60.7008 160.707 57.076 163.411 54.127 166.544C53.0825 167.588 52.2224 168.817 51.3623 169.985C50.9322 170.537 50.0106 169.923 50.4407 169.37C52.8982 165.438 56.093 162.059 59.9022 159.479C61.1924 158.619 62.4825 157.82 63.9571 157.144C64.51 156.898 65.1244 157.144 65.3701 157.636C65.6159 158.127 65.3087 158.803 64.6943 159.049Z" fill="white"/>
<path d="M120.234 155.178C125.456 157.328 130.003 161.199 132.46 166.298C132.583 166.544 132.46 166.79 132.276 166.913C132.03 167.036 131.784 166.913 131.662 166.728C130.31 164.455 128.59 162.428 126.439 160.83C124.412 159.294 121.954 157.943 119.497 157.205C118.145 156.714 118.883 154.687 120.234 155.178Z" fill="white"/>
<path d="M112.431 160.892C111.141 167.22 102.785 171.029 88.7162 165.315C74.0939 159.417 67.7658 145.348 66.1685 141.17C74.8312 124.95 68.8103 113.707 68.8103 113.707C88.7776 111.987 106.226 135.333 106.226 135.333L108.929 146.884C109.175 147.867 109.666 148.727 110.404 149.341C111.694 151.614 113.23 156.837 112.431 160.892Z" fill="white"/>
<path d="M65.8617 141.354C67.029 139.573 67.7663 137.484 68.2578 135.456C69.1793 131.217 69.4865 126.916 69.548 122.616V121.018C69.3637 119.421 68.8107 117.762 68.1963 116.288C67.3976 114.322 70.2852 113.093 71.2068 115.059C71.3297 115.305 71.3297 115.735 71.3297 115.98C71.514 124.336 71.8826 135.088 66.599 142.03C66.2303 142.399 65.4931 141.846 65.8617 141.354Z" fill="black"/>
<path d="M106.902 135.211C107.823 135.764 108.131 136.501 108.254 137.238C108.622 138.713 108.499 140.31 108.868 141.846C109.175 143.32 110.097 144.733 110.342 146.269C110.65 147.867 111.571 151.246 111.94 152.905C112.063 153.273 111.817 153.703 111.387 153.765C111.141 153.826 110.957 153.765 110.773 153.642C109.974 152.966 109.605 152.29 109.114 151.43C108.315 149.956 107.762 148.604 107.271 146.945C106.84 145.471 107.025 143.873 106.656 142.337C106.349 140.863 105.489 139.45 105.182 137.914C104.997 137.177 104.936 136.378 105.489 135.456C105.857 135.088 106.472 134.965 106.902 135.211Z" fill="black"/>
<path d="M111.326 151.43C99.5913 150.816 90.007 147.13 80.6685 130.48C88.5325 137.422 97.8096 140.064 107.578 141.293L108.868 146.945C109.114 147.928 110.589 150.816 111.326 151.43Z" fill="black"/>
<path d="M110.835 149.157C112.923 153.089 114.152 158.004 112.862 162.366C111.879 165.438 109.053 167.711 105.981 168.571C98.8541 170.476 90.6215 167.465 84.2934 164.086C76.4907 159.724 70.7156 152.413 67.0293 144.426C66.7836 143.812 67.6437 143.32 68.0123 143.935C69.3025 146.515 70.777 149.034 72.4358 151.307C74.0947 153.642 75.9992 155.792 78.1496 157.697C84.4162 163.349 92.8947 166.851 101.373 166.851C110.097 166.605 113.415 161.997 111.387 153.519C111.08 152.167 110.589 150.754 109.913 149.587C109.544 149.095 110.466 148.543 110.835 149.157Z" fill="black"/>
<path d="M134.611 75.3701C135.717 80.5309 136.269 84.7086 133.259 98.4707C130.31 112.171 136.024 125.995 121.524 138.59C111.756 147.068 94.676 148.666 81.0368 139.388C76.4289 136.255 75.2002 121.633 71.5753 116.042C70.0394 113.707 69.1178 117.455 65.6159 113.584C60.7623 108.301 54.9257 97.672 57.8132 78.872C62.4825 48.3988 86.6276 44.8354 104.506 48.2145C122.446 51.5936 131.662 61.7923 134.611 75.3701Z" fill="white"/>
<path d="M68.6263 118.991C67.2132 116.656 65.4315 114.629 63.7727 112.479C61.3152 109.161 59.472 105.352 58.2433 101.42C52.9596 84.5857 55.7858 62.6524 71.391 52.1465C85.8289 42.3779 113.415 45.3269 126.071 57.123C132.399 62.8367 135.901 71.1308 136.638 79.4864C137.007 85.0772 135.655 90.4838 134.488 95.8903C133.136 101.174 132.829 106.458 132.829 111.926C132.767 117.394 132.522 123.107 130.433 128.268C127.238 136.132 120.541 142.522 112.493 145.225C101.926 148.911 89.4537 146.822 80.791 139.757C80.4224 139.45 80.791 138.958 81.2211 139.143C92.5871 145.594 107.516 146.699 118.575 139.265C125.149 134.842 129.696 127.838 130.74 119.974C131.6 114.629 131.354 109.222 131.846 103.816C132.03 101.42 132.706 98.1021 133.198 95.706C133.935 91.7125 134.426 87.7191 134.365 83.7256C134.303 79.7936 133.443 75.923 132.276 72.1753C128.221 58.8432 116.609 50.9792 103.216 48.8289C83.1871 45.3269 65.6773 52.7609 60.4551 73.5883C58.1819 83.787 56.4002 95.0302 60.7008 104.922C62.2368 108.669 64.7557 111.864 67.6433 114.629L70.4694 117.639C71.6982 118.868 69.6093 120.465 68.6263 118.991Z" fill="black"/>
<path d="M75.8756 99.4536C75.8756 99.4536 73.971 90.238 65.0011 91.3438C57.2599 92.3268 54.5566 110.881 72.1279 116.042" fill="white"/>
<path d="M71.3293 107.994C69.9162 107.195 68.9332 105.843 68.8718 104.184C68.9332 102.956 69.1176 101.543 68.8104 100.314C68.626 99.1466 67.3973 98.8394 66.4757 98.9008C65.4927 99.0851 64.8783 100.314 64.694 101.297C64.694 101.358 64.6326 101.543 64.6326 101.604C64.5711 101.911 64.0796 101.911 63.9568 101.604C63.1581 99.208 64.9398 96.5662 67.5202 96.8733C71.145 97.1191 71.6365 100.928 70.9607 103.816C70.5921 105.045 71.0836 106.15 71.7594 107.195L71.8823 107.379C72.1894 107.748 71.6979 108.239 71.3293 107.994Z" fill="black"/>
<path d="M120.48 92.9413C121.401 97.3034 123.121 101.358 125.272 105.167C127.176 109.837 122.261 114.26 117.899 114.076C117.408 114.076 117.346 113.4 117.776 113.277C120.541 112.417 123.06 110.574 123.49 107.748C123.674 106.888 123.429 106.15 122.999 105.413C120.971 101.604 119.742 97.242 120.05 92.9413C120.05 92.6341 120.48 92.6341 120.48 92.9413Z" fill="black"/>
<path d="M75.5686 99.5151C74.1555 95.8902 71.0836 92.4497 66.9673 92.5112C66.5987 92.4497 65.9843 92.5726 65.6157 92.5726C64.5712 92.634 63.7111 93.0027 62.9124 93.7399C58.9804 97.6719 59.6562 104.614 62.8509 108.977C63.9568 110.512 65.3699 111.864 66.9673 112.97C68.5647 114.076 70.3464 114.936 72.2509 115.673C72.681 115.796 72.4967 116.472 72.0666 116.41C67.9503 115.55 64.0183 113.523 61.315 110.144C57.1372 105.106 56.2771 96.6889 61.2536 91.7739C62.3594 90.7909 63.8954 90.0536 65.4313 90.0536C65.9228 90.0536 66.6601 89.9308 67.1516 90.0536C69.732 90.1765 72.1895 91.4667 73.7869 93.4942C75.2 95.2144 75.9987 97.3033 76.2444 99.3922C76.2444 99.7608 75.6915 99.8837 75.5686 99.5151Z" fill="black"/>
<path d="M115.81 120.22C111.878 123.967 104.444 120.957 102.478 116.411C102.233 115.858 102.847 115.366 103.338 115.612C104.383 116.165 105.304 116.718 106.287 117.148C109.114 118.438 112.063 119.482 115.196 119.175C115.81 119.052 116.24 119.79 115.81 120.22Z" fill="black"/>
<path d="M97.5635 99.2079C96.089 99.1465 94.9831 97.9177 95.106 96.4432L95.1674 94.7229C95.2289 93.2484 96.4576 92.1426 97.9321 92.2654C99.4067 92.3269 100.513 93.5556 100.39 95.0301L100.328 96.7504C100.267 98.1635 99.038 99.2694 97.5635 99.2079Z" fill="black"/>
<path d="M123.429 100.129C122.077 100.068 121.032 98.9007 121.094 97.5491L121.155 95.9517C121.217 94.6001 122.384 93.5556 123.736 93.6171C125.087 93.6785 126.132 94.8458 126.07 96.1975L126.009 97.7949C125.947 99.1465 124.78 100.191 123.429 100.129Z" fill="black"/>
<path d="M103.093 95.8901C101.065 94.5384 98.8537 93.6169 96.3961 94.1084C95.5974 94.2313 94.7988 94.477 94.3073 95.0299C94.1229 95.2757 93.6929 95.2143 93.6929 94.8456C93.7543 93.6169 94.7987 92.8182 95.7818 92.3267C97.6863 91.3437 100.328 91.528 102.048 92.8182C102.663 93.1868 104.752 95.46 103.646 95.9515C103.4 96.0744 103.277 96.013 103.093 95.8901Z" fill="black"/>
<path d="M120.664 96.1975C120.664 93.6171 123.859 92.6955 125.825 93.6171C126.931 94.1086 127.729 95.0916 128.037 96.2589C128.159 96.6275 127.607 96.9347 127.361 96.6275C126.316 95.3988 124.535 94.7844 123.122 95.5216C122.692 95.7674 122.63 95.9517 122.507 96.1975C122.507 97.4262 120.726 97.3648 120.664 96.1975Z" fill="black"/>
<path d="M106.042 85.7529C107.332 86.183 108.622 85.0157 108.376 83.6026C108.254 82.8654 107.946 82.1281 107.332 81.5752C105.489 79.9163 97.8706 78.4418 93.2627 80.5922C89.2078 82.5582 100.144 83.7869 106.042 85.7529Z" fill="black"/>
<path d="M124.412 86.736C123.368 87.1047 122.262 85.9988 122.446 84.7086C122.507 84.0328 122.753 83.357 123.245 82.8654C124.719 81.3909 129.757 80.2236 132.952 82.4968C135.717 84.4014 129.204 84.9543 124.412 86.736Z" fill="black"/>
<path d="M66.7212 114.014C68.0728 114.936 70.0388 115.919 70.0388 115.919C70.0388 115.919 70.4075 121.387 70.346 123.291C70.2846 125.073 69.6088 130.541 69.6088 130.541C69.6088 130.541 67.9499 121.264 63.0349 116.103C60.3316 113.277 55.9696 110.144 53.3892 99.1463L55.9081 99.5763C55.9081 99.5763 57.5669 94.3541 57.5669 94.7227C57.5669 95.0299 57.5669 100.068 57.5669 100.068L59.1029 100.191C58.7957 104.799 61.0075 110.144 66.7212 114.014Z" fill="#D6D6D6"/>
<path d="M67.2743 113.216C68.4416 113.953 69.7318 114.629 70.9606 115.243L71.022 115.796C71.1449 118.008 71.4521 121.018 71.3906 123.23C71.2063 127.285 70.2847 132.016 69.7932 136.009C68.6259 130.111 67.3972 123.599 63.8952 118.561C62.2364 116.165 59.7174 114.321 57.9357 111.864C55.1096 108.178 53.5122 103.693 52.4063 99.2692L52.0991 97.9175C52.9593 98.0404 55.1096 98.409 55.9697 98.5933L54.9253 99.2077L55.724 96.6888C55.8468 96.3201 56.2155 95.1528 56.3383 94.7842C56.4612 94.5384 56.5226 94.2313 56.707 93.9855C57.2599 93.3097 58.3658 93.7398 58.3043 94.6613V99.945L57.4442 99.0234L58.8573 100.068C59.2874 105.597 62.6664 110.451 67.2743 113.216ZM66.4756 114.444C61.7449 111.25 58.3043 105.966 58.4272 100.129L58.9802 100.805L57.4442 100.928L56.707 100.989C56.5841 100.375 56.6455 95.46 56.6455 94.7228V94.6613V94.7228C56.6455 94.7842 56.6455 94.8456 56.707 94.9071C56.8913 95.5829 57.8743 95.7058 58.2429 95.2143C58.3043 95.1528 58.3043 95.0914 58.3658 95.0299L58.3043 95.1528C58.12 95.7058 57.7514 96.7502 57.5671 97.3032C57.3828 97.8561 56.707 100.006 56.5226 100.559C55.9697 100.436 53.8194 100.129 53.205 100.006L54.2494 98.9005C55.6011 104.614 57.9357 110.021 62.3592 114.076C66.9671 118.253 69.2403 124.336 70.5305 130.357L68.6874 130.418C69.2403 126.916 69.9161 123.169 69.6089 119.605L69.4246 115.98L69.7318 116.472C68.6259 115.796 67.52 115.182 66.4756 114.444Z" fill="black"/>
<path d="M144.625 91.2823L139.956 92.2653C139.833 98.4706 139.587 102.956 139.587 102.956H132.522C132.522 102.956 131.539 99.3921 132.583 89.4392C132.952 86.2444 134.856 82.4967 134.488 79.8549C133.812 75.0013 132.214 71.1307 130.678 68.796C127.791 66.2157 122.569 69.9019 122.323 70.0862L122.876 68.796C121.34 69.7791 120.234 70.7621 120.234 70.7621C120.234 70.7621 119.558 69.349 118.268 67.5059C118.329 68.1202 118.391 68.7346 118.329 69.2261C118.329 69.2261 117.408 67.6287 115.872 65.847C116.486 67.813 116.302 69.4719 116.302 69.4719C110.957 61.7307 106.349 62.8366 104.014 64.2496C97.3791 71.7451 97.0105 91.2823 97.0105 91.2823L90.3752 90.6065C90.3752 90.6065 90.3138 88.3947 90.4981 84.9542C89.085 94.4771 88.8393 102.956 88.8393 102.956L76.4288 102.034L75.8759 99.4536C75.8759 99.4536 73.9713 90.2379 65.0014 91.3438C61.6223 91.7738 59.1648 95.583 58.9804 100.129L57.4445 100.007C57.4445 100.007 57.4445 94.9686 57.4445 94.6614C57.4445 94.3542 55.7857 99.515 55.7857 99.515L50.8092 99.0849L47.7373 98.2248C47.7373 98.2248 50.8706 60.8706 62.6053 51.4091C69.2406 46.064 73.9713 45.5725 73.9713 45.5725C76.1216 43.3608 80.6066 39.4287 86.1974 38.9987C94.1229 38.3843 132.03 47.9072 136.761 57.7372C136.945 58.1059 137.129 58.5359 137.252 58.966C138.911 62.7751 143.15 74.6941 144.625 91.2823Z" fill="black"/>
<path d="M124.043 107.133C124.043 107.133 124.781 111.311 129.634 113.4C130.863 113.891 132.153 113.093 132.153 111.741C132.092 111.741 124.351 107.625 124.043 107.133Z" fill="black"/>
<path d="M86.0747 107.134C86.0747 107.134 88.3479 112.294 95.1675 113.523C101.987 114.813 108.192 109.898 111.08 101.666C111.08 101.666 108.745 109.284 99.4067 110.697C90.191 112.233 86.0747 107.134 86.0747 107.134Z" fill="black"/>
<path d="M112.432 95.6446C112.247 104.43 105.182 111.496 96.6422 111.496C88.1023 111.496 81.2827 104.43 81.2827 95.6446C81.3442 86.7975 88.4095 79.5479 97.0723 79.5479C105.735 79.5479 112.677 86.7975 112.432 95.6446Z" stroke="black" stroke-width="3" stroke-miterlimit="10" stroke-linecap="round" stroke-linejoin="round"/>
<path d="M120.849 93.6171C121.832 85.6916 126.992 79.4863 133.075 79.4863C139.649 79.4863 144.687 86.736 144.318 95.5831C143.949 104.369 138.42 111.434 131.969 111.434C129.573 111.434 127.422 110.512 125.641 108.854" stroke="black" stroke-width="3" stroke-miterlimit="10" stroke-linecap="round" stroke-linejoin="round"/>
<path d="M81.4669 93.9243H72.7427" stroke="black" stroke-width="3" stroke-miterlimit="10" stroke-linecap="round" stroke-linejoin="round"/>
<path d="M112.493 93.9243C112.493 93.9243 119.804 91.0981 120.726 93.9243" stroke="black" stroke-width="3" stroke-miterlimit="10" stroke-linecap="round" stroke-linejoin="round"/>
</g>
<path d="M4.224 21.208C6.304 21.208 7.984 19.96 7.984 17.864C7.984 16.264 6.88 15.208 5.488 14.888V14.824C6.736 14.36 7.584 13.416 7.584 11.992C7.584 10.104 6.144 9.048 4.176 9.048C2.816 9.048 1.776 9.64 0.896 10.456L1.68 11.384C2.336 10.728 3.168 10.248 4.112 10.216C5.328 10.248 6.096 10.968 6.096 12.104C6.096 13.368 5.264 14.344 2.848 14.344V15.464C5.552 15.464 6.496 16.408 6.496 17.816C6.496 19.16 5.504 19.992 4.112 19.992C2.784 19.992 1.888 19.368 1.2 18.648L0.464 19.608C1.232 20.44 2.384 21.208 4.224 21.208ZM9.419 21H16.795V19.736H13.547C12.955 19.736 12.235 19.8 11.627 19.848C14.379 17.24 16.219 14.856 16.219 12.52C16.219 10.424 14.907 9.048 12.811 9.048C11.323 9.048 10.315 9.736 9.355 10.776L10.203 11.608C10.843 10.84 11.675 10.248 12.635 10.248C14.091 10.248 14.795 11.224 14.795 12.568C14.795 14.584 13.099 16.92 9.419 20.136V21ZM19.126 9.384V10.44H24.518C24.246 13.848 22.326 16.6 18.47 18.44L19.174 19.512C23.942 17.176 25.846 13.528 25.846 9.384H19.126ZM28.742 7.832V22.184H30.054V7.832H28.742Z" fill="#8B6517"/>
</svg>
