<svg width="188" height="234" viewBox="0 0 188 234" fill="none" xmlns="http://www.w3.org/2000/svg">
<path d="M68.6823 212.5V214.6H74.5023C74.1023 217.12 71.8423 219.2 67.8223 220.28L68.8823 222.4C74.3223 220.88 77.4023 217.46 77.4023 212.5H68.6823ZM76.4823 227.68C74.2423 227.68 72.9023 227.1 72.9023 225.96C72.9023 224.82 74.2423 224.24 76.4823 224.24C78.7223 224.24 80.0623 224.82 80.0623 225.96C80.0623 227.1 78.7223 227.68 76.4823 227.68ZM76.4823 222.18C72.7623 222.18 70.3023 223.66 70.3023 225.96C70.3023 228.28 72.7623 229.74 76.4823 229.74C80.2023 229.74 82.6623 228.28 82.6623 225.96C82.6623 223.66 80.2023 222.18 76.4823 222.18ZM82.4623 215.6V211.28H79.8223V221.94H82.4623V217.78H84.9023V215.6H82.4623ZM102.221 217.84C98.0408 217.26 95.9208 214.86 95.9208 212.72V211.84H93.1008V212.72C93.1008 214.88 91.0008 217.26 86.8008 217.84L87.8008 219.96C91.0208 219.48 93.3408 217.98 94.5208 216C95.7008 217.98 98.0008 219.48 101.221 219.96L102.221 217.84ZM102.821 221.32H86.1808V223.46H93.1208V229.74H95.7608V223.46H102.821V221.32ZM119.659 211.3H116.999V224.62H119.659V211.3ZM115.839 220.32C112.859 219.34 111.519 217.08 111.519 214.92V214.7H115.159V212.62H105.139V214.7H108.839V214.92C108.839 217.22 107.499 219.64 104.439 220.6L105.779 222.66C107.919 221.96 109.399 220.54 110.219 218.74C111.059 220.38 112.459 221.7 114.499 222.34L115.839 220.32ZM110.039 227.3V223.42H107.399V229.4H120.119V227.3H110.039Z" fill="#111111"/>
<path d="M0 104C0 52.0852 42.0852 10 94 10C145.915 10 188 52.0852 188 104V178C188 189.046 179.046 198 168 198H20C8.9543 198 0 189.046 0 178V104Z" fill="#EBB23D"/>
<mask id="mask0_322_1617" style="mask-type:alpha" maskUnits="userSpaceOnUse" x="0" y="10" width="188" height="188">
<path d="M0 10H188V178C188 189.046 179.046 198 168 198H20C8.9543 198 0 189.046 0 178V10Z" fill="#D9D9D9"/>
</mask>
<g mask="url(#mask0_322_1617)">
<path d="M145.055 181.043C144.625 181.35 144.133 181.657 143.703 181.965C143.212 182.272 142.782 182.579 142.29 182.825C141.86 183.071 141.491 183.316 141.061 183.562C141 183.623 140.938 183.623 140.877 183.685C139.464 184.545 137.989 185.344 136.515 186.081C136.085 186.327 135.593 186.572 135.163 186.757C135.163 186.757 135.102 186.818 135.04 186.818C134.549 187.064 134.057 187.31 133.566 187.555C132.583 188.047 131.538 188.477 130.555 188.907C130.064 189.153 129.511 189.337 129.02 189.522C128.528 189.706 127.975 189.952 127.484 190.136C126.992 190.32 126.439 190.566 125.948 190.75C125.948 190.75 125.948 190.75 125.886 190.75C125.395 190.935 124.842 191.119 124.35 191.303C123.244 191.672 122.077 192.04 120.971 192.409C120.603 192.532 120.172 192.655 119.804 192.778C118.637 193.146 117.469 193.454 116.302 193.699C115.872 193.822 115.442 193.884 114.95 194.006C113.844 194.252 112.677 194.498 111.571 194.744C111.325 194.805 111.141 194.805 110.895 194.867C110.527 194.928 110.097 194.989 109.728 195.051C109.175 195.112 108.684 195.235 108.131 195.297C107.885 195.358 107.639 195.358 107.393 195.42C107.086 195.481 106.718 195.542 106.349 195.542C105.366 195.665 104.322 195.788 103.338 195.911C103.031 195.972 102.663 195.972 102.355 196.034H102.294C101.864 196.095 101.434 196.095 101.004 196.157C100.574 196.218 100.144 196.218 99.7137 196.218C99.4679 196.218 99.1607 196.28 98.915 196.28C98.4235 196.28 97.9934 196.341 97.5633 196.341C96.949 196.341 96.396 196.403 95.7816 196.403C95.1673 196.403 94.6143 196.403 93.9999 196.403C93.5699 196.403 93.1398 196.403 92.7097 196.403C66.7829 196.034 43.498 185.037 26.8483 167.588C26.8483 167.588 26.8483 167.527 26.7869 167.527C24.9437 165.868 26.5411 157.021 33.9751 151.43C43.3137 144.365 65.6771 139.941 65.6771 139.941C65.6771 139.941 74.3398 138.528 106.472 145.225C125.272 149.157 139.587 154.871 147.574 170.353C149.233 173.548 150.891 178.463 145.055 181.043Z" fill="white"/>
<path d="M106.656 144.549C118.452 146.945 131.047 149.525 140.754 157.328C144.011 159.97 146.161 163.84 147.943 167.588C148.803 169.431 149.663 171.336 150.339 173.363C150.707 174.715 151.26 176.251 150.953 177.848C150.892 178.278 150.523 178.831 150.216 179.139C148.803 180.552 147.267 181.412 145.731 182.518C136.699 188.784 126.316 193.208 115.565 195.542C91.6041 200.765 65.6773 196.71 44.6041 184.115C37.6001 179.876 31.1492 174.715 25.6198 168.633C25.0054 167.895 25.0054 166.667 25.0054 165.868C25.0668 164.025 25.5583 162.243 26.1727 160.584C27.6472 156.775 29.5518 152.966 32.808 150.324C35.1426 148.727 37.6616 147.375 40.242 146.269C48.3518 142.829 56.8916 140.433 65.6773 139.45C66.4145 139.388 66.5374 140.433 65.8001 140.556C57.3831 142.276 49.0276 144.856 41.225 148.358C38.3988 149.771 35.3884 151 33.1152 153.212C30.9648 155.546 29.4289 158.434 28.2001 161.383C27.4015 163.165 26.8485 165.991 27.0943 167.404C30.9648 172.012 35.5113 176.067 40.4263 179.569C67.3361 198.369 108.192 199.597 136.822 183.931C139.403 182.518 141.922 180.92 144.318 179.261C145.485 178.463 146.714 177.787 147.635 176.865C147.697 176.804 147.635 176.865 147.635 176.927C147.635 176.988 147.574 177.05 147.574 177.05C147.635 176.312 147.39 175.329 147.082 174.346C145.977 170.783 144.195 167.035 142.29 163.779C139.28 158.925 134.181 155.854 129.02 153.396C125.456 151.737 121.709 150.447 117.899 149.218C114.09 147.99 110.22 146.945 106.349 146.023C105.366 145.778 105.673 144.365 106.656 144.549Z" fill="black"/>
<path d="M130.249 151.43C130.249 151.43 122.877 147.252 111.019 144.242C111.019 144.242 102.541 140.74 90.2531 139.02C74.1564 136.747 67.5211 138.282 67.5211 138.282C67.5211 138.282 53.329 139.88 42.7002 145.594C42.7002 145.594 45.5263 169.431 67.1525 178.77C88.7172 188.109 118.76 183.501 125.887 177.48C132.952 171.459 131.969 153.458 130.249 151.43Z" fill="black" stroke="black" stroke-width="5.1257" stroke-miterlimit="10" stroke-linecap="round" stroke-linejoin="round"/>
<path d="M37.7231 148.727C37.7231 148.727 33.6068 150.386 29.0604 155.055C23.961 160.277 19.8447 173.548 16.4042 183.501C9.89174 202.239 14.2538 226.692 14.2538 226.692H158.019C158.019 226.692 159.309 195.542 151.199 176.681C150.155 174.285 148.434 168.203 146.345 164.824C142.966 159.294 139.157 156.038 136.147 154.625C136.147 154.625 137.498 179.139 110.343 180.49C83.1872 181.842 50.3793 173.241 49.5806 168.203C48.7819 163.042 37.7231 148.727 37.7231 148.727Z" fill="white"/>
<path d="M37.3547 150.201C37.6005 150.324 38.1534 150.263 38.3377 150.14H38.2763L38.1534 150.201C35.0201 151.307 32.1939 153.212 29.7364 155.485C27.2174 157.881 25.4972 161.076 24.0227 164.209C22.4867 167.404 21.258 170.783 20.0906 174.162C18.9233 177.541 17.756 180.92 16.6501 184.299C12.5338 197.877 13.0867 212.622 15.9129 226.384L14.3769 225.094H158.142L156.544 226.63C157.834 210.841 157.159 193.576 151.752 178.586C149.786 174.162 148.619 169.308 146.038 165.192C143.458 161.383 140.017 157.635 135.594 156.099L137.806 154.563C137.99 166.298 131.416 177.05 119.927 180.49C114.705 182.21 109.114 182.272 103.708 182.272C98.3625 182.272 93.0174 181.903 87.6723 181.289C80.7913 180.613 48.6593 175.759 47.9835 168.08C46.509 163.718 43.6828 159.908 41.1639 156.099C39.7508 154.072 38.2148 151.922 36.6789 149.956L36.6174 149.833L36.556 149.771C36.4946 149.71 36.6789 149.956 36.8018 150.017C36.9861 150.078 37.1704 150.201 37.3547 150.201ZM38.1534 147.191C38.7063 147.314 39.0135 147.805 39.3207 148.174C42.454 152.352 45.4645 156.529 48.1063 161.014C49.3351 163.165 50.6867 165.438 51.1782 167.895C56.5848 173.425 79.8083 177.234 88.041 178.094C93.2632 178.647 98.4854 179.016 103.708 179.016C108.868 179.016 114.091 178.954 118.944 177.418C129.082 174.408 134.734 165.008 134.611 154.686L135.102 153.642C135.41 153.027 136.208 152.782 136.823 153.15C139.956 155.116 142.168 157.635 144.195 160.339C146.161 163.042 147.759 165.991 148.865 169.124C149.97 172.196 150.892 175.329 152.182 178.34C153.349 181.412 154.271 184.545 155.008 187.74C156.544 194.129 157.466 200.58 158.203 207.093C158.879 213.605 159.309 220.118 159.555 226.753C159.555 227.613 158.817 228.289 158.019 228.289H14.254C13.4554 228.289 12.841 227.736 12.7181 226.999C11.4279 212.684 11.3665 197.939 15.8514 184.176C18.8619 175.759 21.4423 167.097 25.4972 159.11C27.9547 154.318 32.1939 150.386 36.8018 147.559L36.9861 147.437L37.0475 147.375C37.2933 147.129 37.8462 147.068 38.1534 147.191Z" fill="black"/>
<path d="M142.291 227.736C103.708 245.553 40.1807 229.457 40.1807 229.457C40.1807 229.457 38.8905 213.79 43.5598 185.59C43.7441 184.3 43.9284 183.01 44.0513 181.842C45.4029 169.063 40.7337 155.301 37.416 149.772C37.416 148.359 38.8905 147.376 40.5493 145.962C41.2252 145.41 42.1467 145.348 42.6382 145.717C43.4984 146.945 44.2971 148.174 44.9729 149.464C51.8539 162.182 66.9062 173.917 81.2827 175.33C100.881 177.296 109.053 176.989 118.821 174.838C128.221 172.749 132.891 161.199 130.249 151.983C130.187 151.861 130.187 151.676 130.126 151.492C131.785 151.369 135.655 154.564 136.945 159.295C138.297 165.131 138.911 177.726 139.71 184.3C142.413 205.803 142.291 227.736 142.291 227.736Z" fill="black" stroke="black" stroke-width="5.1257" stroke-miterlimit="10" stroke-linecap="round" stroke-linejoin="round"/>
<path d="M53.6355 144.795C60.3322 155.178 68.0119 164.885 77.2891 173.056C80.1152 175.575 83.1871 177.91 86.3204 179.937C86.9348 180.306 87.1191 180.552 87.6721 180.675C88.4708 180.859 89.3923 180.675 90.0681 180.06L91.6041 178.401C94.3074 175.575 97.1335 172.749 99.6525 169.8C100.697 168.633 101.68 167.404 102.11 165.807C102.356 165.377 102.909 165.315 103.339 165.561C106.595 168.448 109.974 171.213 113.292 174.039L115.749 176.128L116.978 177.173L117.101 177.296L117.162 177.357C117.777 177.91 118.883 177.787 119.374 177.111C119.743 176.558 119.927 175.268 120.111 174.531C121.647 166.175 120.603 157.513 118.33 149.403C118.268 149.28 118.391 149.157 118.452 149.157C118.575 149.157 118.698 149.157 118.698 149.28C120.296 153.273 121.524 157.513 122.2 161.813C122.876 166.114 122.937 170.537 122.323 174.961C122.077 176.251 122.139 177.296 121.34 178.524C120.418 179.814 118.76 180.49 117.285 180.122C116.056 179.937 115.012 178.77 114.152 177.971C110.22 174.347 106.288 170.599 102.356 166.974L103.707 166.851C100.943 168.633 99.7139 171.643 97.9322 174.224C96.3962 176.681 94.8603 179.323 93.3243 181.781C91.4812 184.975 86.9962 185.651 84.1701 183.378C81.8969 181.842 79.5008 180.122 77.4119 178.34C71.6982 173.425 66.5989 167.711 62.2982 161.567C58.6734 156.345 55.4786 150.939 53.0211 145.102C52.9596 144.918 53.0211 144.672 53.2054 144.611C53.3283 144.549 53.574 144.672 53.6355 144.795Z" fill="white"/>
<path d="M104.936 219.258C105.735 210.534 105.366 201.625 104.813 192.901C104.199 184.115 103.461 175.268 101.987 166.544C101.803 165.377 103.584 165.008 103.83 166.237C105.366 183.747 107.701 201.871 106.779 219.442C106.718 220.609 104.875 220.487 104.936 219.258Z" fill="white"/>
<path d="M112.555 186.573C113.776 186.573 114.766 185.582 114.766 184.361C114.766 183.139 113.776 182.149 112.555 182.149C111.333 182.149 110.343 183.139 110.343 184.361C110.343 185.582 111.333 186.573 112.555 186.573Z" fill="white"/>
<path d="M113.537 197.632C114.759 197.632 115.749 196.641 115.749 195.42C115.749 194.198 114.759 193.208 113.537 193.208C112.316 193.208 111.326 194.198 111.326 195.42C111.326 196.641 112.316 197.632 113.537 197.632Z" fill="white"/>
<path d="M112.431 160.892C111.141 167.22 102.785 171.029 88.7162 165.315C74.0939 159.417 67.7658 145.348 66.1685 141.17C74.8312 124.95 68.8103 113.707 68.8103 113.707C88.7776 111.987 106.226 135.333 106.226 135.333L108.929 146.884C109.175 147.867 109.666 148.727 110.404 149.341C111.694 151.614 113.23 156.837 112.431 160.892Z" fill="white"/>
<path d="M65.8617 141.354C67.029 139.573 67.7663 137.484 68.2578 135.456C69.1793 131.217 69.4865 126.916 69.548 122.616V121.018C69.3637 119.421 68.8107 117.762 68.1963 116.288C67.3976 114.322 70.2852 113.093 71.2068 115.059C71.3297 115.305 71.3297 115.735 71.3297 115.98C71.514 124.336 71.8826 135.088 66.599 142.03C66.2303 142.399 65.4931 141.846 65.8617 141.354Z" fill="black"/>
<path d="M106.902 135.211C107.823 135.764 108.131 136.501 108.254 137.238C108.622 138.713 108.499 140.31 108.868 141.846C109.175 143.32 110.097 144.733 110.342 146.269C110.65 147.867 111.571 151.246 111.94 152.905C112.063 153.273 111.817 153.703 111.387 153.765C111.141 153.826 110.957 153.765 110.773 153.642C109.974 152.966 109.605 152.29 109.114 151.43C108.315 149.956 107.762 148.604 107.271 146.945C106.84 145.471 107.025 143.873 106.656 142.337C106.349 140.863 105.489 139.45 105.182 137.914C104.997 137.177 104.936 136.378 105.489 135.456C105.857 135.088 106.472 134.965 106.902 135.211Z" fill="black"/>
<path d="M111.326 151.43C99.5913 150.816 90.007 147.129 80.6685 130.48C88.5325 137.422 97.8096 140.064 107.578 141.293L108.868 146.945C109.114 147.928 110.589 150.816 111.326 151.43Z" fill="black"/>
<path d="M110.835 149.157C112.923 153.089 114.152 158.004 112.862 162.366C111.879 165.438 109.053 167.711 105.981 168.571C98.8541 170.476 90.6215 167.465 84.2934 164.086C76.4907 159.724 70.7156 152.413 67.0293 144.426C66.7836 143.812 67.6437 143.32 68.0123 143.935C69.3025 146.515 70.777 149.034 72.4358 151.307C74.0947 153.642 75.9992 155.792 78.1496 157.697C84.4162 163.349 92.8947 166.851 101.373 166.851C110.097 166.605 113.415 161.997 111.387 153.519C111.08 152.167 110.589 150.754 109.913 149.587C109.544 149.095 110.466 148.543 110.835 149.157Z" fill="black"/>
<path d="M134.611 75.37C135.716 80.5308 136.269 84.7086 133.259 98.4707C130.31 112.171 137.498 114.997 120.48 136.931C113.537 145.901 96.7034 143.382 83.0641 134.105C78.4563 130.971 76.4903 122.923 73.0498 117.209C70.3465 112.724 69.1177 117.394 65.5543 113.523C60.7007 108.239 54.8641 97.6105 57.7517 78.8105C62.421 48.3373 86.5661 44.7739 104.445 48.153C122.446 51.5935 131.662 61.7922 134.611 75.37Z" fill="white"/>
<path d="M68.6262 118.991C67.2131 116.595 65.37 114.506 63.6497 112.294C61.9909 110.021 60.6392 107.502 59.5334 104.922C52.2222 86.9818 55.0484 61.7308 72.9883 51.1635C80.4222 46.8628 89.3922 45.8184 97.7477 46.4942C115.626 47.7844 132.03 56.0171 135.901 74.94C137.99 83.2955 135.163 91.8968 133.566 100.068C132.829 104.123 133.443 108.301 133.382 112.479C133.32 116.718 132.153 120.957 130.556 124.889C129.573 127.592 127.852 129.988 126.071 132.2C123.122 135.763 120.173 139.388 116.425 142.153C115.565 142.767 114.029 143.075 112.984 143.197C110.097 143.628 107.271 143.75 104.383 143.566C93.0785 143.075 80.9752 137.607 76.4288 126.671C76.2445 126.241 76.8588 125.933 77.1046 126.302C83.0026 135.641 93.8157 140.248 104.567 140.863C107.885 141.047 111.264 140.986 114.52 140.31C116.118 139.511 117.531 138.098 118.882 136.808C122.2 133.49 125.579 129.927 127.975 125.872C130.863 120.404 132.46 114.445 131.969 108.239C131.846 105.475 131.784 102.587 132.337 99.8223C132.829 97.0576 133.443 94.4158 133.812 91.5896C134.18 88.8864 134.365 86.1217 134.365 83.4184C134.058 75.4929 131.477 67.3217 126.439 61.1779C115.319 47.3543 89.0236 43.7295 74.217 53.1909C64.8785 58.9661 60.5164 69.7792 59.1033 80.2851C56.953 92.8798 57.5673 105.29 67.5817 114.445L70.5307 117.516C71.6981 118.868 69.6092 120.465 68.6262 118.991Z" fill="black"/>
<path d="M75.8756 99.4536C75.8756 99.4536 73.971 90.238 65.0011 91.3438C57.2599 92.3268 54.5566 110.881 72.1279 116.042" fill="white"/>
<path d="M71.3293 107.994C69.9162 107.195 68.9332 105.843 68.8718 104.184C68.9332 102.956 69.1176 101.543 68.8104 100.314C68.6261 99.1466 67.3973 98.8394 66.4757 98.9008C65.4927 99.0851 64.8783 100.314 64.694 101.297C64.694 101.358 64.6326 101.543 64.6326 101.604C64.5711 101.911 64.0796 101.911 63.9568 101.604C63.1581 99.208 64.9398 96.5662 67.5202 96.8733C71.145 97.1191 71.6365 100.928 70.9607 103.816C70.5921 105.045 71.0836 106.15 71.7594 107.195L71.8823 107.379C72.1894 107.748 71.6979 108.239 71.3293 107.994Z" fill="black"/>
<path d="M120.48 92.9413C121.401 97.3034 123.121 101.358 125.272 105.167C127.176 109.837 122.261 114.26 117.899 114.076C117.408 114.076 117.346 113.4 117.776 113.277C120.541 112.417 123.06 110.574 123.49 107.748C123.674 106.888 123.429 106.15 122.999 105.413C120.971 101.604 119.742 97.242 120.05 92.9413C120.05 92.6341 120.48 92.6341 120.48 92.9413Z" fill="black"/>
<path d="M75.5686 99.5151C74.1555 95.8902 71.0836 92.4497 66.9673 92.5112C66.5987 92.4497 65.9843 92.5726 65.6157 92.5726C64.5712 92.634 63.7111 93.0027 62.9124 93.7399C58.9804 97.6719 59.6562 104.614 62.8509 108.977C63.9568 110.512 65.3699 111.864 66.9673 112.97C68.5647 114.076 70.3464 114.936 72.2509 115.673C72.681 115.796 72.4967 116.472 72.0666 116.41C67.9503 115.55 64.0183 113.523 61.315 110.144C57.1372 105.106 56.2771 96.6889 61.2536 91.7739C62.3594 90.7909 63.8954 90.0536 65.4313 90.0536C65.9228 90.0536 66.6601 89.9308 67.1516 90.0536C69.732 90.1765 72.1895 91.4667 73.7869 93.4942C75.2 95.2144 75.9987 97.3033 76.2444 99.3922C76.2444 99.7608 75.6915 99.8837 75.5686 99.5151Z" fill="black"/>
<path d="M114.397 119.974C114.459 120.957 113.721 122.677 112.37 123.906C105.427 119.667 102.294 121.878 102.294 121.878C99.8363 118.131 100.389 113.031 106.349 116.902C110.465 119.605 113.045 120.035 114.397 119.974Z" fill="black"/>
<path d="M112.308 123.967C110.834 125.258 108.622 126.056 105.612 124.828C104.198 124.275 103.093 123.169 102.232 121.94C102.294 121.94 105.366 119.728 112.308 123.967Z" fill="white"/>
<path d="M115.564 119.79C115.564 119.79 112.984 121.203 106.349 116.964C98.4231 111.864 100.021 122.554 105.611 124.828C111.448 127.224 114.458 122.001 114.397 120.035" stroke="black" stroke-width="3" stroke-miterlimit="10" stroke-linecap="round" stroke-linejoin="round"/>
<path d="M102.294 121.94C102.294 121.94 105.427 119.728 112.37 123.967" stroke="black" stroke-width="3" stroke-miterlimit="10" stroke-linecap="round" stroke-linejoin="round"/>
<path d="M106.594 86.4288C107.946 86.6131 108.99 85.2 108.499 83.8484C108.253 83.1111 107.823 82.4353 107.147 82.0052C105.058 80.715 97.2558 80.5922 93.1394 83.5412C89.4532 86.2445 100.451 85.5686 106.594 86.4288Z" fill="black"/>
<path d="M123.613 87.1047C122.507 87.1047 121.831 85.6916 122.384 84.5243C122.691 83.9099 123.121 83.357 123.736 83.0498C125.64 82.1282 130.739 82.6812 133.013 85.8145C135.04 88.5792 128.712 87.0433 123.613 87.1047Z" fill="black"/>
<path d="M104.321 94.3543C101.188 93.0026 97.6244 93.3713 94.3682 94.1085C93.9996 94.2314 93.7538 93.7399 94.061 93.4941C96.8872 91.1595 102.232 90.8523 104.505 94.0471C104.69 94.1699 104.567 94.4157 104.321 94.3543Z" fill="black"/>
<path d="M128.466 95.6444C126.992 94.6 124.842 94.7843 123.121 94.9686C122.507 95.0301 121.893 95.1529 121.217 95.3372C121.032 95.3987 120.848 95.0915 120.971 94.9686L121.094 94.8458C122.63 93.2484 125.026 92.8797 127.115 93.6784C127.852 93.9856 128.589 94.4157 128.958 95.2758C129.142 95.583 128.712 95.8902 128.466 95.6444Z" fill="black"/>
<path d="M134.611 75.3699C134.303 74.0182 133.935 72.728 133.505 71.4378C130.248 68.8574 126.808 67.1986 121.586 66.4614C107.516 64.5568 96.3962 65.847 84.5387 68.4274C77.1047 70.0248 78.6407 95.7058 75.7531 99.0849C75.2616 97.3646 72.8655 90.3607 65.0014 91.3437C57.5675 92.2653 54.7413 109.468 70.1008 115.366C69.9779 118.745 71.3295 122.493 70.4694 126.425C70.4694 126.425 70.0393 121.94 65.1243 116.042C60.2093 110.144 44.2354 94.8457 50.8707 72.4823C57.506 50.1189 87.5491 38.4457 115.503 49.8117C120.296 51.7777 124.228 54.5424 127.361 57.43C134.733 64.1881 138.543 66.3999 137.437 76.2914C137.068 79.6091 135.594 79.7319 134.611 75.3699Z" fill="black"/>
<path d="M124.842 64.8026C124.842 64.8026 106.718 92.5726 72.9271 83.9713C72.9271 83.9713 66.3533 67.4445 80.6683 61.1163C94.9833 54.7882 121.34 59.2732 124.842 64.8026Z" fill="black"/>
<path d="M122.938 65.1712C122.938 65.1712 125.273 71.6222 129.881 76.8444C132.891 80.2235 136.823 83.0496 141.738 83.1725C141.738 83.1725 143.274 66.4614 132.338 59.949C121.402 53.4365 122.938 65.1712 122.938 65.1712Z" fill="black"/>
<path d="M78.0266 54.5424C78.0266 54.5424 58.2436 23.762 40.8567 46.064C23.4697 68.3659 42.454 126.609 31.8867 144.119C31.8867 144.119 43.99 135.333 47.1848 118.131C47.1848 118.131 47.5534 125.257 45.4031 135.21C45.4031 135.21 58.2436 120.404 58.2436 102.648C58.2436 84.8927 71.0841 59.0888 78.0266 54.5424Z" fill="black"/>
<path d="M135.533 89.1935C137.744 98.5935 135.533 114.875 135.533 114.875C135.533 114.875 162.565 71.9294 140.693 55.6484C122.262 41.8863 82.5117 55.8941 82.5117 55.8941C82.5117 55.8941 119.805 46.9242 127.116 64.0654C133.751 79.5477 130.31 66.4615 132.399 75.6771C132.584 76.5987 135.225 87.9033 135.533 89.1935Z" fill="black"/>
</g>
<path d="M0.704 21H8.08V19.736H4.832C4.24 19.736 3.52 19.8 2.912 19.848C5.664 17.24 7.504 14.856 7.504 12.52C7.504 10.424 6.192 9.048 4.096 9.048C2.608 9.048 1.6 9.736 0.64 10.776L1.488 11.608C2.128 10.84 2.96 10.248 3.92 10.248C5.376 10.248 6.08 11.224 6.08 12.568C6.08 14.584 4.384 16.92 0.704 20.136V21ZM9.419 21H16.795V19.736H13.547C12.955 19.736 12.235 19.8 11.627 19.848C14.379 17.24 16.219 14.856 16.219 12.52C16.219 10.424 14.907 9.048 12.811 9.048C11.323 9.048 10.315 9.736 9.355 10.776L10.203 11.608C10.843 10.84 11.675 10.248 12.635 10.248C14.091 10.248 14.795 11.224 14.795 12.568C14.795 14.584 13.099 16.92 9.419 20.136V21ZM19.126 9.384V10.44H24.518C24.246 13.848 22.326 16.6 18.47 18.44L19.174 19.512C23.942 17.176 25.846 13.528 25.846 9.384H19.126ZM28.742 7.832V22.184H30.054V7.832H28.742Z" fill="#8B6517"/>
</svg>
