<svg width="188" height="234" viewBox="0 0 188 234" fill="none" xmlns="http://www.w3.org/2000/svg">
<path d="M80.5823 211.28V229.76H83.2223V211.28H80.5823ZM73.3223 212.58C70.5423 212.58 68.4823 215.1 68.4823 219.14C68.4823 223.2 70.5423 225.74 73.3223 225.74C76.1023 225.74 78.1623 223.2 78.1623 219.14C78.1623 215.1 76.1023 212.58 73.3223 212.58ZM73.3223 214.96C74.6823 214.96 75.6223 216.42 75.6223 219.14C75.6223 221.88 74.6823 223.34 73.3223 223.34C71.9623 223.34 71.0223 221.88 71.0223 219.14C71.0223 216.42 71.9623 214.96 73.3223 214.96ZM93.0808 212.72H90.4208V215.38C90.4208 218.88 89.0208 222.46 85.9008 223.9L87.5408 226.02C89.6008 224.98 90.9808 223.06 91.7808 220.7C92.5408 222.92 93.8808 224.72 95.9008 225.7L97.4608 223.6C94.4208 222.24 93.0808 218.86 93.0808 215.38V212.72ZM98.9808 211.28V217.06H95.4408V219.18H98.9808V229.76H101.621V211.28H98.9808ZM117.119 225.34H119.759V211.3H117.119V215.88H114.719V217.98H117.119V219.82H114.719V221.92H117.119V225.34ZM114.519 213.24H110.919V211.24H108.279V213.24H104.419V215.3H114.519V213.24ZM107.759 219.56C107.759 218.56 108.519 217.98 109.599 217.98C110.659 217.98 111.419 218.56 111.419 219.56C111.419 220.6 110.659 221.16 109.599 221.16C108.519 221.16 107.759 220.6 107.759 219.56ZM113.899 219.56C113.899 217.44 112.099 215.96 109.599 215.96C107.079 215.96 105.279 217.44 105.279 219.56C105.279 221.7 107.079 223.2 109.599 223.2C112.099 223.2 113.899 221.7 113.899 219.56ZM110.239 227.3V224.2H107.599V229.4H120.159V227.3H110.239Z" fill="#111111"/>
<path d="M0 104C0 52.0852 42.0852 10 94 10C145.915 10 188 52.0852 188 104V178C188 189.046 179.046 198 168 198H20C8.9543 198 0 189.046 0 178V104Z" fill="#EBB23D"/>
<mask id="mask0_322_1643" style="mask-type:alpha" maskUnits="userSpaceOnUse" x="0" y="10" width="188" height="188">
<path d="M0 10H188V178C188 189.046 179.046 198 168 198H20C8.9543 198 0 189.046 0 178V10Z" fill="#D9D9D9"/>
</mask>
<g mask="url(#mask0_322_1643)">
<path d="M145.055 181.043C144.625 181.35 144.133 181.657 143.703 181.965C143.212 182.272 142.782 182.579 142.29 182.825C141.86 183.071 141.491 183.316 141.061 183.562C141 183.623 140.938 183.623 140.877 183.685C139.464 184.545 137.989 185.344 136.515 186.081C136.085 186.327 135.593 186.572 135.163 186.757C135.163 186.757 135.102 186.818 135.04 186.818C134.549 187.064 134.057 187.31 133.566 187.555C132.583 188.047 131.538 188.477 130.555 188.907C130.064 189.153 129.511 189.337 129.02 189.522C128.528 189.706 127.975 189.952 127.484 190.136C126.992 190.32 126.439 190.566 125.948 190.75C125.948 190.75 125.948 190.75 125.886 190.75C125.395 190.935 124.842 191.119 124.35 191.303C123.244 191.672 122.077 192.04 120.971 192.409C120.603 192.532 120.172 192.655 119.804 192.778C118.637 193.146 117.469 193.454 116.302 193.699C115.872 193.822 115.442 193.884 114.95 194.006C113.844 194.252 112.677 194.498 111.571 194.744C111.325 194.805 111.141 194.805 110.895 194.867C110.527 194.928 110.097 194.989 109.728 195.051C109.175 195.112 108.684 195.235 108.131 195.297C107.885 195.358 107.639 195.358 107.393 195.42C107.086 195.481 106.718 195.542 106.349 195.542C105.366 195.665 104.322 195.788 103.338 195.911C103.031 195.972 102.663 195.972 102.355 196.034H102.294C101.864 196.095 101.434 196.095 101.004 196.157C100.574 196.218 100.144 196.218 99.7137 196.218C99.4679 196.218 99.1607 196.28 98.915 196.28C98.4235 196.28 97.9934 196.341 97.5633 196.341C96.949 196.341 96.396 196.403 95.7816 196.403C95.1673 196.403 94.6143 196.403 93.9999 196.403C93.5699 196.403 93.1398 196.403 92.7097 196.403C66.7829 196.034 43.498 185.037 26.8483 167.588C26.8483 167.588 26.8483 167.527 26.7869 167.527C24.9437 165.868 26.5411 157.021 33.9751 151.43C43.3137 144.365 65.6771 139.941 65.6771 139.941C65.6771 139.941 74.3398 138.528 106.472 145.225C125.272 149.157 139.587 154.871 147.574 170.353C149.233 173.548 150.891 178.463 145.055 181.043Z" fill="white"/>
<path d="M106.656 144.549C118.452 146.945 131.047 149.525 140.754 157.328C144.011 159.97 146.161 163.84 147.943 167.588C148.803 169.431 149.663 171.336 150.339 173.363C150.707 174.715 151.26 176.251 150.953 177.848C150.892 178.278 150.523 178.831 150.216 179.139C148.803 180.552 147.267 181.412 145.731 182.518C136.699 188.784 126.316 193.208 115.565 195.542C91.6041 200.765 65.6773 196.71 44.6041 184.115C37.6001 179.876 31.1492 174.715 25.6198 168.633C25.0054 167.895 25.0054 166.667 25.0054 165.868C25.0668 164.025 25.5583 162.243 26.1727 160.584C27.6472 156.775 29.5518 152.966 32.808 150.324C35.1426 148.727 37.6616 147.375 40.242 146.269C48.3518 142.829 56.8916 140.433 65.6773 139.45C66.4145 139.388 66.5374 140.433 65.8001 140.556C57.3831 142.276 49.0276 144.856 41.225 148.358C38.3988 149.771 35.3884 151 33.1152 153.212C30.9648 155.546 29.4289 158.434 28.2001 161.383C27.4015 163.165 26.8485 165.991 27.0943 167.404C30.9648 172.012 35.5113 176.067 40.4263 179.569C67.3361 198.369 108.192 199.597 136.822 183.931C139.403 182.518 141.922 180.92 144.318 179.261C145.485 178.463 146.714 177.787 147.635 176.865C147.697 176.804 147.635 176.865 147.635 176.927C147.635 176.988 147.574 177.05 147.574 177.05C147.635 176.312 147.39 175.329 147.082 174.346C145.977 170.783 144.195 167.035 142.29 163.779C139.28 158.925 134.181 155.854 129.02 153.396C125.456 151.737 121.709 150.447 117.899 149.218C114.09 147.99 110.22 146.945 106.349 146.023C105.366 145.778 105.673 144.365 106.656 144.549Z" fill="black"/>
<path d="M55.8474 141.846C57.9977 145.655 66.169 160.953 67.4592 174.469L75.0775 177.049C75.0775 177.049 69.3023 151.491 58.9807 139.634C58.9807 139.634 57.752 139.081 56.216 140.125C55.7245 140.555 55.4788 141.231 55.8474 141.846Z" fill="black"/>
<path d="M121.217 174.653C121.217 174.653 121.586 157.635 114.213 146.453C114.029 146.146 114.275 145.716 114.643 145.778C115.135 145.901 115.872 146.085 117.039 146.638C119.005 147.559 125.395 157.328 125.948 173.363C125.948 173.302 121.831 174.653 121.217 174.653Z" fill="black"/>
<path d="M142.229 158.68C139.034 155.301 129.388 150.263 127.729 150.386C127.791 150.508 127.791 150.693 127.852 150.877C130.433 160.154 128.344 172.749 118.944 174.838C109.175 176.988 101.004 177.295 81.4051 175.329C67.0287 173.916 53.5123 161.014 46.6313 148.235C45.9555 146.945 45.1568 145.655 44.2966 144.487C43.8051 144.119 42.8836 144.18 42.2078 144.733C40.4875 146.146 38.2143 146.023 38.2143 147.375C38.2143 147.375 25.1895 151.43 20.643 179.999C18.0627 196.157 14.4378 217.107 14.3149 224.234H154.209C153.226 214.65 154.209 171.95 142.229 158.68Z" fill="black"/>
<path d="M141.062 159.786C139.218 157.942 136.822 156.529 134.549 155.178C132.46 153.949 129.88 152.597 127.73 151.983L129.143 150.017L129.204 150.386C130.924 157.574 130.556 166.114 125.579 172.012C123.859 173.978 121.34 175.391 118.76 175.821C113.967 176.804 108.991 177.357 104.076 177.357C95.4746 177.295 86.9962 176.62 78.5178 175.452C72.4969 174.162 66.906 171.152 62.0524 167.404C55.2328 162.12 50.0106 155.178 45.157 148.112C44.4812 147.129 43.6825 146.208 42.8223 145.409L43.1295 145.778C43.2524 145.901 43.3139 145.839 43.2524 145.839C43.2524 145.839 43.1295 145.839 43.0681 145.901C43.0067 145.901 43.0067 145.901 42.9452 146.023C41.9622 146.884 40.3648 147.314 39.3818 147.867C39.4433 147.867 39.5661 147.498 39.5661 147.437L38.4603 148.911L38.2759 148.972L38.0302 149.095C29.6132 153.642 25.5583 164.455 23.3465 173.302C21.1962 183.378 19.906 193.761 18.1857 203.898C17.2027 210.656 15.974 217.599 15.6668 224.295L14.0694 222.698H154.209L152.673 224.418C151.383 207.4 152.059 172.872 141.062 159.786ZM143.396 157.635C155.254 171.459 154.516 206.171 155.807 224.111C155.868 224.971 155.254 225.77 154.394 225.831C154.332 225.954 14.3766 225.77 14.3152 225.831C13.455 225.831 12.7178 225.155 12.7178 224.295C12.8406 220.671 13.3322 217.169 13.7622 213.728C15.1753 203.406 16.8956 193.146 18.5544 182.886C19.5988 176.005 21.0119 168.94 23.7766 162.427C26.5413 155.976 30.6576 149.218 37.2929 146.085C37.4158 146.023 37.5387 145.962 37.723 145.901L36.6171 147.375C36.5557 145.225 38.8903 144.672 40.3648 144.057C41.3478 143.505 42.1465 142.706 43.3753 142.706C43.9897 142.644 45.0955 142.89 45.5871 143.627C46.4472 145.348 47.1844 147.068 47.9217 148.788C49.1505 151.553 50.7478 154.133 52.591 156.529C59.2263 164.946 68.1962 172.319 78.8864 174.469C82.4498 175.084 86.1361 175.206 89.6995 175.514C99.3452 176.189 109.052 176.312 118.452 173.978C120.664 173.486 122.569 172.319 123.982 170.599C128.16 165.315 128.16 157.574 126.316 151.307L126.194 150.816C125.886 149.894 126.624 148.85 127.607 148.85C129.388 148.911 130.74 149.771 132.337 150.447C136.269 152.413 140.14 154.502 143.396 157.635Z" fill="black"/>
<path d="M122.692 181.473C112.616 185.774 79.501 186.757 62.667 177.664C52.0383 171.95 45.1572 159.355 41.8396 154.502C39.3821 150.816 38.1533 147.375 38.1533 147.375C38.1533 146.023 40.488 146.146 42.1468 144.733C42.8226 144.18 43.7442 144.119 44.2357 144.487C45.0958 145.716 45.8945 146.945 46.5703 148.235C53.4514 160.953 64.3259 173.732 81.3442 175.329C100.943 177.172 109.114 176.988 118.883 174.838C128.283 172.749 130.372 160.154 127.791 150.877C127.73 150.754 127.73 150.57 127.668 150.386C129.327 150.263 132.522 150.57 133.689 153.519C133.751 153.519 138.481 174.776 122.692 181.473Z" fill="white"/>
<path d="M123.06 182.333C119.005 183.992 114.766 184.606 110.527 185.098C106.288 185.589 102.049 185.774 97.8094 185.774C87.1806 185.651 76.3676 184.668 66.3532 180.859C54.9257 176.742 47.5532 166.359 41.4094 156.529C39.5663 153.826 37.846 151.061 36.8016 147.928C36.4944 147.129 36.9859 146.023 37.6617 145.532C38.5833 144.795 39.6277 144.795 40.5493 144.426C41.1637 144.242 41.5323 143.873 42.0852 143.566C43.0682 143.136 44.1741 142.767 45.4029 143.32C52.4682 158.741 64.08 173.486 82.2656 174.776C94.3074 175.882 106.595 177.111 118.514 174.346C123.306 173.547 126.439 169.247 127.545 164.7C128.774 160.093 128.405 155.116 127.115 150.57C126.992 150.14 127.3 149.71 127.73 149.71C130.371 149.464 133.628 150.631 134.549 153.396C135.594 158.925 135.594 164.578 133.996 169.923C132.399 175.391 128.344 180.183 123.06 182.333ZM122.323 180.613C127.238 178.647 130.863 174.469 132.522 169.493C134.181 164.455 134.365 158.864 133.321 153.642C132.583 151.614 130.003 150.754 127.791 151.061L128.405 150.201C130.494 158.065 130.064 169.37 122.262 174.1C121.156 174.715 119.927 175.145 118.698 175.391C116.302 175.882 113.845 176.312 111.449 176.619C101.68 177.664 91.8499 176.865 82.1427 176.066C65.4931 175.206 52.6525 162.12 45.5257 147.989C45.0342 146.883 44.4813 145.839 43.9284 144.733L44.0512 144.856C43.1297 144.303 42.1467 145.593 41.2865 145.9C40.4878 146.33 39.6277 146.515 38.9519 146.945C38.829 147.068 38.7676 147.191 38.7676 147.375V147.191C40.1806 151.061 42.761 154.563 44.9728 158.004C50.5637 166.605 57.3218 175.268 67.2748 178.831C81.1597 184.361 108.07 185.712 122.323 180.613Z" fill="black"/>
<path d="M112.431 160.892C111.141 167.22 102.785 171.029 88.7162 165.315C74.0939 159.417 67.7658 145.348 66.1685 141.17C74.8312 124.95 68.8103 113.707 68.8103 113.707C88.7776 111.987 106.226 135.333 106.226 135.333L108.929 146.884C109.175 147.867 109.666 148.727 110.404 149.341C111.694 151.614 113.23 156.837 112.431 160.892Z" fill="white"/>
<path d="M65.8617 141.354C67.029 139.573 67.7663 137.484 68.2578 135.456C69.1793 131.217 69.4865 126.916 69.548 122.616V121.018C69.3637 119.421 68.8107 117.762 68.1963 116.288C67.3976 114.322 70.2852 113.093 71.2068 115.059C71.3297 115.305 71.3297 115.735 71.3297 115.98C71.514 124.336 71.8826 135.088 66.599 142.03C66.2303 142.399 65.4931 141.846 65.8617 141.354Z" fill="black"/>
<path d="M106.902 135.211C107.823 135.764 108.131 136.501 108.254 137.238C108.622 138.713 108.499 140.31 108.868 141.846C109.175 143.32 110.097 144.733 110.342 146.269C110.65 147.867 111.571 151.246 111.94 152.905C112.063 153.273 111.817 153.703 111.387 153.765C111.141 153.826 110.957 153.765 110.773 153.642C109.974 152.966 109.605 152.29 109.114 151.43C108.315 149.956 107.762 148.604 107.271 146.945C106.84 145.471 107.025 143.873 106.656 142.337C106.349 140.863 105.489 139.45 105.182 137.914C104.997 137.177 104.936 136.378 105.489 135.456C105.857 135.088 106.472 134.965 106.902 135.211Z" fill="black"/>
<path d="M111.326 151.43C99.5913 150.816 90.007 147.129 80.6685 130.48C88.5325 137.422 97.8096 140.064 107.578 141.293L108.868 146.945C109.114 147.928 110.589 150.816 111.326 151.43Z" fill="black"/>
<path d="M110.835 149.157C112.923 153.089 114.152 158.004 112.862 162.366C111.879 165.438 109.053 167.711 105.981 168.571C98.8541 170.476 90.6215 167.465 84.2934 164.086C76.4907 159.724 70.7156 152.413 67.0293 144.426C66.7836 143.812 67.6437 143.32 68.0123 143.935C69.3025 146.515 70.777 149.034 72.4358 151.307C74.0947 153.642 75.9992 155.792 78.1496 157.697C84.4162 163.349 92.8947 166.851 101.373 166.851C110.097 166.605 113.415 161.997 111.387 153.519C111.08 152.167 110.589 150.754 109.913 149.587C109.544 149.095 110.466 148.543 110.835 149.157Z" fill="black"/>
<path d="M134.611 75.37C135.716 80.5308 136.269 84.7086 133.259 98.4707C130.31 112.171 137.498 114.997 120.48 136.931C113.537 145.901 96.7034 143.382 83.0641 134.105C78.4563 130.971 76.4903 122.923 73.0498 117.209C70.3465 112.724 69.1177 117.394 65.5543 113.523C60.7007 108.239 54.8641 97.6105 57.7517 78.8105C62.421 48.3373 86.5661 44.7739 104.445 48.153C122.446 51.5935 131.662 61.7922 134.611 75.37Z" fill="white"/>
<path d="M68.6262 118.991C67.2131 116.595 65.37 114.506 63.6497 112.294C61.9909 110.021 60.6392 107.502 59.5334 104.922C52.2222 86.9818 55.0484 61.7308 72.9883 51.1635C80.4222 46.8628 89.3922 45.8184 97.7477 46.4942C115.626 47.7844 132.03 56.0171 135.901 74.94C137.99 83.2955 135.163 91.8968 133.566 100.068C132.829 104.123 133.443 108.301 133.382 112.479C133.32 116.718 132.153 120.957 130.556 124.889C129.573 127.592 127.852 129.988 126.071 132.2C123.122 135.763 120.173 139.388 116.425 142.153C115.565 142.767 114.029 143.075 112.984 143.197C110.097 143.628 107.271 143.75 104.383 143.566C93.0785 143.075 80.9752 137.607 76.4288 126.671C76.2445 126.241 76.8588 125.933 77.1046 126.302C83.0026 135.641 93.8157 140.248 104.567 140.863C107.885 141.047 111.264 140.986 114.52 140.31C116.118 139.511 117.531 138.098 118.882 136.808C122.2 133.49 125.579 129.927 127.975 125.872C130.863 120.404 132.46 114.445 131.969 108.239C131.846 105.475 131.784 102.587 132.337 99.8223C132.829 97.0576 133.443 94.4158 133.812 91.5896C134.18 88.8864 134.365 86.1217 134.365 83.4184C134.058 75.4929 131.477 67.3217 126.439 61.1779C115.319 47.3543 89.0236 43.7295 74.217 53.1909C64.8785 58.9661 60.5164 69.7792 59.1033 80.2851C56.953 92.8798 57.5673 105.29 67.5817 114.445L70.5307 117.516C71.6981 118.868 69.6092 120.465 68.6262 118.991Z" fill="black"/>
<path d="M75.8756 99.4536C75.8756 99.4536 73.971 90.238 65.0011 91.3438C57.2599 92.3268 54.5566 110.881 72.1279 116.042" fill="white"/>
<path d="M71.3293 107.994C69.9162 107.195 68.9332 105.843 68.8718 104.184C68.9332 102.956 69.1176 101.543 68.8104 100.314C68.6261 99.1466 67.3973 98.8394 66.4757 98.9008C65.4927 99.0851 64.8783 100.314 64.694 101.297C64.694 101.358 64.6326 101.543 64.6326 101.604C64.5711 101.911 64.0796 101.911 63.9568 101.604C63.1581 99.208 64.9398 96.5662 67.5202 96.8733C71.145 97.1191 71.6365 100.928 70.9607 103.816C70.5921 105.045 71.0836 106.15 71.7594 107.195L71.8823 107.379C72.1894 107.748 71.6979 108.239 71.3293 107.994Z" fill="black"/>
<path d="M120.48 92.9413C121.401 97.3034 123.121 101.358 125.272 105.167C127.176 109.837 122.261 114.26 117.899 114.076C117.408 114.076 117.346 113.4 117.776 113.277C120.541 112.417 123.06 110.574 123.49 107.748C123.674 106.888 123.429 106.15 122.999 105.413C120.971 101.604 119.742 97.242 120.05 92.9413C120.05 92.6341 120.48 92.6341 120.48 92.9413Z" fill="black"/>
<path d="M75.5686 99.5151C74.1555 95.8902 71.0836 92.4497 66.9673 92.5112C66.5987 92.4497 65.9843 92.5726 65.6157 92.5726C64.5712 92.634 63.7111 93.0027 62.9124 93.7399C58.9804 97.6719 59.6562 104.614 62.8509 108.977C63.9568 110.512 65.3699 111.864 66.9673 112.97C68.5647 114.076 70.3464 114.936 72.2509 115.673C72.681 115.796 72.4967 116.472 72.0666 116.41C67.9503 115.55 64.0183 113.523 61.315 110.144C57.1372 105.106 56.2771 96.6889 61.2536 91.7739C62.3594 90.7909 63.8954 90.0536 65.4313 90.0536C65.9228 90.0536 66.6601 89.9308 67.1516 90.0536C69.732 90.1765 72.1895 91.4667 73.7869 93.4942C75.2 95.2144 75.9987 97.3033 76.2444 99.3922C76.2444 99.7608 75.6915 99.8837 75.5686 99.5151Z" fill="black"/>
<path d="M116.363 119.912C115.319 120.65 113.783 120.035 112.677 120.527C111.878 120.773 110.588 121.878 108.745 121.756C107.27 121.633 106.533 120.895 105.304 120.342C104.014 119.912 102.662 119.114 101.802 118.069C101.618 117.885 101.618 117.639 101.802 117.455C102.048 117.209 102.294 117.393 102.54 117.516C103.092 117.824 103.523 118.069 103.953 118.192C104.383 118.315 104.813 118.192 105.489 118.192C106.164 118.131 107.147 118.438 107.762 118.929C108.192 119.237 108.683 119.421 109.052 119.482C110.035 119.667 111.264 118.868 112.308 118.745C113.045 118.622 113.844 118.684 114.459 118.868C115.073 119.052 115.503 119.175 115.994 119.052C116.547 118.929 116.855 119.667 116.363 119.912Z" fill="black"/>
<path d="M106.594 86.4288C107.946 86.6131 108.99 85.2 108.499 83.8484C108.253 83.1111 107.823 82.4353 107.147 82.0052C105.058 80.715 97.2558 80.5922 93.1394 83.5412C89.4532 86.2445 100.451 85.5686 106.594 86.4288Z" fill="black"/>
<path d="M123.613 87.1047C122.507 87.1047 121.831 85.6916 122.384 84.5243C122.691 83.9099 123.121 83.357 123.736 83.0498C125.64 82.1282 130.739 82.6812 133.013 85.8145C135.04 88.5792 128.712 87.0433 123.613 87.1047Z" fill="black"/>
<path d="M104.321 94.3543C101.188 93.0026 97.6244 93.3713 94.3682 94.1085C93.9996 94.2314 93.7538 93.7399 94.061 93.4941C96.8872 91.1595 102.232 90.8523 104.505 94.0471C104.69 94.1699 104.567 94.4157 104.321 94.3543Z" fill="black"/>
<path d="M128.466 95.6444C126.992 94.6 124.842 94.7843 123.121 94.9686C122.507 95.0301 121.893 95.1529 121.217 95.3372C121.032 95.3987 120.848 95.0915 120.971 94.9686L121.094 94.8458C122.63 93.2484 125.026 92.8797 127.115 93.6784C127.852 93.9856 128.589 94.4157 128.958 95.2758C129.142 95.583 128.712 95.8902 128.466 95.6444Z" fill="black"/>
<path d="M138.438 135.763C137.394 122.063 130.513 123.23 135.182 92.6953C135.796 88.8247 136.226 85.2613 136.472 81.8822C141.572 75.1855 143.906 56.2011 124.922 55.0953C124.922 55.0953 115.583 44.4665 93.1585 45.5724C79.0278 46.6168 67.1088 53.4979 61.7023 61.0547C57.1559 67.4443 55.1284 72.8508 54.6369 80.039C54.6369 80.4691 54.5755 80.8992 54.5755 81.3292V81.4521C54.514 82.8038 54.514 84.2168 54.5755 85.6913C54.3912 89.1319 53.3467 93.8011 49.9676 97.2417C45.9127 101.358 44.0696 104.921 45.114 111.987C42.2265 113.707 37.1885 118.868 35.8369 124.274C46.8957 134.657 69.2591 138.958 70.4265 139.327C71.5323 136.746 72.9454 128.206 72.331 125.257C72.0238 123.599 71.7781 121.817 71.7781 119.789C71.7781 118.561 71.8395 117.393 71.9624 116.287C55.0055 110.881 57.7088 92.6953 65.3886 91.7122C68.1533 91.3436 70.1807 92.0194 71.7781 93.0024C72.0853 93.5554 72.4539 94.0469 72.8225 94.5384C82.5912 107.502 87.2604 76.2913 91.5611 76.7214C118.287 79.3632 121.051 70.9462 121.973 66.8299C132.11 69.3488 132.233 82.6809 132.54 83.0495C132.417 85.507 132.11 89.6848 132.049 95.0913C132.049 97.6103 132.294 102.464 132.11 105.29C131.496 114.813 130.451 122.738 125.045 132.63C123.386 135.64 121.543 138.344 119.515 140.125C125.843 140.002 132.233 139.511 138.623 138.835C138.561 137.852 138.5 136.808 138.438 135.763Z" fill="black"/>
<path d="M121.604 65.0481C121.604 65.0481 126.089 72.9736 121.604 77.8886C117.119 82.8037 130.39 75.1239 126.028 65.0481" fill="black"/>
</g>
<path d="M4.224 21.208C6.304 21.208 7.984 19.96 7.984 17.864C7.984 16.264 6.88 15.208 5.488 14.888V14.824C6.736 14.36 7.584 13.416 7.584 11.992C7.584 10.104 6.144 9.048 4.176 9.048C2.816 9.048 1.776 9.64 0.896 10.456L1.68 11.384C2.336 10.728 3.168 10.248 4.112 10.216C5.328 10.248 6.096 10.968 6.096 12.104C6.096 13.368 5.264 14.344 2.848 14.344V15.464C5.552 15.464 6.496 16.408 6.496 17.816C6.496 19.16 5.504 19.992 4.112 19.992C2.784 19.992 1.888 19.368 1.2 18.648L0.464 19.608C1.232 20.44 2.384 21.208 4.224 21.208ZM10.123 21H16.555V19.784H14.203V9.272H13.083C12.443 9.64 11.691 9.912 10.651 10.104V11.032H12.731V19.784H10.123V21ZM19.126 9.384V10.44H24.518C24.246 13.848 22.326 16.6 18.47 18.44L19.174 19.512C23.942 17.176 25.846 13.528 25.846 9.384H19.126ZM28.742 7.832V22.184H30.054V7.832H28.742Z" fill="#8B6517"/>
</svg>
