<svg width="188" height="234" viewBox="0 0 188 234" fill="none" xmlns="http://www.w3.org/2000/svg">
<path d="M69.6223 221.86C71.7623 221.28 73.2223 220.04 74.0423 218.44C74.8623 219.96 76.3023 221.14 78.4223 221.68L79.5823 219.68C76.8823 218.98 75.5423 217.32 75.3623 215.56H79.0823V213.46H75.3423V211.46H72.6823V213.46H68.9823V215.56H72.6623C72.4823 217.4 71.1823 219.12 68.4423 219.84L69.6223 221.86ZM75.3423 221.32H72.6823V224.12C71.0023 224.18 69.4023 224.18 68.0423 224.18L68.3823 226.32C71.5423 226.3 75.8823 226.28 79.8423 225.48L79.6823 223.56C78.2823 223.78 76.8223 223.9 75.3423 224V221.32ZM80.6823 211.28V229.76H83.3223V211.28H80.6823ZM102.821 220.22H100.181C100.701 217.2 100.701 215.06 100.701 213.5V212.32H88.1208V214.46H98.0808C98.0608 215.9 97.9808 217.76 97.5208 220.22H86.1808V222.36H89.9008V229.76H92.5208V222.36H96.2808V229.76H98.9008V222.36H102.821V220.22ZM115.059 212.8H111.159V211.22H108.519V212.8H104.599V214.68H115.059V212.8ZM107.839 218.02C107.839 217.3 108.599 216.92 109.839 216.92C111.079 216.92 111.819 217.3 111.819 218.02C111.819 218.72 111.079 219.1 109.839 219.1C108.599 219.1 107.839 218.72 107.839 218.02ZM115.519 221.28C114.119 221.48 112.659 221.6 111.159 221.7V220.76C113.099 220.46 114.319 219.46 114.319 218.02C114.319 216.24 112.539 215.16 109.839 215.16C107.119 215.16 105.339 216.24 105.339 218.02C105.339 219.46 106.559 220.46 108.519 220.76V221.82C106.939 221.88 105.439 221.88 104.139 221.88L104.419 223.9C107.559 223.88 111.899 223.8 115.719 223.08L115.519 221.28ZM109.339 224.78H106.699V229.4H119.579V227.3H109.339V224.78ZM118.959 217.32V211.28H116.319V225.68H118.959V219.48H121.279V217.32H118.959Z" fill="#111111"/>
<path d="M0 104C0 52.0852 42.0852 10 94 10C145.915 10 188 52.0852 188 104V178C188 189.046 179.046 198 168 198H20C8.9543 198 0 189.046 0 178V104Z" fill="#EBB23D"/>
<mask id="mask0_322_1563" style="mask-type:alpha" maskUnits="userSpaceOnUse" x="0" y="10" width="188" height="188">
<path d="M0 10H188V178C188 189.046 179.046 198 168 198H20C8.9543 198 0 189.046 0 178V10Z" fill="#D9D9D9"/>
</mask>
<g mask="url(#mask0_322_1563)">
<path d="M145.055 181.043C144.625 181.35 144.133 181.657 143.703 181.965C143.212 182.272 142.782 182.579 142.29 182.825C141.86 183.071 141.491 183.316 141.061 183.562C141 183.623 140.938 183.623 140.877 183.685C139.464 184.545 137.989 185.344 136.515 186.081C136.085 186.327 135.593 186.572 135.163 186.757C135.163 186.757 135.102 186.818 135.04 186.818C134.549 187.064 134.057 187.31 133.566 187.555C132.583 188.047 131.538 188.477 130.555 188.907C130.064 189.153 129.511 189.337 129.02 189.522C128.528 189.706 127.975 189.952 127.484 190.136C126.992 190.32 126.439 190.566 125.948 190.75C125.948 190.75 125.948 190.75 125.886 190.75C125.395 190.935 124.842 191.119 124.35 191.303C123.244 191.672 122.077 192.04 120.971 192.409C120.603 192.532 120.172 192.655 119.804 192.778C118.637 193.146 117.469 193.454 116.302 193.699C115.872 193.822 115.442 193.884 114.95 194.006C113.844 194.252 112.677 194.498 111.571 194.744C111.325 194.805 111.141 194.805 110.895 194.867C110.527 194.928 110.097 194.989 109.728 195.051C109.175 195.112 108.684 195.235 108.131 195.297C107.885 195.358 107.639 195.358 107.393 195.42C107.086 195.481 106.718 195.542 106.349 195.542C105.366 195.665 104.322 195.788 103.338 195.911C103.031 195.972 102.663 195.972 102.355 196.034H102.294C101.864 196.095 101.434 196.095 101.004 196.157C100.574 196.218 100.144 196.218 99.7137 196.218C99.4679 196.218 99.1607 196.28 98.915 196.28C98.4235 196.28 97.9934 196.341 97.5633 196.341C96.949 196.341 96.396 196.403 95.7816 196.403C95.1673 196.403 94.6143 196.403 93.9999 196.403C93.5699 196.403 93.1398 196.403 92.7097 196.403C66.7829 196.034 43.498 185.037 26.8483 167.588C26.8483 167.588 26.8483 167.527 26.7869 167.527C24.9437 165.868 26.5411 157.021 33.9751 151.43C43.3137 144.365 65.6771 139.941 65.6771 139.941C65.6771 139.941 74.3398 138.528 106.472 145.225C125.272 149.157 139.587 154.871 147.574 170.353C149.233 173.548 150.891 178.463 145.055 181.043Z" fill="white"/>
<path d="M106.656 144.549C118.452 146.945 131.047 149.525 140.754 157.328C144.011 159.97 146.161 163.84 147.943 167.588C148.803 169.431 149.663 171.336 150.339 173.363C150.707 174.715 151.26 176.251 150.953 177.848C150.892 178.278 150.523 178.831 150.216 179.139C148.803 180.552 147.267 181.412 145.731 182.518C136.699 188.784 126.316 193.208 115.565 195.542C91.6041 200.765 65.6773 196.71 44.6041 184.115C37.6001 179.876 31.1492 174.715 25.6198 168.633C25.0054 167.895 25.0054 166.667 25.0054 165.868C25.0668 164.025 25.5583 162.243 26.1727 160.584C27.6472 156.775 29.5518 152.966 32.808 150.324C35.1426 148.727 37.6616 147.375 40.242 146.269C48.3518 142.829 56.8916 140.433 65.6773 139.45C66.4145 139.388 66.5374 140.433 65.8001 140.556C57.3831 142.276 49.0276 144.856 41.225 148.358C38.3988 149.771 35.3884 151 33.1152 153.212C30.9648 155.546 29.4289 158.434 28.2001 161.383C27.4015 163.165 26.8485 165.991 27.0943 167.404C30.9648 172.012 35.5113 176.067 40.4263 179.569C67.3361 198.369 108.192 199.597 136.822 183.931C139.403 182.518 141.922 180.92 144.318 179.261C145.485 178.463 146.714 177.787 147.635 176.865C147.697 176.804 147.635 176.865 147.635 176.927C147.635 176.988 147.574 177.05 147.574 177.05C147.635 176.312 147.39 175.329 147.082 174.346C145.977 170.783 144.195 167.035 142.29 163.779C139.28 158.925 134.181 155.854 129.02 153.396C125.456 151.737 121.709 150.447 117.899 149.218C114.09 147.99 110.22 146.945 106.349 146.023C105.366 145.778 105.673 144.365 106.656 144.549Z" fill="black"/>
<path d="M54.7417 139.388C54.7417 139.388 63.7116 135.825 65.3705 135.702L65.4933 137.115C65.4933 137.115 58.3665 140.187 57.9365 140.678C57.5678 141.108 54.7417 139.388 54.7417 139.388Z" fill="#7E5D6D"/>
<path d="M165.453 219.135H10.0762C10.0762 219.135 10.9977 190.627 20.3363 170.291C27.4017 154.932 44.3585 144.795 56.7075 140.371C60.2095 139.142 62.9128 137.791 65.4317 137.115C65.4317 137.422 65.616 139.695 65.616 139.941C65.616 139.941 72.8043 129.251 94.7376 130.418C104.875 130.971 112.985 133.736 112.985 133.736C114.152 133.49 112.493 139.511 113.538 139.204C113.906 139.081 114.644 142.767 114.951 142.644C122.876 144.733 132.583 150.631 146.653 162.427C162.627 175.821 165.453 219.135 165.453 219.135Z" fill="black"/>
<path d="M135.532 156.652C139.502 156.652 142.721 153.434 142.721 149.464C142.721 145.494 139.502 142.276 135.532 142.276C131.563 142.276 128.344 145.494 128.344 149.464C128.344 153.434 131.563 156.652 135.532 156.652Z" fill="#FFFF8D"/>
<path d="M40.4879 219.135L37.7231 196.341" stroke="#544D4D" stroke-width="3" stroke-miterlimit="10" stroke-linecap="round" stroke-linejoin="round"/>
<path d="M147.82 188.6C147.82 188.6 145.977 193.085 146.53 197.57C147.083 202.055 148.68 208.629 146.407 219.135" stroke="#544D4D" stroke-width="3" stroke-miterlimit="10" stroke-linecap="round" stroke-linejoin="round"/>
<path d="M54.7413 139.388C55.9086 139.02 57.936 139.388 58.5504 140.433C60.9465 144.365 66.7217 155.854 69.1177 178.647C71.0223 196.464 68.1347 228.535 68.1347 228.535L8.47852 225.709C8.47852 225.709 10.2602 195.42 15.4824 175.084C20.6432 155.362 34.0367 146.515 54.7413 139.388Z" fill="white"/>
<path d="M54.3114 138.098C56.3389 137.545 58.7964 138.037 59.9023 139.941C63.2199 145.532 65.3088 151.799 66.9676 158.065C68.9336 165.745 70.2238 173.609 70.8997 181.473C71.8827 197.263 70.9611 212.93 69.7323 228.719C69.6709 229.579 68.9336 230.194 68.0735 230.132L8.4173 227.306C7.55716 227.306 6.88135 226.569 6.88135 225.647C7.49573 216.677 8.4173 207.83 9.58462 198.922C10.8748 190.013 12.2264 181.166 14.7454 172.503C20.582 153.15 36.3101 144.242 54.3114 138.098ZM55.233 140.74C46.9389 143.566 37.9075 145.594 31.0264 151.369C27.7088 154.195 25.2513 158.004 22.9166 161.629C18.063 168.94 16.3428 177.664 14.8683 186.265C12.5951 199.352 11.2434 212.622 10.1376 225.831C10.1376 225.831 8.60161 224.173 8.66305 224.173L68.3193 226.999L66.6604 228.412C67.1519 220.609 67.6434 212.807 67.8892 205.004C68.6879 185.713 67.6434 165.93 60.6395 147.805C59.718 145.532 58.7349 143.32 57.4448 141.231C56.9532 140.74 55.7859 140.556 55.233 140.74Z" fill="black"/>
<path d="M116.548 143.136C116.548 143.136 135.532 178.831 130.003 226.507H170.982C170.982 226.507 170.798 188.661 161.582 168.08C152.366 147.559 120.111 141.539 120.111 141.539C120.111 141.539 118.084 142.583 116.548 143.136Z" fill="white"/>
<path d="M118.023 143.689C118.207 143.504 118.268 143.136 118.207 142.89V142.829C118.514 143.504 118.883 144.18 119.19 144.856C128.037 164.578 132.338 186.265 132.583 207.83C132.645 209.796 132.46 213.974 132.399 215.94C132.338 219.135 131.785 223.497 131.6 226.691L130.064 224.91H171.043L169.446 226.507C169.446 221.961 169.2 217.353 168.955 212.806C167.91 197.386 165.637 170.66 154.885 159.233C146.53 150.263 131.785 144.856 119.866 143.074L120.849 142.952C119.989 143.382 119.006 143.812 118.145 144.18L117.654 144.365L117.531 144.426C117.715 144.365 117.961 143.996 118.023 143.689ZM115.074 142.583C115.319 142.153 115.872 141.661 116.425 141.477L116.855 141.293C117.715 140.924 118.637 140.494 119.497 140.064C119.804 139.941 120.111 139.88 120.419 140.003C122.753 140.678 124.965 141.354 127.177 142.091C129.389 142.89 131.539 143.689 133.689 144.61C140.079 147.375 146.345 150.631 151.691 155.055C155.991 158.557 160.292 162.427 162.688 167.588C167.05 177.48 169.077 188.17 170.552 198.799C171.842 208.014 172.457 217.23 172.579 226.507C172.579 227.367 171.904 228.104 170.982 228.104H130.003C129.081 228.104 128.344 227.244 128.467 226.323C128.713 223.128 129.204 218.889 129.266 215.755C129.327 213.851 129.511 209.673 129.45 207.83C129.327 189.337 125.887 170.783 119.374 153.457C118.207 150.386 116.917 147.314 115.504 144.426C115.135 143.935 114.951 143.136 115.074 142.583Z" fill="black"/>
<path d="M116.548 143.136L115.073 142.706C115.073 142.706 117.224 141.661 118.145 141.047L118.698 140.74C118.698 140.74 121.647 142.091 122.692 142.583C123.736 143.074 119.067 145.348 119.067 145.348C119.067 145.348 116.732 143.197 116.548 143.136Z" fill="#7E5D6D"/>
<path d="M49.6425 160.461C49.6425 160.461 41.1641 166.421 41.9628 172.749C42.7614 179.077 68.8725 218.705 68.8725 218.705C68.8725 218.705 71.9444 197.201 68.4425 172.872C68.4425 172.872 65.9235 169.493 61.3157 166.114C58.2438 163.963 54.3732 161.752 49.6425 160.461Z" fill="white"/>
<path d="M49.9495 162.059C50.1339 162.059 50.3182 161.936 50.5025 161.813L50.3796 161.875C46.8776 164.086 42.577 168.08 42.8842 172.565C43.2528 174.469 44.2972 176.374 45.2188 178.156C47.1848 181.903 49.3352 185.59 51.5469 189.276C55.9705 196.587 60.6397 203.775 65.4319 210.841L70.2855 217.906L67.3979 218.52C67.8894 214.834 68.1966 211.025 68.3809 207.216C68.9953 195.85 68.5652 184.422 66.9678 173.179L67.275 173.916C65.0018 171.09 62.1757 168.633 59.2267 166.605C56.462 164.762 53.5129 163.288 50.3182 162.305L50.1953 162.243C50.011 162.182 50.011 162.12 49.9495 162.059ZM49.3966 158.926C49.9495 158.987 50.6254 159.11 51.1783 159.294C56.5234 160.953 61.4384 163.902 65.6162 167.65C67.1522 169.001 68.4423 170.353 69.794 172.012C69.9783 172.196 70.0397 172.442 70.1012 172.688C71.6986 184.177 72.1286 195.788 71.5757 207.4C71.3914 211.271 71.0842 215.08 70.5927 219.012C70.4698 220.486 68.4423 220.916 67.7051 219.626C63.5887 212.745 58.5508 204.451 54.4959 197.57C51.9155 193.146 48.2907 187.126 45.8946 182.702C44.543 180.183 43.1299 177.664 42.0855 174.961C41.6554 173.978 41.4097 172.749 41.4097 171.582C41.8397 166.667 45.4031 162.858 48.6593 159.417C48.7208 159.171 49.0894 158.987 49.3966 158.926Z" fill="black"/>
<path d="M148.865 172.811C149.11 168.879 140.017 162.489 140.017 162.489C136.393 163.533 133.812 165.192 131.969 166.974C127.853 170.845 127.3 175.207 127.3 175.207L127.546 176.313C131.908 195.297 130.617 219.995 130.617 219.995C130.617 219.995 148.619 176.743 148.865 172.811Z" fill="white"/>
<path d="M148.127 172.749C147.82 169.124 142.106 165.377 139.095 163.779L140.447 164.025C134.918 165.561 130.003 169.677 128.835 175.452L128.774 174.838C129.634 178.524 130.371 182.334 130.801 186.081C132.276 197.386 132.583 208.69 132.153 220.056C132.153 220.118 129.143 219.381 129.143 219.381C132.276 212.807 136.392 203.038 139.28 196.218C140.939 192.348 142.475 188.416 144.011 184.484C145.485 180.613 147.205 176.743 148.127 172.749ZM149.233 172.811C148.864 174.961 148.065 176.927 147.39 178.954C145.301 184.914 142.905 190.812 140.754 196.771C138.727 202.178 134.979 212.192 133.075 217.537L132.03 220.548C131.416 222.268 128.835 221.715 129.02 219.872C129.45 208.752 129.143 197.509 127.668 186.45C127.238 182.764 126.501 179.139 125.702 175.575C125.579 174.9 125.825 174.224 126.009 173.609C127.791 167.343 133.443 162.673 139.587 161.015C140.078 160.83 140.57 160.953 140.939 161.26C142.352 162.858 144.502 164.947 145.854 166.605C147.267 168.326 149.233 170.292 149.233 172.811Z" fill="black"/>
<path d="M127.3 174.838C127.3 174.838 123.184 158.864 121.156 153.765C119.129 148.727 115.32 143.013 115.135 142.706C102.172 130.48 78.4569 130.48 83.0648 125.934C88.1641 120.896 109.299 124.336 116.978 128.145C123.86 131.77 152.981 148.666 153.964 154.318C154.947 160.585 131.109 160.216 127.3 174.838Z" fill="white"/>
<path d="M127.3 176.435C126.624 176.374 125.886 175.759 125.702 175.084V175.022L125.641 174.776L125.518 174.285L125.272 173.241C123.675 167.097 122.139 160.646 120.05 154.686C118.575 150.754 116.425 147.068 114.152 143.443L114.336 143.627C112.124 141.477 109.483 139.757 106.779 138.221C101.188 135.21 95.1061 133.306 89.0237 131.524C86.9349 130.725 81.8355 129.865 81.5283 127.285C81.5283 124.582 85.7061 123.414 87.6721 123.046C95.7819 121.817 104.076 123.292 111.879 125.442C113.845 126.056 115.811 126.732 117.654 127.654C118.33 128.022 120.173 129.067 120.849 129.435C126.439 132.63 131.907 136.009 137.314 139.573C142.72 143.136 148.188 146.576 152.735 151.307C156.421 155.116 154.209 157.574 150.154 159.356C144.379 161.936 138.051 163.718 133.382 167.957C131.723 169.493 130.371 171.275 129.573 173.302C129.266 173.978 129.266 174.285 128.958 175.084C128.651 175.575 127.853 176.251 127.3 176.435ZM127.3 173.302C126.931 173.056 126.255 173.302 126.071 173.609C125.948 173.855 126.071 173.609 126.132 173.548C126.317 173.056 126.562 172.503 126.808 172.012C131.232 163.472 141.369 161.322 149.479 157.942C152.612 156.529 154.947 155.301 151.69 152.044C147.205 147.498 141.676 144.18 136.331 140.801C130.863 137.484 125.272 134.35 119.62 131.34L117.531 130.234C112.739 127.654 107.332 126.548 101.987 125.688C97.3179 125.073 87.4878 123.967 84.0473 127.285C84.0473 127.285 84.1087 127.162 84.1087 126.978C84.1087 126.793 84.0473 126.732 84.0473 126.671C84.0473 126.671 84.2316 126.855 84.4773 126.978C86.0747 127.838 87.9179 128.329 89.761 128.882C95.9662 130.725 102.294 132.63 108.069 135.763C111.08 137.422 114.029 139.327 116.486 141.846C118.883 145.532 121.156 149.403 122.815 153.519C125.026 159.663 126.624 166.052 128.344 172.319L128.59 173.363L128.713 173.916L128.774 174.162V174.224C128.651 173.671 127.853 173.179 127.3 173.302Z" fill="black"/>
<path d="M68.442 172.933C68.442 172.933 64.1414 168.387 58.9806 165.192C47.5531 158.127 30.7806 154.87 30.5963 149.402C30.4734 143.259 50.8708 130.418 64.3871 126.056C84.7231 120.404 87.3649 127.1 87.6106 129.927C87.7335 131.278 65.5544 138.405 65.6773 139.818V139.879C65.6773 139.879 62.8512 140.801 64.8786 154.87C65.3701 158.372 67.5204 164.393 68.442 172.933Z" fill="white"/>
<path d="M69.1179 174.346C68.565 174.592 67.6434 174.408 67.2134 173.916L67.1519 173.793L66.9676 173.609C66.7833 173.363 66.1075 172.687 65.8617 172.503C64.3872 171.029 62.7898 169.554 61.1924 168.264C56.7689 164.7 51.5467 162.366 46.3859 160.031C42.3924 158.311 38.2761 156.775 34.4669 154.625C28.5075 151.307 28.8147 147.989 33.2996 143.32C39.5663 137.176 47.0617 132.446 54.9258 128.575C57.8748 127.162 60.9467 125.872 64.08 124.889C70.8996 123.046 86.8735 119.482 88.5937 129.558C88.5937 129.742 88.6552 129.865 88.5937 130.111C88.5323 130.357 88.4094 130.48 88.348 130.602C87.6107 131.34 86.6277 131.708 85.7676 132.077C81.7741 133.736 77.6578 135.087 73.5415 136.5C71.0225 137.422 68.3807 138.159 66.046 139.449C65.9232 139.572 65.7388 139.695 65.8003 139.88C64.6944 140.801 64.7558 142.46 64.5715 143.75C64.4486 147.866 65.1245 152.167 66.046 156.161C67.1519 160.154 68.5036 164.332 69.3022 168.448C69.548 169.738 69.9166 170.906 69.8552 172.196C69.7323 172.995 69.4251 173.793 69.1179 174.346ZM67.7663 171.52C67.4591 171.274 66.9062 171.336 66.6604 171.581C66.3532 169.37 65.9846 167.158 65.4931 164.946C64.633 160.891 63.2813 156.652 62.9127 152.413L62.7284 150.263C62.5441 147.129 62.0526 141.354 64.3872 138.958C64.5715 138.835 64.5715 138.712 65.1859 138.466L64.08 139.941C64.0186 139.634 64.3258 138.897 64.4486 138.774C64.8173 138.282 65.1245 138.159 65.5545 137.852C67.8277 136.562 70.2853 135.702 72.6813 134.719C75.3846 133.674 82.0813 131.094 84.6617 129.988C85.2147 129.742 85.9519 129.435 86.382 129.128C86.2591 129.312 86.1977 129.312 86.0748 129.742C86.0134 129.865 86.0748 130.418 86.0134 130.111C85.1532 124.459 76.3062 125.442 72.0055 126.056C63.5885 127.408 55.7859 130.725 48.2905 134.78C43.3754 137.545 38.399 140.494 34.3441 144.487C32.9924 145.9 31.4565 147.498 31.3336 149.402C31.6408 152.167 36.6787 154.01 39.0134 155.178C44.297 157.451 49.765 159.355 54.9872 161.813C59.6565 163.963 64.0186 166.912 67.8892 170.291C68.3192 170.66 69.0565 171.336 69.4251 171.704C69.3637 171.582 68.9336 171.336 68.565 171.274C68.3192 171.336 68.012 171.397 67.7663 171.52Z" fill="black"/>
<path d="M112.431 160.892C111.141 167.22 102.785 171.029 88.7162 165.315C74.0939 159.417 67.7658 145.348 66.1685 141.17C74.8312 124.95 68.8103 113.707 68.8103 113.707C88.7776 111.987 106.226 135.333 106.226 135.333L108.929 146.884C109.175 147.867 109.666 148.727 110.404 149.341C111.694 151.614 113.23 156.837 112.431 160.892Z" fill="white"/>
<path d="M65.8617 141.354C67.029 139.573 67.7663 137.484 68.2578 135.456C69.1793 131.217 69.4865 126.916 69.548 122.616V121.018C69.3637 119.421 68.8107 117.762 68.1963 116.288C67.3976 114.322 70.2852 113.093 71.2068 115.059C71.3297 115.305 71.3297 115.735 71.3297 115.98C71.514 124.336 71.8826 135.088 66.599 142.03C66.2303 142.399 65.4931 141.846 65.8617 141.354Z" fill="black"/>
<path d="M106.902 135.211C107.823 135.764 108.131 136.501 108.254 137.238C108.622 138.713 108.499 140.31 108.868 141.846C109.175 143.32 110.097 144.733 110.342 146.269C110.65 147.867 111.571 151.246 111.94 152.905C112.063 153.273 111.817 153.703 111.387 153.765C111.141 153.826 110.957 153.765 110.773 153.642C109.974 152.966 109.605 152.29 109.114 151.43C108.315 149.956 107.762 148.604 107.271 146.945C106.84 145.471 107.025 143.873 106.656 142.337C106.349 140.863 105.489 139.45 105.182 137.914C104.997 137.177 104.936 136.378 105.489 135.456C105.857 135.088 106.472 134.965 106.902 135.211Z" fill="black"/>
<path d="M111.326 151.43C99.5913 150.816 90.007 147.13 80.6685 130.48C88.5325 137.422 97.8096 140.064 107.578 141.293L108.868 146.945C109.114 147.928 110.589 150.816 111.326 151.43Z" fill="black"/>
<path d="M110.835 149.157C112.923 153.089 114.152 158.004 112.862 162.366C111.879 165.438 109.053 167.711 105.981 168.571C98.8541 170.476 90.6215 167.465 84.2934 164.086C76.4907 159.724 70.7156 152.413 67.0293 144.426C66.7836 143.812 67.6437 143.32 68.0123 143.935C69.3025 146.515 70.777 149.034 72.4358 151.307C74.0947 153.642 75.9992 155.792 78.1496 157.697C84.4162 163.349 92.8947 166.851 101.373 166.851C110.097 166.605 113.415 161.997 111.387 153.519C111.08 152.167 110.589 150.754 109.913 149.587C109.544 149.095 110.466 148.543 110.835 149.157Z" fill="black"/>
<path d="M134.611 75.3701C135.717 80.5309 134.856 83.9714 134.365 98.225C128.712 121.817 129.143 134.903 126.009 138.037C123.552 140.494 108.868 143.689 97.9936 140.924C92.4642 139.511 87.7949 136.316 83.9858 134.043C79.1936 131.156 75.5688 121.756 72.1283 116.042C69.425 111.557 69.1178 117.455 65.6159 113.584C60.7623 108.301 54.9257 97.672 57.8132 78.872C62.4825 48.3988 86.6276 44.8354 104.506 48.2145C122.446 51.5936 131.662 61.7923 134.611 75.3701Z" fill="white"/>
<path d="M68.6262 118.991C66.4759 115.427 63.404 112.478 61.438 108.792C55.4785 97.6105 54.2498 84.0327 57.6903 71.868C64.8785 45.9412 90.9282 42.1321 113.537 49.7504C126.194 54.051 135.102 64.7412 136.392 78.1961C136.515 82.4968 135.409 86.4902 135.348 90.7294C135.041 101.911 131.539 112.663 130.187 123.414C129.88 126.793 129.88 130.357 129.388 133.797C129.265 134.535 129.143 135.21 128.897 136.009C128.344 137.668 127.115 138.835 125.763 139.757C120.664 142.89 114.889 143.443 109.114 143.75C97.072 144.242 86.5047 140.74 79.3164 130.726C79.0707 130.357 79.5622 129.927 79.8694 130.295C87.9177 138.897 97.5635 141.661 108.991 141.109C113.845 140.863 124.228 139.941 126.378 135.21C127.422 131.34 127.422 127.285 128.037 123.23C128.712 118.438 130.556 111.741 131.662 107.01C132.89 101.665 133.935 96.2588 133.996 90.7909C134.058 88.0262 134.058 85.2615 134.058 82.4968C134.18 79.7321 133.628 77.336 132.952 74.6941C130.494 64.1883 122.937 55.4641 112.739 51.5935C102.724 47.7229 91.1125 46.7399 80.8524 50.119C70.4079 53.4366 63.2811 62.4066 60.5779 72.851C59.1648 78.0118 58.4275 83.4183 58.0589 88.7634C57.7517 94.17 58.3047 99.6994 60.455 104.737C61.9909 108.546 64.5099 111.864 67.4589 114.629L70.3465 117.639C71.6981 118.868 69.6092 120.465 68.6262 118.991Z" fill="black"/>
<path d="M75.8761 99.4536C75.8761 99.4536 73.9715 90.238 65.0016 91.3438C57.2604 92.3268 54.5571 110.881 72.1284 116.042" fill="white"/>
<path d="M71.3298 107.994C69.9167 107.195 68.9337 105.843 68.8723 104.184C68.9337 102.956 69.118 101.543 68.8109 100.314C68.6265 99.1466 67.3978 98.8394 66.4762 98.9008C65.4932 99.0851 64.8788 100.314 64.6945 101.297C64.6945 101.358 64.6331 101.543 64.6331 101.604C64.5716 101.911 64.0801 101.911 63.9573 101.604C63.1586 99.208 64.9403 96.5662 67.5207 96.8733C71.1455 97.1191 71.637 100.928 70.9612 103.816C70.5926 105.045 71.0841 106.15 71.7599 107.195L71.8827 107.379C72.1899 107.748 71.6984 108.239 71.3298 107.994Z" fill="black"/>
<path d="M120.48 92.9413C121.401 97.3034 123.121 101.358 125.272 105.167C127.176 109.837 122.261 114.26 117.899 114.076C117.408 114.076 117.346 113.4 117.776 113.277C120.541 112.417 123.06 110.574 123.49 107.748C123.674 106.888 123.429 106.15 122.999 105.413C120.971 101.604 119.742 97.242 120.05 92.9413C120.05 92.6341 120.48 92.6341 120.48 92.9413Z" fill="black"/>
<path d="M75.5686 99.5151C74.1555 95.8902 71.0836 92.4497 66.9673 92.5112C66.5987 92.4497 65.9843 92.5726 65.6156 92.5726C64.5712 92.634 63.7111 93.0027 62.9124 93.7399C58.9804 97.6719 59.6562 104.614 62.8509 108.977C63.9568 110.512 65.3699 111.864 66.9673 112.97C68.5647 114.076 70.3464 114.936 72.2509 115.673C72.681 115.796 72.4967 116.472 72.0666 116.41C67.9503 115.55 64.0183 113.523 61.315 110.144C57.1372 105.106 56.2771 96.6889 61.2536 91.7739C62.3594 90.7909 63.8954 90.0536 65.4313 90.0536C65.9228 90.0536 66.6601 89.9308 67.1516 90.0536C69.732 90.1765 72.1895 91.4667 73.7869 93.4942C75.2 95.2144 75.9987 97.3033 76.2444 99.3922C76.2444 99.7608 75.6915 99.8837 75.5686 99.5151Z" fill="black"/>
<path d="M116.363 119.912C115.319 120.65 113.783 120.035 112.677 120.527C111.878 120.773 110.588 121.878 108.745 121.756C107.27 121.633 106.533 120.895 105.304 120.342C104.014 119.912 102.662 119.114 101.802 118.069C101.618 117.885 101.618 117.639 101.802 117.455C102.048 117.209 102.294 117.393 102.54 117.516C103.092 117.824 103.523 118.069 103.953 118.192C104.383 118.315 104.813 118.192 105.489 118.192C106.164 118.131 107.147 118.438 107.762 118.929C108.192 119.237 108.683 119.421 109.052 119.482C110.035 119.667 111.264 118.868 112.308 118.745C113.045 118.622 113.844 118.684 114.459 118.868C115.073 119.052 115.503 119.175 115.994 119.052C116.547 118.929 116.855 119.667 116.363 119.912Z" fill="black"/>
<path d="M100.451 94.8457C100.451 94.9072 100.451 94.9686 100.451 94.9686L100.389 96.6889C100.328 98.1634 99.0991 99.2692 97.6246 99.2078C96.15 99.1464 95.0442 97.8562 95.167 96.4431L95.2285 94.7228C95.2285 94.4156 95.3514 94.047 95.4742 93.8013L100.389 94.047C100.389 94.2928 100.451 94.5385 100.451 94.8457Z" fill="black"/>
<path d="M126.131 96.1974L126.07 97.7948C126.009 99.1464 124.841 100.191 123.49 100.129C122.138 100.068 121.093 98.9007 121.155 97.5491L121.216 95.9517C121.216 95.6445 121.278 95.3373 121.401 95.0916L126.009 95.2759C126.07 95.5831 126.131 95.8902 126.131 96.1974Z" fill="black"/>
<path d="M106.594 86.4288C107.946 86.6131 108.99 85.2 108.499 83.8484C108.253 83.1111 107.823 82.4353 107.147 82.0052C105.058 80.715 97.2558 80.5922 93.1394 83.5412C89.4532 86.2445 100.451 85.5686 106.594 86.4288Z" fill="black"/>
<path d="M123.613 87.1047C122.507 87.1047 121.831 85.6916 122.384 84.5243C122.691 83.9099 123.121 83.357 123.736 83.0498C125.64 82.1282 130.739 82.6812 133.013 85.8145C135.04 88.5792 128.712 87.0433 123.613 87.1047Z" fill="black"/>
<path d="M104.382 94.8458L94.2449 94.6615C93.0162 94.6001 93.0776 92.757 94.3064 92.8184L104.444 93.5556C105.304 93.6171 105.242 94.8458 104.382 94.8458Z" fill="black"/>
<path d="M128.712 95.8902L121.217 96.0131C119.988 96.0131 119.927 94.2314 121.156 94.1699C121.217 94.1699 121.217 94.1699 121.278 94.1699L128.774 94.9686C129.327 95.0301 129.265 95.8287 128.712 95.8902Z" fill="black"/>
<path d="M139.587 65.9698C143.765 62.345 149.908 56.877 143.58 49.2587C137.252 41.6404 125.579 44.5894 125.579 44.5894C125.579 44.5894 128.036 37.5855 121.217 35.0666C112.984 32.0561 89.6378 41.1489 89.6378 41.1489C87.9175 41.0875 86.2587 41.026 84.7227 41.026C64.5711 40.596 58.7345 53.3136 58.4888 64.7411C58.4888 64.7411 51.6692 67.0143 49.9489 77.8888C49.396 81.3907 48.843 85.8757 50.1946 91.2822C53.8195 106.027 63.5881 116.287 69.7933 121.51C72.128 119.789 68.0116 117.393 68.3188 114.567C54.9868 108.055 57.8744 92.2653 65.0012 91.3437C70.4692 90.6679 73.3567 93.8626 74.7084 96.443C75.2613 97.1803 67.8888 56.0783 110.404 69.5332C118.821 72.1751 127.484 74.5097 133.382 70.2705C134.057 71.5607 134.487 73.0966 134.61 75.3698C134.61 75.3698 144.87 71.3764 143.335 67.1986C142.843 65.7855 139.587 65.9698 139.587 65.9698Z" fill="black"/>
<path d="M68.9944 101.358C68.9944 101.358 64.0793 100.621 64.448 107.502C64.6323 111.004 64.6323 112.908 64.5708 113.891C64.5094 114.567 64.9395 115.182 65.5538 115.427C66.2911 115.735 67.0898 115.427 67.4584 114.69C68.0114 113.707 68.6257 112.356 68.6257 111.25C68.6257 109.407 70.5918 107.748 70.5918 107.748C70.5918 107.748 68.8101 106.212 68.9944 101.358Z" fill="white"/>
<path d="M68.8101 101.542C68.8101 101.604 68.8715 101.665 68.9329 101.665C68.9329 101.665 68.9329 101.665 68.8715 101.665H68.7486C65.7996 101.911 64.878 104.491 65.0009 107.133C65.0623 108.854 65.1852 110.574 65.1238 112.233C65.2467 113.154 64.6937 114.383 65.6153 114.874C66.1682 115.182 66.9055 114.936 67.1512 114.322C67.7042 113.216 68.2571 112.11 68.2571 110.881C68.5029 109.468 69.4244 108.362 70.4074 107.502V107.993C69.1172 106.642 68.8101 104.799 68.6257 103.078C68.6872 102.648 68.6872 101.973 68.8101 101.542ZM69.2401 101.112C69.4244 102.833 69.4244 104.614 70.1617 106.15C70.346 106.58 70.6532 107.072 71.0218 107.379C71.2676 107.563 71.2676 107.932 71.0218 108.116C70.1617 108.915 69.4244 109.898 69.3016 111.004C69.3016 112.356 68.7486 113.646 68.1342 114.813C67.6427 115.857 66.2297 116.41 65.1852 115.796C64.5094 115.427 64.0179 114.69 64.0179 113.891C64.0179 113.277 64.0793 112.786 64.0793 112.171C64.0793 110.451 63.9565 108.792 63.895 107.072C63.895 105.966 63.9565 104.676 64.448 103.57C65.0623 101.85 66.9669 100.682 68.8101 100.99C68.9944 100.99 69.1787 101.051 69.2401 101.112Z" fill="black"/>
<path d="M68.1959 174.101C70.2233 165.254 67.5815 155.301 65.3083 146.454C64.3867 142.952 63.4652 139.634 63.0351 136.746C62.2364 131.893 62.7894 127.285 64.7554 122.984C67.1514 117.639 66.7828 113.093 66.7828 112.908L65.5541 113.031C65.5541 113.093 65.9227 117.516 63.6495 122.493C61.622 126.978 61.0077 131.831 61.8063 136.931C62.2979 139.88 63.158 143.259 64.0796 146.761C66.3528 155.423 68.9331 165.254 66.9671 173.793C65.8613 178.524 68.0116 186.265 71.0835 194.006C71.575 194.068 72.005 194.129 72.4965 194.191C69.3632 186.45 67.1514 178.647 68.1959 174.101Z" fill="black"/>
<path d="M64.6323 111.065C64.6937 112.417 64.6323 113.339 64.6323 113.891C64.5709 114.567 65.0009 115.182 65.6153 115.427C66.3526 115.735 67.1513 115.427 67.5199 114.69C68.0728 113.707 68.6872 112.356 68.6872 111.25C68.6872 111.188 68.6872 111.065 68.6872 111.004C67.4585 111.495 65.9839 111.864 64.6323 111.065Z" fill="white"/>
<path d="M64.8166 111.311C64.8781 112.171 64.9395 112.97 64.9395 113.83C64.8781 114.199 65.0009 114.567 65.2467 114.874C66.0454 115.673 67.1513 115.182 67.4585 114.199C67.95 113.216 68.38 112.171 68.38 111.065L68.8101 111.372C67.4585 111.618 66.0454 111.987 64.7552 111.434C64.7552 111.434 64.8166 111.372 64.8166 111.311ZM64.5094 110.758C64.6323 110.758 64.8781 110.82 65.0009 110.942C66.1068 111.741 67.5199 111.372 68.6258 110.758C68.8101 110.635 69.1173 110.82 69.0558 111.065C68.9944 112.478 68.4415 113.83 67.7042 115.059C67.0284 115.98 65.6153 116.042 64.8166 115.243C64.448 114.874 64.2637 114.26 64.3251 113.769C64.3251 112.724 64.448 111.741 64.5094 110.758Z" fill="black"/>
<path d="M122.507 151.922C123.551 144.672 122.568 139.511 122.2 137.975C122.016 138.098 121.893 138.282 121.708 138.405C121.524 138.589 121.34 138.712 121.155 138.897C121.524 140.863 122.2 145.532 121.278 151.737C120.848 154.625 120.725 159.171 120.664 164.455C120.541 169.554 118.944 182.272 117.039 194.314C117.469 194.191 117.899 194.068 118.329 194.006C120.234 182.088 121.77 169.616 121.893 164.516C122.016 159.233 122.077 154.748 122.507 151.922Z" fill="black"/>
</g>
<path d="M0.704 21H8.08V19.736H4.832C4.24 19.736 3.52 19.8 2.912 19.848C5.664 17.24 7.504 14.856 7.504 12.52C7.504 10.424 6.192 9.048 4.096 9.048C2.608 9.048 1.6 9.736 0.64 10.776L1.488 11.608C2.128 10.84 2.96 10.248 3.92 10.248C5.376 10.248 6.08 11.224 6.08 12.568C6.08 14.584 4.384 16.92 0.704 20.136V21ZM12.891 15.464C11.499 15.464 10.795 14.44 10.795 12.856C10.795 11.256 11.659 10.2 12.779 10.2C14.283 10.2 15.179 11.48 15.339 13.896C14.555 15.016 13.675 15.464 12.891 15.464ZM9.643 20.008C10.299 20.696 11.195 21.208 12.459 21.208C14.667 21.208 16.715 19.384 16.715 14.632C16.715 10.904 15.035 9.048 12.779 9.048C10.955 9.048 9.419 10.584 9.419 12.856C9.419 15.288 10.699 16.552 12.651 16.552C13.643 16.552 14.651 15.976 15.355 15.096C15.243 18.744 13.931 19.992 12.411 19.992C11.659 19.992 10.939 19.656 10.443 19.096L9.643 20.008ZM19.126 9.384V10.44H24.518C24.246 13.848 22.326 16.6 18.47 18.44L19.174 19.512C23.942 17.176 25.846 13.528 25.846 9.384H19.126ZM28.742 7.832V22.184H30.054V7.832H28.742Z" fill="#8B6517"/>
</svg>
