<svg width="188" height="234" viewBox="0 0 188 234" fill="none" xmlns="http://www.w3.org/2000/svg">
<path d="M73.2823 223.8C72.0423 223.8 71.1223 222.96 71.1223 221.56C71.1223 220.16 72.0423 219.3 73.2823 219.3C74.5223 219.3 75.4223 220.16 75.4223 221.54C75.4223 222.96 74.5223 223.8 73.2823 223.8ZM73.2823 217.16C70.6023 217.16 68.6023 218.98 68.6023 221.54C68.6023 224.14 70.6023 225.96 73.2823 225.96C75.9423 225.96 77.9223 224.14 77.9223 221.54C77.9223 218.98 75.9423 217.16 73.2823 217.16ZM74.5823 211.62H71.9423V214.02H67.8623V216.12H78.5823V214.02H74.5823V211.62ZM85.0623 218.5H82.4223V211.3H79.7823V229.72H82.4223V220.68H85.0623V218.5ZM102.281 219.7C98.0808 219.02 95.8208 216.26 95.8208 213.64V212.32H93.0008V213.64C93.0008 216.2 90.7208 219.02 86.5608 219.7L87.6408 221.88C90.8608 221.3 93.2008 219.56 94.4008 217.3C95.6008 219.58 97.9608 221.3 101.201 221.88L102.281 219.7ZM95.7408 225.42V221.3H93.1008V225.42H86.1608V227.54H102.841V225.42H95.7408ZM114.359 215.74V217.88H117.119V222.26H119.759V211.3H117.119V215.74H114.359ZM115.459 219.7C112.659 218.78 111.379 216.62 111.299 214.52H114.879V212.4H104.979V214.52H108.599C108.519 216.82 107.179 219.16 104.259 220.18L105.599 222.26C107.739 221.54 109.199 220.04 109.999 218.18C110.799 219.8 112.179 221.1 114.179 221.76L115.459 219.7ZM113.539 227.74C111.119 227.74 109.859 227.24 109.859 226.2C109.859 225.16 111.119 224.66 113.539 224.66C115.939 224.66 117.199 225.16 117.199 226.2C117.199 227.24 115.939 227.74 113.539 227.74ZM113.539 222.66C109.619 222.66 107.219 223.96 107.219 226.2C107.219 228.44 109.619 229.74 113.539 229.74C117.439 229.74 119.839 228.44 119.839 226.2C119.839 223.96 117.439 222.66 113.539 222.66Z" fill="#111111"/>
<path d="M0 104C0 52.0852 42.0852 10 94 10C145.915 10 188 52.0852 188 104V178C188 189.046 179.046 198 168 198H20C8.9543 198 0 189.046 0 178V104Z" fill="#FFE1A4"/>
<mask id="mask0_322_1468" style="mask-type:alpha" maskUnits="userSpaceOnUse" x="0" y="10" width="188" height="188">
<path d="M0 10H188V178C188 189.046 179.046 198 168 198H20C8.9543 198 0 189.046 0 178V10Z" fill="#D9D9D9"/>
</mask>
<g mask="url(#mask0_322_1468)">
<path d="M145.055 181.043C144.625 181.35 144.133 181.658 143.703 181.965C143.212 182.272 142.782 182.579 142.29 182.825C141.86 183.071 141.491 183.316 141.061 183.562C141 183.624 140.938 183.624 140.877 183.685C139.464 184.545 137.989 185.344 136.515 186.081C136.085 186.327 135.593 186.573 135.163 186.757C135.163 186.757 135.102 186.818 135.04 186.818C134.549 187.064 134.057 187.31 133.566 187.556C132.583 188.047 131.538 188.477 130.555 188.907C130.064 189.153 129.511 189.337 129.02 189.522C128.528 189.706 127.975 189.952 127.484 190.136C126.992 190.32 126.439 190.566 125.948 190.75C125.948 190.75 125.948 190.75 125.886 190.75C125.395 190.935 124.842 191.119 124.35 191.303C123.244 191.672 122.077 192.041 120.971 192.409C120.603 192.532 120.172 192.655 119.804 192.778C118.637 193.146 117.469 193.454 116.302 193.699C115.872 193.822 115.442 193.884 114.95 194.007C113.844 194.252 112.677 194.498 111.571 194.744C111.325 194.805 111.141 194.805 110.895 194.867C110.527 194.928 110.097 194.99 109.728 195.051C109.175 195.112 108.684 195.235 108.131 195.297C107.885 195.358 107.639 195.358 107.393 195.42C107.086 195.481 106.718 195.543 106.349 195.543C105.366 195.665 104.322 195.788 103.338 195.911C103.031 195.973 102.663 195.973 102.355 196.034H102.294C101.864 196.095 101.434 196.095 101.004 196.157C100.574 196.218 100.144 196.218 99.7137 196.218C99.4679 196.218 99.1607 196.28 98.915 196.28C98.4235 196.28 97.9934 196.341 97.5633 196.341C96.949 196.341 96.396 196.403 95.7816 196.403C95.1673 196.403 94.6143 196.403 93.9999 196.403C93.5699 196.403 93.1398 196.403 92.7097 196.403C66.7829 196.034 43.498 185.037 26.8483 167.588C26.8483 167.588 26.8483 167.527 26.7869 167.527C24.9437 165.868 26.5411 157.021 33.9751 151.43C43.3137 144.365 65.6771 139.941 65.6771 139.941C65.6771 139.941 74.3398 138.528 106.472 145.225C125.272 149.157 139.587 154.871 147.574 170.353C149.233 173.548 150.891 178.463 145.055 181.043Z" fill="white"/>
<path d="M106.656 144.549C118.452 146.945 131.047 149.526 140.754 157.328C144.011 159.97 146.161 163.841 147.943 167.588C148.803 169.431 149.663 171.336 150.339 173.363C150.707 174.715 151.26 176.251 150.953 177.848C150.892 178.279 150.523 178.831 150.216 179.139C148.803 180.552 147.267 181.412 145.731 182.518C136.699 188.784 126.316 193.208 115.565 195.543C91.6041 200.765 65.6773 196.71 44.6041 184.115C37.6001 179.876 31.1492 174.715 25.6198 168.633C25.0054 167.896 25.0054 166.667 25.0054 165.868C25.0668 164.025 25.5583 162.243 26.1727 160.584C27.6472 156.775 29.5518 152.966 32.808 150.324C35.1426 148.727 37.6616 147.375 40.242 146.269C48.3518 142.829 56.8916 140.433 65.6773 139.45C66.4145 139.388 66.5374 140.433 65.8001 140.556C57.3831 142.276 49.0276 144.856 41.225 148.358C38.3988 149.771 35.3884 151 33.1152 153.212C30.9648 155.546 29.4289 158.434 28.2001 161.383C27.4015 163.165 26.8485 165.991 27.0943 167.404C30.9648 172.012 35.5113 176.067 40.4263 179.569C67.3361 198.369 108.192 199.597 136.822 183.931C139.403 182.518 141.922 180.92 144.318 179.262C145.485 178.463 146.714 177.787 147.635 176.865C147.697 176.804 147.635 176.865 147.635 176.927C147.635 176.988 147.574 177.05 147.574 177.05C147.635 176.312 147.39 175.329 147.082 174.346C145.977 170.783 144.195 167.035 142.29 163.779C139.28 158.926 134.181 155.854 129.02 153.396C125.456 151.737 121.709 150.447 117.899 149.218C114.09 147.99 110.22 146.945 106.349 146.024C105.366 145.778 105.673 144.365 106.656 144.549Z" fill="black"/>
<path d="M165.453 219.134H10.0762C10.0762 219.134 12.5951 193.822 22.1794 173.609C25.6814 166.236 26.8487 155.423 33.7912 150.693C40.918 145.839 56.0932 141.968 61.3768 141.354C64.3258 140.985 63.65 140.74 65.7389 140.187C66.4147 142.03 73.2343 160.093 89.5768 166.728C103.646 172.442 112.002 168.632 113.292 162.304C114.091 158.249 111.572 151.614 110.281 149.464C109.544 148.849 109.053 147.928 108.807 147.006L108.315 144.979C109.421 144.733 110.466 144.426 111.572 144.119C112.125 144.242 112.739 144.18 113.23 144.487C118.391 147.313 133.935 151.307 142.045 159.847C145.24 163.164 150.216 174.961 151.015 182.64C153.288 203.713 165.453 219.134 165.453 219.134Z" fill="white"/>
<path d="M166.313 219.503C120.235 219.626 55.5405 220.179 10.1379 219.995C9.58493 219.995 9.15486 219.503 9.2163 218.95C9.76924 214.588 10.5065 210.349 11.3666 206.048C13.6398 194.314 17.0804 182.763 22.2411 172.012C24.33 166.974 25.3745 161.69 27.8934 156.775C29.3679 153.826 31.5797 151 34.5287 149.341C39.2594 146.515 44.4817 144.733 49.7039 143.136C52.8372 142.214 56.032 141.354 59.2268 140.74C60.8241 140.371 62.4215 140.433 63.896 139.818C64.6947 139.511 66.2307 138.589 66.7222 139.757C71.2072 151.369 79.8699 162.366 91.9732 166.482C98.2398 168.755 109.114 170.66 112.309 162.98C113.292 160.093 112.371 156.959 111.51 154.072C111.019 152.597 110.405 151.061 109.667 149.833L109.852 150.017C108.746 149.095 108.131 147.621 107.947 146.269L107.64 145.04C107.517 144.549 107.824 144.057 108.316 143.935C109.422 143.75 110.527 143.382 111.633 143.074C112.248 143.074 113.231 143.197 114.029 143.627C120.788 146.761 128.467 149.034 134.918 152.966C138.543 155.116 142.229 157.635 144.564 161.26C148.865 168.448 151.629 176.62 152.428 184.914C154.148 196.771 158.94 208.137 165.822 217.906L166.067 218.213L166.19 218.336L166.252 218.397C166.252 218.397 166.252 218.336 166.313 218.52C166.374 218.889 166.374 219.319 166.313 219.503ZM164.654 218.705C164.531 218.889 164.531 219.319 164.654 219.503C164.777 219.626 164.716 219.565 164.716 219.565L164.654 219.503L164.531 219.319L164.286 219.012C160.415 213.114 157.22 206.786 154.886 200.212C153.042 195.358 151.691 190.32 150.954 185.159C150.708 183.316 150.401 180.859 149.971 179.077C148.557 173.179 146.284 167.281 143.028 162.182C141.984 160.523 140.448 159.233 138.912 158.004C134.058 154.318 128.344 152.044 122.692 149.833L116.917 147.682C115.012 146.945 112.739 146.146 111.572 144.979H112.063C110.957 145.348 109.852 145.655 108.746 145.901L109.422 144.795L109.729 146.023C109.974 147.129 110.22 148.112 111.08 148.85C111.142 148.911 111.203 148.972 111.265 149.034C112.923 152.044 113.906 155.178 114.398 158.557C115.442 164.393 111.756 169.001 106.104 170.107C98.3013 171.643 88.9627 168.264 82.5117 163.902C74.4019 158.188 68.5653 149.71 65.0019 140.555L66.1078 141.108C65.5549 141.293 65.1862 141.477 64.6333 141.723C64.0804 142.03 63.4045 142.214 62.7902 142.337C62.8516 142.706 62.6673 141.6 62.913 143.074C61.7457 143.197 60.8241 143.259 59.7183 143.505C56.5849 143.996 53.4516 144.733 50.3797 145.593C46.2634 146.699 42.2085 148.051 38.3993 149.833C36.4947 150.754 34.6516 151.737 33.2385 153.027C31.764 154.318 30.5967 156.038 29.6137 157.881C26.7261 163.472 25.313 170.169 22.364 175.821C16.2202 189.522 12.7797 204.451 11.1209 219.38L10.1993 218.397C54.8032 218.213 119.313 218.459 164.654 218.705Z" fill="black"/>
<path d="M115.566 178.954C113.415 179.569 105.92 171.766 104.384 170.414C102.971 172.012 93.0178 183.255 88.1028 182.518C82.6962 181.719 68.8727 172.442 61.8688 157.881C57.9982 149.894 57.8753 145.04 58.3054 142.399C58.4897 141.17 58.8583 140.371 59.0427 139.941C59.657 138.528 64.0806 133.06 65.1864 133.121V133.183C65.7394 139.081 67.644 144.795 70.8387 149.771C74.7708 155.854 80.976 163.165 89.6387 166.667C103.708 172.38 111.019 166.728 112.248 160.4C113.047 156.345 111.634 151.553 110.343 149.403C109.606 148.788 109.115 147.867 108.869 146.945L108.377 144.918C109.483 144.672 110.528 144.365 111.634 144.057C111.941 143.935 112.309 143.873 112.617 143.75C112.801 143.996 113.047 144.242 113.231 144.487C115.811 147.437 118.515 151.491 119.989 158.372C122.447 169.37 117.962 178.217 115.566 178.954Z" fill="black"/>
<path d="M104.199 170.046C104.199 170.046 108.684 172.626 108.561 174.776C108.438 176.927 109.729 183.746 109.729 183.746" stroke="black" stroke-width="3" stroke-miterlimit="10" stroke-linecap="round" stroke-linejoin="round"/>
<path d="M104.138 178.217C104.952 178.217 105.613 177.557 105.613 176.742C105.613 175.928 104.952 175.268 104.138 175.268C103.324 175.268 102.664 175.928 102.664 176.742C102.664 177.557 103.324 178.217 104.138 178.217Z" fill="black"/>
<path d="M104.629 183.992C105.444 183.992 106.104 183.332 106.104 182.518C106.104 181.703 105.444 181.043 104.629 181.043C103.815 181.043 103.155 181.703 103.155 182.518C103.155 183.332 103.815 183.992 104.629 183.992Z" fill="black"/>
<path d="M40.4879 219.135L37.7231 196.341" stroke="#544D4D" stroke-width="3" stroke-miterlimit="10" stroke-linecap="round" stroke-linejoin="round"/>
<path d="M147.82 188.6C147.82 188.6 145.977 193.085 146.53 197.57C147.083 202.055 148.68 208.629 146.407 219.135" stroke="#544D4D" stroke-width="3" stroke-miterlimit="10" stroke-linecap="round" stroke-linejoin="round"/>
<path d="M65.1859 133.122C65.1859 133.122 85.0304 126.978 112.677 143.689C112.677 143.689 120.296 164.209 115.565 167.342C110.834 170.476 95.9663 170.783 85.5833 167.342C75.1389 163.963 61.7454 147.068 65.1859 133.122Z" fill="black"/>
<path d="M112.431 160.892C111.141 167.22 102.785 171.029 88.7162 165.315C74.0939 159.417 67.7658 145.348 66.1685 141.17C74.8312 124.95 68.8103 113.707 68.8103 113.707C88.7776 111.987 106.226 135.333 106.226 135.333L108.929 146.884C109.175 147.867 109.666 148.727 110.404 149.341C111.694 151.614 113.23 156.837 112.431 160.892Z" fill="white"/>
<path d="M65.8617 141.354C67.029 139.573 67.7663 137.484 68.2578 135.456C69.1793 131.217 69.4865 126.916 69.548 122.616V121.018C69.3637 119.421 68.8107 117.762 68.1963 116.288C67.3976 114.322 70.2852 113.093 71.2068 115.059C71.3297 115.305 71.3297 115.735 71.3297 115.98C71.514 124.336 71.8826 135.088 66.599 142.03C66.2303 142.399 65.4931 141.846 65.8617 141.354Z" fill="black"/>
<path d="M106.902 135.211C107.823 135.764 108.131 136.501 108.254 137.238C108.622 138.713 108.499 140.31 108.868 141.846C109.175 143.32 110.097 144.733 110.342 146.269C110.65 147.867 111.571 151.246 111.94 152.905C112.063 153.273 111.817 153.703 111.387 153.765C111.141 153.826 110.957 153.765 110.773 153.642C109.974 152.966 109.605 152.29 109.114 151.43C108.315 149.956 107.762 148.604 107.271 146.945C106.84 145.471 107.025 143.873 106.656 142.337C106.349 140.863 105.489 139.45 105.182 137.914C104.997 137.177 104.936 136.378 105.489 135.456C105.857 135.088 106.472 134.965 106.902 135.211Z" fill="black"/>
<path d="M111.326 151.43C99.5913 150.816 90.007 147.13 80.6685 130.48C88.5325 137.422 97.8096 140.064 107.578 141.293L108.868 146.945C109.114 147.928 110.589 150.816 111.326 151.43Z" fill="black"/>
<path d="M110.835 149.157C112.923 153.089 114.152 158.004 112.862 162.366C111.879 165.438 109.053 167.711 105.981 168.571C98.8541 170.476 90.6215 167.466 84.2934 164.086C76.4907 159.724 70.7156 152.413 67.0293 144.426C66.7836 143.812 67.6437 143.32 68.0123 143.935C69.3025 146.515 70.777 149.034 72.4358 151.307C74.0947 153.642 75.9992 155.792 78.1496 157.697C84.4162 163.349 92.8947 166.851 101.373 166.851C110.097 166.605 113.415 161.998 111.387 153.519C111.08 152.167 110.589 150.754 109.913 149.587C109.544 149.096 110.466 148.543 110.835 149.157Z" fill="black"/>
<path d="M134.611 75.37C135.716 80.5308 136.269 84.7086 133.259 98.4707C130.31 112.171 137.498 114.997 120.48 136.931C113.537 145.901 96.7034 143.382 83.0641 134.105C78.4563 130.971 76.4903 122.923 73.0498 117.209C70.3465 112.724 69.1177 117.394 65.5543 113.523C60.7007 108.239 54.8641 97.6105 57.7517 78.8105C62.421 48.3373 86.5661 44.7739 104.445 48.153C122.446 51.5935 131.662 61.7922 134.611 75.37Z" fill="white"/>
<path d="M68.6262 118.991C67.2131 116.595 65.37 114.506 63.6497 112.294C61.9909 110.021 60.6392 107.502 59.5334 104.922C52.2222 86.9818 55.0484 61.7308 72.9883 51.1635C80.4222 46.8628 89.3922 45.8184 97.7477 46.4942C115.626 47.7844 132.03 56.0171 135.901 74.94C137.99 83.2955 135.163 91.8968 133.566 100.068C132.829 104.123 133.443 108.301 133.382 112.479C133.32 116.718 132.153 120.957 130.556 124.889C129.573 127.592 127.852 129.988 126.071 132.2C123.122 135.763 120.173 139.388 116.425 142.153C115.565 142.767 114.029 143.075 112.984 143.197C110.097 143.628 107.271 143.75 104.383 143.566C93.0785 143.075 80.9752 137.607 76.4288 126.671C76.2445 126.241 76.8588 125.933 77.1046 126.302C83.0026 135.641 93.8157 140.248 104.567 140.863C107.885 141.047 111.264 140.986 114.52 140.31C116.118 139.511 117.531 138.098 118.882 136.808C122.2 133.49 125.579 129.927 127.975 125.872C130.863 120.404 132.46 114.445 131.969 108.239C131.846 105.475 131.784 102.587 132.337 99.8223C132.829 97.0576 133.443 94.4158 133.812 91.5896C134.18 88.8864 134.365 86.1217 134.365 83.4184C134.058 75.4929 131.477 67.3217 126.439 61.1779C115.319 47.3543 89.0236 43.7295 74.217 53.1909C64.8785 58.9661 60.5164 69.7792 59.1033 80.2851C56.953 92.8798 57.5673 105.29 67.5817 114.445L70.5307 117.516C71.6981 118.868 69.6092 120.465 68.6262 118.991Z" fill="black"/>
<path d="M75.8756 99.4536C75.8756 99.4536 73.971 90.238 65.0011 91.3438C57.2599 92.3268 54.5566 110.881 72.1279 116.042" fill="white"/>
<path d="M71.3293 107.994C69.9162 107.195 68.9332 105.843 68.8718 104.184C68.9332 102.956 69.1176 101.543 68.8104 100.314C68.6261 99.1466 67.3973 98.8394 66.4757 98.9008C65.4927 99.0851 64.8783 100.314 64.694 101.297C64.694 101.358 64.6326 101.543 64.6326 101.604C64.5711 101.911 64.0796 101.911 63.9568 101.604C63.1581 99.208 64.9398 96.5662 67.5202 96.8733C71.145 97.1191 71.6365 100.928 70.9607 103.816C70.5921 105.045 71.0836 106.15 71.7594 107.195L71.8823 107.379C72.1894 107.748 71.6979 108.239 71.3293 107.994Z" fill="black"/>
<path d="M120.48 92.9412C121.401 97.3033 123.121 101.358 125.272 105.167C127.176 109.837 122.261 114.26 117.899 114.076C117.408 114.076 117.346 113.4 117.776 113.277C120.541 112.417 123.06 110.574 123.49 107.748C123.674 106.888 123.429 106.15 122.999 105.413C120.971 101.604 119.742 97.2419 120.05 92.9412C120.05 92.634 120.48 92.634 120.48 92.9412Z" fill="black"/>
<path d="M75.5686 99.5151C74.1555 95.8902 71.0836 92.4497 66.9673 92.5112C66.5987 92.4497 65.9843 92.5726 65.6157 92.5726C64.5712 92.634 63.7111 93.0027 62.9124 93.7399C58.9804 97.6719 59.6562 104.614 62.8509 108.977C63.9568 110.512 65.3699 111.864 66.9673 112.97C68.5647 114.076 70.3464 114.936 72.2509 115.673C72.681 115.796 72.4967 116.472 72.0666 116.41C67.9503 115.55 64.0183 113.523 61.315 110.144C57.1372 105.106 56.2771 96.6889 61.2536 91.7739C62.3594 90.7909 63.8954 90.0536 65.4313 90.0536C65.9228 90.0536 66.6601 89.9308 67.1516 90.0536C69.732 90.1765 72.1895 91.4667 73.7869 93.4942C75.2 95.2144 75.9987 97.3033 76.2444 99.3922C76.2444 99.7608 75.6915 99.8837 75.5686 99.5151Z" fill="black"/>
<path d="M114.397 119.974C114.459 120.957 113.721 122.677 112.37 123.906C105.427 119.667 102.294 121.878 102.294 121.878C99.8363 118.131 100.389 113.031 106.349 116.902C110.465 119.605 113.045 120.035 114.397 119.974Z" fill="black"/>
<path d="M112.308 123.967C110.834 125.257 108.622 126.056 105.612 124.827C104.198 124.274 103.093 123.169 102.232 121.94C102.294 121.94 105.366 119.728 112.308 123.967Z" fill="white"/>
<path d="M115.564 119.789C115.564 119.789 112.984 121.203 106.349 116.963C98.4231 111.864 100.021 122.554 105.611 124.827C111.448 127.223 114.458 122.001 114.397 120.035" stroke="black" stroke-width="3" stroke-miterlimit="10" stroke-linecap="round" stroke-linejoin="round"/>
<path d="M102.294 121.94C102.294 121.94 105.427 119.728 112.37 123.967" stroke="black" stroke-width="3" stroke-miterlimit="10" stroke-linecap="round" stroke-linejoin="round"/>
<path d="M106.594 86.4288C107.946 86.6131 108.99 85.2 108.499 83.8484C108.253 83.1111 107.823 82.4353 107.147 82.0052C105.058 80.715 97.2558 80.5922 93.1394 83.5412C89.4532 86.2445 100.451 85.5686 106.594 86.4288Z" fill="black"/>
<path d="M123.613 87.1046C122.507 87.1046 121.831 85.6915 122.384 84.5242C122.691 83.9098 123.121 83.3569 123.736 83.0497C125.64 82.1281 130.739 82.6811 133.013 85.8144C135.04 88.5791 128.712 87.0431 123.613 87.1046Z" fill="black"/>
<path d="M104.321 94.3543C101.188 93.0026 97.6244 93.3713 94.3682 94.1085C93.9996 94.2314 93.7538 93.7399 94.061 93.4941C96.8872 91.1595 102.232 90.8523 104.505 94.0471C104.69 94.1699 104.567 94.4157 104.321 94.3543Z" fill="black"/>
<path d="M128.466 95.6444C126.992 94.6 124.842 94.7843 123.121 94.9686C122.507 95.0301 121.893 95.1529 121.217 95.3372C121.032 95.3987 120.848 95.0915 120.971 94.9686L121.094 94.8458C122.63 93.2484 125.026 92.8797 127.115 93.6784C127.852 93.9856 128.589 94.4157 128.958 95.2758C129.142 95.583 128.712 95.8902 128.466 95.6444Z" fill="black"/>
<path d="M136.638 70.0862C137.806 69.5947 136.515 62.2221 137.56 61.5463C138.174 49.3202 139.649 53.3751 124.658 45.6339C100.451 33.1006 66.5992 38.1999 54.0044 53.6823C43.3142 66.7071 46.4475 73.5267 43.7442 82.7424C41.1024 91.6509 29.1835 91.8967 34.6514 110.328C37.4161 119.667 26.2959 124.582 28.7534 140.31C45.8946 147.989 63.773 151.614 82.0201 152.72C86.9965 140.494 71.6371 137.729 71.4527 119.482C71.4527 118.254 71.5142 117.086 71.6371 115.98C54.6188 110.635 57.3835 92.4496 65.0632 91.4666C70.4083 90.7908 73.2344 93.8012 74.6475 96.3202C74.7704 96.6888 74.9547 96.996 75.139 97.3646C77.4737 101.358 89.8227 97.7333 98.1168 88.0875C107.025 77.7659 106.349 78.5646 110.834 72.3594C119.866 59.9489 128.467 67.9973 130.925 69.2875C138.42 73.0967 131.293 65.4784 132.031 66.4614C135.164 70.7006 132.276 72.2365 136.638 70.0862Z" fill="black"/>
<path d="M75.139 97.2417C74.9547 96.9345 74.7703 96.5659 74.6475 96.1973C74.8318 96.5659 75.0161 96.9345 75.139 97.2417Z" fill="black"/>
<path d="M132.031 67.6287C133.567 76.5372 145.055 69.1646 139.772 53.0064C136.7 43.6064 125.518 41.5176 114.091 43.9136C94.4306 48.03 126.317 43.2993 128.283 57.4914C129.266 64.7411 130.556 59.0274 132.031 67.6287Z" fill="black"/>
</g>
<path d="M0.704 21H8.304V19.432H5.36C4.784 19.432 4.048 19.48 3.44 19.544C5.936 17.16 7.744 14.808 7.744 12.536C7.744 10.408 6.352 9 4.192 9C2.656 9 1.616 9.672 0.608 10.76L1.648 11.784C2.272 11.064 3.04 10.472 3.968 10.472C5.28 10.472 5.968 11.352 5.968 12.632C5.968 14.568 4.176 16.856 0.704 19.928V21ZM9.669 21H17.269V19.432H14.325C13.749 19.432 13.013 19.48 12.405 19.544C14.901 17.16 16.709 14.808 16.709 12.536C16.709 10.408 15.317 9 13.157 9C11.621 9 10.581 9.672 9.573 10.76L10.613 11.784C11.237 11.064 12.005 10.472 12.933 10.472C14.245 10.472 14.933 11.352 14.933 12.632C14.933 14.568 13.141 16.856 9.669 19.928V21ZM19.562 9.304V10.648H24.714C24.426 13.976 22.634 16.52 18.842 18.344L19.722 19.656C24.682 17.256 26.41 13.608 26.41 9.304H19.562ZM29.018 7.784V22.232H30.666V7.784H29.018Z" fill="#8B6517"/>
</svg>
