<svg width="188" height="234" viewBox="0 0 188 234" fill="none" xmlns="http://www.w3.org/2000/svg">
<path d="M80.6023 211.3V221.74H83.2623V211.3H80.6023ZM71.0023 222.56V229.5H83.2623V222.56H71.0023ZM80.6823 224.62V227.44H73.6023V224.62H80.6823ZM73.2423 212.14C70.3823 212.14 68.2223 213.98 68.2223 216.58C68.2223 219.16 70.3823 221 73.2423 221C76.1023 221 78.2423 219.16 78.2423 216.58C78.2423 213.98 76.1023 212.14 73.2423 212.14ZM73.2423 214.34C74.6223 214.34 75.6623 215.18 75.6623 216.58C75.6623 217.96 74.6223 218.8 73.2423 218.8C71.8423 218.8 70.8023 217.96 70.8023 216.58C70.8023 215.18 71.8423 214.34 73.2423 214.34ZM101.981 216.72C97.8608 216.2 95.8408 214.08 95.8408 212.16V211.62H93.1208V212.16C93.1208 214.1 91.1008 216.2 86.9808 216.72L87.9408 218.78C91.0608 218.34 93.3208 217 94.4808 215.22C95.6608 217 97.9008 218.34 101.041 218.78L101.981 216.72ZM94.4408 227.76C91.9808 227.76 90.7208 227.34 90.7208 226.4C90.7208 225.46 91.9808 225.04 94.4408 225.04C96.9008 225.04 98.1608 225.46 98.1608 226.4C98.1608 227.34 96.9008 227.76 94.4408 227.76ZM94.4408 223.06C90.4608 223.06 88.0608 224.26 88.0608 226.4C88.0608 228.54 90.4608 229.76 94.4408 229.76C98.4208 229.76 100.841 228.54 100.841 226.4C100.841 224.26 98.4208 223.06 94.4408 223.06ZM86.1608 219.76V221.84H102.801V219.76H86.1608ZM121.019 220.22H118.379C118.899 217.2 118.899 215.06 118.899 213.5V212.32H106.319V214.46H116.279C116.259 215.9 116.179 217.76 115.719 220.22H104.379V222.36H108.099V229.76H110.719V222.36H114.479V229.76H117.099V222.36H121.019V220.22Z" fill="#111111"/>
<path d="M0 104C0 52.0852 42.0852 10 94 10C145.915 10 188 52.0852 188 104V178C188 189.046 179.046 198 168 198H20C8.9543 198 0 189.046 0 178V104Z" fill="#FFE1A4"/>
<mask id="mask0_322_1494" style="mask-type:alpha" maskUnits="userSpaceOnUse" x="0" y="10" width="188" height="188">
<path d="M0 10H188V178C188 189.046 179.046 198 168 198H20C8.9543 198 0 189.046 0 178V10Z" fill="#D9D9D9"/>
</mask>
<g mask="url(#mask0_322_1494)">
<path d="M145.055 181.043C144.625 181.35 144.133 181.658 143.703 181.965C143.212 182.272 142.782 182.579 142.29 182.825C141.86 183.071 141.491 183.316 141.061 183.562C141 183.624 140.938 183.624 140.877 183.685C139.464 184.545 137.989 185.344 136.515 186.081C136.085 186.327 135.593 186.573 135.163 186.757C135.163 186.757 135.102 186.818 135.04 186.818C134.549 187.064 134.057 187.31 133.566 187.556C132.583 188.047 131.538 188.477 130.555 188.907C130.064 189.153 129.511 189.337 129.02 189.522C128.528 189.706 127.975 189.952 127.484 190.136C126.992 190.32 126.439 190.566 125.948 190.75C125.948 190.75 125.948 190.75 125.886 190.75C125.395 190.935 124.842 191.119 124.35 191.303C123.244 191.672 122.077 192.041 120.971 192.409C120.603 192.532 120.172 192.655 119.804 192.778C118.637 193.146 117.469 193.454 116.302 193.699C115.872 193.822 115.442 193.884 114.95 194.007C113.844 194.252 112.677 194.498 111.571 194.744C111.325 194.805 111.141 194.805 110.895 194.867C110.527 194.928 110.097 194.99 109.728 195.051C109.175 195.112 108.684 195.235 108.131 195.297C107.885 195.358 107.639 195.358 107.393 195.42C107.086 195.481 106.718 195.543 106.349 195.543C105.366 195.665 104.322 195.788 103.338 195.911C103.031 195.973 102.663 195.973 102.355 196.034H102.294C101.864 196.095 101.434 196.095 101.004 196.157C100.574 196.218 100.144 196.218 99.7137 196.218C99.4679 196.218 99.1607 196.28 98.915 196.28C98.4235 196.28 97.9934 196.341 97.5633 196.341C96.949 196.341 96.396 196.403 95.7816 196.403C95.1673 196.403 94.6143 196.403 93.9999 196.403C93.5699 196.403 93.1398 196.403 92.7097 196.403C66.7829 196.034 43.498 185.037 26.8483 167.588C26.8483 167.588 26.8483 167.527 26.7869 167.527C24.9437 165.868 26.5411 157.021 33.9751 151.43C43.3137 144.365 65.6771 139.941 65.6771 139.941C65.6771 139.941 74.3398 138.528 106.472 145.225C125.272 149.157 139.587 154.871 147.574 170.353C149.233 173.548 150.891 178.463 145.055 181.043Z" fill="white"/>
<path d="M106.656 144.549C118.452 146.945 131.047 149.526 140.754 157.328C144.011 159.97 146.161 163.841 147.943 167.588C148.803 169.431 149.663 171.336 150.339 173.363C150.707 174.715 151.26 176.251 150.953 177.848C150.892 178.279 150.523 178.831 150.216 179.139C148.803 180.552 147.267 181.412 145.731 182.518C136.699 188.784 126.316 193.208 115.565 195.543C91.6041 200.765 65.6773 196.71 44.6041 184.115C37.6001 179.876 31.1492 174.715 25.6198 168.633C25.0054 167.896 25.0054 166.667 25.0054 165.868C25.0668 164.025 25.5583 162.243 26.1727 160.584C27.6472 156.775 29.5518 152.966 32.808 150.324C35.1426 148.727 37.6616 147.375 40.242 146.269C48.3518 142.829 56.8916 140.433 65.6773 139.45C66.4145 139.388 66.5374 140.433 65.8001 140.556C57.3831 142.276 49.0276 144.856 41.225 148.358C38.3988 149.771 35.3884 151 33.1152 153.212C30.9648 155.546 29.4289 158.434 28.2001 161.383C27.4015 163.165 26.8485 165.991 27.0943 167.404C30.9648 172.012 35.5113 176.067 40.4263 179.569C67.3361 198.369 108.192 199.597 136.822 183.931C139.403 182.518 141.922 180.92 144.318 179.262C145.485 178.463 146.714 177.787 147.635 176.865C147.697 176.804 147.635 176.865 147.635 176.927C147.635 176.988 147.574 177.05 147.574 177.05C147.635 176.312 147.39 175.329 147.082 174.346C145.977 170.783 144.195 167.035 142.29 163.779C139.28 158.926 134.181 155.854 129.02 153.396C125.456 151.737 121.709 150.447 117.899 149.218C114.09 147.99 110.22 146.945 106.349 146.024C105.366 145.778 105.673 144.365 106.656 144.549Z" fill="black"/>
<path d="M54.7412 139.388C54.7412 139.388 63.7111 135.825 65.37 135.702L65.4928 137.115C65.4928 137.115 58.366 140.187 57.936 140.678C57.5674 141.108 54.7412 139.388 54.7412 139.388Z" fill="#7E5D6D"/>
<path d="M165.452 219.134H10.0757C10.0757 219.134 14.1306 190.32 23.5306 170.046C30.5959 154.686 44.358 144.856 56.7685 140.433C60.2705 139.204 62.9737 137.852 65.4927 137.176C65.4927 137.299 76.7972 135.333 85.9515 136.378C100.267 137.975 114.889 142.829 115.073 142.767C122.999 144.856 132.706 150.754 146.775 162.55C162.626 175.821 165.452 219.134 165.452 219.134Z" fill="white"/>
<mask id="mask1_322_1494" style="mask-type:alpha" maskUnits="userSpaceOnUse" x="10" y="136" width="156" height="84">
<path d="M165.452 219.134H10.0757C10.0757 219.134 14.1306 190.32 23.5306 170.046C30.5959 154.686 44.358 144.856 56.7685 140.433C60.2705 139.204 62.9737 137.852 65.4927 137.176C65.4927 137.299 76.7972 135.333 85.9515 136.378C100.267 137.975 114.889 142.829 115.073 142.767C122.999 144.856 132.706 150.754 146.775 162.55C162.626 175.821 165.452 219.134 165.452 219.134Z" fill="white"/>
</mask>
<g mask="url(#mask1_322_1494)">
<path d="M42.0234 135.763C45.4025 135.886 47.1228 135.948 50.5019 135.886C53.5123 137.668 54.9868 138.528 58.0587 140.187C61.1921 140.002 62.7895 139.88 65.9228 139.511C69.0561 140.985 70.5921 141.723 73.7254 143.136C76.9202 142.644 78.5175 142.337 81.6509 141.723C84.8457 142.951 86.5045 143.504 89.6993 144.549C92.894 143.75 94.4914 143.259 97.6862 142.337C101.004 143.197 102.663 143.627 105.98 144.364C109.175 143.197 110.772 142.644 113.967 141.354C117.346 141.907 119.067 142.153 122.446 142.583C125.579 141.108 127.176 140.371 130.31 138.774C133.75 138.958 135.47 139.019 138.911 139.081C141.983 137.238 143.519 136.316 146.591 134.412C150.461 134.104 152.366 133.92 156.236 133.49C155.929 134.965 155.806 135.702 155.561 137.176C152.366 137.545 150.707 137.729 147.512 137.975C144.379 139.941 142.843 140.924 139.648 142.767C136.146 142.767 134.426 142.706 130.924 142.521C127.729 144.119 126.132 144.917 122.937 146.392C119.497 145.962 117.776 145.716 114.336 145.225C111.141 146.515 109.482 147.129 106.287 148.235C102.908 147.498 101.25 147.068 97.9319 146.208C94.7372 147.129 93.0783 147.621 89.8836 148.419C86.6274 147.314 84.9685 146.761 81.7123 145.532C78.5176 146.146 76.9202 146.453 73.664 146.945C70.4692 145.532 68.9332 144.856 65.7385 143.32C62.5437 143.627 60.9463 143.75 57.813 143.934C54.7411 142.276 53.2051 141.415 50.1947 139.572C47.3685 139.572 45.9555 139.572 43.1293 139.449C42.6993 138.036 42.4535 137.299 42.0234 135.763Z" fill="black"/>
<path d="M41.1636 151.369C44.5427 151.43 46.2015 151.43 49.642 151.307C52.7139 153.028 54.2498 153.826 57.3217 155.424C60.4551 155.178 61.991 154.994 65.1244 154.563C68.2577 155.977 69.8551 156.652 73.0498 157.943C76.1832 157.39 77.7191 157.021 80.9139 156.345C84.1701 157.451 85.8289 158.004 89.0851 158.987C92.2185 158.065 93.8159 157.635 96.9492 156.591C100.267 157.39 101.987 157.758 105.305 158.434C108.438 157.205 109.974 156.591 113.107 155.239C116.548 155.731 118.207 155.915 121.647 156.222C124.719 154.686 126.255 153.888 129.327 152.229C132.767 152.352 134.549 152.352 137.99 152.29C141 150.447 142.475 149.464 145.485 147.498C149.356 147.129 151.322 146.945 155.192 146.392C154.947 147.867 154.885 148.604 154.639 150.017C151.383 150.447 149.786 150.631 146.591 150.939C143.519 152.966 142.045 153.949 138.973 155.854C135.471 155.915 133.689 155.915 130.187 155.792C127.054 157.451 125.518 158.25 122.384 159.847C118.944 159.54 117.162 159.356 113.722 158.864C110.588 160.216 108.991 160.83 105.796 162.059C102.417 161.383 100.697 161.014 97.3178 160.216C94.123 161.26 92.5871 161.69 89.3923 162.612C86.0747 161.629 84.4159 161.076 81.1597 159.97C77.9649 160.646 76.4289 161.014 73.2342 161.567C70.0394 160.277 68.3806 159.601 65.1858 158.127C62.0525 158.495 60.4551 158.68 57.3217 158.987C54.1884 157.39 52.6525 156.529 49.5806 154.809C46.7544 154.871 45.3414 154.932 42.5766 154.871C41.9623 153.519 41.7165 152.782 41.1636 151.369Z" fill="black"/>
<path d="M40.3032 166.728C43.6209 166.667 45.3411 166.605 48.7202 166.482C51.7921 168.141 53.3895 168.94 56.5228 170.414C59.5947 170.046 61.1307 169.861 64.2026 169.37C67.3973 170.721 68.9947 171.336 72.2509 172.565C75.3228 171.889 76.8588 171.582 79.9921 170.783C83.3098 171.827 84.9686 172.319 88.2862 173.24C91.3581 172.257 92.8941 171.766 95.966 170.721C99.3451 171.459 101.065 171.766 104.444 172.38C107.516 171.09 109.052 170.476 112.063 169.063C115.503 169.431 117.223 169.616 120.664 169.861C123.674 168.264 125.21 167.465 128.159 165.745C131.661 165.745 133.382 165.745 136.884 165.622C139.833 163.717 141.307 162.734 144.195 160.768C148.065 160.338 150.031 160.093 153.902 159.478C153.718 160.891 153.656 161.629 153.533 163.103C150.277 163.595 148.68 163.84 145.423 164.209C142.474 166.236 140.939 167.281 137.99 169.185C134.426 169.308 132.644 169.37 129.142 169.308C126.071 171.029 124.596 171.827 121.524 173.486C118.022 173.24 116.302 173.117 112.8 172.687C109.728 174.1 108.192 174.776 105.059 176.066C101.618 175.514 99.898 175.145 96.5189 174.408C93.3856 175.514 91.8496 176.005 88.7163 176.988C85.3372 176.066 83.6784 175.575 80.3607 174.531C77.2274 175.329 75.6915 175.698 72.5581 176.312C69.3019 175.084 67.6431 174.408 64.4483 173.056C61.315 173.548 59.779 173.732 56.6457 174.1C53.4509 172.565 51.915 171.766 48.7817 170.107C46.017 170.23 44.6039 170.291 41.8392 170.353C41.1634 168.94 40.9176 168.202 40.3032 166.728Z" fill="black"/>
<path d="M39.3818 182.026C42.6995 181.903 44.3583 181.78 47.676 181.535C50.8093 183.132 52.4067 183.869 55.6014 185.282C58.6119 184.852 60.1479 184.606 63.2197 184.053C66.476 185.344 68.1348 185.958 71.391 187.064C74.4014 186.327 75.9374 185.958 79.0093 185.098C82.3269 186.081 84.0472 186.511 87.3648 187.31C90.3753 186.265 91.9113 185.712 94.9217 184.606C98.3622 185.221 100.021 185.528 103.462 186.019C106.472 184.668 107.947 183.992 110.957 182.579C114.459 182.886 116.179 183.009 119.681 183.193C122.63 181.596 124.105 180.736 127.054 179.016C130.556 178.954 132.337 178.893 135.839 178.708C138.727 176.804 140.14 175.821 142.966 173.793C146.898 173.302 148.864 172.995 152.735 172.319C152.612 173.732 152.612 174.469 152.489 175.882C149.233 176.435 147.635 176.681 144.379 177.111C141.492 179.2 140.017 180.183 137.13 182.149C133.566 182.333 131.784 182.395 128.221 182.456C125.272 184.238 123.736 185.098 120.787 186.695C117.285 186.511 115.503 186.45 112.001 186.142C108.991 187.617 107.455 188.293 104.445 189.644C100.943 189.153 99.2224 188.846 95.7818 188.231C92.7099 189.399 91.174 189.952 88.1021 190.996C84.723 190.197 83.0028 189.706 79.6237 188.784C76.5518 189.644 75.0158 190.013 71.9439 190.75C68.6263 189.583 66.9675 189.03 63.6498 187.74C60.5779 188.293 59.042 188.538 55.9701 188.969C52.7139 187.494 51.1165 186.757 47.9831 185.159C45.2184 185.405 43.8668 185.467 41.1021 185.589C40.4263 184.176 40.0577 183.439 39.3818 182.026Z" fill="black"/>
<path d="M38.5215 197.14C41.7777 196.894 43.4365 196.771 46.7542 196.402C49.9489 197.877 51.5463 198.614 54.8025 199.966C57.813 199.474 59.2875 199.167 62.298 198.553C65.6156 199.72 67.2744 200.334 70.5921 201.379C73.6025 200.58 75.077 200.15 78.0261 199.229C81.4051 200.089 83.1254 200.519 86.5045 201.256C89.4535 200.15 90.928 199.597 93.9385 198.368C97.379 198.921 99.0993 199.167 102.601 199.597C105.55 198.184 106.963 197.508 109.912 196.034C113.414 196.28 115.196 196.341 118.698 196.464C121.586 194.805 122.999 193.945 125.886 192.163C129.45 192.04 131.17 191.979 134.733 191.733C137.498 189.767 138.911 188.784 141.676 186.757C145.608 186.204 147.574 185.897 151.506 185.159C151.444 186.572 151.444 187.248 151.383 188.661C148.127 189.276 146.529 189.521 143.273 190.013C140.447 192.102 139.034 193.146 136.208 195.112C132.644 195.419 130.801 195.481 127.238 195.604C124.35 197.385 122.876 198.307 119.988 199.966C116.425 199.904 114.643 199.843 111.08 199.597C108.131 201.133 106.656 201.809 103.707 203.222C100.205 202.792 98.4234 202.546 94.9215 201.993C91.911 203.222 90.4365 203.775 87.4261 204.881C83.9855 204.144 82.2653 203.714 78.8248 202.853C75.8143 203.775 74.2783 204.205 71.2679 205.004C67.8888 203.959 66.23 203.406 62.8509 202.178C59.8404 202.792 58.3045 203.099 55.294 203.591C52.0378 202.239 50.379 201.502 47.1228 200.027C44.4195 200.334 43.0679 200.457 40.3646 200.642C39.6274 199.29 39.2587 198.553 38.5215 197.14Z" fill="black"/>
<path d="M37.5386 212.131C40.7948 211.823 42.3922 211.639 45.6484 211.209C48.9046 212.622 50.5634 213.298 53.8196 214.588C56.7686 213.974 58.2431 213.667 61.1922 212.991C64.5713 214.097 66.2301 214.65 69.6092 215.633C72.5582 214.772 73.9713 214.281 76.9203 213.298C80.3608 214.097 82.0811 214.465 85.5216 215.141C88.4092 213.974 89.8837 213.359 92.7713 212.131C96.2732 212.622 97.9935 212.806 101.495 213.175C104.383 211.762 105.796 211.025 108.622 209.489C112.186 209.673 113.906 209.673 117.469 209.735C120.295 208.014 121.647 207.154 124.473 205.372C128.037 205.188 129.818 205.065 133.382 204.758C136.085 202.792 137.437 201.748 140.14 199.72C144.072 199.106 146.099 198.799 150.031 198C150.031 199.352 150.031 200.089 150.093 201.44C146.837 202.055 145.239 202.362 141.983 202.853C139.218 204.942 137.867 205.987 135.102 208.014C131.477 208.383 129.695 208.506 126.071 208.69C123.244 210.533 121.831 211.393 119.005 213.175C115.442 213.175 113.599 213.114 110.035 212.991C107.148 214.527 105.735 215.325 102.786 216.738C99.2222 216.431 97.4405 216.186 93.9386 215.755C90.9895 217.046 89.515 217.66 86.6275 218.827C83.1255 218.152 81.4052 217.783 77.9033 216.984C74.9543 217.967 73.4798 218.459 70.5307 219.319C67.0902 218.336 65.4314 217.844 61.9909 216.738C59.0418 217.476 57.5059 217.783 54.5569 218.397C51.2392 217.107 49.5804 216.431 46.2628 215.018C43.5595 215.387 42.2693 215.571 39.566 215.817C38.8288 214.281 38.3987 213.544 37.5386 212.131Z" fill="black"/>
</g>
<path d="M166.62 220.179C120.48 220.302 55.6014 220.793 10.1373 220.67C9.21576 220.67 8.41707 219.81 8.60138 218.889C10.8131 205.68 13.885 192.716 18.3086 180.06C22.9164 166.544 29.3674 156.099 41.2249 147.744C46.6929 143.812 52.8367 141.047 59.1033 138.835C61.1308 138.036 63.2197 137.176 65.4315 136.562L66.0458 136.992V136.931C66.0458 136.623 65.4315 136.439 65.6158 136.501V136.439C65.6772 136.316 65.8001 136.255 65.8615 136.132C66.5373 135.395 67.5203 135.149 68.5033 135.087C69.5478 134.965 70.5922 134.842 71.6981 134.719C75.9373 134.227 80.238 134.104 84.5386 134.535C88.8393 135.026 92.9556 135.825 97.1334 136.746C103.154 138.098 109.114 140.064 115.012 141.846L115.196 141.907H115.258C115.258 141.907 115.319 141.907 115.258 141.907C115.258 141.907 115.196 141.907 115.135 141.907C115.073 141.907 115.012 141.907 114.95 141.969H115.38C123.49 144.119 130.494 148.788 137.252 153.642C140.57 156.099 143.826 158.618 147.021 161.26C150.339 163.84 152.919 167.404 154.946 171.09C158.94 178.401 161.397 186.45 163.302 194.498C165.022 202.055 166.251 209.735 167.05 217.414L167.111 218.213L167.173 218.582V218.766C167.05 219.319 166.865 219.872 166.62 220.179ZM164.285 218.029C164.039 218.274 163.794 218.766 163.855 219.073V219.012V218.827V218.459C162.811 206.601 160.845 194.744 157.158 183.439C154.639 176.067 151.383 168.264 145.239 163.287C139.034 158.127 132.583 153.027 125.579 148.972C122.077 147.006 118.452 145.225 114.705 144.242L115.626 144.18C115.503 144.303 114.95 144.303 114.889 144.242C111.264 143.504 106.288 141.6 102.724 140.433C97.7478 138.774 92.587 137.914 87.3648 137.484C82.204 136.992 77.0432 137.422 71.9439 137.975C70.8994 138.098 69.855 138.159 68.872 138.282C67.7661 138.528 66.5988 138.467 65.6158 137.668C65.6158 137.668 65.6158 137.668 65.5543 137.668H65.4929C65.6158 137.729 65.0014 137.545 65.0628 137.238V137.176L65.6772 137.606C63.5883 138.159 61.6223 139.142 59.5334 139.941C57.506 140.801 55.4171 141.477 53.3896 142.399C45.4641 145.962 38.2145 151.246 32.5007 157.881C26.6641 164.455 23.2236 172.565 20.4589 180.859C16.3426 193.331 13.5164 206.355 11.6733 219.319L10.1373 217.537C54.6798 217.599 119.067 217.783 164.285 218.029Z" fill="black"/>
<path d="M40.4874 219.135L37.7227 196.341" stroke="#544D4D" stroke-width="3" stroke-miterlimit="10" stroke-linecap="round" stroke-linejoin="round"/>
<path d="M147.82 188.6C147.82 188.6 145.977 193.085 146.53 197.57C147.083 202.055 148.68 208.629 146.407 219.135" stroke="#544D4D" stroke-width="3" stroke-miterlimit="10" stroke-linecap="round" stroke-linejoin="round"/>
<path d="M54.7413 139.388C55.9086 139.019 57.936 139.388 58.5504 140.433C60.9465 144.365 66.7217 155.853 69.1177 178.647C71.0223 196.464 68.1347 228.535 68.1347 228.535L8.47852 225.708C8.47852 225.708 14.6837 203.591 19.906 183.316C22.7321 172.38 23.6537 156.591 31.4563 150.754C37.723 146.085 45.5256 142.583 54.7413 139.388Z" fill="black"/>
<path d="M116.548 143.136C116.548 143.136 135.532 178.831 130.003 226.507H170.982C170.982 226.507 169.507 221.285 164.347 199.352C159.8 180.183 155.192 163.718 150.4 159.233C137.867 147.437 120.111 141.6 120.111 141.6C120.111 141.6 118.084 142.583 116.548 143.136Z" fill="black"/>
<path d="M116.548 143.136L115.073 142.706C115.073 142.706 117.224 141.661 118.145 141.047L118.698 140.74C118.698 140.74 121.647 142.091 122.692 142.583C123.736 143.074 119.067 145.348 119.067 145.348C119.067 145.348 116.732 143.197 116.548 143.136Z" fill="#7E5D6D"/>
<path d="M68.4417 172.933C68.4417 172.933 66.3528 166.974 61.6221 161.69C57.26 156.775 49.2731 149.157 48.7201 147.437C48.3515 146.269 48.843 144.119 49.9489 141.6C52.2835 136.255 57.5058 129.251 64.3868 126.118C81.0979 120.22 83.6783 130.725 83.9241 134.043C83.9855 134.965 65.6156 138.958 65.677 139.88V139.941C65.677 139.941 62.8509 140.863 64.8783 154.932C65.3698 158.372 67.5201 164.393 68.4417 172.933Z" fill="white"/>
<path d="M68.6262 173.855C68.1962 173.916 67.6432 173.609 67.5204 173.179L67.4589 173.056L67.3975 172.872C66.1073 169.616 64.3256 166.544 62.1753 163.779C57.8132 158.372 52.4066 154.01 48.2289 148.42C48.106 148.235 47.9831 148.051 47.9217 147.805C47.3687 145.901 48.1674 143.873 48.7818 142.153C51.7923 135.026 57.0145 128.637 64.0798 125.319C65.8615 124.704 67.7661 124.152 69.6707 123.844C73.4798 123.169 77.9034 123.353 81.0367 125.995C83.4328 128.022 84.6615 130.971 84.9687 134.043C85.0302 134.657 84.4158 135.088 83.9857 135.333C78.5178 137.422 72.1282 138.405 66.6602 140.433C66.5988 140.494 66.4759 140.494 66.4759 140.555C66.4759 140.555 66.4759 140.555 66.5988 140.433C66.6602 140.31 66.7831 140.125 66.7831 139.941C66.7831 139.818 66.7831 140.003 66.7831 140.003L66.1687 140.863C66.2302 140.863 66.2916 140.801 66.2916 140.801C66.2916 140.801 66.2302 140.863 66.2302 140.924C65.6772 141.784 65.5544 142.89 65.4315 143.935C65.2472 145.962 65.3086 148.051 65.4929 150.078L65.6772 152.167C66.0459 156.406 67.3361 160.277 68.1962 164.455C68.6262 166.544 68.9949 168.633 69.3021 170.721C69.3635 171.152 69.4249 171.704 69.4249 172.196C69.1792 172.749 68.872 173.302 68.6262 173.855ZM68.2576 172.012C68.0733 171.766 67.7047 171.582 67.4589 171.582C67.3975 171.582 67.3361 171.52 67.3361 171.459L67.2746 170.967C66.5988 165.376 64.7557 160.093 63.8341 154.44C63.7112 153.396 63.4655 151.246 63.3426 150.201C63.1583 146.945 62.7896 143.443 64.1413 140.31C64.4485 139.757 64.6328 139.327 65.37 139.02L64.6942 139.941C64.6942 139.88 64.6942 139.818 64.6942 139.818C64.6942 139.45 65.0629 139.02 65.3086 138.835C66.9674 137.975 68.7491 137.606 70.5308 137.054C74.4629 135.886 79.5008 134.842 83.2485 133.367C83.2485 133.367 83.2485 133.367 83.1256 133.49L83.0642 133.552C83.0027 133.613 82.9413 133.736 82.9413 133.859C82.9413 133.92 82.9413 134.043 82.9413 134.043C82.757 131.524 81.6511 128.882 79.6851 127.285C76.9818 125.012 73.2341 124.95 69.855 125.503C68.1962 125.749 66.0459 126.425 64.6942 126.855C60.2707 128.821 56.523 132.2 53.574 136.071C51.4236 139.02 49.3962 142.337 48.9047 145.962C48.6589 147.252 49.5805 148.112 50.3177 149.034C53.1439 152.29 57.6903 156.714 60.7008 159.847C64.2027 163.41 67.1517 167.65 69.1178 172.196L69.1792 172.319C69.1792 172.135 68.6262 171.889 68.2576 172.012Z" fill="black"/>
<path d="M127.299 174.838C127.299 174.838 123.183 158.864 121.156 153.764C119.128 148.727 115.319 143.013 115.135 142.706C109.298 133.244 109.482 129.128 111.387 127.469C113.291 125.81 117.899 126.117 126.378 133.551C127.914 135.272 137.068 145.593 138.051 151.246C138.604 154.379 136.884 156.591 134.549 159.847C132.153 163.164 129.204 167.527 127.299 174.838Z" fill="white"/>
<path d="M127.299 174.838C125.21 168.08 123.306 161.137 120.787 154.502C119.19 150.631 116.916 147.006 114.582 143.505C112.308 139.757 109.912 135.886 109.298 131.463C108.745 127.285 111.756 124.889 115.749 125.933C120.111 127.101 123.613 130.05 126.931 132.876C129.634 135.886 132.214 138.958 134.549 142.337C137.375 146.699 141 151.799 137.498 156.837C135.901 159.355 133.873 161.629 132.276 164.148C130.125 167.465 128.467 171.029 127.299 174.838ZM127.299 173.916C127.176 173.609 126.992 173.548 126.869 173.363C127.054 172.81 127.238 172.257 127.422 171.766C135.163 151.86 147.205 157.574 125.641 134.227C122.937 131.954 119.128 128.821 115.319 127.838C112.554 127.162 110.834 128.391 111.203 131.278C112.308 138.282 117.531 143.75 120.48 150.017C123.122 155.178 124.412 160.83 126.009 166.359C126.378 167.711 127.361 171.274 127.668 172.565C127.791 172.995 128.037 173.916 128.159 174.408V174.469C128.037 174.101 127.545 173.855 127.299 173.916Z" fill="black"/>
<path d="M112.431 160.892C111.141 167.22 102.785 171.029 88.7157 165.315C74.0935 159.417 67.7654 145.348 66.168 141.17C74.8307 124.95 68.8098 113.707 68.8098 113.707C88.7771 111.987 106.225 135.333 106.225 135.333L108.929 146.884C109.175 147.867 109.666 148.727 110.403 149.341C111.693 151.614 113.229 156.837 112.431 160.892Z" fill="white"/>
<path d="M65.8612 141.354C67.0285 139.573 67.7658 137.484 68.2573 135.456C69.1789 131.217 69.486 126.916 69.5475 122.616V121.018C69.3632 119.421 68.8102 117.762 68.1958 116.288C67.3972 114.322 70.2847 113.093 71.2063 115.059C71.3292 115.305 71.3292 115.735 71.3292 115.98C71.5135 124.336 71.8821 135.088 66.5985 142.03C66.2298 142.399 65.4926 141.846 65.8612 141.354Z" fill="black"/>
<path d="M106.901 135.211C107.823 135.764 108.13 136.501 108.253 137.238C108.622 138.713 108.499 140.31 108.867 141.846C109.175 143.32 110.096 144.733 110.342 146.269C110.649 147.867 111.571 151.246 111.939 152.905C112.062 153.273 111.816 153.703 111.386 153.765C111.141 153.826 110.956 153.765 110.772 153.642C109.973 152.966 109.605 152.29 109.113 151.43C108.314 149.956 107.762 148.604 107.27 146.945C106.84 145.471 107.024 143.873 106.656 142.337C106.348 140.863 105.488 139.45 105.181 137.914C104.997 137.177 104.935 136.378 105.488 135.456C105.857 135.088 106.471 134.965 106.901 135.211Z" fill="black"/>
<path d="M111.325 151.43C99.5908 150.816 90.0065 147.13 80.668 130.48C88.532 137.422 97.8091 140.064 107.578 141.293L108.868 146.945C109.114 147.928 110.588 150.816 111.325 151.43Z" fill="black"/>
<path d="M110.834 149.157C112.923 153.089 114.152 158.004 112.861 162.366C111.878 165.438 109.052 167.711 105.98 168.571C98.8537 170.476 90.621 167.466 84.2929 164.086C76.4903 159.724 70.7151 152.413 67.0288 144.426C66.7831 143.812 67.6432 143.32 68.0118 143.935C69.302 146.515 70.7765 149.034 72.4354 151.307C74.0942 153.642 75.9988 155.792 78.1491 157.697C84.4157 163.349 92.8942 166.851 101.373 166.851C110.097 166.605 113.414 161.998 111.387 153.519C111.08 152.167 110.588 150.754 109.912 149.587C109.544 149.096 110.465 148.543 110.834 149.157Z" fill="black"/>
<path d="M134.611 75.3701C135.716 80.5309 134.856 83.9714 134.365 98.225C133.873 112.233 129.818 132.016 124.842 136.992C121.033 140.74 108.807 143.689 97.9321 140.924C92.4027 139.511 87.7334 136.316 83.9243 134.043C79.1321 131.156 74.9543 122.247 71.5138 116.533C68.8105 112.049 69.0563 117.455 65.5543 113.584C60.7007 108.301 54.8641 97.672 57.7517 78.872C62.421 48.3988 86.5661 44.8354 104.445 48.2145C122.446 51.5936 131.662 61.7923 134.611 75.3701Z" fill="white"/>
<path d="M68.6263 118.991C67.2133 116.656 65.3701 114.567 63.7113 112.356C61.2538 108.977 59.4106 105.106 58.1819 101.113C52.8368 84.0328 56.093 61.6694 72.2512 51.5936C86.9348 42.255 115.442 45.6341 127.361 58.4132C131.846 63.021 134.734 69.0419 135.962 75.3086C136.024 75.6772 136.208 76.353 136.269 76.7217C136.331 77.0288 136.515 77.3975 136.454 77.7661C136.331 79.1177 136.085 80.4694 135.962 81.821C135.041 89.9922 135.286 98.3478 134.242 106.519C133.32 115.12 132.092 123.722 129.511 132.016C128.713 134.535 127.177 136.808 125.149 138.467C120.603 142.276 114.643 143.566 108.93 143.812C97.5021 144.365 85.8904 140.31 79.2551 130.664C79.0093 130.296 79.5008 129.865 79.808 130.234C85.3374 136.194 92.8329 140.003 100.82 140.863C109.667 141.907 122.999 141.109 126.869 131.647C131.354 118.254 133.689 104.062 133.935 89.9922C133.935 86.5517 133.751 83.1112 133.751 79.6092C133.751 79.1792 133.812 78.1962 133.812 77.7661C133.812 77.7661 133.812 77.7047 133.812 77.7661C133.812 77.8275 133.812 77.8275 133.812 77.7661C133.32 76.5373 133.136 75.1857 132.768 73.957C131.416 68.8576 128.958 64.004 125.456 60.1334C113.845 47.1086 87.9793 43.8524 73.4799 53.621C61.991 61.2393 58.9191 75.8615 58.1204 88.7635C57.4446 98.4092 60.2708 107.871 67.5819 114.506L70.4695 117.516C71.6982 118.868 69.6093 120.465 68.6263 118.991Z" fill="black"/>
<path d="M75.8761 99.4536C75.8761 99.4536 73.9715 90.238 65.0016 91.3438C57.2604 92.3268 54.5571 110.881 72.1284 116.042" fill="white"/>
<path d="M71.3293 107.994C69.9162 107.195 68.9332 105.843 68.8718 104.184C68.9332 102.956 69.1176 101.543 68.8104 100.314C68.626 99.1466 67.3973 98.8394 66.4757 98.9008C65.4927 99.0851 64.8783 100.314 64.694 101.297C64.694 101.358 64.6326 101.543 64.6326 101.604C64.5711 101.911 64.0796 101.911 63.9568 101.604C63.1581 99.208 64.9398 96.5662 67.5202 96.8733C71.145 97.1191 71.6365 100.928 70.9607 103.816C70.5921 105.045 71.0836 106.15 71.7594 107.195L71.8823 107.379C72.1894 107.748 71.6979 108.239 71.3293 107.994Z" fill="black"/>
<path d="M120.48 92.9412C121.402 97.3033 123.122 101.358 125.272 105.167C127.177 109.837 122.262 114.26 117.9 114.076C117.408 114.076 117.347 113.4 117.777 113.277C120.542 112.417 123.061 110.574 123.491 107.748C123.675 106.888 123.429 106.15 122.999 105.413C120.972 101.604 119.743 97.2419 120.05 92.9412C120.05 92.634 120.48 92.634 120.48 92.9412Z" fill="black"/>
<path d="M75.5686 99.5151C74.1555 95.8902 71.0836 92.4497 66.9673 92.5112C66.5987 92.4497 65.9843 92.5726 65.6156 92.5726C64.5712 92.634 63.7111 93.0027 62.9124 93.7399C58.9804 97.6719 59.6562 104.614 62.8509 108.977C63.9568 110.512 65.3699 111.864 66.9673 112.97C68.5647 114.076 70.3464 114.936 72.2509 115.673C72.681 115.796 72.4967 116.472 72.0666 116.41C67.9503 115.55 64.0183 113.523 61.315 110.144C57.1372 105.106 56.2771 96.6889 61.2536 91.7739C62.3594 90.7909 63.8954 90.0536 65.4313 90.0536C65.9228 90.0536 66.6601 89.9308 67.1516 90.0536C69.732 90.1765 72.1895 91.4667 73.7869 93.4942C75.2 95.2144 75.9987 97.3033 76.2444 99.3922C76.2444 99.7608 75.6915 99.8837 75.5686 99.5151Z" fill="black"/>
<path d="M115.81 120.22C111.878 123.967 104.444 120.957 102.478 116.41C102.233 115.857 102.847 115.366 103.338 115.612C104.383 116.165 105.304 116.718 106.287 117.148C109.114 118.438 112.063 119.482 115.196 119.175C115.81 119.052 116.24 119.79 115.81 120.22Z" fill="black"/>
<path d="M107.025 84.9542C108.376 84.8313 109.052 83.2339 108.315 82.0052C107.885 81.3908 107.332 80.8379 106.533 80.5307C104.199 79.7934 96.5804 81.4522 93.2627 85.2614C90.3137 88.7633 100.881 85.5071 107.025 84.9542Z" fill="black"/>
<path d="M123.245 85.9371C122.2 85.6299 121.893 84.0939 122.753 83.1109C123.183 82.6194 123.798 82.1894 124.474 82.0665C126.562 81.6979 131.355 83.6024 132.706 87.2273C133.935 90.3606 128.221 87.1658 123.245 85.9371Z" fill="black"/>
<path d="M97.5635 99.2078C96.089 99.1464 94.9831 97.9176 95.106 96.4431L95.1674 94.7228C95.2289 93.2483 96.4576 92.1424 97.9321 92.2653C99.4067 92.3267 100.513 93.5555 100.39 95.03L100.328 96.7503C100.267 98.1633 99.038 99.2692 97.5635 99.2078Z" fill="black"/>
<path d="M123.429 100.129C122.077 100.068 121.032 98.9006 121.094 97.549L121.155 95.9516C121.217 94.6 122.384 93.5555 123.736 93.617C125.087 93.6784 126.132 94.8457 126.07 96.1973L126.009 97.7947C125.947 99.1464 124.78 100.191 123.429 100.129Z" fill="black"/>
<path d="M103.093 95.8901C101.065 94.5384 98.8537 93.6169 96.3961 94.1084C95.5974 94.2313 94.7988 94.477 94.3073 95.0299C94.1229 95.2757 93.6929 95.2143 93.6929 94.8456C93.7543 93.6169 94.7987 92.8182 95.7818 92.3267C97.6863 91.3437 100.328 91.528 102.048 92.8182C102.663 93.1868 104.752 95.46 103.646 95.9515C103.4 96.0744 103.277 96.013 103.093 95.8901Z" fill="black"/>
<path d="M120.664 96.1973C120.664 93.617 123.858 92.6954 125.824 93.617C126.93 94.1085 127.729 95.0915 128.036 96.2588C128.159 96.6274 127.606 96.9346 127.36 96.6274C126.316 95.3987 124.534 94.7843 123.121 95.5215C122.691 95.7673 122.63 95.9516 122.507 96.1973C122.507 97.4261 120.725 97.3647 120.664 96.1973Z" fill="black"/>
<path d="M137.391 55.3369C138.497 52.7566 138.497 49.9304 136.654 47.4729C131.309 40.4075 114.782 45.7526 105.567 42.8036C91.743 38.3186 74.6018 37.7657 64.526 54.3539C62.007 58.5317 60.7783 59.699 57.2149 63.0167C53.5286 66.4572 50.641 72.7853 50.3953 81.4481C49.8423 98.835 63.4815 113.949 63.4815 113.949C64.1574 114.87 64.7717 115.669 65.3247 116.345C70.2397 122.243 71.7757 133.609 70.3012 115.669C55.0031 109.771 57.7678 92.6298 65.2018 91.7082C73.0659 90.7252 75.5234 97.7291 75.9534 99.4494C81.2371 96.0703 79.3325 88.882 78.7181 82.1853C82.8345 80.3422 86.3364 75.9186 88.1796 71.9252C90.207 74.7513 92.6646 76.9631 95.6136 77.2088C98.7469 77.516 100.59 74.8742 101.204 71.1265C105.259 76.4716 112.448 83.1069 123.752 84.3971C129.159 85.0115 133.644 82.7382 136.654 78.9905C137.453 79.1134 138.19 79.1749 138.927 79.1134C146.853 78.3147 155.7 62.2794 137.391 55.3369Z" fill="black"/>
</g>
<path d="M0.704 21H8.304V19.432H5.36C4.784 19.432 4.048 19.48 3.44 19.544C5.936 17.16 7.744 14.808 7.744 12.536C7.744 10.408 6.352 9 4.192 9C2.656 9 1.616 9.672 0.608 10.76L1.648 11.784C2.272 11.064 3.04 10.472 3.968 10.472C5.28 10.472 5.968 11.352 5.968 12.632C5.968 14.568 4.176 16.856 0.704 19.928V21ZM9.669 21H17.269V19.432H14.325C13.749 19.432 13.013 19.48 12.405 19.544C14.901 17.16 16.709 14.808 16.709 12.536C16.709 10.408 15.317 9 13.157 9C11.621 9 10.581 9.672 9.573 10.76L10.613 11.784C11.237 11.064 12.005 10.472 12.933 10.472C14.245 10.472 14.933 11.352 14.933 12.632C14.933 14.568 13.141 16.856 9.669 19.928V21ZM19.562 9.304V10.648H24.714C24.426 13.976 22.634 16.52 18.842 18.344L19.722 19.656C24.682 17.256 26.41 13.608 26.41 9.304H19.562ZM29.018 7.784V22.232H30.666V7.784H29.018Z" fill="#8B6517"/>
</svg>
