<svg width="188" height="234" viewBox="0 0 188 234" fill="none" xmlns="http://www.w3.org/2000/svg">
<path d="M69.1223 212.36V214.44H74.8223C74.4423 216.88 72.1423 218.9 68.0623 219.92L69.0623 221.98C74.5423 220.58 77.6423 217.26 77.6423 212.36H69.1223ZM73.6823 224.42H80.6623V227.44H73.6823V224.42ZM71.0823 229.5H83.2623V222.34H71.0823V229.5ZM80.6023 211.32V221.56H83.2623V211.32H80.6023ZM88.9008 216.8C88.9008 215.36 89.8808 214.52 91.2408 214.52C92.6008 214.52 93.6008 215.36 93.6008 216.8C93.6008 218.22 92.6008 219.08 91.2408 219.08C89.8808 219.08 88.9008 218.22 88.9008 216.8ZM98.9208 215.8V217.8H95.9808C96.0608 217.46 96.1008 217.14 96.1008 216.8C96.1008 216.44 96.0608 216.12 96.0008 215.8H98.9208ZM98.9208 219.9V222.1H101.561V211.3H98.9208V213.7H94.8608C93.9808 212.82 92.7208 212.28 91.2408 212.28C88.5208 212.28 86.4008 214.18 86.4008 216.8C86.4008 219.4 88.5208 221.3 91.2408 221.3C92.6808 221.3 93.9408 220.78 94.8208 219.9H98.9208ZM95.3208 227.7C92.9008 227.7 91.6208 227.18 91.6208 226.1C91.6208 225.02 92.9008 224.5 95.3208 224.5C97.7408 224.5 99.0408 225.02 99.0408 226.1C99.0408 227.18 97.7408 227.7 95.3208 227.7ZM95.3208 222.46C91.4408 222.46 89.0208 223.8 89.0208 226.1C89.0208 228.38 91.4408 229.74 95.3208 229.74C99.2208 229.74 101.641 228.38 101.641 226.1C101.641 223.8 99.2208 222.46 95.3208 222.46ZM106.119 220.42C109.339 219.98 111.599 218.6 112.699 216.72C113.799 218.6 116.059 219.98 119.279 220.42L120.219 218.36C116.479 217.9 114.539 216.1 114.279 214.34H119.499V212.24H105.839V214.34H111.139C110.879 216.1 108.919 217.9 105.159 218.36L106.119 220.42ZM121.019 221.48H104.379V223.58H111.319V229.76H113.959V223.58H121.019V221.48Z" fill="#111111"/>
<path d="M0 104C0 52.0852 42.0852 10 94 10C145.915 10 188 52.0852 188 104V178C188 189.046 179.046 198 168 198H20C8.9543 198 0 189.046 0 178V104Z" fill="#FFE1A4"/>
<mask id="mask0_322_1427" style="mask-type:alpha" maskUnits="userSpaceOnUse" x="0" y="10" width="188" height="188">
<path d="M0 10H188V178C188 189.046 179.046 198 168 198H20C8.9543 198 0 189.046 0 178V10Z" fill="#D9D9D9"/>
</mask>
<g mask="url(#mask0_322_1427)">
<path d="M145.055 181.043C144.625 181.35 144.133 181.658 143.703 181.965C143.212 182.272 142.782 182.579 142.29 182.825C141.86 183.071 141.491 183.316 141.061 183.562C141 183.624 140.938 183.624 140.877 183.685C139.464 184.545 137.989 185.344 136.515 186.081C136.085 186.327 135.593 186.573 135.163 186.757C135.163 186.757 135.102 186.818 135.04 186.818C134.549 187.064 134.057 187.31 133.566 187.556C132.583 188.047 131.538 188.477 130.555 188.907C130.064 189.153 129.511 189.337 129.02 189.522C128.528 189.706 127.975 189.952 127.484 190.136C126.992 190.32 126.439 190.566 125.948 190.75C125.948 190.75 125.948 190.75 125.886 190.75C125.395 190.935 124.842 191.119 124.35 191.303C123.244 191.672 122.077 192.041 120.971 192.409C120.603 192.532 120.172 192.655 119.804 192.778C118.637 193.146 117.469 193.454 116.302 193.699C115.872 193.822 115.442 193.884 114.95 194.007C113.844 194.252 112.677 194.498 111.571 194.744C111.325 194.805 111.141 194.805 110.895 194.867C110.527 194.928 110.097 194.99 109.728 195.051C109.175 195.112 108.684 195.235 108.131 195.297C107.885 195.358 107.639 195.358 107.393 195.42C107.086 195.481 106.718 195.543 106.349 195.543C105.366 195.665 104.322 195.788 103.338 195.911C103.031 195.973 102.663 195.973 102.355 196.034H102.294C101.864 196.095 101.434 196.095 101.004 196.157C100.574 196.218 100.144 196.218 99.7137 196.218C99.4679 196.218 99.1607 196.28 98.915 196.28C98.4235 196.28 97.9934 196.341 97.5633 196.341C96.949 196.341 96.396 196.403 95.7816 196.403C95.1673 196.403 94.6143 196.403 93.9999 196.403C93.5699 196.403 93.1398 196.403 92.7097 196.403C66.7829 196.034 43.498 185.037 26.8483 167.588C26.8483 167.588 26.8483 167.527 26.7869 167.527C24.9437 165.868 26.5411 157.021 33.9751 151.43C43.3137 144.365 65.6771 139.941 65.6771 139.941C65.6771 139.941 74.3398 138.528 106.472 145.225C125.272 149.157 139.587 154.871 147.574 170.353C149.233 173.548 150.891 178.463 145.055 181.043Z" fill="white"/>
<path d="M106.656 144.549C118.452 146.945 131.047 149.526 140.754 157.328C144.011 159.97 146.161 163.841 147.943 167.588C148.803 169.431 149.663 171.336 150.339 173.363C150.707 174.715 151.26 176.251 150.953 177.848C150.892 178.279 150.523 178.831 150.216 179.139C148.803 180.552 147.267 181.412 145.731 182.518C136.699 188.784 126.316 193.208 115.565 195.543C91.6041 200.765 65.6773 196.71 44.6041 184.115C37.6001 179.876 31.1492 174.715 25.6198 168.633C25.0054 167.896 25.0054 166.667 25.0054 165.868C25.0668 164.025 25.5583 162.243 26.1727 160.584C27.6472 156.775 29.5518 152.966 32.808 150.324C35.1426 148.727 37.6616 147.375 40.242 146.269C48.3518 142.829 56.8916 140.433 65.6773 139.45C66.4145 139.388 66.5374 140.433 65.8001 140.556C57.3831 142.276 49.0276 144.856 41.225 148.358C38.3988 149.771 35.3884 151 33.1152 153.212C30.9648 155.546 29.4289 158.434 28.2001 161.383C27.4015 163.165 26.8485 165.991 27.0943 167.404C30.9648 172.012 35.5113 176.067 40.4263 179.569C67.3361 198.369 108.192 199.597 136.822 183.931C139.403 182.518 141.922 180.92 144.318 179.262C145.485 178.463 146.714 177.787 147.635 176.865C147.697 176.804 147.635 176.865 147.635 176.927C147.635 176.988 147.574 177.05 147.574 177.05C147.635 176.312 147.39 175.329 147.082 174.346C145.977 170.783 144.195 167.035 142.29 163.779C139.28 158.926 134.181 155.854 129.02 153.396C125.456 151.737 121.709 150.447 117.899 149.218C114.09 147.99 110.22 146.945 106.349 146.024C105.366 145.778 105.673 144.365 106.656 144.549Z" fill="black"/>
<path d="M165.453 219.135H10.0762C10.0762 219.135 19.2304 199.843 23.2853 177.849C26.1115 162.612 28.2004 153.703 36.1258 148.788C41.7167 145.348 53.6971 141.784 58.8579 139.941C62.3598 138.713 63.0971 139.757 65.616 139.081C65.616 139.388 65.6775 139.634 65.6775 139.941C65.6775 139.941 72.3128 159.663 89.5768 166.667C103.646 172.381 112.002 168.571 113.292 162.243C114.091 158.188 111.572 151.553 110.281 149.403C109.544 148.788 109.053 147.867 108.807 146.945L108.315 144.918C109.483 144.672 110.589 144.365 111.694 143.996C112.063 143.873 112.37 143.75 112.739 143.628C119.804 145.471 134.918 151.43 141.615 157.574C144.257 160.031 150.523 172.319 154.578 190.136C159.247 210.349 165.453 219.135 165.453 219.135Z" fill="black"/>
<path d="M166.865 219.872C120.603 220.179 55.6628 220.916 10.1373 220.732C9.03145 220.732 8.23276 219.503 8.72426 218.52C14.1922 206.478 18.4929 193.638 21.2576 180.674C21.5648 179.016 22.2406 175.759 22.5478 174.101C23.9609 167.342 25.0667 160.646 28.6916 154.44C29.9203 152.413 31.5177 150.508 33.4223 148.972C35.2654 147.498 37.4158 146.392 39.5661 145.409C46.4471 142.46 53.3896 140.125 60.455 137.975C62.1138 137.606 63.7726 138.037 65.37 137.668C66.2916 137.422 67.2746 138.098 67.336 139.081L67.3975 139.941L65.7386 138.405C66.4145 138.405 67.0288 138.835 67.2132 139.45C67.7047 140.863 68.3805 142.337 69.0563 143.75C71.1452 147.989 73.7256 151.983 76.8589 155.485C80.9752 160.154 86.136 163.84 92.0341 165.929C97.9936 168.141 108.622 170.046 111.571 162.919C112.063 161.629 112.001 160.277 111.817 158.864C111.387 155.976 110.404 152.904 108.991 150.324L109.298 150.693C108.315 149.403 107.946 147.867 108.069 146.392V145.102V144.918C108.069 144.795 108.192 144.672 108.315 144.672C109.052 144.426 109.728 144.119 110.465 143.873C111.141 143.566 111.817 143.259 112.493 142.89C112.677 142.767 112.862 142.829 113.046 142.89C117.101 143.935 120.971 145.348 124.842 146.945C130.617 149.341 136.331 152.044 141.307 155.915C143.089 157.205 144.379 159.11 145.424 161.014C147.513 164.701 149.171 168.51 150.646 172.38C153.226 179.138 155.131 186.142 156.79 193.208C158.879 201.01 161.397 208.752 165.268 215.878C165.698 216.616 166.128 217.353 166.558 218.09L166.681 218.213V218.274C167.05 218.582 167.111 219.442 166.865 219.872ZM164.039 218.397C163.732 218.705 163.794 219.565 164.039 219.872V219.81L163.916 219.626C159.616 212.561 156.913 204.635 154.701 196.71C153.595 192.839 152.796 188.661 151.69 184.729C149.54 176.988 146.898 169.186 143.028 162.12C142.352 160.953 141.614 159.663 140.693 158.741C138.911 157.082 136.822 155.731 134.733 154.44C131.293 152.413 127.607 150.631 123.859 149.095C120.111 147.559 116.302 146.146 112.431 145.102L113.353 145.04C111.694 145.163 110.097 145.225 108.499 145.163L108.745 144.795C109.114 145.409 109.544 146.454 109.913 147.006C110.343 147.559 110.834 147.989 111.387 148.235C111.51 148.358 111.633 148.481 111.694 148.604C113.906 152.843 116.118 159.171 114.52 163.902C110.834 173.179 98.4851 171.705 90.9282 168.817C84.6001 166.667 78.8864 162.55 74.4628 157.512C70.0393 152.474 66.5373 146.699 64.2027 140.433L65.6772 141.477C64.8171 141.477 64.1413 140.863 64.0798 140.003L64.0184 139.204L65.9844 140.617C65.37 140.801 64.6328 140.863 63.9569 140.924C62.2367 140.863 61.0694 140.801 59.472 141.416C57.3831 142.153 55.2328 142.89 53.0824 143.566C48.8432 144.979 44.6654 146.454 40.672 148.235C31.5792 151.86 28.9373 159.11 26.8484 168.141C25.8654 172.319 25.0667 177.05 24.2066 181.289C21.3805 194.559 17.0798 207.4 11.489 219.81L10.0759 217.537C54.6184 217.537 118.882 217.967 164.039 218.397Z" fill="black"/>
<path d="M84.2925 173.118C63.0964 163.595 54.8637 146.576 56.4611 141.969C56.4611 141.969 56.4611 141.907 56.5225 141.846C57.6284 139.573 59.4101 137.729 61.6219 136.439C62.8506 135.702 64.2023 135.026 65.3082 134.657C82.0807 130.48 104.321 137.545 111.817 143.996C114.52 147.252 117.285 150.508 118.329 159.11C119.804 171.52 106.226 183.009 84.2925 173.118Z" fill="white"/>
<path d="M83.9855 173.793C73.3568 169.001 63.4038 161.506 57.7515 151.123C56.6457 148.973 55.6626 146.761 55.3555 144.242C55.294 143.382 55.2326 142.337 55.6626 141.477C56.9528 138.897 59.2875 136.869 61.8679 135.64C63.8339 134.596 65.9842 133.859 68.1345 133.183C71.2064 132.63 74.2783 132.446 77.4117 132.507C87.6718 132.814 97.8705 135.518 106.963 140.248C107.639 140.617 108.315 140.986 108.991 141.416C109.236 141.539 109.421 141.723 109.728 141.661C110.035 141.6 110.281 141.723 110.527 141.846C111.264 142.276 111.878 142.829 112.554 143.443C114.213 145.471 115.872 147.621 116.978 150.078C118.084 152.536 118.698 155.178 119.067 157.758C120.05 163.042 118.268 168.94 114.152 172.565C105.796 180.06 93.2626 178.033 83.9855 173.793ZM84.5385 172.503C91.4195 175.514 99.2836 177.418 106.595 175.084C112.493 173.302 117.346 167.957 117.531 161.69C117.592 158.004 116.732 154.133 115.257 150.754C114.459 148.665 112.247 146.023 111.141 144.672C110.465 144.119 109.728 143.689 109.114 143.136C109.052 143.013 108.991 142.89 108.929 142.767C108.806 142.46 108.561 142.399 108.376 142.214C107.762 141.846 107.086 141.477 106.41 141.108C101.065 138.344 95.1672 136.746 89.2692 135.579C82.3881 134.289 75.3228 133.92 68.3803 134.903C67.3973 135.026 66.3528 134.903 65.3698 135.149C64.6326 135.456 63.2809 136.071 62.4208 136.685C60.209 137.975 58.5502 139.88 57.3829 142.153L57.3215 142.214C57.3215 142.276 57.26 142.399 57.26 142.46C56.9528 145.04 58.1816 147.682 59.3489 150.078C60.3934 152.044 61.6221 153.949 63.0352 155.792C68.6875 163.103 76.2443 168.756 84.5385 172.503Z" fill="black"/>
<path d="M112.431 160.892C111.141 167.22 102.785 171.029 88.7162 165.315C74.0939 159.417 67.7658 145.348 66.1685 141.17C74.8312 124.95 68.8103 113.707 68.8103 113.707C88.7776 111.987 106.226 135.333 106.226 135.333L108.929 146.884C109.175 147.867 109.666 148.727 110.404 149.341C111.694 151.614 113.23 156.837 112.431 160.892Z" fill="white"/>
<path d="M65.8617 141.354C67.029 139.573 67.7663 137.484 68.2578 135.456C69.1793 131.217 69.4865 126.916 69.548 122.616V121.018C69.3637 119.421 68.8107 117.762 68.1963 116.288C67.3976 114.322 70.2852 113.093 71.2068 115.059C71.3297 115.305 71.3297 115.735 71.3297 115.98C71.514 124.336 71.8826 135.088 66.599 142.03C66.2303 142.399 65.4931 141.846 65.8617 141.354Z" fill="black"/>
<path d="M106.902 135.211C107.823 135.764 108.131 136.501 108.254 137.238C108.622 138.713 108.499 140.31 108.868 141.846C109.175 143.32 110.097 144.733 110.342 146.269C110.65 147.867 111.571 151.246 111.94 152.905C112.063 153.273 111.817 153.703 111.387 153.765C111.141 153.826 110.957 153.765 110.773 153.642C109.974 152.966 109.605 152.29 109.114 151.43C108.315 149.956 107.762 148.604 107.271 146.945C106.84 145.471 107.025 143.873 106.656 142.337C106.349 140.863 105.489 139.45 105.182 137.914C104.997 137.177 104.936 136.378 105.489 135.456C105.857 135.088 106.472 134.965 106.902 135.211Z" fill="black"/>
<path d="M111.326 151.43C99.5913 150.816 90.007 147.13 80.6685 130.48C88.5325 137.422 97.8096 140.064 107.578 141.293L108.868 146.945C109.114 147.928 110.589 150.816 111.326 151.43Z" fill="black"/>
<path d="M110.835 149.157C112.923 153.089 114.152 158.004 112.862 162.366C111.879 165.438 109.053 167.711 105.981 168.571C98.8541 170.476 90.6215 167.466 84.2934 164.086C76.4907 159.724 70.7156 152.413 67.0293 144.426C66.7836 143.812 67.6437 143.32 68.0123 143.935C69.3025 146.515 70.777 149.034 72.4358 151.307C74.0947 153.642 75.9992 155.792 78.1496 157.697C84.4162 163.349 92.8947 166.851 101.373 166.851C110.097 166.605 113.415 161.998 111.387 153.519C111.08 152.167 110.589 150.754 109.913 149.587C109.544 149.096 110.466 148.543 110.835 149.157Z" fill="black"/>
<path d="M134.611 75.37C135.716 80.5308 136.269 84.7086 133.259 98.4707C130.31 112.171 137.498 114.997 120.48 136.931C113.537 145.901 96.7034 143.382 83.0641 134.105C78.4563 130.971 76.4903 122.923 73.0498 117.209C70.3465 112.724 69.1177 117.394 65.5543 113.523C60.7007 108.239 54.8641 97.6105 57.7517 78.8105C62.421 48.3373 86.5661 44.7739 104.445 48.153C122.446 51.5935 131.662 61.7922 134.611 75.37Z" fill="white"/>
<path d="M68.6262 118.991C67.2131 116.595 65.37 114.506 63.6497 112.294C61.9909 110.021 60.6392 107.502 59.5334 104.922C52.2222 86.9818 55.0484 61.7308 72.9883 51.1635C80.4222 46.8628 89.3922 45.8184 97.7477 46.4942C115.626 47.7844 132.03 56.0171 135.901 74.94C137.99 83.2955 135.163 91.8968 133.566 100.068C132.829 104.123 133.443 108.301 133.382 112.479C133.32 116.718 132.153 120.957 130.556 124.889C129.573 127.592 127.852 129.988 126.071 132.2C123.122 135.763 120.173 139.388 116.425 142.153C115.565 142.767 114.029 143.075 112.984 143.197C110.097 143.628 107.271 143.75 104.383 143.566C93.0785 143.075 80.9752 137.607 76.4288 126.671C76.2445 126.241 76.8588 125.933 77.1046 126.302C83.0026 135.641 93.8157 140.248 104.567 140.863C107.885 141.047 111.264 140.986 114.52 140.31C116.118 139.511 117.531 138.098 118.882 136.808C122.2 133.49 125.579 129.927 127.975 125.872C130.863 120.404 132.46 114.445 131.969 108.239C131.846 105.475 131.784 102.587 132.337 99.8223C132.829 97.0576 133.443 94.4158 133.812 91.5896C134.18 88.8864 134.365 86.1217 134.365 83.4184C134.058 75.4929 131.477 67.3217 126.439 61.1779C115.319 47.3543 89.0236 43.7295 74.217 53.1909C64.8785 58.9661 60.5164 69.7792 59.1033 80.2851C56.953 92.8798 57.5673 105.29 67.5817 114.445L70.5307 117.516C71.6981 118.868 69.6092 120.465 68.6262 118.991Z" fill="black"/>
<path d="M75.8756 99.4536C75.8756 99.4536 73.971 90.238 65.0011 91.3438C57.2599 92.3268 54.5566 110.881 72.1279 116.042" fill="white"/>
<path d="M71.3293 107.994C69.9162 107.195 68.9332 105.843 68.8718 104.184C68.9332 102.956 69.1176 101.543 68.8104 100.314C68.6261 99.1466 67.3973 98.8394 66.4757 98.9008C65.4927 99.0851 64.8783 100.314 64.694 101.297C64.694 101.358 64.6326 101.543 64.6326 101.604C64.5711 101.911 64.0796 101.911 63.9568 101.604C63.1581 99.208 64.9398 96.5662 67.5202 96.8733C71.145 97.1191 71.6365 100.928 70.9607 103.816C70.5921 105.045 71.0836 106.15 71.7594 107.195L71.8823 107.379C72.1894 107.748 71.6979 108.239 71.3293 107.994Z" fill="black"/>
<path d="M120.48 92.9412C121.401 97.3033 123.121 101.358 125.272 105.167C127.176 109.837 122.261 114.26 117.899 114.076C117.408 114.076 117.346 113.4 117.776 113.277C120.541 112.417 123.06 110.574 123.49 107.748C123.674 106.888 123.429 106.15 122.999 105.413C120.971 101.604 119.742 97.2419 120.05 92.9412C120.05 92.634 120.48 92.634 120.48 92.9412Z" fill="black"/>
<path d="M75.5686 99.5151C74.1555 95.8902 71.0836 92.4497 66.9673 92.5112C66.5987 92.4497 65.9843 92.5726 65.6157 92.5726C64.5712 92.634 63.7111 93.0027 62.9124 93.7399C58.9804 97.6719 59.6562 104.614 62.8509 108.977C63.9568 110.512 65.3699 111.864 66.9673 112.97C68.5647 114.076 70.3464 114.936 72.2509 115.673C72.681 115.796 72.4967 116.472 72.0666 116.41C67.9503 115.55 64.0183 113.523 61.315 110.144C57.1372 105.106 56.2771 96.6889 61.2536 91.7739C62.3594 90.7909 63.8954 90.0536 65.4313 90.0536C65.9228 90.0536 66.6601 89.9308 67.1516 90.0536C69.732 90.1765 72.1895 91.4667 73.7869 93.4942C75.2 95.2144 75.9987 97.3033 76.2444 99.3922C76.2444 99.7608 75.6915 99.8837 75.5686 99.5151Z" fill="black"/>
<path d="M114.397 119.974C114.459 120.957 113.721 122.677 112.37 123.906C105.427 119.667 102.294 121.878 102.294 121.878C99.8363 118.131 100.389 113.031 106.349 116.902C110.465 119.605 113.045 120.035 114.397 119.974Z" fill="black"/>
<path d="M112.308 123.967C110.834 125.257 108.622 126.056 105.612 124.827C104.198 124.274 103.093 123.169 102.232 121.94C102.294 121.94 105.366 119.728 112.308 123.967Z" fill="white"/>
<path d="M115.564 119.789C115.564 119.789 112.984 121.203 106.349 116.963C98.4231 111.864 100.021 122.554 105.611 124.827C111.448 127.223 114.458 122.001 114.397 120.035" stroke="black" stroke-width="3" stroke-miterlimit="10" stroke-linecap="round" stroke-linejoin="round"/>
<path d="M102.294 121.94C102.294 121.94 105.427 119.728 112.37 123.967" stroke="black" stroke-width="3" stroke-miterlimit="10" stroke-linecap="round" stroke-linejoin="round"/>
<path d="M107.025 84.9542C108.376 84.8313 109.052 83.2339 108.315 82.0052C107.885 81.3908 107.332 80.8379 106.533 80.5307C104.199 79.7934 96.5804 81.4522 93.2627 85.2614C90.3137 88.7633 100.881 85.5071 107.025 84.9542Z" fill="black"/>
<path d="M123.245 85.9371C122.2 85.6299 121.893 84.0939 122.753 83.1109C123.183 82.6194 123.798 82.1894 124.474 82.0665C126.562 81.6979 131.355 83.6024 132.706 87.2273C133.935 90.3606 128.221 87.1658 123.245 85.9371Z" fill="black"/>
<path d="M97.5635 99.2078C96.089 99.1464 94.9831 97.9176 95.106 96.4431L95.1674 94.7228C95.2289 93.2483 96.4576 92.1424 97.9321 92.2653C99.4067 92.3267 100.513 93.5555 100.39 95.03L100.328 96.7503C100.267 98.1633 99.038 99.2692 97.5635 99.2078Z" fill="black"/>
<path d="M123.429 100.129C122.077 100.068 121.032 98.9006 121.094 97.549L121.155 95.9516C121.217 94.6 122.384 93.5555 123.736 93.617C125.087 93.6784 126.132 94.8457 126.07 96.1973L126.009 97.7947C125.947 99.1464 124.78 100.191 123.429 100.129Z" fill="black"/>
<path d="M103.093 95.8901C101.065 94.5384 98.8537 93.6169 96.3961 94.1084C95.5974 94.2313 94.7988 94.477 94.3073 95.0299C94.1229 95.2757 93.6929 95.2143 93.6929 94.8456C93.7543 93.6169 94.7987 92.8182 95.7818 92.3267C97.6863 91.3437 100.328 91.528 102.048 92.8182C102.663 93.1868 104.752 95.46 103.646 95.9515C103.4 96.0744 103.277 96.013 103.093 95.8901Z" fill="black"/>
<path d="M120.664 96.1973C120.664 93.617 123.858 92.6954 125.824 93.617C126.93 94.1085 127.729 95.0915 128.036 96.2588C128.159 96.6274 127.606 96.9346 127.36 96.6274C126.316 95.3987 124.534 94.7843 123.121 95.5215C122.691 95.7673 122.63 95.9516 122.507 96.1973C122.507 97.4261 120.725 97.3647 120.664 96.1973Z" fill="black"/>
<path d="M134.778 92.6953C135.392 88.8248 135.822 85.2614 136.068 81.8823C141.044 77.213 141.474 58.0444 129.494 57.9215C129.494 57.9215 127.221 45.511 116.654 43.7293C108.667 42.3777 105.165 43.7908 93.3686 46.064C93.1843 46.1254 93 46.1868 92.7542 46.1868C78.6235 47.2313 66.7045 53.498 61.298 61.0548C56.7516 67.4444 54.7241 72.8509 54.2326 80.0391C54.2326 80.4692 54.1712 80.8993 54.1712 81.3293V81.4522C54.1098 82.8038 54.1098 84.2169 54.1712 85.6914C53.9255 89.1319 52.881 93.8012 49.5019 97.2417C45.447 101.358 43.6039 104.921 44.6483 111.987C35.8013 117.271 26.217 126.302 35.7398 149.28C40.7777 146.269 46.983 143.996 52.9425 143.013C54.847 142.706 56.8745 142.46 59.0248 142.337C67.6261 141.723 73.5241 133.613 71.8039 125.196C71.4967 123.537 71.2509 121.755 71.2509 119.728C71.2509 118.499 71.3124 117.332 71.4353 116.226C54.5398 110.881 57.2431 92.6953 64.9228 91.7123C67.6875 91.3437 69.715 92.0195 71.3124 93.0025C71.6196 93.5555 71.9882 94.047 72.3568 94.5385C82.1255 107.502 72.0496 109.652 76.4117 117.946C78.9307 122.738 81.7568 124.09 81.7568 124.09C81.5725 122.186 74.0771 117.209 79.5451 110.881C85.013 104.553 79.9751 100.498 79.8523 95.7058C79.6679 89.6849 80.8967 85.3842 82.4326 82.3738C84.7673 80.4692 87.9621 79.1176 92.3241 78.8718C115.609 77.5816 120.647 70.9463 121.507 66.83C123.166 71.5607 126.176 78.0117 131.276 81.9437C131.522 82.3123 131.829 82.681 132.074 83.0496C131.644 90.3607 134.04 115.489 124.518 132.569C121.937 137.238 118.865 141.293 115.425 141.907C112.967 142.337 112.476 143.013 110.51 143.504C108.728 143.996 108.912 144.487 108.912 144.487C108.912 151.799 119.91 149.525 125.439 150.14C130.416 150.693 134.716 153.335 134.716 153.335C134.716 153.335 138.894 147.928 137.973 135.64C136.928 122.001 130.108 123.23 134.778 92.6953Z" fill="black"/>
<path d="M68.9944 101.358C68.9944 101.358 64.0793 100.621 64.448 107.502C64.6323 111.004 64.6323 112.908 64.5708 113.891C64.5094 114.567 64.9395 115.182 65.5538 115.427C66.2911 115.735 67.0898 115.427 67.4584 114.69C68.0114 113.707 68.6257 112.356 68.6257 111.25C68.6257 109.407 70.5918 107.748 70.5918 107.748C70.5918 107.748 68.8101 106.212 68.9944 101.358Z" fill="white"/>
<path d="M68.8101 101.542C68.8101 101.604 68.8715 101.665 68.9329 101.665C68.9329 101.665 68.9329 101.665 68.8715 101.665H68.7486C65.7996 101.911 64.878 104.491 65.0009 107.133C65.0623 108.854 65.1852 110.574 65.1238 112.233C65.2467 113.154 64.6937 114.383 65.6153 114.874C66.1682 115.182 66.9055 114.936 67.1512 114.322C67.7042 113.216 68.2571 112.11 68.2571 110.881C68.5029 109.468 69.4244 108.362 70.4074 107.502V107.993C69.1172 106.642 68.8101 104.799 68.6257 103.078C68.6872 102.648 68.6872 101.973 68.8101 101.542ZM69.2401 101.112C69.4244 102.833 69.4244 104.614 70.1617 106.15C70.346 106.58 70.6532 107.072 71.0218 107.379C71.2676 107.563 71.2676 107.932 71.0218 108.116C70.1617 108.915 69.4244 109.898 69.3016 111.004C69.3016 112.356 68.7486 113.646 68.1342 114.813C67.6427 115.857 66.2297 116.41 65.1852 115.796C64.5094 115.427 64.0179 114.69 64.0179 113.891C64.0179 113.277 64.0793 112.786 64.0793 112.171C64.0793 110.451 63.9565 108.792 63.895 107.072C63.895 105.966 63.9565 104.676 64.448 103.57C65.0623 101.85 66.9669 100.682 68.8101 100.99C68.9944 100.99 69.1787 101.051 69.2401 101.112Z" fill="black"/>
<path d="M68.1959 174.101C70.2233 165.254 67.5815 155.301 65.3083 146.454C64.3867 142.952 63.4652 139.634 63.0351 136.746C62.2364 131.893 62.7894 127.285 64.7554 122.984C67.1514 117.639 66.7828 113.093 66.7828 112.908L65.5541 113.031C65.5541 113.093 65.9227 117.516 63.6495 122.493C61.622 126.978 61.0077 131.831 61.8063 136.931C62.2979 139.88 63.158 143.259 64.0796 146.761C66.3528 155.423 68.9331 165.254 66.9671 173.793C65.8613 178.524 68.0116 186.265 71.0835 194.006C71.575 194.068 72.005 194.129 72.4965 194.191C69.3632 186.45 67.1514 178.647 68.1959 174.101Z" fill="black"/>
<path d="M64.6323 111.065C64.6937 112.417 64.6323 113.339 64.6323 113.891C64.5709 114.567 65.0009 115.182 65.6153 115.427C66.3526 115.735 67.1513 115.427 67.5199 114.69C68.0728 113.707 68.6872 112.356 68.6872 111.25C68.6872 111.188 68.6872 111.065 68.6872 111.004C67.4585 111.495 65.9839 111.864 64.6323 111.065Z" fill="white"/>
<path d="M64.8166 111.311C64.8781 112.171 64.9395 112.97 64.9395 113.83C64.8781 114.199 65.0009 114.567 65.2467 114.874C66.0454 115.673 67.1513 115.182 67.4585 114.199C67.95 113.216 68.38 112.171 68.38 111.065L68.8101 111.372C67.4585 111.618 66.0454 111.987 64.7552 111.434C64.7552 111.434 64.8166 111.372 64.8166 111.311ZM64.5094 110.758C64.6323 110.758 64.8781 110.82 65.0009 110.942C66.1068 111.741 67.5199 111.372 68.6258 110.758C68.8101 110.635 69.1173 110.82 69.0558 111.065C68.9944 112.478 68.4415 113.83 67.7042 115.059C67.0284 115.98 65.6153 116.042 64.8166 115.243C64.448 114.874 64.2637 114.26 64.3251 113.769C64.3251 112.724 64.448 111.741 64.5094 110.758Z" fill="black"/>
<path d="M122.507 151.922C123.551 144.672 122.568 139.511 122.2 137.975C122.016 138.098 121.893 138.282 121.708 138.405C121.524 138.589 121.34 138.712 121.155 138.897C121.524 140.863 122.2 145.532 121.278 151.737C120.848 154.625 120.725 159.171 120.664 164.455C120.541 169.554 118.944 182.272 117.039 194.314C117.469 194.191 117.899 194.068 118.329 194.006C120.234 182.088 121.77 169.616 121.893 164.516C122.016 159.233 122.077 154.748 122.507 151.922Z" fill="black"/>
</g>
<path d="M0.704 21H8.304V19.432H5.36C4.784 19.432 4.048 19.48 3.44 19.544C5.936 17.16 7.744 14.808 7.744 12.536C7.744 10.408 6.352 9 4.192 9C2.656 9 1.616 9.672 0.608 10.76L1.648 11.784C2.272 11.064 3.04 10.472 3.968 10.472C5.28 10.472 5.968 11.352 5.968 12.632C5.968 14.568 4.176 16.856 0.704 19.928V21ZM12.053 21H13.941C14.133 16.392 14.565 13.8 17.333 10.344V9.224H9.749V10.776H15.285C13.013 13.944 12.261 16.696 12.053 21ZM19.562 9.304V10.648H24.714C24.426 13.976 22.634 16.52 18.842 18.344L19.722 19.656C24.682 17.256 26.41 13.608 26.41 9.304H19.562ZM29.018 7.784V22.232H30.666V7.784H29.018Z" fill="#8B6517"/>
</svg>
