<svg width="188" height="234" viewBox="0 0 188 234" fill="none" xmlns="http://www.w3.org/2000/svg">
<path d="M74.7223 219.34H71.1023V216.92H74.7223V219.34ZM77.3223 212.48H74.7223V214.9H71.1023V212.48H68.5023V221.42H77.3223V212.48ZM70.1623 225.26H79.8223V229.74H82.4623V223.16H70.1623V225.26ZM84.9023 215.78H82.4623V211.3H79.8223V222.34H82.4623V217.94H84.9023V215.78ZM93.2808 215.24H97.0808V213.06H86.7608V215.24H90.6008V216.26C90.6008 219.4 89.1008 222.78 86.0208 224.16L87.5208 226.26C89.6808 225.28 91.1608 223.26 91.9808 220.86C92.8008 223.08 94.2608 224.88 96.4008 225.8L97.8408 223.72C94.7608 222.44 93.2808 219.26 93.2808 216.26V215.24ZM98.7808 211.3V229.72H101.421V211.3H98.7808ZM120.139 213.22H113.999V211.28H111.359V213.22H105.159V215.28H120.139V213.22ZM116.259 219.18C116.259 220 115.079 220.38 112.679 220.38C110.279 220.38 109.119 220 109.119 219.18C109.119 218.32 110.279 217.96 112.679 217.96C115.079 217.96 116.259 218.32 116.259 219.18ZM106.379 219.18C106.379 221.2 108.739 222.34 112.679 222.34C116.619 222.34 118.999 221.2 118.999 219.18C118.999 217.14 116.619 216 112.679 216C108.739 216 106.379 217.14 106.379 219.18ZM121.039 223.22H104.359V225.34H111.359V229.74H113.999V225.34H121.039V223.22Z" fill="#111111"/>
<path d="M0 104C0 52.0852 42.0852 10 94 10C145.915 10 188 52.0852 188 104V178C188 189.046 179.046 198 168 198H20C8.9543 198 0 189.046 0 178V104Z" fill="#FFE1A4"/>
<mask id="mask0_322_1520" style="mask-type:alpha" maskUnits="userSpaceOnUse" x="0" y="10" width="188" height="188">
<path d="M0 10H188V178C188 189.046 179.046 198 168 198H20C8.9543 198 0 189.046 0 178V10Z" fill="#D9D9D9"/>
</mask>
<g mask="url(#mask0_322_1520)">
<path d="M145.055 181.043C144.625 181.35 144.133 181.658 143.703 181.965C143.212 182.272 142.782 182.579 142.29 182.825C141.86 183.071 141.491 183.316 141.061 183.562C141 183.624 140.938 183.624 140.877 183.685C139.464 184.545 137.989 185.344 136.515 186.081C136.085 186.327 135.593 186.573 135.163 186.757C135.163 186.757 135.102 186.818 135.04 186.818C134.549 187.064 134.057 187.31 133.566 187.556C132.583 188.047 131.538 188.477 130.555 188.907C130.064 189.153 129.511 189.337 129.02 189.522C128.528 189.706 127.975 189.952 127.484 190.136C126.992 190.32 126.439 190.566 125.948 190.75C125.948 190.75 125.948 190.75 125.886 190.75C125.395 190.935 124.842 191.119 124.35 191.303C123.244 191.672 122.077 192.041 120.971 192.409C120.603 192.532 120.172 192.655 119.804 192.778C118.637 193.146 117.469 193.454 116.302 193.699C115.872 193.822 115.442 193.884 114.95 194.007C113.844 194.252 112.677 194.498 111.571 194.744C111.325 194.805 111.141 194.805 110.895 194.867C110.527 194.928 110.097 194.99 109.728 195.051C109.175 195.112 108.684 195.235 108.131 195.297C107.885 195.358 107.639 195.358 107.393 195.42C107.086 195.481 106.718 195.543 106.349 195.543C105.366 195.665 104.322 195.788 103.338 195.911C103.031 195.973 102.663 195.973 102.355 196.034H102.294C101.864 196.095 101.434 196.095 101.004 196.157C100.574 196.218 100.144 196.218 99.7137 196.218C99.4679 196.218 99.1607 196.28 98.915 196.28C98.4235 196.28 97.9934 196.341 97.5633 196.341C96.949 196.341 96.396 196.403 95.7816 196.403C95.1673 196.403 94.6143 196.403 93.9999 196.403C93.5699 196.403 93.1398 196.403 92.7097 196.403C66.7829 196.034 43.498 185.037 26.8483 167.588C26.8483 167.588 26.8483 167.527 26.7869 167.527C24.9437 165.868 26.5411 157.021 33.9751 151.43C43.3137 144.365 65.6771 139.941 65.6771 139.941C65.6771 139.941 74.3398 138.528 106.472 145.225C125.272 149.157 139.587 154.871 147.574 170.353C149.233 173.548 150.891 178.463 145.055 181.043Z" fill="white"/>
<path d="M106.656 144.549C118.452 146.945 131.047 149.526 140.754 157.328C144.011 159.97 146.161 163.841 147.943 167.588C148.803 169.431 149.663 171.336 150.339 173.363C150.707 174.715 151.26 176.251 150.953 177.848C150.892 178.279 150.523 178.831 150.216 179.139C148.803 180.552 147.267 181.412 145.731 182.518C136.699 188.784 126.316 193.208 115.565 195.543C91.6041 200.765 65.6773 196.71 44.6041 184.115C37.6001 179.876 31.1492 174.715 25.6198 168.633C25.0054 167.896 25.0054 166.667 25.0054 165.868C25.0668 164.025 25.5583 162.243 26.1727 160.584C27.6472 156.775 29.5518 152.966 32.808 150.324C35.1426 148.727 37.6616 147.375 40.242 146.269C48.3518 142.829 56.8916 140.433 65.6773 139.45C66.4145 139.388 66.5374 140.433 65.8001 140.556C57.3831 142.276 49.0276 144.856 41.225 148.358C38.3988 149.771 35.3884 151 33.1152 153.212C30.9648 155.546 29.4289 158.434 28.2001 161.383C27.4015 163.165 26.8485 165.991 27.0943 167.404C30.9648 172.012 35.5113 176.067 40.4263 179.569C67.3361 198.369 108.192 199.597 136.822 183.931C139.403 182.518 141.922 180.92 144.318 179.262C145.485 178.463 146.714 177.787 147.635 176.865C147.697 176.804 147.635 176.865 147.635 176.927C147.635 176.988 147.574 177.05 147.574 177.05C147.635 176.312 147.39 175.329 147.082 174.346C145.977 170.783 144.195 167.035 142.29 163.779C139.28 158.926 134.181 155.854 129.02 153.396C125.456 151.737 121.709 150.447 117.899 149.218C114.09 147.99 110.22 146.945 106.349 146.024C105.366 145.778 105.673 144.365 106.656 144.549Z" fill="black"/>
<path d="M157.65 218.029L10.1372 219.135C10.1372 219.135 16.2196 194.437 23.3464 173.241C25.9882 165.376 27.1555 155.362 33.4222 150.631C40.4875 145.286 50.4405 143.32 57.0143 140.986C60.5163 139.757 63.1581 139.818 65.6156 139.142C65.6156 139.45 65.6771 139.695 65.6771 140.003C65.6771 140.003 72.3124 159.724 89.5764 166.728C103.646 172.442 112.001 168.633 113.291 162.305C114.09 158.25 111.571 151.614 110.281 149.464C109.544 148.85 109.052 147.928 108.806 147.007L108.315 144.979C109.482 144.733 110.588 144.426 111.694 144.057C112.063 143.935 112.8 145.041 113.107 144.918C121.033 147.007 137.006 152.229 144.379 160.339C153.472 170.046 157.65 218.029 157.65 218.029Z" fill="black"/>
<mask id="mask1_322_1520" style="mask-type:alpha" maskUnits="userSpaceOnUse" x="10" y="139" width="148" height="81">
<path d="M157.65 218.029L10.1372 219.135C10.1372 219.135 16.2196 194.437 23.3464 173.241C25.9882 165.376 27.1555 155.362 33.4222 150.631C40.4875 145.286 50.4405 143.32 57.0143 140.986C60.5163 139.757 63.1581 139.818 65.6156 139.142C65.6156 139.45 65.6771 139.695 65.6771 140.003C65.6771 140.003 72.3124 159.724 89.5764 166.728C103.646 172.442 112.001 168.633 113.291 162.305C114.09 158.25 111.571 151.614 110.281 149.464C109.544 148.85 109.052 147.928 108.806 147.007L108.315 144.979C109.482 144.733 110.588 144.426 111.694 144.057C112.063 143.935 112.8 145.041 113.107 144.918C121.033 147.007 137.006 152.229 144.379 160.339C153.472 170.046 157.65 218.029 157.65 218.029Z" fill="black"/>
</mask>
<g mask="url(#mask1_322_1520)">
<path d="M73.8542 150.121L65.6001 158.375L73.8542 166.63L82.1083 158.375L73.8542 150.121Z" fill="white"/>
<path d="M106.224 150.102L97.9697 158.356L106.224 166.61L114.478 158.356L106.224 150.102Z" fill="white"/>
<path d="M41.528 150.097L33.2739 158.351L41.528 166.605L49.7822 158.351L41.528 150.097Z" fill="white"/>
<path d="M138.117 150.121L129.863 158.375L138.117 166.629L146.372 158.375L138.117 150.121Z" fill="white"/>
<path d="M58.9035 182.008L50.6494 190.262L58.9035 198.516L67.1577 190.262L58.9035 182.008Z" fill="white"/>
<path d="M91.2732 181.989L83.019 190.243L91.2732 198.497L99.5273 190.243L91.2732 181.989Z" fill="white"/>
<path d="M123.167 182.008L114.913 190.262L123.167 198.516L131.421 190.262L123.167 182.008Z" fill="white"/>
</g>
<path d="M158.817 219.073C114.95 219.503 53.3283 220.486 10.1374 220.671C9.27729 220.671 8.54004 219.995 8.54004 219.135C11.6734 205.926 15.4825 192.839 19.5374 179.876C20.2132 177.726 20.8891 175.575 21.6263 173.486C23.1008 169.247 24.0224 164.885 25.4355 160.584C28.0773 152.413 31.5793 148.85 39.3204 145.348C44.6041 142.952 50.0106 141.6 55.3557 139.88L56.9531 139.327C59.5949 138.344 62.9126 138.221 65.3087 137.607C66.1688 137.422 66.9675 137.914 67.2132 138.712C67.2747 138.774 67.3361 139.757 67.3361 139.88L65.7387 138.405C66.4145 138.405 67.0289 138.835 67.2132 139.45C67.7047 140.863 68.3806 142.337 69.0564 143.75C73.8485 153.519 81.5283 162.305 92.0342 165.929C97.4407 167.834 104.383 169.309 109.237 165.991C111.571 164.393 112.309 161.567 111.817 158.864C111.387 155.976 110.404 152.905 108.991 150.324L109.298 150.693C108.192 149.587 107.701 147.928 107.639 146.454L107.517 145.225C107.394 144.672 107.639 144.119 108.254 144.058C109.298 143.873 110.343 143.566 111.326 143.259C111.51 143.197 111.879 143.075 112.063 143.136C112.862 143.32 112.984 143.75 113.476 144.058C113.415 144.058 113.292 143.935 112.984 144.058H113.537C117.408 145.041 121.217 146.208 124.965 147.621C132.522 150.509 140.079 153.765 145.731 159.847C153.718 169.861 157.343 201.502 158.94 214.957C158.94 215.08 159.124 216.984 159.186 217.169L159.247 217.537V217.722V217.783C159.247 218.213 159.063 218.766 158.817 219.073ZM156.483 216.984C156.298 217.169 156.114 217.414 156.114 217.66C156.114 217.783 156.052 217.906 156.114 218.029V217.967C156.114 217.722 156.052 216.984 155.991 216.677C154.394 201.625 152.489 186.265 148.311 171.705C146.898 167.281 145.362 162.55 141.737 159.601C136.638 155.178 130.371 152.352 124.105 149.956C120.48 148.604 116.732 147.375 112.923 146.392L113.845 146.331C113.353 146.515 112.984 146.454 112.616 146.269C112.124 146.024 111.694 145.593 111.449 145.225C111.571 145.286 112.001 145.348 112.247 145.286H112.309H112.247L112.063 145.348C110.957 145.593 109.79 145.716 108.684 145.839L109.421 144.672C109.913 145.962 110.22 147.56 111.449 148.235C112.616 149.771 113.169 151.614 113.783 153.396C114.582 155.854 115.196 158.434 115.073 161.076C114.766 168.448 107.271 171.52 100.82 171.029C90.6211 170.292 81.0982 165.192 74.4629 157.574C70.0394 152.536 66.5374 146.761 64.2028 140.494L65.6773 141.539C64.8172 141.539 64.1413 140.924 64.0799 140.064L64.0185 139.265L65.9845 140.678C64.7557 140.986 63.5884 141.17 62.4825 141.293C59.1649 141.661 56.2159 142.952 53.0211 143.873C48.7204 145.163 44.4812 146.454 40.5492 148.235C36.8015 150.017 32.9923 152.044 30.9034 155.792C28.7531 159.478 27.6472 163.779 26.4799 167.957C25.374 172.258 23.7766 176.558 22.425 180.859C18.3701 193.638 14.8067 206.54 11.5505 219.565L10.0145 217.599C52.4067 217.292 113.537 216.984 156.483 216.984Z" fill="black"/>
<path d="M103.277 164.209C103.277 164.209 99.0381 167.404 99.9597 170.414C100.881 173.425 109.053 172.933 110.65 170.414C112.186 167.895 105.243 163.595 103.277 164.209Z" fill="black"/>
<path d="M103.154 164.086C103.216 164.148 103.216 164.148 103.277 164.209C103.277 164.148 103.277 164.086 103.277 164.086C103.277 164.086 103.216 164.086 103.154 164.086Z" fill="white"/>
<path d="M86.8734 161.629C69.6093 154.625 66.6603 141.477 66.6603 141.477L76.0603 137.484C76.0603 137.177 78.5793 134.596 78.5178 134.35C78.4564 133.429 72.1897 132.446 65.3087 134.719C64.2028 135.088 62.8512 135.825 61.6224 136.501C59.4107 137.791 57.629 139.634 56.5231 141.907C56.5231 141.969 56.4616 141.969 56.4616 142.03C56.3388 158.188 72.4969 171.766 84.846 176.251C92.3414 178.954 100.39 173.794 102.786 166.237C102.97 165.561 103.154 164.946 103.277 164.271C103.216 164.209 103.216 164.209 103.154 164.148C99.161 164.946 93.6316 164.394 86.8734 161.629Z" fill="white"/>
<path d="M86.5662 162.489C78.395 159.233 70.8995 153.396 67.1518 145.348C66.5989 144.18 66.1688 143.013 65.8002 141.661C65.6773 141.231 65.9231 140.801 66.3531 140.617C68.8107 139.573 72.7427 137.914 75.1388 136.869C75.2616 136.808 75.5688 136.685 75.6917 136.624C75.5074 136.685 75.1388 136.992 75.1388 137.422C75.1388 137.975 75.6917 138.344 76.0603 138.344L75.1388 137.484C75.1388 137.299 75.2002 137.054 75.2002 137.054C75.4459 136.501 75.9375 136.009 76.3061 135.579C76.5518 135.333 77.5348 134.105 77.6577 133.982C77.5963 134.166 77.5963 134.535 77.7192 134.658C77.842 134.842 77.7806 134.719 77.6577 134.658C75.3231 133.859 72.6812 133.859 70.2237 134.105C66.1688 134.412 62.1139 136.194 59.6564 139.511C58.9192 140.433 58.2433 141.6 57.7518 142.583C57.7518 142.522 57.7518 142.583 57.8747 142.276C57.9361 141.661 57.8747 142.092 57.9361 141.969V142.03C58.059 155.239 68.0734 166.421 79.0094 172.872C82.5727 174.777 86.5048 176.988 90.6826 176.312C96.7649 175.452 101.803 170.046 102.417 163.963L102.663 164.762L102.54 164.639L103.4 164.885C97.625 166.114 91.8499 164.578 86.5662 162.489ZM87.242 160.83C92.1571 162.796 97.6865 164.271 102.97 163.226C103.277 163.165 103.585 163.288 103.83 163.472C104.076 163.656 104.26 164.025 104.199 164.394C102.724 170.844 97.3793 176.374 90.744 177.234C88.5937 177.541 86.3205 177.234 84.293 176.435C80.2995 174.961 76.4904 172.933 72.9884 170.476C63.5884 164.086 55.0486 154.01 55.0486 142.03V141.969C55.0486 141.846 54.9871 142.276 55.11 141.661C55.1714 141.354 55.2329 141.416 55.2329 141.354C56.4002 138.958 58.4891 137.115 60.8852 136.009C63.8342 134.596 66.9061 133.613 70.1623 133.06C71.8211 132.753 79.5623 131.709 79.5008 134.473C79.378 134.965 79.0708 135.272 78.825 135.641C78.395 136.194 77.5348 137.177 77.1048 137.729C77.1048 137.729 76.9819 137.852 77.0433 137.852V137.791C77.0433 137.791 77.1048 137.607 77.1048 137.484L76.1832 136.624C76.3061 136.624 76.6747 136.685 76.7976 136.931C77.1662 137.299 77.1048 137.975 76.7361 138.282C76.429 138.467 76.5518 138.405 76.4904 138.405H76.429L76.3675 138.467C76.1218 138.59 75.6303 138.774 75.3231 138.897C73.1727 139.818 69.3022 141.477 67.0904 142.399L67.6433 141.354C67.9505 142.399 68.3806 143.566 68.8721 144.611C72.5584 152.106 79.5009 157.697 87.242 160.83Z" fill="black"/>
<path d="M119.743 159.786C118.76 151.246 114.152 146.454 111.817 143.996C110.711 144.365 108.868 144.795 107.701 145.041C107.701 145.041 111.694 150.201 110.65 157.205C110.158 160.523 107.639 163.042 103.339 164.025C103.339 164.086 103.339 164.086 103.277 164.148C104.875 165.991 106.226 169.984 111.326 172.381C114.828 174.039 117.039 172.135 118.575 168.633C119.866 165.622 120.05 162.182 119.743 159.786Z" fill="white"/>
<path d="M119.006 159.909C118.453 154.011 115.626 148.543 111.572 144.242L111.94 144.303C110.589 144.918 109.298 145.471 107.885 145.962L108.438 144.488C110.834 147.928 112.002 152.045 111.694 156.222C111.572 160.892 107.824 164.086 103.523 164.946L104.199 164.332L104.138 164.455L103.953 163.533C105.551 165.684 106.411 167.773 108.377 169.493C109.974 170.845 112.247 172.565 114.398 172.196C118.575 170.967 119.436 163.595 119.006 159.909ZM120.48 159.724C120.91 163.656 120.234 167.711 118.084 171.029C115.196 175.575 110.65 173.548 107.332 170.722C105.366 169.124 104.015 166.667 102.54 164.762C102.049 164.209 102.417 163.226 103.093 163.103C104.875 162.673 106.595 161.936 107.824 160.707C111.572 157.021 109.667 149.403 106.964 145.532L106.841 145.041C106.718 144.611 106.964 144.18 107.332 144.058C108.807 143.873 110.281 143.812 111.694 143.566C111.817 143.505 111.94 143.566 112.063 143.628C116.609 147.928 119.743 153.58 120.48 159.724Z" fill="black"/>
<path d="M112.431 160.892C111.141 167.22 102.785 171.029 88.7162 165.315C74.0939 159.417 67.7658 145.348 66.1685 141.17C74.8312 124.95 68.8103 113.707 68.8103 113.707C88.7776 111.987 106.226 135.333 106.226 135.333L108.929 146.884C109.175 147.867 109.666 148.727 110.404 149.341C111.694 151.614 113.23 156.837 112.431 160.892Z" fill="white"/>
<path d="M65.8617 141.354C67.029 139.573 67.7663 137.484 68.2578 135.456C69.1793 131.217 69.4865 126.916 69.548 122.616V121.018C69.3637 119.421 68.8107 117.762 68.1963 116.288C67.3976 114.322 70.2852 113.093 71.2068 115.059C71.3297 115.305 71.3297 115.735 71.3297 115.98C71.514 124.336 71.8826 135.088 66.599 142.03C66.2303 142.399 65.4931 141.846 65.8617 141.354Z" fill="black"/>
<path d="M106.902 135.211C107.823 135.764 108.131 136.501 108.254 137.238C108.622 138.713 108.499 140.31 108.868 141.846C109.175 143.32 110.097 144.733 110.342 146.269C110.65 147.867 111.571 151.246 111.94 152.905C112.063 153.273 111.817 153.703 111.387 153.765C111.141 153.826 110.957 153.765 110.773 153.642C109.974 152.966 109.605 152.29 109.114 151.43C108.315 149.956 107.762 148.604 107.271 146.945C106.84 145.471 107.025 143.873 106.656 142.337C106.349 140.863 105.489 139.45 105.182 137.914C104.997 137.177 104.936 136.378 105.489 135.456C105.857 135.088 106.472 134.965 106.902 135.211Z" fill="black"/>
<path d="M111.326 151.43C99.5913 150.816 90.007 147.13 80.6685 130.48C88.5325 137.422 97.8096 140.064 107.578 141.293L108.868 146.945C109.114 147.928 110.589 150.816 111.326 151.43Z" fill="black"/>
<path d="M110.835 149.157C112.923 153.089 114.152 158.004 112.862 162.366C111.879 165.438 109.053 167.711 105.981 168.571C98.8541 170.476 90.6215 167.466 84.2934 164.086C76.4907 159.724 70.7156 152.413 67.0293 144.426C66.7836 143.812 67.6437 143.32 68.0123 143.935C69.3025 146.515 70.777 149.034 72.4358 151.307C74.0947 153.642 75.9992 155.792 78.1496 157.697C84.4162 163.349 92.8947 166.851 101.373 166.851C110.097 166.605 113.415 161.998 111.387 153.519C111.08 152.167 110.589 150.754 109.913 149.587C109.544 149.096 110.466 148.543 110.835 149.157Z" fill="black"/>
<path d="M134.611 75.37C135.716 80.5308 136.269 84.7086 133.259 98.4707C130.31 112.171 137.498 114.997 120.48 136.931C113.537 145.901 96.7034 143.382 83.0641 134.105C78.4563 130.971 76.4903 122.923 73.0498 117.209C70.3465 112.724 69.1177 117.394 65.5543 113.523C60.7007 108.239 54.8641 97.6105 57.7517 78.8105C62.421 48.3373 86.5661 44.7739 104.445 48.153C122.446 51.5935 131.662 61.7922 134.611 75.37Z" fill="white"/>
<path d="M68.6262 118.991C67.2131 116.595 65.37 114.506 63.6497 112.294C61.9909 110.021 60.6392 107.502 59.5334 104.922C52.2222 86.9818 55.0484 61.7308 72.9883 51.1635C80.4222 46.8628 89.3922 45.8184 97.7477 46.4942C115.626 47.7844 132.03 56.0171 135.901 74.94C137.99 83.2955 135.163 91.8968 133.566 100.068C132.829 104.123 133.443 108.301 133.382 112.479C133.32 116.718 132.153 120.957 130.556 124.889C129.573 127.592 127.852 129.988 126.071 132.2C123.122 135.763 120.173 139.388 116.425 142.153C115.565 142.767 114.029 143.075 112.984 143.197C110.097 143.628 107.271 143.75 104.383 143.566C93.0785 143.075 80.9752 137.607 76.4288 126.671C76.2445 126.241 76.8588 125.933 77.1046 126.302C83.0026 135.641 93.8157 140.248 104.567 140.863C107.885 141.047 111.264 140.986 114.52 140.31C116.118 139.511 117.531 138.098 118.882 136.808C122.2 133.49 125.579 129.927 127.975 125.872C130.863 120.404 132.46 114.445 131.969 108.239C131.846 105.475 131.784 102.587 132.337 99.8223C132.829 97.0576 133.443 94.4158 133.812 91.5896C134.18 88.8864 134.365 86.1217 134.365 83.4184C134.058 75.4929 131.477 67.3217 126.439 61.1779C115.319 47.3543 89.0236 43.7295 74.217 53.1909C64.8785 58.9661 60.5164 69.7792 59.1033 80.2851C56.953 92.8798 57.5673 105.29 67.5817 114.445L70.5307 117.516C71.6981 118.868 69.6092 120.465 68.6262 118.991Z" fill="black"/>
<path d="M75.8756 99.4536C75.8756 99.4536 73.971 90.238 65.0011 91.3438C57.2599 92.3268 54.5566 110.881 72.1279 116.042" fill="white"/>
<path d="M71.3293 107.994C69.9162 107.195 68.9332 105.843 68.8718 104.184C68.9332 102.956 69.1176 101.543 68.8104 100.314C68.6261 99.1466 67.3973 98.8394 66.4757 98.9008C65.4927 99.0851 64.8783 100.314 64.694 101.297C64.694 101.358 64.6326 101.543 64.6326 101.604C64.5711 101.911 64.0796 101.911 63.9568 101.604C63.1581 99.208 64.9398 96.5662 67.5202 96.8733C71.145 97.1191 71.6365 100.928 70.9607 103.816C70.5921 105.045 71.0836 106.15 71.7594 107.195L71.8823 107.379C72.1894 107.748 71.6979 108.239 71.3293 107.994Z" fill="black"/>
<path d="M120.48 92.9412C121.401 97.3033 123.121 101.358 125.272 105.167C127.176 109.837 122.261 114.26 117.899 114.076C117.408 114.076 117.346 113.4 117.776 113.277C120.541 112.417 123.06 110.574 123.49 107.748C123.674 106.888 123.429 106.15 122.999 105.413C120.971 101.604 119.742 97.2419 120.05 92.9412C120.05 92.634 120.48 92.634 120.48 92.9412Z" fill="black"/>
<path d="M75.5686 99.5151C74.1555 95.8902 71.0836 92.4497 66.9673 92.5112C66.5987 92.4497 65.9843 92.5726 65.6157 92.5726C64.5712 92.634 63.7111 93.0027 62.9124 93.7399C58.9804 97.6719 59.6562 104.614 62.8509 108.977C63.9568 110.512 65.3699 111.864 66.9673 112.97C68.5647 114.076 70.3464 114.936 72.2509 115.673C72.681 115.796 72.4967 116.472 72.0666 116.41C67.9503 115.55 64.0183 113.523 61.315 110.144C57.1372 105.106 56.2771 96.6889 61.2536 91.7739C62.3594 90.7909 63.8954 90.0536 65.4313 90.0536C65.9228 90.0536 66.6601 89.9308 67.1516 90.0536C69.732 90.1765 72.1895 91.4667 73.7869 93.4942C75.2 95.2144 75.9987 97.3033 76.2444 99.3922C76.2444 99.7608 75.6915 99.8837 75.5686 99.5151Z" fill="black"/>
<path d="M115.872 117.209C118.145 115.857 120.173 118.315 118.944 120.465C118.637 121.08 118.268 121.51 117.838 122.001L117.777 120.527C120.05 122.493 119.497 125.442 116.855 126.671C116.425 126.855 114.397 127.469 114.397 126.732C114.397 126.548 114.52 126.425 114.705 126.425C116.241 126.363 118.329 124.827 117.715 123.107C117.531 122.677 117.101 122.186 116.732 122.001C116.302 121.756 116.179 121.264 116.425 120.834C116.916 120.281 118.084 119.667 118.084 118.622C117.961 117.701 117.039 117.393 116.179 117.701C115.811 117.885 115.565 117.393 115.872 117.209Z" fill="black"/>
<path d="M97.5635 99.2078C96.089 99.1464 94.9831 97.9176 95.106 96.4431L95.1674 94.7228C95.2289 93.2483 96.4576 92.1424 97.9321 92.2653C99.4067 92.3267 100.513 93.5555 100.39 95.03L100.328 96.7503C100.267 98.1633 99.038 99.2692 97.5635 99.2078Z" fill="black"/>
<path d="M123.429 100.129C122.077 100.068 121.032 98.9007 121.094 97.5491L121.155 95.9517C121.217 94.6001 122.384 93.5556 123.736 93.6171C125.087 93.6785 126.132 94.8458 126.07 96.1975L126.009 97.7949C125.947 99.1465 124.78 100.191 123.429 100.129Z" fill="black"/>
<path d="M103.093 95.8902C101.065 94.5386 98.8537 93.617 96.3961 94.1085C95.5974 94.2314 94.7988 94.4771 94.3073 95.0301C94.1229 95.2758 93.6929 95.2144 93.6929 94.8458C93.7543 93.617 94.7987 92.8183 95.7818 92.3268C97.6863 91.3438 100.328 91.5281 102.048 92.8183C102.663 93.1869 104.752 95.4601 103.646 95.9516C103.4 96.0745 103.277 96.0131 103.093 95.8902Z" fill="black"/>
<path d="M120.664 96.1973C120.664 93.617 123.859 92.6954 125.825 93.617C126.931 94.1085 127.729 95.0915 128.037 96.2588C128.159 96.6274 127.607 96.9346 127.361 96.6274C126.316 95.3987 124.535 94.7843 123.122 95.5215C122.692 95.7673 122.63 95.9516 122.507 96.1973C122.507 97.4261 120.726 97.3647 120.664 96.1973Z" fill="black"/>
<path d="M106.042 85.7529C107.332 86.183 108.622 85.0157 108.376 83.6026C108.254 82.8654 107.946 82.1281 107.332 81.5752C105.489 79.9163 97.8706 78.4418 93.2627 80.5922C89.2078 82.5582 100.144 83.7869 106.042 85.7529Z" fill="black"/>
<path d="M124.412 86.7359C123.368 87.1045 122.262 85.9987 122.446 84.7085C122.507 84.0326 122.753 83.3568 123.245 82.8653C124.719 81.3908 129.757 80.2235 132.952 82.4967C135.717 84.4013 129.204 84.9542 124.412 86.7359Z" fill="black"/>
<path d="M134.782 93.0024C134.843 92.6952 134.905 92.388 134.905 92.0808C135.519 88.2102 135.949 84.6468 136.195 81.2677C136.686 74.3867 135.396 61.9762 125.505 54.5422C124.644 53.8664 123.723 53.252 122.678 52.6991C121.818 52.2076 120.897 51.7775 119.975 51.3475C111.927 47.9069 98.9633 43.7906 86.1228 46.0024C81.2078 46.8011 76.2927 48.5828 71.6849 51.5932C71.6235 51.5932 71.6235 51.6547 71.6235 51.6547C60.4418 59.0272 56.5097 70.7004 54.4209 81.6978C53.745 85.1998 53.2535 88.7017 52.8235 91.8965C52.5777 93.5553 52.332 95.1527 52.0862 96.6272C51.1646 102.218 48.0927 107.195 44.8365 111.127C44.6522 111.311 44.4679 111.557 44.2836 111.741C41.6418 114.751 38.9999 117.147 37.1568 118.561C37.0339 118.622 36.911 118.745 36.8496 118.806C40.9045 131.585 56.3869 141.17 70.7019 144.057C72.7908 134.903 74.2039 125.626 72.4222 116.103C71.9307 115.919 71.6849 115.734 71.6849 115.612C54.728 110.266 57.4313 92.0808 65.111 91.0978C67.8758 90.7292 69.9032 91.405 71.5006 92.388C73.6509 93.9854 75.9856 97.9788 75.9856 99.1462C76.1084 96.4429 77.2757 92.6952 78.6888 92.5723C80.1633 92.4494 81.6378 92.1422 83.0509 91.5893C90.1163 89.1318 96.5673 82.4965 102.281 76.5984C110.145 68.4886 116.535 61.6076 121.081 68.4272C121.327 68.7958 121.572 69.1645 121.757 69.5331C127.163 69.4102 129.682 72.5435 130.972 75.7998C130.972 75.7998 130.972 75.7998 130.972 75.8612C132.017 78.6259 132.14 81.452 132.263 82.1893C132.263 82.3122 132.263 82.3736 132.324 82.3736C132.201 84.8311 131.894 89.0089 131.833 94.4154C131.833 96.873 132.078 101.788 131.894 104.614C131.833 105.474 131.771 106.334 131.71 107.133C131.648 107.563 131.648 107.993 131.587 108.362C131.525 108.73 131.525 109.161 131.464 109.591C131.403 110.205 131.341 110.819 131.28 111.495C131.218 112.048 131.157 112.601 131.095 113.154V113.215C131.034 113.646 130.972 114.014 130.911 114.383C129.989 119.298 128.576 124.52 126.549 127.653C122.494 133.981 119.299 139.327 113.463 142.03C107.688 144.672 101.114 145.225 101.114 145.225C101.114 145.225 102.957 146.392 107.319 146.638C111.62 146.883 114.814 145.593 118.009 146.146C124.829 147.313 136.809 147.313 136.809 147.313C145.779 123.721 130.604 122.615 134.782 93.0024Z" fill="black"/>
<path d="M124.043 107.133C124.043 107.133 124.781 111.311 129.634 113.4C130.863 113.892 132.153 113.093 132.153 111.741C132.092 111.741 124.351 107.625 124.043 107.133Z" fill="black"/>
<path d="M86.0747 107.133C86.0747 107.133 88.3479 112.294 95.1675 113.523C101.987 114.813 108.192 109.898 111.08 101.665C111.08 101.665 108.745 109.284 99.4067 110.697C90.191 112.233 86.0747 107.133 86.0747 107.133Z" fill="black"/>
<path d="M112.432 95.6446C112.247 104.43 105.182 111.496 96.6422 111.496C88.1023 111.496 81.2827 104.43 81.2827 95.6446C81.3442 86.7975 88.4095 79.5479 97.0723 79.5479C105.735 79.5479 112.677 86.7975 112.432 95.6446Z" stroke="black" stroke-width="3" stroke-miterlimit="10" stroke-linecap="round" stroke-linejoin="round"/>
<path d="M120.849 93.6171C121.832 85.6916 126.992 79.4863 133.075 79.4863C139.649 79.4863 144.687 86.736 144.318 95.5831C143.949 104.369 138.42 111.434 131.969 111.434C129.573 111.434 127.422 110.512 125.641 108.854" stroke="black" stroke-width="3" stroke-miterlimit="10" stroke-linecap="round" stroke-linejoin="round"/>
<path d="M81.4669 93.9242H72.7427" stroke="black" stroke-width="3" stroke-miterlimit="10" stroke-linecap="round" stroke-linejoin="round"/>
<path d="M112.493 93.9243C112.493 93.9243 119.804 91.0981 120.726 93.9243" stroke="black" stroke-width="3" stroke-miterlimit="10" stroke-linecap="round" stroke-linejoin="round"/>
</g>
<path d="M0.704 21H8.304V19.432H5.36C4.784 19.432 4.048 19.48 3.44 19.544C5.936 17.16 7.744 14.808 7.744 12.536C7.744 10.408 6.352 9 4.192 9C2.656 9 1.616 9.672 0.608 10.76L1.648 11.784C2.272 11.064 3.04 10.472 3.968 10.472C5.28 10.472 5.968 11.352 5.968 12.632C5.968 14.568 4.176 16.856 0.704 19.928V21ZM11.141 16.408L13.461 12.856C13.797 12.248 14.117 11.64 14.405 11.048H14.469C14.437 11.688 14.373 12.68 14.373 13.32V16.408H11.141ZM17.605 16.408H16.101V9.224H13.973L9.285 16.6V17.832H14.373V21H16.101V17.832H17.605V16.408ZM19.562 9.304V10.648H24.714C24.426 13.976 22.634 16.52 18.842 18.344L19.722 19.656C24.682 17.256 26.41 13.608 26.41 9.304H19.562ZM29.018 7.784V22.232H30.666V7.784H29.018Z" fill="#8B6517"/>
</svg>
