<svg width="188" height="234" viewBox="0 0 188 234" fill="none" xmlns="http://www.w3.org/2000/svg">
<path d="M77.9623 215.74V217.88H80.7223V222.26H83.3623V211.3H80.7223V215.74H77.9623ZM79.0623 219.7C76.2623 218.78 74.9823 216.62 74.9023 214.52H78.4823V212.4H68.5823V214.52H72.2023C72.1223 216.82 70.7823 219.16 67.8623 220.18L69.2023 222.26C71.3423 221.54 72.8023 220.04 73.6023 218.18C74.4023 219.8 75.7823 221.1 77.7823 221.76L79.0623 219.7ZM77.1423 227.74C74.7223 227.74 73.4623 227.24 73.4623 226.2C73.4623 225.16 74.7223 224.66 77.1423 224.66C79.5423 224.66 80.8023 225.16 80.8023 226.2C80.8023 227.24 79.5423 227.74 77.1423 227.74ZM77.1423 222.66C73.2223 222.66 70.8223 223.96 70.8223 226.2C70.8223 228.44 73.2223 229.74 77.1423 229.74C81.0423 229.74 83.4423 228.44 83.4423 226.2C83.4423 223.96 81.0423 222.66 77.1423 222.66ZM91.1008 223.34C89.7208 223.34 88.8008 221.88 88.8008 219.14C88.8008 216.42 89.7208 214.96 91.1008 214.96C92.4608 214.96 93.4008 216.42 93.4008 219.14C93.4008 221.88 92.4608 223.34 91.1008 223.34ZM91.1008 212.58C88.3008 212.58 86.2608 215.1 86.2608 219.14C86.2608 223.2 88.3008 225.74 91.1008 225.74C93.8808 225.74 95.9408 223.2 95.9408 219.14C95.9408 215.1 93.8808 212.58 91.1008 212.58ZM103.261 218.24H100.581V211.3H97.9408V229.72H100.581V220.42H103.261V218.24ZM119.659 211.32H116.999V224.54H119.659V211.32ZM107.199 217.16C107.199 215.64 108.279 214.76 109.639 214.76C111.019 214.76 112.059 215.64 112.059 217.16C112.059 218.64 111.019 219.54 109.639 219.54C108.279 219.54 107.199 218.64 107.199 217.16ZM114.639 217.16C114.639 214.44 112.459 212.48 109.639 212.48C106.819 212.48 104.619 214.44 104.619 217.16C104.619 219.84 106.819 221.82 109.639 221.82C112.459 221.82 114.639 219.84 114.639 217.16ZM110.039 227.3V223.24H107.399V229.4H120.119V227.3H110.039Z" fill="#111111"/>
<path d="M0 104C0 52.0852 42.0852 10 94 10C145.915 10 188 52.0852 188 104V178C188 189.046 179.046 198 168 198H20C8.9543 198 0 189.046 0 178V104Z" fill="#FFE1A4"/>
<mask id="mask0_322_1414" style="mask-type:alpha" maskUnits="userSpaceOnUse" x="0" y="10" width="188" height="188">
<path d="M0 10H188V178C188 189.046 179.046 198 168 198H20C8.9543 198 0 189.046 0 178V10Z" fill="#D9D9D9"/>
</mask>
<g mask="url(#mask0_322_1414)">
<path d="M145.055 181.043C144.625 181.35 144.133 181.658 143.703 181.965C143.212 182.272 142.782 182.579 142.29 182.825C141.86 183.071 141.491 183.316 141.061 183.562C141 183.624 140.938 183.624 140.877 183.685C139.464 184.545 137.989 185.344 136.515 186.081C136.085 186.327 135.593 186.573 135.163 186.757C135.163 186.757 135.102 186.818 135.04 186.818C134.549 187.064 134.057 187.31 133.566 187.556C132.583 188.047 131.538 188.477 130.555 188.907C130.064 189.153 129.511 189.337 129.02 189.522C128.528 189.706 127.975 189.952 127.484 190.136C126.992 190.32 126.439 190.566 125.948 190.75C125.948 190.75 125.948 190.75 125.886 190.75C125.395 190.935 124.842 191.119 124.35 191.303C123.244 191.672 122.077 192.041 120.971 192.409C120.603 192.532 120.172 192.655 119.804 192.778C118.637 193.146 117.469 193.454 116.302 193.699C115.872 193.822 115.442 193.884 114.95 194.007C113.844 194.252 112.677 194.498 111.571 194.744C111.325 194.805 111.141 194.805 110.895 194.867C110.527 194.928 110.097 194.99 109.728 195.051C109.175 195.112 108.684 195.235 108.131 195.297C107.885 195.358 107.639 195.358 107.393 195.42C107.086 195.481 106.718 195.543 106.349 195.543C105.366 195.665 104.322 195.788 103.338 195.911C103.031 195.973 102.663 195.973 102.355 196.034H102.294C101.864 196.095 101.434 196.095 101.004 196.157C100.574 196.218 100.144 196.218 99.7137 196.218C99.4679 196.218 99.1607 196.28 98.915 196.28C98.4235 196.28 97.9934 196.341 97.5633 196.341C96.949 196.341 96.396 196.403 95.7816 196.403C95.1673 196.403 94.6143 196.403 93.9999 196.403C93.5699 196.403 93.1398 196.403 92.7097 196.403C66.7829 196.034 43.498 185.037 26.8483 167.588C26.8483 167.588 26.8483 167.527 26.7869 167.527C24.9437 165.868 26.5411 157.021 33.9751 151.43C43.3137 144.365 65.6771 139.941 65.6771 139.941C65.6771 139.941 74.3398 138.528 106.472 145.225C125.272 149.157 139.587 154.871 147.574 170.353C149.233 173.548 150.891 178.463 145.055 181.043Z" fill="white"/>
<path d="M106.656 144.549C118.452 146.945 131.047 149.526 140.754 157.328C144.011 159.97 146.161 163.841 147.943 167.588C148.803 169.431 149.663 171.336 150.339 173.363C150.707 174.715 151.26 176.251 150.953 177.848C150.892 178.279 150.523 178.831 150.216 179.139C148.803 180.552 147.267 181.412 145.731 182.518C136.699 188.784 126.316 193.208 115.565 195.543C91.6041 200.765 65.6773 196.71 44.6041 184.115C37.6001 179.876 31.1492 174.715 25.6198 168.633C25.0054 167.896 25.0054 166.667 25.0054 165.868C25.0668 164.025 25.5583 162.243 26.1727 160.584C27.6472 156.775 29.5518 152.966 32.808 150.324C35.1426 148.727 37.6616 147.375 40.242 146.269C48.3518 142.829 56.8916 140.433 65.6773 139.45C66.4145 139.388 66.5374 140.433 65.8001 140.556C57.3831 142.276 49.0276 144.856 41.225 148.358C38.3988 149.771 35.3884 151 33.1152 153.212C30.9648 155.546 29.4289 158.434 28.2001 161.383C27.4015 163.165 26.8485 165.991 27.0943 167.404C30.9648 172.012 35.5113 176.067 40.4263 179.569C67.3361 198.369 108.192 199.597 136.822 183.931C139.403 182.518 141.922 180.92 144.318 179.262C145.485 178.463 146.714 177.787 147.635 176.865C147.697 176.804 147.635 176.865 147.635 176.927C147.635 176.988 147.574 177.05 147.574 177.05C147.635 176.312 147.39 175.329 147.082 174.346C145.977 170.783 144.195 167.035 142.29 163.779C139.28 158.926 134.181 155.854 129.02 153.396C125.456 151.737 121.709 150.447 117.899 149.218C114.09 147.99 110.22 146.945 106.349 146.024C105.366 145.778 105.673 144.365 106.656 144.549Z" fill="black"/>
<path d="M54.7412 139.388C54.7412 139.388 63.7111 135.825 65.37 135.702L65.4928 137.115C65.4928 137.115 58.3661 140.187 57.936 140.678C57.5674 141.109 54.7412 139.388 54.7412 139.388Z" fill="#7E5D6D"/>
<path d="M165.452 219.135H10.0757C10.0757 219.135 10.9973 190.628 20.3358 170.292C27.4012 154.932 44.358 144.795 56.7071 140.371C60.209 139.143 62.9123 137.791 65.4312 137.115C65.4312 137.422 65.6156 139.696 65.6156 139.941C65.6156 139.941 73.9711 135.886 95.9044 137.115C106.042 137.668 109.236 136.869 109.236 136.869C110.404 136.624 110.65 144.303 111.694 143.935C112.063 143.812 114.643 142.767 114.95 142.645C122.876 144.733 132.583 150.632 146.652 162.428C162.626 175.821 165.452 219.135 165.452 219.135Z" fill="white" stroke="black" stroke-width="5.1257" stroke-miterlimit="10" stroke-linecap="round" stroke-linejoin="round"/>
<path d="M135.532 156.652C139.502 156.652 142.72 153.434 142.72 149.464C142.72 145.494 139.502 142.276 135.532 142.276C131.562 142.276 128.344 145.494 128.344 149.464C128.344 153.434 131.562 156.652 135.532 156.652Z" fill="#FFFF8D"/>
<path d="M40.4874 219.135L37.7227 196.341" stroke="#544D4D" stroke-width="3" stroke-miterlimit="10" stroke-linecap="round" stroke-linejoin="round"/>
<path d="M147.82 188.6C147.82 188.6 145.977 193.085 146.53 197.57C147.083 202.055 148.68 208.629 146.407 219.135" stroke="#544D4D" stroke-width="3" stroke-miterlimit="10" stroke-linecap="round" stroke-linejoin="round"/>
<path d="M54.7413 139.388C55.9086 139.02 57.936 139.388 58.5504 140.433C60.9465 144.365 93.9386 150.263 96.3347 173.056C98.2393 190.873 94.6759 228.535 94.6759 228.535L8.47852 225.709C8.47852 225.709 10.2602 195.42 15.4824 175.084C20.6432 155.362 34.0367 146.515 54.7413 139.388Z" fill="black" stroke="black" stroke-width="5.1257" stroke-miterlimit="10" stroke-linecap="round" stroke-linejoin="round"/>
<path d="M110.343 173.056C110.343 173.056 114.152 192.778 113.476 226.507H170.921C170.921 226.507 170.736 188.661 161.521 168.08C152.305 147.559 120.05 141.539 120.05 141.539C120.05 141.539 111.94 172.442 110.343 173.056Z" fill="black" stroke="black" stroke-width="5.1257" stroke-miterlimit="10" stroke-linecap="round" stroke-linejoin="round"/>
<path d="M116.548 143.136L115.073 142.706C115.073 142.706 117.224 141.662 118.145 141.047L118.698 140.74C118.698 140.74 121.647 142.092 122.692 142.583C123.736 143.075 119.067 145.348 119.067 145.348C119.067 145.348 116.732 143.197 116.548 143.136Z" fill="#7E5D6D"/>
<path d="M96.3965 173.056C96.3965 173.056 86.505 164.885 64.3259 160.462C44.973 156.591 24.9443 158.434 26.6645 153.273C32.0711 137.115 64.5717 127.592 64.5717 127.715C64.5717 127.777 83.2488 121.94 92.3416 132.569C93.8776 134.412 96.3351 164.332 96.3965 173.056Z" fill="white"/>
<path d="M97.0722 174.469C96.5807 174.715 95.7206 174.592 95.2905 174.162C95.2291 174.101 94.9833 173.916 94.8605 173.855C85.4605 167.097 74.0945 163.595 62.8513 161.26C55.0487 159.724 47.0618 159.048 39.1363 158.311C36.1258 157.82 24.084 157.758 26.1114 152.843C31.0265 139.695 51.6696 130.603 64.3258 126.732C69.7324 125.319 75.4461 124.889 80.9755 125.933C85.399 126.732 89.7611 128.637 92.7716 132.016C93.2631 132.569 93.4474 133.429 93.5703 134.043C94.6147 138.958 95.0448 143.996 95.7206 148.973C96.5193 155.915 97.1951 162.919 97.8095 169.923C97.8095 170.353 97.9324 171.766 97.9324 172.196V172.38V172.503C97.9938 173.241 97.5637 174.101 97.0722 174.469ZM95.7206 171.643C95.5363 171.643 95.2905 171.766 95.1062 171.95C94.8605 172.135 94.799 172.565 94.799 172.626C94.799 172.503 94.799 171.766 94.799 171.643C94.799 164.209 94.369 156.714 93.816 149.28C93.5088 145.286 93.1402 141.354 92.5873 137.422C92.403 136.071 92.2186 134.473 91.7271 133.245C89.0853 129.927 84.8461 128.022 80.6683 127.408C70.8383 126.302 61.1925 129.681 52.1611 133.306C42.6997 137.299 31.1494 142.829 26.9716 152.843C25.7428 155.116 28.569 155.792 30.2892 156.161C33.2382 156.775 36.1873 156.96 39.1977 157.205C45.1572 157.635 51.1781 158.065 57.1376 158.803C70.7154 160.523 85.3376 164.148 96.9494 171.582L97.1337 171.705C97.1337 171.705 97.2566 171.766 97.1337 171.705C96.7651 171.397 96.0278 171.397 95.7206 171.643Z" fill="black"/>
<path d="M156.605 157.881C155.622 152.168 125.579 131.156 122.63 131.709C121.34 133.429 106.902 132.2 103.031 132.63C102.417 132.692 102.048 133.306 102.233 133.859C105.12 141.662 108.807 165.07 110.342 173.057C117.654 165.868 125.886 162.674 133.382 161.199C146.468 158.619 157.22 161.445 156.605 157.881Z" fill="white"/>
<path d="M155.93 158.004C153.472 151.553 129.266 135.211 122.937 133.245L123.92 132.63C122.999 133.552 122.139 133.429 121.094 133.49C119.866 133.429 118.33 133.367 117.101 133.245C114.09 132.999 110.527 132.937 107.455 132.937C106.042 132.937 104.568 132.937 103.216 133.06C102.909 133.06 102.786 133.245 102.724 133.49C103.769 136.439 104.567 139.634 105.305 142.645C107.394 151.123 109.175 160.4 111.08 169.001L111.94 172.749L109.298 171.889C119.067 162.796 131.907 159.294 144.994 159.171C147.144 159.11 149.233 159.11 151.322 159.11C152.305 159.049 156.175 159.233 155.93 158.004ZM156.79 157.881C157.158 160.277 152.796 159.97 151.322 160.154C149.233 160.216 147.083 160.277 144.994 160.339C132.645 160.646 119.804 164.701 111.449 174.162C110.588 175.084 108.93 174.592 108.807 173.302C106.841 160.584 104.998 145.778 101.496 133.49C101.496 132.692 102.233 131.954 103.032 131.954H103.523C104.875 131.893 106.103 131.954 107.394 132.016C109.667 132.139 112.8 132.262 115.073 132.262C117.285 132.262 119.558 132.262 121.647 131.647C121.893 131.586 122.2 131.401 122.2 131.34C122.2 131.279 122.262 131.156 122.323 131.156C123.06 131.033 123.552 131.279 124.105 131.524C130.187 134.289 155.561 152.29 156.79 157.881Z" fill="black"/>
<path d="M87.9791 184.238C90.6596 184.238 92.8327 182.065 92.8327 179.384C92.8327 176.704 90.6596 174.531 87.9791 174.531C85.2985 174.531 83.1255 176.704 83.1255 179.384C83.1255 182.065 85.2985 184.238 87.9791 184.238Z" fill="white"/>
<path d="M58.6731 199.352C64.9843 199.352 70.1005 194.235 70.1005 187.924C70.1005 181.613 64.9843 176.497 58.6731 176.497C52.3618 176.497 47.2456 181.613 47.2456 187.924C47.2456 194.235 52.3618 199.352 58.6731 199.352Z" fill="white"/>
<path d="M140.079 199.352C145.508 199.352 149.909 194.235 149.909 187.924C149.909 181.613 145.508 176.497 140.079 176.497C134.65 176.497 130.249 181.613 130.249 187.924C130.249 194.235 134.65 199.352 140.079 199.352Z" fill="white"/>
<path d="M117.163 183.624C119.707 183.624 121.77 181.561 121.77 179.016C121.77 176.471 119.707 174.408 117.163 174.408C114.618 174.408 112.555 176.471 112.555 179.016C112.555 181.561 114.618 183.624 117.163 183.624Z" fill="white"/>
<path d="M96.2124 166.298C95.9666 166.114 95.7209 165.929 95.4751 165.745" stroke="black" stroke-width="3" stroke-linecap="round" stroke-linejoin="round"/>
<path d="M90.5595 162.428C85.6444 159.724 80.1765 158.004 73.7255 156.222C58.8575 152.045 48.7203 153.396 35.8797 149.526C35.2039 149.341 34.4052 149.096 33.668 148.788" stroke="black" stroke-width="3" stroke-linecap="round" stroke-linejoin="round" stroke-dasharray="2.9 2.9"/>
<path d="M31.3337 147.007C31.2109 146.761 31.1494 146.454 31.1494 146.146" stroke="black" stroke-width="3" stroke-linecap="round" stroke-linejoin="round"/>
<path d="M109.359 167.097C109.359 167.097 109.605 166.851 110.035 166.482" stroke="black" stroke-width="3" stroke-linecap="round" stroke-linejoin="round"/>
<path d="M115.073 162.98C118.207 161.137 122.63 158.925 128.467 157.082C137.682 154.195 145.669 154.379 150.339 154.379" stroke="black" stroke-width="3" stroke-linecap="round" stroke-linejoin="round" stroke-dasharray="3 3"/>
<path d="M153.41 154.379C153.779 154.318 154.086 154.256 154.332 154.195" stroke="black" stroke-width="3" stroke-linecap="round" stroke-linejoin="round"/>
<path d="M90.6205 176.62C95.1055 177.418 103.707 178.34 114.581 176.435C116.302 176.128 117.899 177.357 118.022 179.077V179.384C118.145 180.859 117.162 182.211 115.749 182.518C111.387 183.562 101.618 185.037 89.3918 182.395C88.0401 182.088 87.0571 180.859 87.0571 179.507C87.1186 177.726 88.7774 176.312 90.6205 176.62Z" fill="white"/>
<path d="M90.6821 176.313C94.9213 176.988 99.2834 176.927 103.523 176.804C106.41 176.804 109.236 176.681 112.124 176.374C113.598 176.313 115.196 175.637 116.609 176.435C118.821 177.541 119.066 181.105 116.977 182.456C116.425 182.886 115.503 183.071 114.827 183.194C106.472 185.344 97.686 184.914 89.3919 182.825C85.337 181.719 86.5043 175.76 90.6821 176.313ZM90.5592 176.927C87.4259 176.374 86.1357 180.736 89.0847 181.965C91.8494 182.641 94.737 182.886 97.5631 183.071C100.389 183.255 103.277 183.316 106.103 183.194C108.929 183.071 111.817 182.886 114.643 182.395C115.319 182.272 115.994 182.211 116.609 181.842C118.329 180.798 118.145 177.848 116.302 176.988C115.687 176.681 115.073 176.681 114.397 176.865C112.247 177.296 110.096 177.664 107.946 177.91C102.171 178.709 96.2729 178.156 90.5592 176.927Z" fill="black"/>
<path d="M112.431 160.892C111.141 167.22 102.785 171.029 88.7162 165.315C74.0939 159.417 67.7658 145.348 66.1685 141.17C74.8312 124.95 68.8103 113.707 68.8103 113.707C88.7776 111.987 106.226 135.333 106.226 135.333L108.929 146.884C109.175 147.867 109.666 148.727 110.404 149.341C111.694 151.614 113.23 156.837 112.431 160.892Z" fill="white"/>
<path d="M65.8617 141.354C67.029 139.573 67.7663 137.484 68.2578 135.456C69.1793 131.217 69.4865 126.916 69.548 122.616V121.018C69.3637 119.421 68.8107 117.762 68.1963 116.288C67.3976 114.322 70.2852 113.093 71.2068 115.059C71.3297 115.305 71.3297 115.735 71.3297 115.98C71.514 124.336 71.8826 135.088 66.599 142.03C66.2303 142.399 65.4931 141.846 65.8617 141.354Z" fill="black"/>
<path d="M106.902 135.211C107.823 135.764 108.131 136.501 108.254 137.238C108.622 138.713 108.499 140.31 108.868 141.846C109.175 143.32 110.097 144.733 110.342 146.269C110.65 147.867 111.571 151.246 111.94 152.905C112.063 153.273 111.817 153.703 111.387 153.765C111.141 153.826 110.957 153.765 110.773 153.642C109.974 152.966 109.605 152.29 109.114 151.43C108.315 149.956 107.762 148.604 107.271 146.945C106.84 145.471 107.025 143.873 106.656 142.337C106.349 140.863 105.489 139.45 105.182 137.914C104.997 137.177 104.936 136.378 105.489 135.456C105.857 135.088 106.472 134.965 106.902 135.211Z" fill="black"/>
<path d="M111.326 151.43C99.5913 150.816 90.007 147.13 80.6685 130.48C88.5325 137.422 97.8096 140.064 107.578 141.293L108.868 146.945C109.114 147.928 110.589 150.816 111.326 151.43Z" fill="black"/>
<path d="M110.835 149.157C112.923 153.089 114.152 158.004 112.862 162.366C111.879 165.438 109.053 167.711 105.981 168.571C98.8541 170.476 90.6215 167.466 84.2934 164.086C76.4907 159.724 70.7156 152.413 67.0293 144.426C66.7836 143.812 67.6437 143.32 68.0123 143.935C69.3025 146.515 70.777 149.034 72.4358 151.307C74.0947 153.642 75.9992 155.792 78.1496 157.697C84.4162 163.349 92.8947 166.851 101.373 166.851C110.097 166.605 113.415 161.998 111.387 153.519C111.08 152.167 110.589 150.754 109.913 149.587C109.544 149.096 110.466 148.543 110.835 149.157Z" fill="black"/>
<path d="M134.611 75.37C135.716 80.5308 136.269 84.7086 133.259 98.4707C130.31 112.171 137.498 114.997 120.48 136.931C113.537 145.901 96.7034 143.382 83.0641 134.105C78.4563 130.971 76.4903 122.923 73.0498 117.209C70.3465 112.724 69.1177 117.394 65.5543 113.523C60.7007 108.239 54.8641 97.6105 57.7517 78.8105C62.421 48.3373 86.5661 44.7739 104.445 48.153C122.446 51.5935 131.662 61.7922 134.611 75.37Z" fill="white"/>
<path d="M68.6262 118.991C67.2131 116.595 65.37 114.506 63.6497 112.294C61.9909 110.021 60.6392 107.502 59.5334 104.922C52.2222 86.9818 55.0484 61.7308 72.9883 51.1635C80.4222 46.8628 89.3922 45.8184 97.7477 46.4942C115.626 47.7844 132.03 56.0171 135.901 74.94C137.99 83.2955 135.163 91.8968 133.566 100.068C132.829 104.123 133.443 108.301 133.382 112.479C133.32 116.718 132.153 120.957 130.556 124.889C129.573 127.592 127.852 129.988 126.071 132.2C123.122 135.763 120.173 139.388 116.425 142.153C115.565 142.767 114.029 143.075 112.984 143.197C110.097 143.628 107.271 143.75 104.383 143.566C93.0785 143.075 80.9752 137.607 76.4288 126.671C76.2445 126.241 76.8588 125.933 77.1046 126.302C83.0026 135.641 93.8157 140.248 104.567 140.863C107.885 141.047 111.264 140.986 114.52 140.31C116.118 139.511 117.531 138.098 118.882 136.808C122.2 133.49 125.579 129.927 127.975 125.872C130.863 120.404 132.46 114.445 131.969 108.239C131.846 105.475 131.784 102.587 132.337 99.8223C132.829 97.0576 133.443 94.4158 133.812 91.5896C134.18 88.8864 134.365 86.1217 134.365 83.4184C134.058 75.4929 131.477 67.3217 126.439 61.1779C115.319 47.3543 89.0236 43.7295 74.217 53.1909C64.8785 58.9661 60.5164 69.7792 59.1033 80.2851C56.953 92.8798 57.5673 105.29 67.5817 114.445L70.5307 117.516C71.6981 118.868 69.6092 120.465 68.6262 118.991Z" fill="black"/>
<path d="M75.8756 99.4536C75.8756 99.4536 73.971 90.238 65.0011 91.3438C57.2599 92.3268 54.5566 110.881 72.1279 116.042" fill="white"/>
<path d="M71.3293 107.994C69.9162 107.195 68.9332 105.843 68.8718 104.184C68.9332 102.956 69.1176 101.543 68.8104 100.314C68.6261 99.1466 67.3973 98.8394 66.4757 98.9008C65.4927 99.0851 64.8783 100.314 64.694 101.297C64.694 101.358 64.6326 101.543 64.6326 101.604C64.5711 101.911 64.0796 101.911 63.9568 101.604C63.1581 99.208 64.9398 96.5662 67.5202 96.8733C71.145 97.1191 71.6365 100.928 70.9607 103.816C70.5921 105.045 71.0836 106.15 71.7594 107.195L71.8823 107.379C72.1894 107.748 71.6979 108.239 71.3293 107.994Z" fill="black"/>
<path d="M120.48 92.9412C121.401 97.3033 123.121 101.358 125.272 105.167C127.176 109.837 122.261 114.26 117.899 114.076C117.408 114.076 117.346 113.4 117.776 113.277C120.541 112.417 123.06 110.574 123.49 107.748C123.674 106.888 123.429 106.15 122.999 105.413C120.971 101.604 119.742 97.2419 120.05 92.9412C120.05 92.634 120.48 92.634 120.48 92.9412Z" fill="black"/>
<path d="M75.5686 99.5151C74.1555 95.8902 71.0836 92.4497 66.9673 92.5112C66.5987 92.4497 65.9843 92.5726 65.6157 92.5726C64.5712 92.634 63.7111 93.0027 62.9124 93.7399C58.9804 97.6719 59.6562 104.614 62.8509 108.977C63.9568 110.512 65.3699 111.864 66.9673 112.97C68.5647 114.076 70.3464 114.936 72.2509 115.673C72.681 115.796 72.4967 116.472 72.0666 116.41C67.9503 115.55 64.0183 113.523 61.315 110.144C57.1372 105.106 56.2771 96.6889 61.2536 91.7739C62.3594 90.7909 63.8954 90.0536 65.4313 90.0536C65.9228 90.0536 66.6601 89.9308 67.1516 90.0536C69.732 90.1765 72.1895 91.4667 73.7869 93.4942C75.2 95.2144 75.9987 97.3033 76.2444 99.3922C76.2444 99.7608 75.6915 99.8837 75.5686 99.5151Z" fill="black"/>
<path d="M114.397 119.974C114.459 122.001 111.448 127.162 105.673 124.766C100.082 122.493 98.4235 111.803 106.41 116.902C110.465 119.605 113.046 120.035 114.397 119.974Z" fill="white"/>
<path d="M115.687 120.035C114.029 120.588 112.431 120.097 110.895 119.544C108.622 118.745 106.779 117.271 104.629 116.226C101.68 114.813 100.512 116.718 101.311 119.482C102.11 122.431 104.69 125.012 107.885 125.135C110.711 125.442 113.721 122.862 113.476 119.974C113.23 118.745 115.012 118.377 115.319 119.544C115.257 121.633 113.967 123.107 112.615 124.336C109.912 126.548 105.796 126.056 103.093 124.029C101.004 122.37 99.2835 119.728 99.6521 116.902C99.775 115.673 100.942 114.26 102.232 114.199C105.243 113.953 107.025 115.98 109.359 117.332C111.202 118.377 113.291 119.667 115.442 119.482C115.81 119.36 116.056 119.851 115.687 120.035Z" fill="black"/>
<path d="M101.434 117.762C102.417 119.175 103.952 119.912 105.55 120.281C105.918 120.404 106.226 120.404 106.533 120.404C107.086 120.404 107.639 120.834 107.946 121.141C109.42 122.309 111.448 122.493 113.291 122.554C113.721 122.554 113.721 123.292 113.291 123.23C111.325 123.107 109.236 122.923 107.393 122.001C107.024 121.878 106.84 121.756 106.533 121.756C105.366 121.878 104.444 121.141 103.584 120.65C102.601 120.097 101.618 119.544 100.45 119.298C99.8975 119.175 99.5904 118.684 99.6518 118.131C99.7747 117.271 101.003 117.025 101.434 117.762Z" fill="black"/>
<path d="M97.5635 99.2078C96.089 99.1464 94.9831 97.9176 95.106 96.4431L95.1674 94.7228C95.2289 93.2483 96.4576 92.1424 97.9321 92.2653C99.4067 92.3267 100.513 93.5555 100.39 95.03L100.328 96.7503C100.267 98.1633 99.038 99.2692 97.5635 99.2078Z" fill="black"/>
<path d="M123.429 100.129C122.077 100.068 121.032 98.9007 121.094 97.5491L121.155 95.9517C121.217 94.6001 122.384 93.5556 123.736 93.6171C125.087 93.6785 126.132 94.8458 126.07 96.1975L126.009 97.7949C125.947 99.1465 124.78 100.191 123.429 100.129Z" fill="black"/>
<path d="M103.093 95.8902C101.065 94.5386 98.8537 93.617 96.3961 94.1085C95.5974 94.2314 94.7988 94.4771 94.3073 95.0301C94.1229 95.2758 93.6929 95.2144 93.6929 94.8458C93.7543 93.617 94.7987 92.8183 95.7818 92.3268C97.6863 91.3438 100.328 91.5281 102.048 92.8183C102.663 93.1869 104.752 95.4601 103.646 95.9516C103.4 96.0745 103.277 96.0131 103.093 95.8902Z" fill="black"/>
<path d="M120.664 96.1973C120.664 93.617 123.859 92.6954 125.825 93.617C126.931 94.1085 127.729 95.0915 128.037 96.2588C128.159 96.6274 127.607 96.9346 127.361 96.6274C126.316 95.3987 124.535 94.7843 123.122 95.5215C122.692 95.7673 122.63 95.9516 122.507 96.1973C122.507 97.4261 120.726 97.3647 120.664 96.1973Z" fill="black"/>
<path d="M106.042 85.7529C107.332 86.183 108.622 85.0157 108.376 83.6026C108.254 82.8654 107.946 82.1281 107.332 81.5752C105.489 79.9163 97.8706 78.4418 93.2627 80.5922C89.2078 82.5582 100.144 83.7869 106.042 85.7529Z" fill="black"/>
<path d="M124.412 86.7359C123.368 87.1045 122.262 85.9987 122.446 84.7085C122.507 84.0326 122.753 83.3568 123.245 82.8653C124.719 81.3908 129.757 80.2235 132.952 82.4967C135.717 84.4013 129.204 84.9542 124.412 86.7359Z" fill="black"/>
<path d="M140.815 85.8759C141.614 83.4798 141.061 61.7308 131.722 53.2523C122.445 44.7739 91.2349 44.5896 91.2349 44.5896C70.2846 44.4053 60.5159 51.655 53.5734 74.387C49.3342 88.3334 55.048 74.817 35.9408 98.2249C28.0767 108.546 28.1382 118.377 32.3159 126.548C43.0061 147.56 74.7695 157.205 74.7695 134.043C74.7695 130.05 73.7251 125.196 71.329 119.36C70.7761 118.069 70.4689 116.718 70.4074 115.428C54.6793 109.652 57.444 92.2654 64.9395 91.2824C70.2846 90.6066 73.1107 93.617 74.5238 96.136C74.7695 96.6889 74.9538 97.119 75.1996 97.5491C78.5787 103.816 80.4833 94.5386 80.2989 86.1216C80.9133 86.0602 84.5996 85.8759 90.0676 85.753C92.3408 85.6916 94.1225 83.787 93.9996 81.5138C93.8767 78.9334 93.8153 76.353 94.6754 73.834C95.4127 76.5373 95.8427 79.2406 96.1499 82.0053C96.3957 84.0327 98.1159 85.6301 100.143 85.6301C104.874 85.6301 110.096 85.753 115.38 85.9373C117.407 85.9987 119.189 84.5857 119.558 82.6197C119.865 81.0223 120.111 79.3635 120.479 77.7661C120.725 77.7661 120.602 77.7661 120.848 77.8275C120.787 79.3635 120.725 80.8994 120.725 82.4353C120.664 84.5857 122.322 86.3674 124.473 86.5517H124.534C126.439 86.736 128.221 85.5072 128.712 83.6641C129.081 82.4968 129.449 81.268 129.818 80.1007C130.064 80.1621 130.002 80.1007 130.248 80.1621C130.187 81.0837 130.125 82.0667 130.002 82.9883C129.756 84.9543 130.985 86.7974 132.767 87.3504C135.409 87.3504 137.989 87.2275 140.201 86.4902C140.57 86.3674 140.754 86.1216 140.815 85.8759Z" fill="black"/>
<path d="M75.3228 97.6719C75.077 97.2418 74.8927 96.8117 74.647 96.2588C74.8927 96.7503 75.1385 97.2418 75.3228 97.6719Z" fill="black"/>
</g>
<path d="M1.376 21H8.096V19.48H5.792V9.224H4.4C3.728 9.64 2.944 9.912 1.84 10.12V11.288H3.952V19.48H1.376V21ZM13.269 15.24C12.037 15.24 11.365 14.376 11.365 12.872C11.365 11.336 12.165 10.424 13.173 10.424C14.453 10.424 15.333 11.48 15.509 13.8C14.805 14.824 13.989 15.24 13.269 15.24ZM9.845 19.96C10.533 20.664 11.493 21.208 12.853 21.208C15.125 21.208 17.237 19.352 17.237 14.712C17.237 10.824 15.413 9 13.157 9C11.253 9 9.653 10.536 9.653 12.872C9.653 15.336 10.981 16.568 12.949 16.568C13.845 16.568 14.853 16.04 15.541 15.192C15.429 18.552 14.197 19.704 12.773 19.704C12.021 19.704 11.301 19.352 10.837 18.824L9.845 19.96ZM19.562 9.304V10.648H24.714C24.426 13.976 22.634 16.52 18.842 18.344L19.722 19.656C24.682 17.256 26.41 13.608 26.41 9.304H19.562ZM29.018 7.784V22.232H30.666V7.784H29.018Z" fill="#8B6517"/>
</svg>
