<svg width="188" height="234" viewBox="0 0 188 234" fill="none" xmlns="http://www.w3.org/2000/svg">
<path d="M69.1223 212.36V214.44H74.8223C74.4423 216.88 72.1423 218.9 68.0623 219.92L69.0623 221.98C74.5423 220.58 77.6423 217.26 77.6423 212.36H69.1223ZM73.6823 224.42H80.6623V227.44H73.6823V224.42ZM71.0823 229.5H83.2623V222.34H71.0823V229.5ZM80.6023 211.32V221.56H83.2623V211.32H80.6023ZM89.5008 215.14H95.4608V213H86.8608V225.34H88.4408C91.6408 225.34 94.1608 225.24 96.9408 224.74L96.6808 222.56C94.3008 222.96 92.1208 223.1 89.5008 223.14V215.14ZM103.261 218.1H100.581V211.3H97.9408V229.76H100.581V220.28H103.261V218.1ZM112.679 213.92C115.159 213.92 116.639 214.52 116.639 215.64C116.639 216.78 115.159 217.34 112.679 217.34C110.219 217.34 108.739 216.78 108.739 215.64C108.739 214.52 110.219 213.92 112.679 213.92ZM112.679 219.44C116.699 219.44 119.359 217.98 119.359 215.64C119.359 213.3 116.699 211.84 112.679 211.84C108.679 211.84 106.019 213.3 106.019 215.64C106.019 217.98 108.679 219.44 112.679 219.44ZM109.019 224.04H106.379V229.4H119.139V227.3H109.019V224.04ZM104.359 220.7V222.8H120.999V220.7H104.359Z" fill="#111111"/>
<path d="M0 104C0 52.0852 42.0852 10 94 10C145.915 10 188 52.0852 188 104V178C188 189.046 179.046 198 168 198H20C8.9543 198 0 189.046 0 178V104Z" fill="#FFE1A4"/>
<mask id="mask0_322_1401" style="mask-type:alpha" maskUnits="userSpaceOnUse" x="0" y="10" width="188" height="188">
<path d="M0 10H188V178C188 189.046 179.046 198 168 198H20C8.9543 198 0 189.046 0 178V10Z" fill="#D9D9D9"/>
</mask>
<g mask="url(#mask0_322_1401)">
<path d="M145.055 181.043C144.625 181.35 144.133 181.658 143.703 181.965C143.212 182.272 142.782 182.579 142.29 182.825C141.86 183.071 141.491 183.316 141.061 183.562C141 183.624 140.938 183.624 140.877 183.685C139.464 184.545 137.989 185.344 136.515 186.081C136.085 186.327 135.593 186.573 135.163 186.757C135.163 186.757 135.102 186.818 135.04 186.818C134.549 187.064 134.057 187.31 133.566 187.556C132.583 188.047 131.538 188.477 130.555 188.907C130.064 189.153 129.511 189.337 129.02 189.522C128.528 189.706 127.975 189.952 127.484 190.136C126.992 190.32 126.439 190.566 125.948 190.75C125.948 190.75 125.948 190.75 125.886 190.75C125.395 190.935 124.842 191.119 124.35 191.303C123.244 191.672 122.077 192.041 120.971 192.409C120.603 192.532 120.172 192.655 119.804 192.778C118.637 193.146 117.469 193.454 116.302 193.699C115.872 193.822 115.442 193.884 114.95 194.007C113.844 194.252 112.677 194.498 111.571 194.744C111.325 194.805 111.141 194.805 110.895 194.867C110.527 194.928 110.097 194.99 109.728 195.051C109.175 195.112 108.684 195.235 108.131 195.297C107.885 195.358 107.639 195.358 107.393 195.42C107.086 195.481 106.718 195.543 106.349 195.543C105.366 195.665 104.322 195.788 103.338 195.911C103.031 195.973 102.663 195.973 102.355 196.034H102.294C101.864 196.095 101.434 196.095 101.004 196.157C100.574 196.218 100.144 196.218 99.7137 196.218C99.4679 196.218 99.1607 196.28 98.915 196.28C98.4235 196.28 97.9934 196.341 97.5633 196.341C96.949 196.341 96.396 196.403 95.7816 196.403C95.1673 196.403 94.6143 196.403 93.9999 196.403C93.5699 196.403 93.1398 196.403 92.7097 196.403C66.7829 196.034 43.498 185.037 26.8483 167.588C26.8483 167.588 26.8483 167.527 26.7869 167.527C24.9437 165.868 26.5411 157.021 33.9751 151.43C43.3137 144.365 65.6771 139.941 65.6771 139.941C65.6771 139.941 74.3398 138.528 106.472 145.225C125.272 149.157 139.587 154.871 147.574 170.353C149.233 173.548 150.891 178.463 145.055 181.043Z" fill="white"/>
<path d="M106.656 144.549C118.452 146.945 131.047 149.526 140.754 157.328C144.011 159.97 146.161 163.841 147.943 167.588C148.803 169.431 149.663 171.336 150.339 173.363C150.707 174.715 151.26 176.251 150.953 177.848C150.892 178.279 150.523 178.831 150.216 179.139C148.803 180.552 147.267 181.412 145.731 182.518C136.699 188.784 126.316 193.208 115.565 195.543C91.6041 200.765 65.6773 196.71 44.6041 184.115C37.6001 179.876 31.1492 174.715 25.6198 168.633C25.0054 167.896 25.0054 166.667 25.0054 165.868C25.0668 164.025 25.5583 162.243 26.1727 160.584C27.6472 156.775 29.5518 152.966 32.808 150.324C35.1426 148.727 37.6616 147.375 40.242 146.269C48.3518 142.829 56.8916 140.433 65.6773 139.45C66.4145 139.388 66.5374 140.433 65.8001 140.556C57.3831 142.276 49.0276 144.856 41.225 148.358C38.3988 149.771 35.3884 151 33.1152 153.212C30.9648 155.546 29.4289 158.434 28.2001 161.383C27.4015 163.165 26.8485 165.991 27.0943 167.404C30.9648 172.012 35.5113 176.067 40.4263 179.569C67.3361 198.369 108.192 199.597 136.822 183.931C139.403 182.518 141.922 180.92 144.318 179.262C145.485 178.463 146.714 177.787 147.635 176.865C147.697 176.804 147.635 176.865 147.635 176.927C147.635 176.988 147.574 177.05 147.574 177.05C147.635 176.312 147.39 175.329 147.082 174.346C145.977 170.783 144.195 167.035 142.29 163.779C139.28 158.926 134.181 155.854 129.02 153.396C125.456 151.737 121.709 150.447 117.899 149.218C114.09 147.99 110.22 146.945 106.349 146.024C105.366 145.778 105.673 144.365 106.656 144.549Z" fill="black"/>
<path d="M165.453 219.135H10.0762C10.0762 219.135 19.2304 199.843 23.2853 177.848C26.1115 162.612 28.2004 153.703 36.1258 148.788C41.7167 145.348 57.4448 140.371 68.6265 138.774C73.1729 138.159 82.2043 137.484 90.0069 138.098C95.9049 138.835 108.07 142.276 112.739 143.566C119.743 145.532 134.918 151.369 141.615 157.512C144.257 159.97 150.523 172.257 154.578 190.074C159.247 210.349 165.453 219.135 165.453 219.135Z" fill="white"/>
<path d="M166.865 219.872C120.603 220.241 55.7243 221.101 10.1373 221.039C8.78572 221.101 7.80271 219.565 8.41709 218.336C9.52297 216.001 10.5674 213.605 11.5504 211.148C15.974 200.212 19.7217 188.969 21.9949 177.418C23.838 168.387 25.3125 158.311 32.1321 151.492C34.0367 149.587 36.3713 148.112 38.7674 147.007C43.621 144.795 48.5975 142.952 53.6354 141.354C63.7726 138.037 74.5243 136.624 85.2145 136.808C90.5596 136.808 95.9661 137.668 101.188 138.897C103.462 139.327 106.656 140.31 108.868 140.924L110.773 141.477C111.141 141.661 111.264 142.399 111.448 142.767C111.571 143.013 111.694 143.075 111.879 143.136C112.186 143.197 112.677 142.767 112.984 142.89C119.19 144.733 125.149 147.437 130.863 150.447C134.918 152.72 139.096 154.932 142.413 158.25C145.301 161.936 147.635 166.052 149.786 170.23C155.008 180.982 156.482 193.146 160.476 204.267C161.95 208.506 163.671 212.745 165.76 216.739L166.19 217.537L166.435 217.967L166.558 218.152L166.62 218.275C166.988 218.52 167.111 219.442 166.865 219.872ZM164.039 218.397C163.732 218.766 163.794 219.565 164.039 219.872L163.978 219.749L163.855 219.503L163.609 219.073C161.09 214.65 159.309 209.919 157.711 205.127C153.533 192.594 152.182 179.2 146.284 167.281C144.809 164.271 143.335 161.199 141.123 158.68C139.833 157.512 138.42 156.529 136.945 155.608C130.31 151.553 122.876 148.788 115.565 146.146C114.95 145.901 113.414 145.409 112.8 145.225C112.309 145.102 112.124 145.041 112.001 144.426C111.879 143.935 111.756 143.32 111.203 143.566C110.896 143.689 110.343 144.426 109.974 144.365C108.745 144.058 105.489 143.197 104.26 142.89C99.5295 141.661 94.8602 140.126 90.0681 139.204C75.323 137.914 60.5779 140.494 46.5086 144.856C41.655 146.515 36.3099 148.051 32.8079 152.044C26.7256 159.601 25.6811 172.319 23.7766 181.719C21.1347 194.805 17.1413 207.523 11.7962 219.872L10.0759 217.169C54.557 217.353 118.944 217.906 164.039 218.397Z" fill="black"/>
<path d="M66.7216 144.979C64.817 145.164 62.7896 145.594 61.0693 146.577C60.885 146.699 60.6393 146.392 60.8236 146.269C62.421 144.856 64.4484 144.058 66.4144 143.443C66.8445 143.32 67.2746 143.566 67.336 143.996C67.5203 144.488 67.2131 144.979 66.7216 144.979Z" fill="black"/>
<path d="M71.6367 152.843C69.4249 153.335 67.2746 154.379 65.4929 155.854C64.0798 156.1 67.6432 153.212 67.889 153.089C68.9334 152.352 69.9778 151.799 71.2066 151.307C71.5752 151.185 72.0667 151.369 72.1896 151.738C72.4354 152.29 72.1282 152.782 71.6367 152.843Z" fill="black"/>
<path d="M79.5619 160.707C77.7802 162.12 76.2442 164.025 75.2612 166.114C75.1998 166.237 75.0155 166.298 74.8926 166.237C74.7697 166.175 74.7083 166.052 74.7697 165.93C75.1383 164.762 75.6298 163.595 76.3057 162.55C76.9815 161.445 77.7187 160.462 78.5789 159.54C78.8861 159.233 79.3776 159.233 79.6847 159.54C79.9919 159.847 79.9919 160.462 79.5619 160.707Z" fill="black"/>
<path d="M92.8327 166.79C91.7883 169.001 90.9896 171.397 90.8667 173.855C90.8667 174.285 90.1294 174.285 90.1294 173.855C90.0066 171.889 90.3137 169.923 90.8667 168.08C91.1739 167.343 91.2353 165.377 92.4641 165.745C92.8327 165.868 93.017 166.36 92.8327 166.79Z" fill="black"/>
<path d="M106.902 167.036C107.27 167.896 110.097 174.777 108.745 174.838C108.561 174.838 108.376 174.715 108.376 174.531C108.315 173.917 108.131 173.364 107.885 172.749C107.27 171.029 106.41 169.309 105.489 167.711C105.059 166.79 106.472 166.053 106.902 167.036Z" fill="black"/>
<path d="M112.739 153.458C115.012 153.888 116.916 155.239 118.329 156.96C118.391 157.021 118.391 157.205 118.329 157.267C118.268 157.328 118.145 157.328 118.022 157.267C116.548 155.977 114.582 155.055 112.616 154.994C111.448 154.932 111.633 153.273 112.739 153.458Z" fill="black"/>
<path d="M110.527 146.27C112.431 146.761 114.213 147.56 115.626 148.911C115.749 149.034 115.749 149.219 115.626 149.341C115.503 149.464 115.38 149.464 115.258 149.403C113.783 148.42 112.001 147.928 110.281 147.805C109.175 147.683 109.421 146.024 110.527 146.27Z" fill="black"/>
<path d="M112.739 162.12C114.459 163.533 116.179 165.008 117.285 166.974C117.346 167.035 117.285 167.158 117.224 167.22C117.162 167.281 117.039 167.22 116.978 167.158C115.626 165.499 113.783 164.394 111.94 163.349C110.957 162.858 111.817 161.445 112.739 162.12Z" fill="black"/>
<path d="M112.431 160.892C111.141 167.22 102.785 171.029 88.7162 165.315C74.0939 159.417 67.7658 145.348 66.1685 141.17C74.8312 124.95 68.8103 113.707 68.8103 113.707C88.7776 111.987 106.226 135.333 106.226 135.333L108.929 146.884C109.175 147.867 109.666 148.727 110.404 149.341C111.694 151.614 113.23 156.837 112.431 160.892Z" fill="white"/>
<path d="M65.8617 141.354C67.029 139.573 67.7663 137.484 68.2578 135.456C69.1793 131.217 69.4865 126.916 69.548 122.616V121.018C69.3637 119.421 68.8107 117.762 68.1963 116.288C67.3976 114.322 70.2852 113.093 71.2068 115.059C71.3297 115.305 71.3297 115.735 71.3297 115.98C71.514 124.336 71.8826 135.088 66.599 142.03C66.2303 142.399 65.4931 141.846 65.8617 141.354Z" fill="black"/>
<path d="M106.902 135.211C107.823 135.764 108.131 136.501 108.254 137.238C108.622 138.713 108.499 140.31 108.868 141.846C109.175 143.32 110.097 144.733 110.342 146.269C110.65 147.867 111.571 151.246 111.94 152.905C112.063 153.273 111.817 153.703 111.387 153.765C111.141 153.826 110.957 153.765 110.773 153.642C109.974 152.966 109.605 152.29 109.114 151.43C108.315 149.956 107.762 148.604 107.271 146.945C106.84 145.471 107.025 143.873 106.656 142.337C106.349 140.863 105.489 139.45 105.182 137.914C104.997 137.177 104.936 136.378 105.489 135.456C105.857 135.088 106.472 134.965 106.902 135.211Z" fill="black"/>
<path d="M111.326 151.43C99.5913 150.816 90.007 147.13 80.6685 130.48C88.5325 137.422 97.8096 140.064 107.578 141.293L108.868 146.945C109.114 147.928 110.589 150.816 111.326 151.43Z" fill="black"/>
<path d="M110.835 149.157C112.923 153.089 114.152 158.004 112.862 162.366C111.879 165.438 109.053 167.711 105.981 168.571C98.8541 170.476 90.6215 167.466 84.2934 164.086C76.4907 159.724 70.7156 152.413 67.0293 144.426C66.7836 143.812 67.6437 143.32 68.0123 143.935C69.3025 146.515 70.777 149.034 72.4358 151.307C74.0947 153.642 75.9992 155.792 78.1496 157.697C84.4162 163.349 92.8947 166.851 101.373 166.851C110.097 166.605 113.415 161.998 111.387 153.519C111.08 152.167 110.589 150.754 109.913 149.587C109.544 149.096 110.466 148.543 110.835 149.157Z" fill="black"/>
<path d="M134.611 75.37C135.716 80.5308 136.269 84.7086 133.259 98.4707C130.31 112.171 137.498 114.997 120.48 136.931C113.537 145.901 96.7034 143.382 83.0641 134.105C78.4563 130.971 76.4903 122.923 73.0498 117.209C70.3465 112.724 69.1177 117.394 65.5543 113.523C60.7007 108.239 54.8641 97.6105 57.7517 78.8105C62.421 48.3373 86.5661 44.7739 104.445 48.153C122.446 51.5935 131.662 61.7922 134.611 75.37Z" fill="white"/>
<path d="M68.6262 118.991C67.2131 116.595 65.37 114.506 63.6497 112.294C61.9909 110.021 60.6392 107.502 59.5334 104.922C52.2222 86.9818 55.0484 61.7308 72.9883 51.1635C80.4222 46.8628 89.3922 45.8184 97.7477 46.4942C115.626 47.7844 132.03 56.0171 135.901 74.94C137.99 83.2955 135.163 91.8968 133.566 100.068C132.829 104.123 133.443 108.301 133.382 112.479C133.32 116.718 132.153 120.957 130.556 124.889C129.573 127.592 127.852 129.988 126.071 132.2C123.122 135.763 120.173 139.388 116.425 142.153C115.565 142.767 114.029 143.075 112.984 143.197C110.097 143.628 107.271 143.75 104.383 143.566C93.0785 143.075 80.9752 137.607 76.4288 126.671C76.2445 126.241 76.8588 125.933 77.1046 126.302C83.0026 135.641 93.8157 140.248 104.567 140.863C107.885 141.047 111.264 140.986 114.52 140.31C116.118 139.511 117.531 138.098 118.882 136.808C122.2 133.49 125.579 129.927 127.975 125.872C130.863 120.404 132.46 114.445 131.969 108.239C131.846 105.475 131.784 102.587 132.337 99.8223C132.829 97.0576 133.443 94.4158 133.812 91.5896C134.18 88.8864 134.365 86.1217 134.365 83.4184C134.058 75.4929 131.477 67.3217 126.439 61.1779C115.319 47.3543 89.0236 43.7295 74.217 53.1909C64.8785 58.9661 60.5164 69.7792 59.1033 80.2851C56.953 92.8798 57.5673 105.29 67.5817 114.445L70.5307 117.516C71.6981 118.868 69.6092 120.465 68.6262 118.991Z" fill="black"/>
<path d="M75.8756 99.4536C75.8756 99.4536 73.971 90.238 65.0011 91.3438C57.2599 92.3268 54.5566 110.881 72.1279 116.042" fill="white"/>
<path d="M71.3293 107.994C69.9162 107.195 68.9332 105.843 68.8718 104.184C68.9332 102.956 69.1176 101.543 68.8104 100.314C68.6261 99.1466 67.3973 98.8394 66.4757 98.9008C65.4927 99.0851 64.8783 100.314 64.694 101.297C64.694 101.358 64.6326 101.543 64.6326 101.604C64.5711 101.911 64.0796 101.911 63.9568 101.604C63.1581 99.208 64.9398 96.5662 67.5202 96.8733C71.145 97.1191 71.6365 100.928 70.9607 103.816C70.5921 105.045 71.0836 106.15 71.7594 107.195L71.8823 107.379C72.1894 107.748 71.6979 108.239 71.3293 107.994Z" fill="black"/>
<path d="M120.48 92.9412C121.401 97.3033 123.121 101.358 125.272 105.167C127.176 109.837 122.261 114.26 117.899 114.076C117.408 114.076 117.346 113.4 117.776 113.277C120.541 112.417 123.06 110.574 123.49 107.748C123.674 106.888 123.429 106.15 122.999 105.413C120.971 101.604 119.742 97.2419 120.05 92.9412C120.05 92.634 120.48 92.634 120.48 92.9412Z" fill="black"/>
<path d="M75.5686 99.5151C74.1555 95.8902 71.0836 92.4497 66.9673 92.5112C66.5987 92.4497 65.9843 92.5726 65.6157 92.5726C64.5712 92.634 63.7111 93.0027 62.9124 93.7399C58.9804 97.6719 59.6562 104.614 62.8509 108.977C63.9568 110.512 65.3699 111.864 66.9673 112.97C68.5647 114.076 70.3464 114.936 72.2509 115.673C72.681 115.796 72.4967 116.472 72.0666 116.41C67.9503 115.55 64.0183 113.523 61.315 110.144C57.1372 105.106 56.2771 96.6889 61.2536 91.7739C62.3594 90.7909 63.8954 90.0536 65.4313 90.0536C65.9228 90.0536 66.6601 89.9308 67.1516 90.0536C69.732 90.1765 72.1895 91.4667 73.7869 93.4942C75.2 95.2144 75.9987 97.3033 76.2444 99.3922C76.2444 99.7608 75.6915 99.8837 75.5686 99.5151Z" fill="black"/>
<path d="M116.363 119.912C115.319 120.65 113.783 120.035 112.677 120.527C111.878 120.773 110.588 121.878 108.745 121.756C107.27 121.633 106.533 120.895 105.304 120.342C104.014 119.912 102.662 119.114 101.802 118.069C101.618 117.885 101.618 117.639 101.802 117.455C102.048 117.209 102.294 117.393 102.54 117.516C103.092 117.824 103.523 118.069 103.953 118.192C104.383 118.315 104.813 118.192 105.489 118.192C106.164 118.131 107.147 118.438 107.762 118.929C108.192 119.237 108.683 119.421 109.052 119.482C110.035 119.667 111.264 118.868 112.308 118.745C113.045 118.622 113.844 118.684 114.459 118.868C115.073 119.052 115.503 119.175 115.994 119.052C116.547 118.929 116.855 119.667 116.363 119.912Z" fill="black"/>
<path d="M97.5635 99.2078C96.089 99.1464 94.9831 97.9176 95.106 96.4431L95.1674 94.7228C95.2289 93.2483 96.4576 92.1424 97.9321 92.2653C99.4067 92.3267 100.513 93.5555 100.39 95.03L100.328 96.7503C100.267 98.1633 99.038 99.2692 97.5635 99.2078Z" fill="black"/>
<path d="M123.429 100.129C122.077 100.068 121.032 98.9007 121.094 97.5491L121.155 95.9517C121.217 94.6001 122.384 93.5556 123.736 93.6171C125.087 93.6785 126.132 94.8458 126.07 96.1975L126.009 97.7949C125.947 99.1465 124.78 100.191 123.429 100.129Z" fill="black"/>
<path d="M103.093 95.8902C101.065 94.5386 98.8537 93.617 96.3961 94.1085C95.5974 94.2314 94.7988 94.4771 94.3073 95.0301C94.1229 95.2758 93.6929 95.2144 93.6929 94.8458C93.7543 93.617 94.7987 92.8183 95.7818 92.3268C97.6863 91.3438 100.328 91.5281 102.048 92.8183C102.663 93.1869 104.752 95.4601 103.646 95.9516C103.4 96.0745 103.277 96.0131 103.093 95.8902Z" fill="black"/>
<path d="M120.664 96.1973C120.664 93.617 123.859 92.6954 125.825 93.617C126.931 94.1085 127.729 95.0915 128.037 96.2588C128.159 96.6274 127.607 96.9346 127.361 96.6274C126.316 95.3987 124.535 94.7843 123.122 95.5215C122.692 95.7673 122.63 95.9516 122.507 96.1973C122.507 97.4261 120.726 97.3647 120.664 96.1973Z" fill="black"/>
<path d="M106.042 85.7529C107.332 86.183 108.622 85.0157 108.376 83.6026C108.254 82.8654 107.946 82.1281 107.332 81.5752C105.489 79.9163 97.8706 78.4418 93.2627 80.5922C89.2078 82.5582 100.144 83.7869 106.042 85.7529Z" fill="black"/>
<path d="M124.412 86.7359C123.368 87.1045 122.262 85.9987 122.446 84.7085C122.507 84.0326 122.753 83.3568 123.245 82.8653C124.719 81.3908 129.757 80.2235 132.952 82.4967C135.717 84.4013 129.204 84.9542 124.412 86.7359Z" fill="black"/>
<path d="M142.294 129.62C135.167 111.434 136.089 105.72 137.809 90.4224C141.25 60.3179 130.375 53.0068 124.661 50.1192C100.332 37.7702 72.4391 43.7911 61.9332 60.7479C55.3594 71.3153 55.1136 79.7937 51.4274 91.9584C45.0993 112.786 29.8627 122.002 34.5934 143.32C41.1058 164.332 82.7607 173.609 81.962 151.737C81.4705 138.528 71.579 136.747 71.3947 118.5C71.3947 117.271 71.4561 116.103 71.579 114.998C54.6221 109.653 57.3254 91.4669 65.0051 90.4839C70.3502 89.8081 73.1764 92.8185 74.5895 95.3375C74.7123 95.7061 74.8966 96.0133 75.081 96.3819C76.3097 98.4708 90.8091 94.5388 101.868 87.7192C108.319 83.7257 118.395 76.8447 121.159 69.2878C121.282 68.9806 123.248 78.4421 132.464 90.7296C132.034 98.0407 133.877 116.288 124.538 131.34C117.78 142.337 109.302 143.32 109.302 143.32C109.302 150.632 122.265 150.263 127.672 151.492C134.43 152.966 141.127 157.021 141.127 157.021C141.127 157.021 148.868 146.392 142.294 129.62Z" fill="black"/>
<path d="M68.9944 101.358C68.9944 101.358 64.0793 100.621 64.448 107.502C64.6323 111.004 64.6323 112.908 64.5708 113.891C64.5094 114.567 64.9395 115.182 65.5538 115.427C66.2911 115.735 67.0898 115.427 67.4584 114.69C68.0114 113.707 68.6257 112.356 68.6257 111.25C68.6257 109.407 70.5918 107.748 70.5918 107.748C70.5918 107.748 68.8101 106.212 68.9944 101.358Z" fill="white"/>
<path d="M68.8101 101.542C68.8101 101.604 68.8715 101.665 68.9329 101.665C68.9329 101.665 68.9329 101.665 68.8715 101.665H68.7486C65.7996 101.911 64.878 104.491 65.0009 107.133C65.0623 108.854 65.1852 110.574 65.1238 112.233C65.2467 113.154 64.6937 114.383 65.6153 114.874C66.1682 115.182 66.9055 114.936 67.1512 114.322C67.7042 113.216 68.2571 112.11 68.2571 110.881C68.5029 109.468 69.4244 108.362 70.4074 107.502V107.993C69.1172 106.642 68.8101 104.799 68.6257 103.078C68.6872 102.648 68.6872 101.973 68.8101 101.542ZM69.2401 101.112C69.4244 102.833 69.4244 104.614 70.1617 106.15C70.346 106.58 70.6532 107.072 71.0218 107.379C71.2676 107.563 71.2676 107.932 71.0218 108.116C70.1617 108.915 69.4244 109.898 69.3016 111.004C69.3016 112.356 68.7486 113.646 68.1342 114.813C67.6427 115.857 66.2297 116.41 65.1852 115.796C64.5094 115.427 64.0179 114.69 64.0179 113.891C64.0179 113.277 64.0793 112.786 64.0793 112.171C64.0793 110.451 63.9565 108.792 63.895 107.072C63.895 105.966 63.9565 104.676 64.448 103.57C65.0623 101.85 66.9669 100.682 68.8101 100.99C68.9944 100.99 69.1787 101.051 69.2401 101.112Z" fill="black"/>
<path d="M68.1959 174.101C70.2233 165.254 67.5815 155.301 65.3083 146.454C64.3867 142.952 63.4652 139.634 63.0351 136.746C62.2364 131.893 62.7894 127.285 64.7554 122.984C67.1514 117.639 66.7828 113.093 66.7828 112.908L65.5541 113.031C65.5541 113.093 65.9227 117.516 63.6495 122.493C61.622 126.978 61.0077 131.831 61.8063 136.931C62.2979 139.88 63.158 143.259 64.0796 146.761C66.3528 155.423 68.9331 165.254 66.9671 173.793C65.8613 178.524 68.0116 186.265 71.0835 194.006C71.575 194.068 72.005 194.129 72.4965 194.191C69.3632 186.45 67.1514 178.647 68.1959 174.101Z" fill="black"/>
<path d="M64.6323 111.065C64.6937 112.417 64.6323 113.339 64.6323 113.891C64.5709 114.567 65.0009 115.182 65.6153 115.427C66.3526 115.735 67.1513 115.427 67.5199 114.69C68.0728 113.707 68.6872 112.356 68.6872 111.25C68.6872 111.188 68.6872 111.065 68.6872 111.004C67.4585 111.495 65.9839 111.864 64.6323 111.065Z" fill="white"/>
<path d="M64.8166 111.311C64.8781 112.171 64.9395 112.97 64.9395 113.83C64.8781 114.199 65.0009 114.567 65.2467 114.874C66.0454 115.673 67.1513 115.182 67.4585 114.199C67.95 113.216 68.38 112.171 68.38 111.065L68.8101 111.372C67.4585 111.618 66.0454 111.987 64.7552 111.434C64.7552 111.434 64.8166 111.372 64.8166 111.311ZM64.5094 110.758C64.6323 110.758 64.8781 110.82 65.0009 110.942C66.1068 111.741 67.5199 111.372 68.6258 110.758C68.8101 110.635 69.1173 110.82 69.0558 111.065C68.9944 112.478 68.4415 113.83 67.7042 115.059C67.0284 115.98 65.6153 116.042 64.8166 115.243C64.448 114.874 64.2637 114.26 64.3251 113.769C64.3251 112.724 64.448 111.741 64.5094 110.758Z" fill="black"/>
<path d="M122.507 151.922C123.551 144.672 122.568 139.511 122.2 137.975C122.016 138.098 121.893 138.282 121.708 138.405C121.524 138.589 121.34 138.712 121.155 138.897C121.524 140.863 122.2 145.532 121.278 151.737C120.848 154.625 120.725 159.171 120.664 164.455C120.541 169.554 118.944 182.272 117.039 194.314C117.469 194.191 117.899 194.068 118.329 194.006C120.234 182.088 121.77 169.616 121.893 164.516C122.016 159.233 122.077 154.748 122.507 151.922Z" fill="black"/>
</g>
<path d="M0.704 21H8.304V19.432H5.36C4.784 19.432 4.048 19.48 3.44 19.544C5.936 17.16 7.744 14.808 7.744 12.536C7.744 10.408 6.352 9 4.192 9C2.656 9 1.616 9.672 0.608 10.76L1.648 11.784C2.272 11.064 3.04 10.472 3.968 10.472C5.28 10.472 5.968 11.352 5.968 12.632C5.968 14.568 4.176 16.856 0.704 19.928V21ZM13.541 21.208C15.813 21.208 17.349 19.864 17.349 18.12C17.349 16.52 16.421 15.608 15.365 15V14.92C16.101 14.376 16.917 13.352 16.917 12.152C16.917 10.312 15.637 9.032 13.589 9.032C11.653 9.032 10.229 10.232 10.229 12.072C10.229 13.32 10.933 14.2 11.813 14.824V14.904C10.725 15.48 9.701 16.52 9.701 18.072C9.701 19.896 11.333 21.208 13.541 21.208ZM14.309 14.456C12.997 13.944 11.877 13.352 11.877 12.072C11.877 11.016 12.597 10.36 13.557 10.36C14.709 10.36 15.365 11.176 15.365 12.264C15.365 13.048 15.013 13.8 14.309 14.456ZM13.573 19.88C12.309 19.88 11.333 19.064 11.333 17.896C11.333 16.872 11.893 15.992 12.709 15.432C14.309 16.088 15.605 16.632 15.605 18.072C15.605 19.176 14.773 19.88 13.573 19.88ZM19.562 9.304V10.648H24.714C24.426 13.976 22.634 16.52 18.842 18.344L19.722 19.656C24.682 17.256 26.41 13.608 26.41 9.304H19.562ZM29.018 7.784V22.232H30.666V7.784H29.018Z" fill="#8B6517"/>
</svg>
