<svg width="188" height="234" viewBox="0 0 188 234" fill="none" xmlns="http://www.w3.org/2000/svg">
<path d="M80.5823 211.28V229.76H83.2223V211.28H80.5823ZM73.3223 212.58C70.5423 212.58 68.4823 215.1 68.4823 219.14C68.4823 223.2 70.5423 225.74 73.3223 225.74C76.1023 225.74 78.1623 223.2 78.1623 219.14C78.1623 215.1 76.1023 212.58 73.3223 212.58ZM73.3223 214.96C74.6823 214.96 75.6223 216.42 75.6223 219.14C75.6223 221.88 74.6823 223.34 73.3223 223.34C71.9623 223.34 71.0223 221.88 71.0223 219.14C71.0223 216.42 71.9623 214.96 73.3223 214.96ZM99.6008 211.28V218.34H98.1008V211.58H95.6408V223.5C92.9208 222.08 92.0008 219.02 92.0008 215.8V215.3H94.7608V213.16H86.4208V215.3H89.4408V215.8C89.4408 219.34 88.5608 222.6 85.8208 224.2L87.4008 226.2C89.1208 225.18 90.2008 223.44 90.8008 221.32C91.4608 223.16 92.5208 224.64 94.1608 225.52L95.6408 223.54V228.88H98.1008V220.5H99.6008V229.7H102.101V211.28H99.6008ZM115.199 212.92H111.099V211.2H108.439V212.92H104.359V215H115.199V212.92ZM107.779 218.96C107.779 218.04 108.579 217.58 109.779 217.58C110.959 217.58 111.779 218.04 111.779 218.96C111.779 219.9 110.959 220.36 109.779 220.36C108.579 220.36 107.779 219.9 107.779 218.96ZM114.299 218.96C114.299 216.96 112.439 215.58 109.779 215.58C107.139 215.58 105.259 216.96 105.259 218.96C105.259 220.98 107.139 222.36 109.779 222.36C112.439 222.36 114.299 220.98 114.299 218.96ZM106.579 225.72H116.219V229.74H118.859V223.6H106.579V225.72ZM121.299 216.04H118.859V211.3H116.219V222.84H118.859V218.22H121.299V216.04Z" fill="#111111"/>
<path d="M0 104C0 52.0852 42.0852 10 94 10C145.915 10 188 52.0852 188 104V178C188 189.046 179.046 198 168 198H20C8.9543 198 0 189.046 0 178V104Z" fill="#FFE1A4"/>
<mask id="mask0_322_1481" style="mask-type:alpha" maskUnits="userSpaceOnUse" x="0" y="10" width="188" height="188">
<path d="M0 10H188V178C188 189.046 179.046 198 168 198H20C8.9543 198 0 189.046 0 178V10Z" fill="#D9D9D9"/>
</mask>
<g mask="url(#mask0_322_1481)">
<path d="M145.055 181.043C144.625 181.35 144.133 181.658 143.703 181.965C143.212 182.272 142.782 182.579 142.29 182.825C141.86 183.071 141.491 183.316 141.061 183.562C141 183.624 140.938 183.624 140.877 183.685C139.464 184.545 137.989 185.344 136.515 186.081C136.085 186.327 135.593 186.573 135.163 186.757C135.163 186.757 135.102 186.818 135.04 186.818C134.549 187.064 134.057 187.31 133.566 187.556C132.583 188.047 131.538 188.477 130.555 188.907C130.064 189.153 129.511 189.337 129.02 189.522C128.528 189.706 127.975 189.952 127.484 190.136C126.992 190.32 126.439 190.566 125.948 190.75C125.948 190.75 125.948 190.75 125.886 190.75C125.395 190.935 124.842 191.119 124.35 191.303C123.244 191.672 122.077 192.041 120.971 192.409C120.603 192.532 120.172 192.655 119.804 192.778C118.637 193.146 117.469 193.454 116.302 193.699C115.872 193.822 115.442 193.884 114.95 194.007C113.844 194.252 112.677 194.498 111.571 194.744C111.325 194.805 111.141 194.805 110.895 194.867C110.527 194.928 110.097 194.99 109.728 195.051C109.175 195.112 108.684 195.235 108.131 195.297C107.885 195.358 107.639 195.358 107.393 195.42C107.086 195.481 106.718 195.543 106.349 195.543C105.366 195.665 104.322 195.788 103.338 195.911C103.031 195.973 102.663 195.973 102.355 196.034H102.294C101.864 196.095 101.434 196.095 101.004 196.157C100.574 196.218 100.144 196.218 99.7137 196.218C99.4679 196.218 99.1607 196.28 98.915 196.28C98.4235 196.28 97.9934 196.341 97.5633 196.341C96.949 196.341 96.396 196.403 95.7816 196.403C95.1673 196.403 94.6143 196.403 93.9999 196.403C93.5699 196.403 93.1398 196.403 92.7097 196.403C66.7829 196.034 43.498 185.037 26.8483 167.588C26.8483 167.588 26.8483 167.527 26.7869 167.527C24.9437 165.868 26.5411 157.021 33.9751 151.43C43.3137 144.365 65.6771 139.941 65.6771 139.941C65.6771 139.941 74.3398 138.528 106.472 145.225C125.272 149.157 139.587 154.871 147.574 170.353C149.233 173.548 150.891 178.463 145.055 181.043Z" fill="white"/>
<path d="M106.656 144.549C118.452 146.945 131.047 149.526 140.754 157.328C144.011 159.97 146.161 163.841 147.943 167.588C148.803 169.431 149.663 171.336 150.339 173.363C150.707 174.715 151.26 176.251 150.953 177.848C150.892 178.279 150.523 178.831 150.216 179.139C148.803 180.552 147.267 181.412 145.731 182.518C136.699 188.784 126.316 193.208 115.565 195.543C91.6041 200.765 65.6773 196.71 44.6041 184.115C37.6001 179.876 31.1492 174.715 25.6198 168.633C25.0054 167.896 25.0054 166.667 25.0054 165.868C25.0668 164.025 25.5583 162.243 26.1727 160.584C27.6472 156.775 29.5518 152.966 32.808 150.324C35.1426 148.727 37.6616 147.375 40.242 146.269C48.3518 142.829 56.8916 140.433 65.6773 139.45C66.4145 139.388 66.5374 140.433 65.8001 140.556C57.3831 142.276 49.0276 144.856 41.225 148.358C38.3988 149.771 35.3884 151 33.1152 153.212C30.9648 155.546 29.4289 158.434 28.2001 161.383C27.4015 163.165 26.8485 165.991 27.0943 167.404C30.9648 172.012 35.5113 176.067 40.4263 179.569C67.3361 198.369 108.192 199.597 136.822 183.931C139.403 182.518 141.922 180.92 144.318 179.262C145.485 178.463 146.714 177.787 147.635 176.865C147.697 176.804 147.635 176.865 147.635 176.927C147.635 176.988 147.574 177.05 147.574 177.05C147.635 176.312 147.39 175.329 147.082 174.346C145.977 170.783 144.195 167.035 142.29 163.779C139.28 158.926 134.181 155.854 129.02 153.396C125.456 151.737 121.709 150.447 117.899 149.218C114.09 147.99 110.22 146.945 106.349 146.024C105.366 145.778 105.673 144.365 106.656 144.549Z" fill="black"/>
<path d="M153.472 189.767C152.304 180.674 147.144 165.376 144.01 161.26C140.57 156.775 139.157 155.362 127.668 151.491C127.053 148.419 124.78 140.678 122.077 137.422C117.961 131.217 106.717 129.804 103.338 130.541C103.338 130.541 85.1527 124.151 64.2023 124.151C57.5671 125.626 49.8873 128.636 45.7095 134.965C42.8834 139.142 46.0782 140.494 44.6651 144.303C44.2965 145.286 35.6952 150.201 32.1932 153.15C30.5958 154.44 28.8141 157.697 27.5854 161.936C25.1278 170.599 27.7697 182.579 24.6978 193.023C18.7997 213.175 6.81934 219.196 6.81934 219.196H165.575C165.452 219.134 155.991 208.936 153.472 189.767Z" fill="white"/>
<path d="M152.55 189.89C151.321 181.842 148.864 173.855 145.731 166.36C144.195 162.735 141.86 159.233 138.604 157.082C136.945 156.038 135.102 155.239 133.197 154.441C131.293 153.703 129.327 153.027 127.422 152.352C127.115 152.229 126.869 151.983 126.808 151.676C126.562 150.447 126.255 149.28 125.886 148.051C124.289 143.075 122.568 137.545 117.899 134.658C114.336 132.507 110.097 131.463 105.98 131.278C105.182 131.278 104.321 131.278 103.584 131.401H103.338C103.277 131.401 103.154 131.401 103.093 131.34C100.144 129.927 96.8874 129.067 93.6926 128.207C84.1083 125.995 74.0939 125.073 64.2639 125.012C58.243 126.425 49.826 129.743 46.1397 135.886C45.5253 136.869 45.2181 137.852 45.341 138.958C45.4639 140.187 45.8939 141.539 45.5868 142.829C45.4639 143.382 45.341 143.996 45.0953 144.488C44.6037 145.163 43.8051 145.594 43.1907 146.024C39.9959 148.112 36.7397 149.956 33.6678 152.106C32.6234 152.843 31.6403 153.519 30.9031 154.563C28.7528 157.635 27.4626 161.322 26.9096 165.008C25.9266 172.503 26.9096 180.122 25.9266 187.617C24.8207 195.112 21.9332 202.362 17.8783 208.752C15.0521 213.052 11.6116 217.046 7.2495 219.81L6.81943 218.09H165.575L164.899 219.626C163.056 217.537 161.582 215.264 160.23 212.868C156.052 205.864 153.595 197.939 152.55 189.89ZM154.393 189.644C155.069 194.867 156.359 200.027 158.325 204.943C160.291 209.796 162.749 214.527 166.189 218.52C166.681 219.073 166.251 220.118 165.514 220.056H6.75799C6.26649 220.056 5.83643 219.626 5.83643 219.135C5.83643 218.766 6.02074 218.459 6.32793 218.336C7.31094 217.783 8.29394 216.984 9.21551 216.186C17.2639 208.936 22.3018 198.184 23.9606 187.494C25.3737 177.48 22.7319 166.667 27.2168 157.144C28.2613 154.932 29.5515 152.597 31.6403 151.184C35.4495 148.358 39.6273 146.269 43.375 143.505C43.4364 143.505 43.4364 143.443 43.4364 143.443C43.375 143.505 43.3136 143.627 43.3136 143.689C43.6822 142.829 43.8051 142.092 43.6822 141.109C43.4979 139.88 43.1907 138.221 43.6207 136.931C43.8051 136.194 44.1737 135.518 44.5423 134.965C48.9658 128.329 56.7685 125.38 64.2024 123.722C66.2913 123.783 68.4417 123.414 70.5305 123.414C73.4181 123.414 76.3671 123.844 79.2547 124.213C87.5488 125.503 95.5358 127.715 103.707 129.497L103.154 129.435C105.059 129.067 106.84 129.251 108.683 129.497C120.48 131.278 124.473 136.439 127.668 147.437C128.036 148.665 128.344 149.894 128.651 151.184L128.036 150.447C133.934 152.536 140.57 154.441 144.317 159.909C145.669 161.567 146.652 163.533 147.512 165.499C150.646 173.363 153.103 181.289 154.393 189.644Z" fill="black"/>
<path d="M56.6457 149.341C61.1921 159.049 68.2574 167.281 76.6744 173.794C76.9816 174.039 76.6744 174.531 76.3058 174.347C68.8104 170.783 62.4823 164.701 58.7345 157.328C57.5058 154.871 56.4613 152.229 56.0927 149.464C55.9698 149.157 56.4613 149.034 56.6457 149.341Z" fill="black"/>
<path d="M128.589 151.369C128.774 161.629 124.596 172.135 116.609 178.77C116.425 178.954 116.179 178.893 115.995 178.709C115.81 178.524 115.872 178.279 116.056 178.094C117.838 176.374 119.619 174.592 120.971 172.503C123.797 168.449 125.517 163.656 126.316 158.803C126.685 156.407 126.931 153.826 126.746 151.43C126.685 150.263 128.528 150.14 128.589 151.369Z" fill="black"/>
<path d="M92.4025 175.759C90.9895 180.736 89.8221 186.143 90.498 191.303C90.6823 192.471 88.9006 192.778 88.6548 191.549C88.3476 188.723 88.7163 185.958 89.2078 183.255C89.7607 180.552 90.4365 177.971 91.3581 175.391C91.6038 174.777 92.6483 175.084 92.4025 175.759Z" fill="black"/>
<path d="M111.94 174.838C113.967 179.2 115.38 183.746 116.486 188.354C116.609 188.846 116.302 189.337 115.81 189.46C115.319 189.583 114.827 189.276 114.704 188.784C114.09 185.344 113.291 181.903 112.186 178.524C111.817 177.418 111.448 176.312 111.018 175.207C110.772 174.654 111.633 174.224 111.94 174.838Z" fill="black"/>
<path d="M45.9552 144.058C48.2284 156.468 56.9526 166.974 67.4584 173.671C71.0218 175.944 74.831 177.91 78.763 179.507C79.0088 179.63 79.1316 179.876 79.0088 180.122C78.9473 180.367 78.6401 180.49 78.4558 180.367C74.4009 178.893 70.4689 177.05 66.7826 174.838C59.2872 170.414 52.7133 164.271 48.2898 156.775C46.0166 152.905 44.2349 148.85 43.3748 144.426C43.2519 143.689 43.7434 143.013 44.4807 142.89C45.1565 142.706 45.8937 143.259 45.9552 144.058Z" fill="black"/>
<path d="M88.7158 192.655C86.9956 192.471 85.7668 190.873 86.1354 189.153L86.8113 185.897C87.057 184.607 88.2858 183.685 89.576 183.869C90.8662 183.992 91.9106 185.098 91.9106 186.45V189.767C91.972 191.488 90.4975 192.839 88.7158 192.655Z" fill="black"/>
<path d="M117.039 190.382C115.38 190.996 113.599 190.013 113.169 188.293L112.37 185.037C112.063 183.746 112.738 182.456 114.029 181.965C115.257 181.535 116.671 182.088 117.223 183.255L118.698 186.265C119.435 187.924 118.698 189.829 117.039 190.382Z" fill="black"/>
<path d="M145.423 188.539C145.423 188.539 148.864 207.83 147.512 219.135" stroke="black" stroke-width="5.1257" stroke-miterlimit="10" stroke-linecap="round" stroke-linejoin="round"/>
<path d="M65.185 141.846C64.3249 139.388 63.9563 136.869 64.1406 134.289C64.1406 134.043 64.3249 133.92 64.5707 133.92C64.755 133.92 64.9393 134.105 64.9393 134.289C65.1236 136.624 65.7994 139.02 66.9053 141.047C67.4583 142.276 65.6151 143.075 65.185 141.846Z" fill="black"/>
<path d="M106.717 145.102C104.997 141.231 100.758 139.265 97.0099 137.914C94.6753 137.177 92.0949 136.624 89.6374 136.255C83.6779 135.333 75.2609 133.92 69.3014 133.306C69.24 133.306 69.24 133.183 69.3014 133.183C71.0217 132.999 72.742 132.999 74.4622 132.999C79.623 133.122 84.7838 133.675 89.8831 134.473C94.9825 135.272 100.45 136.808 104.321 140.494C105.55 141.784 106.656 143.259 106.963 145.041C107.024 145.225 106.779 145.286 106.717 145.102Z" fill="black"/>
<path d="M112.431 160.892C111.141 167.22 102.785 171.029 88.7157 165.315C74.0935 159.417 67.7654 145.348 66.168 141.17C74.8307 124.95 68.8098 113.707 68.8098 113.707C88.7771 111.987 106.225 135.333 106.225 135.333L108.929 146.884C109.175 147.867 109.666 148.727 110.403 149.341C111.693 151.614 113.229 156.837 112.431 160.892Z" fill="white"/>
<path d="M65.8612 141.354C67.0285 139.573 67.7658 137.484 68.2573 135.456C69.1789 131.217 69.486 126.916 69.5475 122.616V121.018C69.3632 119.421 68.8102 117.762 68.1958 116.288C67.3972 114.322 70.2847 113.093 71.2063 115.059C71.3292 115.305 71.3292 115.735 71.3292 115.98C71.5135 124.336 71.8821 135.088 66.5985 142.03C66.2298 142.399 65.4926 141.846 65.8612 141.354Z" fill="black"/>
<path d="M106.901 135.211C107.823 135.764 108.13 136.501 108.253 137.238C108.622 138.713 108.499 140.31 108.867 141.846C109.175 143.32 110.096 144.733 110.342 146.269C110.649 147.867 111.571 151.246 111.939 152.905C112.062 153.273 111.816 153.703 111.386 153.765C111.141 153.826 110.956 153.765 110.772 153.642C109.973 152.966 109.605 152.29 109.113 151.43C108.314 149.956 107.762 148.604 107.27 146.945C106.84 145.471 107.024 143.873 106.656 142.337C106.348 140.863 105.488 139.45 105.181 137.914C104.997 137.177 104.935 136.378 105.488 135.456C105.857 135.088 106.471 134.965 106.901 135.211Z" fill="black"/>
<path d="M111.325 151.43C99.5908 150.816 90.0065 147.13 80.668 130.48C88.532 137.422 97.8091 140.064 107.578 141.293L108.868 146.945C109.114 147.928 110.588 150.816 111.325 151.43Z" fill="black"/>
<path d="M110.834 149.157C112.923 153.089 114.152 158.004 112.861 162.366C111.878 165.438 109.052 167.711 105.98 168.571C98.8537 170.476 90.621 167.466 84.2929 164.086C76.4903 159.724 70.7151 152.413 67.0288 144.426C66.7831 143.812 67.6432 143.32 68.0118 143.935C69.302 146.515 70.7765 149.034 72.4354 151.307C74.0942 153.642 75.9988 155.792 78.1491 157.697C84.4157 163.349 92.8942 166.851 101.373 166.851C110.097 166.605 113.414 161.998 111.387 153.519C111.08 152.167 110.588 150.754 109.912 149.587C109.544 149.096 110.465 148.543 110.834 149.157Z" fill="black"/>
<path d="M134.611 75.3701C135.716 80.5309 134.856 83.9714 134.365 98.225C133.873 112.233 129.818 132.016 124.842 136.992C121.033 140.74 108.807 143.689 97.9321 140.924C92.4027 139.511 87.7334 136.316 83.9243 134.043C79.1321 131.156 74.9543 122.247 71.5138 116.533C68.8105 112.049 69.0563 117.455 65.5543 113.584C60.7007 108.301 54.8641 97.672 57.7517 78.872C62.421 48.3988 86.5661 44.8354 104.445 48.2145C122.446 51.5936 131.662 61.7923 134.611 75.3701Z" fill="white"/>
<path d="M68.6263 118.991C67.2133 116.656 65.3701 114.567 63.7113 112.356C61.2538 108.977 59.4106 105.106 58.1819 101.113C52.8368 84.0328 56.093 61.6694 72.2512 51.5936C86.9348 42.255 115.442 45.6341 127.361 58.4132C131.846 63.021 134.734 69.0419 135.962 75.3086C136.024 75.6772 136.208 76.353 136.269 76.7217C136.331 77.0288 136.515 77.3975 136.454 77.7661C136.331 79.1177 136.085 80.4694 135.962 81.821C135.041 89.9922 135.286 98.3478 134.242 106.519C133.32 115.12 132.092 123.722 129.511 132.016C128.713 134.535 127.177 136.808 125.149 138.467C120.603 142.276 114.643 143.566 108.93 143.812C97.5021 144.365 85.8904 140.31 79.2551 130.664C79.0093 130.296 79.5008 129.865 79.808 130.234C85.3374 136.194 92.8329 140.003 100.82 140.863C109.667 141.907 122.999 141.109 126.869 131.647C131.354 118.254 133.689 104.062 133.935 89.9922C133.935 86.5517 133.751 83.1112 133.751 79.6092C133.751 79.1792 133.812 78.1962 133.812 77.7661C133.812 77.7661 133.812 77.7047 133.812 77.7661C133.812 77.8275 133.812 77.8275 133.812 77.7661C133.32 76.5373 133.136 75.1857 132.768 73.957C131.416 68.8576 128.958 64.004 125.456 60.1334C113.845 47.1086 87.9793 43.8524 73.4799 53.621C61.991 61.2393 58.9191 75.8615 58.1204 88.7635C57.4446 98.4092 60.2708 107.871 67.5819 114.506L70.4695 117.516C71.6982 118.868 69.6093 120.465 68.6263 118.991Z" fill="black"/>
<path d="M75.8761 99.4536C75.8761 99.4536 73.9715 90.238 65.0016 91.3438C57.2604 92.3268 54.5571 110.881 72.1284 116.042" fill="white"/>
<path d="M71.3293 107.994C69.9162 107.195 68.9332 105.843 68.8718 104.184C68.9332 102.956 69.1176 101.543 68.8104 100.314C68.626 99.1466 67.3973 98.8394 66.4757 98.9008C65.4927 99.0851 64.8783 100.314 64.694 101.297C64.694 101.358 64.6326 101.543 64.6326 101.604C64.5711 101.911 64.0796 101.911 63.9568 101.604C63.1581 99.208 64.9398 96.5662 67.5202 96.8733C71.145 97.1191 71.6365 100.928 70.9607 103.816C70.5921 105.045 71.0836 106.15 71.7594 107.195L71.8823 107.379C72.1894 107.748 71.6979 108.239 71.3293 107.994Z" fill="black"/>
<path d="M120.48 92.9412C121.402 97.3033 123.122 101.358 125.272 105.167C127.177 109.837 122.262 114.26 117.9 114.076C117.408 114.076 117.347 113.4 117.777 113.277C120.542 112.417 123.061 110.574 123.491 107.748C123.675 106.888 123.429 106.15 122.999 105.413C120.972 101.604 119.743 97.2419 120.05 92.9412C120.05 92.634 120.48 92.634 120.48 92.9412Z" fill="black"/>
<path d="M75.5686 99.5151C74.1555 95.8902 71.0836 92.4497 66.9673 92.5112C66.5987 92.4497 65.9843 92.5726 65.6156 92.5726C64.5712 92.634 63.7111 93.0027 62.9124 93.7399C58.9804 97.6719 59.6562 104.614 62.8509 108.977C63.9568 110.512 65.3699 111.864 66.9673 112.97C68.5647 114.076 70.3464 114.936 72.2509 115.673C72.681 115.796 72.4967 116.472 72.0666 116.41C67.9503 115.55 64.0183 113.523 61.315 110.144C57.1372 105.106 56.2771 96.6889 61.2536 91.7739C62.3594 90.7909 63.8954 90.0536 65.4313 90.0536C65.9228 90.0536 66.6601 89.9308 67.1516 90.0536C69.732 90.1765 72.1895 91.4667 73.7869 93.4942C75.2 95.2144 75.9987 97.3033 76.2444 99.3922C76.2444 99.7608 75.6915 99.8837 75.5686 99.5151Z" fill="black"/>
<path d="M114.397 119.974C114.459 122.001 111.448 127.162 105.673 124.766C100.082 122.493 98.4235 111.803 106.41 116.902C110.465 119.605 113.046 120.035 114.397 119.974Z" fill="white"/>
<path d="M115.687 120.035C114.029 120.588 112.431 120.097 110.895 119.544C108.622 118.745 106.779 117.271 104.629 116.226C101.68 114.813 100.512 116.718 101.311 119.482C102.11 122.431 104.69 125.012 107.885 125.135C110.711 125.442 113.721 122.862 113.476 119.974C113.23 118.745 115.012 118.377 115.319 119.544C115.257 121.633 113.967 123.107 112.615 124.336C109.912 126.548 105.796 126.056 103.093 124.029C101.004 122.37 99.2835 119.728 99.6521 116.902C99.775 115.673 100.942 114.26 102.232 114.199C105.243 113.953 107.025 115.98 109.359 117.332C111.202 118.377 113.291 119.667 115.442 119.482C115.81 119.36 116.056 119.851 115.687 120.035Z" fill="black"/>
<path d="M101.434 117.762C102.417 119.175 103.952 119.912 105.55 120.281C105.918 120.404 106.226 120.404 106.533 120.404C107.086 120.404 107.639 120.834 107.946 121.141C109.42 122.309 111.448 122.493 113.291 122.554C113.721 122.554 113.721 123.292 113.291 123.23C111.325 123.107 109.236 122.923 107.393 122.001C107.024 121.878 106.84 121.756 106.533 121.756C105.366 121.878 104.444 121.141 103.584 120.65C102.601 120.097 101.618 119.544 100.45 119.298C99.8975 119.175 99.5904 118.684 99.6518 118.131C99.7747 117.271 101.003 117.025 101.434 117.762Z" fill="black"/>
<path d="M106.594 86.4288C107.946 86.6131 108.99 85.2 108.499 83.8484C108.253 83.1111 107.823 82.4353 107.147 82.0052C105.058 80.715 97.2558 80.5922 93.1394 83.5412C89.4532 86.2445 100.451 85.5686 106.594 86.4288Z" fill="black"/>
<path d="M123.613 87.1046C122.507 87.1046 121.831 85.6915 122.384 84.5242C122.691 83.9098 123.121 83.3569 123.736 83.0497C125.64 82.1281 130.739 82.6811 133.013 85.8144C135.04 88.5791 128.712 87.0431 123.613 87.1046Z" fill="black"/>
<path d="M104.321 94.3543C101.188 93.0026 97.6244 93.3713 94.3682 94.1085C93.9996 94.2314 93.7538 93.7399 94.061 93.4941C96.8872 91.1595 102.232 90.8523 104.505 94.0471C104.69 94.1699 104.567 94.4157 104.321 94.3543Z" fill="black"/>
<path d="M128.466 95.6444C126.992 94.6 124.842 94.7843 123.121 94.9686C122.507 95.0301 121.893 95.1529 121.217 95.3372C121.032 95.3987 120.848 95.0915 120.971 94.9686L121.094 94.8458C122.63 93.2484 125.026 92.8797 127.115 93.6784C127.852 93.9856 128.589 94.4157 128.958 95.2758C129.142 95.583 128.712 95.8902 128.466 95.6444Z" fill="black"/>
<path d="M136.515 47.1701C121.77 42.9923 120.172 50.6106 105.427 42.5008C90.6823 34.3295 63.9568 39.7975 58.9803 58.7818C58.9803 58.7818 50.7477 63.8197 50.1947 81.2067C49.8261 92.8799 55.9084 103.57 59.9019 109.284C62.6052 113.707 65.4313 116.964 67.0901 119.913C69.732 124.643 71.0222 129.804 71.0222 129.804C71.6365 123.906 73.0496 118.499 72.1895 116.103L70.162 115.428C54.8026 109.53 57.5673 92.3884 65.0627 91.4054C72.9267 90.4223 75.3843 97.4263 75.8143 99.1465C76.8588 97.8563 76.4901 93.9857 76.2444 89.3779C88.532 95.4603 100.82 81.6367 104.936 70.9465C110.035 57.7374 121.278 68.0589 121.278 68.0589C121.278 68.0589 132.399 88.8864 144.195 79.6093C154.639 71.2537 152.55 51.655 136.515 47.1701Z" fill="black"/>
<path d="M124.043 107.133C124.043 107.133 124.781 111.311 129.634 113.4C130.863 113.892 132.153 113.093 132.153 111.741C132.092 111.741 124.351 107.625 124.043 107.133Z" fill="black"/>
<path d="M86.0747 107.133C86.0747 107.133 88.3479 112.294 95.1675 113.523C101.987 114.813 108.192 109.898 111.08 101.665C111.08 101.665 108.745 109.284 99.4067 110.697C90.191 112.233 86.0747 107.133 86.0747 107.133Z" fill="black"/>
<path d="M112.432 95.6446C112.247 104.43 105.182 111.496 96.6422 111.496C88.1023 111.496 81.2827 104.43 81.2827 95.6446C81.3442 86.7975 88.4095 79.5479 97.0723 79.5479C105.735 79.5479 112.677 86.7975 112.432 95.6446Z" stroke="black" stroke-width="3" stroke-miterlimit="10" stroke-linecap="round" stroke-linejoin="round"/>
<path d="M120.849 93.6171C121.832 85.6916 126.992 79.4863 133.075 79.4863C139.649 79.4863 144.687 86.736 144.318 95.5831C143.949 104.369 138.42 111.434 131.969 111.434C129.573 111.434 127.422 110.512 125.641 108.854" stroke="black" stroke-width="3" stroke-miterlimit="10" stroke-linecap="round" stroke-linejoin="round"/>
<path d="M81.4669 93.9242H72.7427" stroke="black" stroke-width="3" stroke-miterlimit="10" stroke-linecap="round" stroke-linejoin="round"/>
<path d="M112.493 93.9243C112.493 93.9243 119.804 91.0981 120.726 93.9243" stroke="black" stroke-width="3" stroke-miterlimit="10" stroke-linecap="round" stroke-linejoin="round"/>
</g>
<path d="M0.704 21H8.304V19.432H5.36C4.784 19.432 4.048 19.48 3.44 19.544C5.936 17.16 7.744 14.808 7.744 12.536C7.744 10.408 6.352 9 4.192 9C2.656 9 1.616 9.672 0.608 10.76L1.648 11.784C2.272 11.064 3.04 10.472 3.968 10.472C5.28 10.472 5.968 11.352 5.968 12.632C5.968 14.568 4.176 16.856 0.704 19.928V21ZM9.669 21H17.269V19.432H14.325C13.749 19.432 13.013 19.48 12.405 19.544C14.901 17.16 16.709 14.808 16.709 12.536C16.709 10.408 15.317 9 13.157 9C11.621 9 10.581 9.672 9.573 10.76L10.613 11.784C11.237 11.064 12.005 10.472 12.933 10.472C14.245 10.472 14.933 11.352 14.933 12.632C14.933 14.568 13.141 16.856 9.669 19.928V21ZM19.562 9.304V10.648H24.714C24.426 13.976 22.634 16.52 18.842 18.344L19.722 19.656C24.682 17.256 26.41 13.608 26.41 9.304H19.562ZM29.018 7.784V22.232H30.666V7.784H29.018Z" fill="#8B6517"/>
</svg>
