<svg width="120" height="40" viewBox="0 0 120 40" fill="none" xmlns="http://www.w3.org/2000/svg">
<g clip-path="url(#clip0_250_275)">
<path d="M6.24878 12.7169V28.1388L18.0812 33.4568L29.9136 28.1388V12.7169L18.0812 7.39893L6.24878 12.7169Z" fill="#31332F"/>
<path d="M39.087 10.3237V14.0463H42.5436C42.8093 14.0079 43.0803 14.0275 43.3378 14.1037C43.5952 14.1799 43.8332 14.3109 44.0353 14.4877C44.2374 14.6645 44.3987 14.883 44.5084 15.1281C44.6181 15.3731 44.6736 15.6391 44.6708 15.9076C44.6888 16.2045 44.648 16.502 44.5507 16.7831C44.4535 17.0643 44.3016 17.3234 44.104 17.5457C43.9064 17.768 43.6669 17.9492 43.3991 18.0787C43.1313 18.2083 42.8406 18.2837 42.5436 18.3006H39.087V14.0463H34.3008V31.0637H43.6072C44.4146 31.1178 45.2247 31.0075 45.9884 30.7395C46.752 30.4715 47.4533 30.0514 48.0499 29.5045C48.6464 28.9577 49.1258 28.2955 49.4591 27.558C49.7924 26.8205 49.9726 26.0231 49.9887 25.2139C49.9707 24.0387 49.5909 22.8976 48.901 21.946C48.2111 20.9944 47.2446 20.2786 46.1332 19.896V19.896C46.9613 19.5728 47.6717 19.0056 48.1703 18.2696C48.6688 17.5336 48.9321 16.6636 48.9251 15.7746C48.9251 12.318 46.0002 10.4567 42.5436 10.4567L39.087 10.3237ZM43.0754 26.8093H39.087V22.0232H42.5436C42.928 21.9866 43.3158 22.0266 43.6847 22.1407C44.0536 22.2548 44.3962 22.4408 44.6929 22.688C44.9895 22.9352 45.2343 23.2386 45.413 23.5809C45.5918 23.9232 45.701 24.2975 45.7344 24.6821C45.7344 26.2775 44.2719 26.8093 43.0754 26.8093V26.8093Z" fill="white"/>
<path d="M62.4858 10.3237H58.2314L50.7864 31.0637H56.1043L57.5667 26.2775H64.2141L65.6766 31.0637H70.9945L63.5494 10.3237H62.4858ZM58.7633 22.0232L60.8904 15.1099L63.0176 22.0232H58.7633Z" fill="white"/>
<path d="M86.2837 30.0001H82.0293L77.775 19.0983H77.5091V20.4278C77.8883 23.9601 78.0659 27.5111 78.0409 31.0637H73.3877V10.3237H78.7056L84.1565 24.1503L89.4744 10.3237H94.7923V31.0637H90.0062C89.9812 27.5111 90.1588 23.9601 90.538 20.4278V19.0983H90.2721L86.2837 30.0001Z" fill="white"/>
<path d="M106.891 10.3237H99.3125V31.0637H104.099V24.1503H104.232C108.486 24.5492 114.734 25.3469 114.734 17.1041C114.734 11.9191 110.746 10.3237 106.891 10.3237ZM104.099 20.4278V14.0463H105.96C107.954 14.0463 110.48 14.5781 110.48 16.9711C110.48 21.4914 106.359 20.8266 104.099 20.4278Z" fill="white"/>
<path d="M18.0812 17.6358L28.0523 13.1156L18.0812 8.72827L8.11011 13.1156L18.0812 17.6358Z" fill="#EBB23D"/>
<path d="M18.7458 18.6994V31.8613L28.717 27.3411V14.1792L18.7458 18.6994Z" fill="white"/>
<path d="M17.5494 18.6994L7.44531 14.1792V27.3411L17.5494 31.8613V18.6994Z" fill="white"/>
<path d="M36.8269 7H32.0408V11.7861H36.8269V7Z" fill="#EBB23D"/>
</g>
<defs>
<clipPath id="clip0_250_275">
<rect width="108.85" height="26.4567" fill="white" transform="translate(6 7)"/>
</clipPath>
</defs>
</svg>
